<svg xmlns="http://www.w3.org/2000/svg" width="432" height="423" fill="none" viewBox="0 0 432 423">
  <path fill="#FDEAFF" d="M424.346 293.845a10.004 10.004 0 0 0-1.128-.746c-4.49-2.631-7.971-6.642-9.902-11.411-.242-.565-.476-1.131-.71-1.705a52.144 52.144 0 0 1-3.384-16.174c-.268-3.91-.468-7.812-.769-11.714-.167-2.115-.376-4.239-.752-6.329a42.778 42.778 0 0 0-5.222-13.772 29.228 29.228 0 0 0-8.206-9.099 40.439 40.439 0 0 0-6.334-3.632 14.078 14.078 0 0 0-5.373-1.517c-.509-.007-1-.19-1.387-.516a4.42 4.42 0 0 0-2.506-.943 1.072 1.072 0 0 1-.687-.259 1.037 1.037 0 0 1-.35-.634c-.225-.755-.559-1.468-.835-2.206a26.42 26.42 0 0 0-6.944-10.656c-3.831-3.839-9.055-6.035-14.531-6.108-2.337.01-4.669.244-6.96.697a16.022 16.022 0 0 0-7.704 3.337c-.61.5-1.237.975-1.864 1.459-.493.606-.961 1.238-1.479 1.82a11.262 11.262 0 0 0-1.922 3.147 46.181 46.181 0 0 0-2.958 10.354c-.225 1.377-.334 2.771-.459 4.165-.084.885-.092 1.778-.159 2.672a55.948 55.948 0 0 0 1.295 15.149c.043.391.13.776.259 1.148.368.82-.083 1.238-.685 1.64a24.196 24.196 0 0 1-5.197 2.459 122.074 122.074 0 0 1-12.141 3.361c-2.775.664-5.574 1.148-8.356 1.598a458.978 458.978 0 0 1-9.777 1.533c-.618.091-1.245.123-1.871.181-.335 0-.686 0-1.02.098a.694.694 0 0 0-.45.216.677.677 0 0 0-.185.456.585.585 0 0 0 .225.431.612.612 0 0 0 .477.127c1.195-.058 2.381-.148 3.677-.23-.418.681-.109 1.205.2 1.763l6.91 12.296c.268.484.519.984.761 1.435a.613.613 0 0 1-.577.377l-8.506.746a6.522 6.522 0 0 1-.685 0c-.719 0-.836-.115-1.02-.82-.292-1.418-.551-2.853-.835-4.279a67.365 67.365 0 0 0-1.713-8.026 18.314 18.314 0 0 0-2.866-5.861 3.312 3.312 0 0 0-.568-.615.502.502 0 0 0-.635 0c-.168.131-.343.32-.243.566.076.212.18.413.309.598 1.872 2.558 2.724 5.509 3.343 8.526.618 3.017 1.086 5.82 1.671 8.73a56.876 56.876 0 0 1 1.086 9.838c.05 2.12.106 4.243.167 6.369.003.336.039.671.109 1a.56.56 0 0 0 .211.352.58.58 0 0 0 .399.116c.145 0 .286-.05.398-.142a.607.607 0 0 0 .212-.358c.067-.385.092-.775.075-1.165 0-2.065-.134-4.098-.159-6.197-.025-2.099-.242-4.099-.459-6.189 0-.271 0-.549-.042-.82.309-.328.668-.205 1.003-.238 3.058-.254 6.125-.508 9.191-.819 1.412-.132 2.824-.32 4.245-.451 3.849-.405 7.672-1.03 11.448-1.869a65.726 65.726 0 0 1 9.475-1.173 20.606 20.606 0 0 1 4.429.32 4.658 4.658 0 0 1 1.896.721 4.56 4.56 0 0 1 1.396 1.451 724.965 724.965 0 0 0 3.911 5.895 7.579 7.579 0 0 0 1.345 1.729.503.503 0 0 0 .618.099.569.569 0 0 0 .295-.294.547.547 0 0 0 .014-.411 4.489 4.489 0 0 0-.434-.714c-1.521-2.36-2.925-4.795-4.579-7.066a1.771 1.771 0 0 1-.167-.443c.133-.385.468-.278.718-.311.401-.049.836-.058 1.195-.099 6.376-.696 12.183.968 17.548 4.173a20.288 20.288 0 0 1 6.918 7.296 24.981 24.981 0 0 1 3.627 12.297c.117 3.705-1.463 6.607-5.014 8.197a21.548 21.548 0 0 1-7.879 2.017c-2.048.098-4.103.139-6.15.246-4.78.238-9.56.442-14.331.77-9.049.632-18.107.566-27.165.566-1.671 0-3.3-.139-4.955-.221-4.888-.254-9.785-.459-14.673-.779a76.318 76.318 0 0 1-9.826-1.197 6.472 6.472 0 0 1-3.051-1.417 6.285 6.285 0 0 1-1.896-2.739 36.174 36.174 0 0 1-1.997-7.091 70.685 70.685 0 0 1-.836-8.198c-.351-6.091-.275-12.182-.158-18.281v-4.353a17.62 17.62 0 0 0-.61-5.066 1.416 1.416 0 0 1 .994-.442c1.721-.378 3.392-.927 5.072-1.46 3.894-1.254 7.796-2.459 11.698-3.73a25.59 25.59 0 0 0 3.46-1.418c1.938-.959 2.565-2.139 2.239-4.23-.326-2.09-1.187-4.058-3.276-5.23a7.635 7.635 0 0 0-2.506-.582 10.944 10.944 0 0 1 .484-4.484 16.303 16.303 0 0 1 2.348-4.632 83.175 83.175 0 0 0 5.081-7.738c.242-.443.501-.886.743-1.328.727-1.328.727-1.353 2.19-1.296 1.019 0 2.047.099 3.058.23 1.295.208 2.611.258 3.919.147 2.039-.221 3.952.378 5.907.73.41.074.527.369.61.705.285 1.254.577 2.509.836 3.763.047.277.111.55.192.82a.684.684 0 0 0 .333.373.707.707 0 0 0 .503.053.578.578 0 0 0 .349-.226.558.558 0 0 0 .102-.397 10.941 10.941 0 0 0-.226-1.484c-1.576-6.864-3.158-13.726-4.746-20.584-.835-3.591-1.587-7.206-2.632-10.747-1.111-3.747-2.206-7.501-3.342-11.256a7.345 7.345 0 0 1-.151-.82.783.783 0 0 1 .836-.065 7.449 7.449 0 0 0 1.855.262c5.442.39 10.913.089 16.277-.893a17.332 17.332 0 0 0 6.743-2.542c.393.213.402.566.502.886 1.989 6.115 3.818 12.296 5.414 18.502.435 1.729 1.02 3.426 1.546 5.132.151.364.225.754.218 1.147.125.246.25.492.392.73a.635.635 0 0 0 .719.311.685.685 0 0 0 .51-.77 25.531 25.531 0 0 0-.485-1.771c-.51-1.713-1.103-3.41-1.538-5.14-1.813-7.157-4.01-14.19-6.367-21.191a3.925 3.925 0 0 0-1.863-2.271 8.112 8.112 0 0 0-3.568-1.049c-.84.003-1.678-.063-2.507-.197a1.2 1.2 0 0 0-1.292.36 1.145 1.145 0 0 0-.22.411l-.894-1.123c-.243-.304-.41-.746-.727-.902a2.16 2.16 0 0 1-.781-.747 2.115 2.115 0 0 1-.314-1.024c-.05-.336-.142-.655-.217-.983a35.56 35.56 0 0 0-2.022-6.903c-1.367-3.238-3.927-5.851-7.17-7.32-.777-.345-1.537-.73-2.323-1.05-4.495-1.877-8.982-3.795-13.511-5.599a41.303 41.303 0 0 0-8.983-2.598 9.38 9.38 0 0 0-6.684 1.36 12.013 12.013 0 0 0-3.05 2.657 150.839 150.839 0 0 0-3.192 4.148 32.317 32.317 0 0 1-2.967 3.672 7.645 7.645 0 0 0-.961 1.172 2.259 2.259 0 0 0 .393 3.165c.318.311.836.393 1.02.934-.209.345-.468.705-.661 1.099a10.044 10.044 0 0 0-.71 1.697 2.75 2.75 0 0 0 .204 2.202c.185.334.437.628.741.864s.653.409 1.027.508c.376.124.766.204 1.162.238 1.248.134 2.511.062 3.735-.214a23.076 23.076 0 0 0 3.752-1.098.842.842 0 0 1 .952.082 7.975 7.975 0 0 0 4.27 1.639c-.032.456.04.912.209 1.337.169.425.431.809.769 1.123a3.64 3.64 0 0 0 1.953.969 3.687 3.687 0 0 0 2.166-.313 14.38 14.38 0 0 0 1.747-1.042 36.624 36.624 0 0 0 1.671-1.131 1.879 1.879 0 0 1 2.239 0c.535.32 1.07.631 1.596.967a10.028 10.028 0 0 0 5.565 1.87.708.708 0 0 1 .475.142.68.68 0 0 1 .26.415c.343 1.066.661 2.14 1.037 3.189a2.192 2.192 0 0 1 0 1.762 5.217 5.217 0 0 0-.159 3.616c.476 1.639.835 3.238 1.328 4.844 1.588 5.419 3.251 10.813 4.437 16.338 1.062 4.919 2.273 9.797 3.41 14.691.082.326.143.657.183.992 0 .303.318.614 0 .991a15.345 15.345 0 0 1-1.771-.278 11.297 11.297 0 0 0-4.12-.377 16.807 16.807 0 0 1-3.075-.074c-1.303-.115-2.607-.172-3.918-.262-.318 0-.686.114-.978-.263-.067-.434-.134-.926-.217-1.418a3.097 3.097 0 0 0-.694-1.508 1.364 1.364 0 0 0-.499-.458 1.4 1.4 0 0 0-1.324 0 1.367 1.367 0 0 0-.5.458 10.098 10.098 0 0 0-.977 1.574c-.527.983-1.02 1.992-1.53 2.984-.117.073-.25.27-.359.188-.108-.082-.083-.344 0-.525.109-.606.234-1.205.309-1.819a9.923 9.923 0 0 0-.576-5.591c-.936-1.968-2.983-3.525-5.757-2.115l-.151.074a4.114 4.114 0 0 1-3.618.155 9.842 9.842 0 0 1-1.671-.82 3.826 3.826 0 0 0-2.44-.614 3.402 3.402 0 0 1-2.507-.722c-.234-.164-.501-.278-.735-.434a12.515 12.515 0 0 0-8.139-1.927 38.61 38.61 0 0 0-5.715.959c-3.886.82-7.755 1.804-11.699 2.304-2.431.312-4.863.59-7.294.82-1.471.164-2.941.287-4.42.426a1.691 1.691 0 0 1-1.521-.574 46.847 46.847 0 0 0-5.925-5.05c-.685-.5-1.32-1.065-1.988-1.59a1.672 1.672 0 0 1-.685-1.09 6.273 6.273 0 0 0-1.814-3.164c-.434-.451-.911-.82-1.378-1.263a.54.54 0 0 1-.231-.394.535.535 0 0 1 .164-.426 17.891 17.891 0 0 0 2.715-4.049c1.454-3.099 3.067-6.116 4.337-9.288a9.2 9.2 0 0 1 1.128-2.058c.115-.19.278-.348.472-.46.194-.111.414-.173.639-.179a3.646 3.646 0 0 0 1.458-.436 3.555 3.555 0 0 0 1.141-.991 5.795 5.795 0 0 0 1.304-2.516 17.38 17.38 0 0 0 .041-7.977 2.015 2.015 0 0 1 .293-1.729 15.684 15.684 0 0 0 2.256-5.206 20.16 20.16 0 0 0 .426-8.476c-.142-.763-.601-1.558-.476-2.263a8.01 8.01 0 0 1 1.203-2.189 2.79 2.79 0 0 0 .242-.442 71.172 71.172 0 0 1 5.106-8.51c3.167-4.705 6.284-9.452 9.283-14.264a1795.905 1795.905 0 0 1 9.785-15.534c2.448-3.837 4.855-7.698 7.036-11.682a13.2 13.2 0 0 1 1.462-2.262c2.022-2.386 3.167-5.288 4.897-7.837a.561.561 0 0 0-.158-.755.583.583 0 0 0-.778.099 6.12 6.12 0 0 0-.736.918 18.564 18.564 0 0 0-1.061 1.902 18.036 18.036 0 0 1-2.097 3.451 41.342 41.342 0 0 0-3.459 5.378c-1.346 2.459-2.8 4.861-4.304 7.23-2.958 4.64-5.902 9.285-8.832 13.936-3.593 5.738-7.119 11.477-10.921 17.01a79.567 79.567 0 0 0-6.685 11.092 9.783 9.783 0 0 1-.601.983c-.468-.163-.56-.582-.786-.893-.635-.861-1.212-1.763-1.897-2.582a42.08 42.08 0 0 0-8.197-7.6c-.652-.45-1.278-.942-1.905-1.426-.167-.131-.376-.271-.201-.631h1.789a.698.698 0 0 0 .593-.932.658.658 0 0 0-.267-.322 6.332 6.332 0 0 0-.895-.484l-2.348-.992c-.71-.295-.718-.303-.593-1.131.343-2.263.71-4.525 1.045-6.796.551-3.812 1.086-7.632 1.671-11.477.367-2.596.732-5.195 1.094-7.796.059-.393.101-.82-.392-.992-.493-.172-.736.189-.836.82v.164c-.301 3.23-.902 6.419-1.362 9.624-.627 4.312-1.178 8.64-1.813 12.952a18.543 18.543 0 0 1-.769 3.829l-2.114-.582c-.71-.197-1.42-.419-2.139-.591-.719-.172-1.446-.287-2.181-.41a58.592 58.592 0 0 0-2.022-.311 35.174 35.174 0 0 0-2.206-.221c-.735-.05-1.479-.058-2.223-.091-.713.032-1.428.01-2.139-.065 0-.385.276-.451.435-.582a5.94 5.94 0 0 0 .635-.549.608.608 0 0 0 0-.82.607.607 0 0 0-.319-.262.628.628 0 0 0-.417-.001 10.61 10.61 0 0 0-.935.402 44.507 44.507 0 0 0-14.723 10.657c-.485.549-.978 1.09-1.454 1.64-.301.352-.56.672-1.128.541-.569-.131-.719.221-.911.598-.493 1-.995 2.009-1.513 3a30.127 30.127 0 0 0-3.217 15.084 32.07 32.07 0 0 0 1.145 7.378c-1.671.303-2.039 1.64-2.373 2.943a7.472 7.472 0 0 0-.167 1.64 21.878 21.878 0 0 0 .518 5.164 11.48 11.48 0 0 0 1.671 3.82c.258.473.636.872 1.097 1.159.461.287.99.453 1.535.481 1.112 0 1.671.401 1.822 1.467.061.282.153.557.276.82a47.112 47.112 0 0 0 6.383 12.534c.077.158.128.327.151.5-.618.435-1.228.82-1.813 1.271-1.362 1-2.958 1.705-3.978 3.123-.208.19-.456.333-.727.418a14.396 14.396 0 0 0-3.342 2.304 83.857 83.857 0 0 1-7.211 5.64c-1.346 1.016-2.774 1.943-4.178 2.918a2.9 2.9 0 0 1-1.738.574 46.798 46.798 0 0 1-10.362-.918c-2.506-.558-5.013-1.14-7.52-1.64a10.896 10.896 0 0 0-4.905-.164c-1.378.345-2.7.878-3.927 1.583-3.576 1.967-6.96 4.238-10.445 6.353-5.089 3.082-10.027 6.402-15.224 9.288a117.836 117.836 0 0 1-16.854 8.066 27.217 27.217 0 0 1-6.108 1.492 12.312 12.312 0 0 1-8.582-2.09c-.61-.41-1.236-.82-1.813-1.254a8.595 8.595 0 0 0-4.58-1.64c-3.057-.344-5.698-1.541-7.386-4.238a51.275 51.275 0 0 0-3.108-4.132 13.888 13.888 0 0 0-2.507-2.459 30.917 30.917 0 0 0-4.236-2.812 18.008 18.008 0 0 1-2.332-1.393 10.71 10.71 0 0 0-4.338-1.874 10.805 10.805 0 0 0-4.736.168c-.627.132-.71.115-1.036-.541a15.899 15.899 0 0 0-2.03-3.197 79.803 79.803 0 0 0-9.468-10.083c-.267-.229-.735-.352-.652-.869 1.02-.139 2.04-.238 3.05-.434 7.137-1.366 13.429-5.457 17.492-11.373 4.062-5.917 5.563-13.174 4.17-20.176-1.39-7.002-5.56-13.175-11.592-17.16-6.03-3.986-13.428-5.458-20.565-4.093-9.267 1.829-15.876 7.255-19.728 15.74-.426.926-.836 1.353-1.947 1.336a4.038 4.038 0 0 0-2.437.651 3.918 3.918 0 0 0-1.549 1.956 35.992 35.992 0 0 0-.618 1.566 22.76 22.76 0 0 0-.836 10.435 44.865 44.865 0 0 0 1.229 5.739 64.523 64.523 0 0 0 2.506 8.345 47.762 47.762 0 0 0 6.468 11.042 52.75 52.75 0 0 0 6.375 7.214c2.833 2.517 5.565 5.132 8.306 7.731a19.873 19.873 0 0 0 4.379 3.189c.317.164.727.254.835.77-.326.287-.668.582-.994.886a2.17 2.17 0 0 0-.652 1.067c-.107.411-.09.843.05 1.244.1.377.24.742.418 1.091a12.318 12.318 0 0 0 3.15 4.098.757.757 0 0 1 .307.356c.062.147.074.31.036.464a3.717 3.717 0 0 0 .635 2.55 24.737 24.737 0 0 0 1.755 2.68 68.863 68.863 0 0 0 5.272 6.165c2.716 2.861 5.515 5.648 8.18 8.558 3.736 4.099 7.58 8.05 11.465 11.985a73.589 73.589 0 0 0 3.677 3.509 17.905 17.905 0 0 0 9.617 4.336c2.944.381 5.928.334 8.857-.139a86.521 86.521 0 0 0 5.85-1.09 2945.11 2945.11 0 0 0 23.939-5.46c3.259-.762 6.476-1.73 9.735-2.5 7.019-1.64 14.063-3.238 21.098-4.853a3.683 3.683 0 0 1 1.538-.107c.042.254.092.468.109.681.359 3.336.685 6.673 1.061 10.001.534 4.664 1.069 9.329 1.671 13.985.267 2.164.627 4.312.944 6.468.036.278.097.553.184.82a.813.813 0 0 0 .382.548.839.839 0 0 0 .671.091 4.08 4.08 0 0 0 .777-.197c.017.301.017.602 0 .902-.518 3.935-1.095 7.854-1.889 11.748-.835 4.049-1.554 8.123-2.448 12.157-.718 3.279-1.47 6.558-2.106 9.837a486.636 486.636 0 0 0-2.256 12.706c-.451 2.755-.835 5.534-1.086 8.313a113.75 113.75 0 0 0-.393 13.067v3.18h1.371c0-.336.075-.664.075-.991 0-2.689-.067-5.37-.042-8.051a99.503 99.503 0 0 1 1.462-15.337 672.373 672.373 0 0 1 2.273-12.871c.46-2.459 1.07-4.918 1.546-7.378.032-.327.17-.635.394-.879.224-.243.523-.409.851-.473a51.898 51.898 0 0 1 5.649-1.279c4.896-.754 9.776-1.549 14.706-2.074 1.07-.115 2.131-.336 3.2-.517a1.812 1.812 0 0 0 1.339-.685c.159-.203.271-.438.329-.687a1.75 1.75 0 0 0 .004-.759 10.01 10.01 0 0 0-.159-1.639 1.448 1.448 0 0 0-.591-1.091 1.514 1.514 0 0 0-1.231-.262 60.68 60.68 0 0 0-4.245.451c-5.013.721-10.027 1.467-15.04 2.238-1.011.155-1.997.426-3 .631-.451.098-.627-.09-.543-.525.602-3.066 1.237-6.132 1.805-9.206.77-3.952 1.303-7.946 1.596-11.96.023-.5.01-1.002-.042-1.5a.63.63 0 0 0-.145-.387.657.657 0 0 0-.356-.22.927.927 0 0 0-.928.254c-.276.263-.267.746-.718.869h-.176a.241.241 0 0 1-.058-.147c-.134-.886-.285-1.763-.393-2.648a4907.27 4907.27 0 0 1-2.006-16.978 431.387 431.387 0 0 1-1.027-9.837 74.113 74.113 0 0 1 .058-10.558c.184-3.635.499-7.253.944-10.854a113.193 113.193 0 0 1 3.418-18.101 29.368 29.368 0 0 0 1.069-4.73c.093-.519.213-1.033.36-1.541 1.345.303 2.624.574 3.885.869a36.332 36.332 0 0 0 8.624.992h1.027a4.925 4.925 0 0 1 1.672.107c.543.229.417.975.66 1.475a9.62 9.62 0 0 0 2.74 3.361c.56.443.585.476.318 1.099-.694 1.639-1.421 3.279-2.122 4.918-.552 1.287-1.078 2.583-1.672 3.861a6.256 6.256 0 0 0 .627 6.231 65.248 65.248 0 0 0 1.755 2.459 117.673 117.673 0 0 0 11.698 13.305c3.459 3.328 6.908 6.667 10.345 10.017a59.653 59.653 0 0 0 5.966 5.009c1.128.82 2.256 1.697 3.401 2.525a1.135 1.135 0 0 1 .518 1.148c-.176 1.492-.301 3-.477 4.5a44.028 44.028 0 0 0-.242 5.017c0 7.045-.014 14.087-.042 21.126 0 4.246 0 8.492-.2 12.739a122.205 122.205 0 0 0 2.139 29.511c.194.991.174 2.01-.059 2.993a49.672 49.672 0 0 1-4.061 10.984c-.727 1.46-1.554 2.861-2.339 4.28a3.664 3.664 0 0 0-.585 1.205h1.671a1.434 1.434 0 0 1 .334-.927c2.318-3.873 4.163-8 5.498-12.296.036-.105.081-.206.134-.303 0-.041.092-.099.117-.091.025.009.251.074.259.132.276 1.246.543 2.5.836 3.754a70.487 70.487 0 0 0 2.598 9.477c.051.1.11.196.176.286h1.37c-.576-1.869-1.195-3.729-1.713-5.607-1.011-3.672-1.671-7.378-2.356-11.149a457.35 457.35 0 0 1-1.479-8.927 111.191 111.191 0 0 1-1.162-15.551c-.05-3.017.051-6.033.168-9.017.125-3.238.125-6.485.133-9.723 0-7.599 0-15.206.042-22.806a69.76 69.76 0 0 1 .627-9.017c.459-.246.668.115.927.279.836.541 1.671 1.131 2.582 1.639a1.29 1.29 0 0 0 1.905-.434 46.018 46.018 0 0 1 5.532-6.37c2.072-2.148 4.245-4.214 6.384-6.312.476-.467.969-.935 1.445-1.426 4.855-5.034 9.827-9.952 14.866-14.814.927-.901 1.779-1.885 2.632-2.852a3.49 3.49 0 0 0 .859-1.7 3.456 3.456 0 0 0-.166-1.891c-1.337-4.558-2.565-9.14-3.843-13.715-.059-.213-.134-.426-.201-.639-.134-.402.075-.623.426-.779a10.69 10.69 0 0 1 2.281-.664c.34-.048.675-.122 1.003-.221.919-.336 1.095-.959.493-1.64a8.492 8.492 0 0 0-.727-.705 96.814 96.814 0 0 1-7.37-7.697.926.926 0 0 1-.109-.287c0-.058 0-.123.051-.156a.362.362 0 0 1 .167 0c1.069-.107 2.147-.221 3.225-.32a106.39 106.39 0 0 0 15.517-2.303c.226-.058.451-.066.669-.123a1.04 1.04 0 0 1 1.203.369 30.59 30.59 0 0 1 3.827 5.123c.082.208.217.391.392.533a.739.739 0 0 1 .318.869 6.385 6.385 0 0 0 .435 3.451c.835 2.033 1.144 4.206 1.671 6.321 1.245 5.271 2.465 10.55 4.796 15.501.092.205.15.418.234.632a2.152 2.152 0 0 1-1.671.401c-2.716 0-4.304 1.386-5.114 3.861a22.166 22.166 0 0 0-.911 4.099 6.71 6.71 0 0 0 .276 2.984 4.528 4.528 0 0 0 1.344 2.195 4.652 4.652 0 0 0 2.341 1.133l.835.189c.051 0 .092.066.201.164-.301.566-.627 1.139-.944 1.721a101.348 101.348 0 0 0-8.356 19.945 41.793 41.793 0 0 0-1.604 10.411 82.316 82.316 0 0 0 1.637 18.585c.243 1.262.493 2.524.727 3.787a.31.31 0 0 1-.075.308.326.326 0 0 1-.309.094c-1.295-.173-2.607-.304-3.886-.566-2.389-.492-4.762-1.066-7.152-1.599a35.202 35.202 0 0 1-4.086-1.18 7.052 7.052 0 0 0-2.332-.484c-.2-.02-.402.019-.579.112a.996.996 0 0 0-.415.413 8.912 8.912 0 0 0-1.003 3c-.056.362.004.733.172 1.06.168.328.435.596.764.768a12.48 12.48 0 0 0 2.682 1.082c2.507.779 5.014 1.542 7.471 2.337a40.044 40.044 0 0 0 7.019 1.377l3.033.385c.428.972.709 1.999.835 3.05 1.477 6.99 2.928 13.99 4.354 21.002.76 3.779 1.412 7.583 2.172 11.362.577 2.845 1.254 5.673 1.889 8.509.202.523.266 1.087.184 1.64h1.671c-.677-2.886-1.437-5.738-2.022-8.64-1.304-6.411-2.507-12.83-3.777-19.24a1726.006 1726.006 0 0 0-3.568-17.052c-1.17-5.467-2.332-10.927-3.159-16.452a70.971 70.971 0 0 1-.735-14.707 43.032 43.032 0 0 1 2.432-12.124 119.434 119.434 0 0 1 7.453-17.051c.152-.46.443-.864.836-1.156.341.795.504 1.654.476 2.516 0 2.796.075 5.591 0 8.387-.134 6.427-.059 12.845.401 19.264a42.25 42.25 0 0 0 2.44 11.6c.302.903.729 1.761 1.27 2.549a7.521 7.521 0 0 0 4.529 3.058c2.111.466 4.252.789 6.409.967 3.961.394 7.938.607 11.924.755 2.674.09 5.347.303 8.021.442 1.588.082 3.184.107 4.772.164.66 0 .768.123.835.82.142 1.451.259 2.894.385 4.345.501 5.951.986 11.911 1.504 17.862.518 5.952 1.044 11.69 1.545 17.535.402 4.616.769 9.239 1.162 13.854.067.779.2 1.55.301 2.328h1.362c-.468-5.399-.939-10.801-1.412-16.206-.401-4.566-.836-9.124-1.212-13.69-.284-3.23-.535-6.468-.836-9.698-.401-4.616-.835-9.239-1.22-13.863a78.228 78.228 0 0 1-.175-2.508c0-.672 0-.73.785-.738 3.761 0 7.521 0 11.281-.074 5.298-.065 10.587-.418 15.876-.729 4.37-.254 8.749-.582 13.144-.623a28.215 28.215 0 0 0 10.027-1.574c.526-.205 1.053-.41 1.571-.64 4.178-1.844 6.25-5.271 6.041-9.968a26.963 26.963 0 0 0-1.947-8.804 26.638 26.638 0 0 0-5.556-8.575 18.024 18.024 0 0 0-3.827-3.058 31.537 31.537 0 0 0-13.997-4.443 18.724 18.724 0 0 0-4.595.279c-.418.139-.836.377-1.128-.213a33.698 33.698 0 0 0 4.011-4.566c.777.36 1.487.705 2.205 1.024a18.281 18.281 0 0 0 5.599 1.41l12.425 1.205a8.8 8.8 0 0 1 4.303 1.779c.91.682 1.717 1.485 2.399 2.386a30.526 30.526 0 0 1 6.417 15.985c.391 4.175.486 8.371.284 12.559a67.264 67.264 0 0 1-1.471 10.96c-.61 3.009-1.345 6.001-1.729 9.018a14.92 14.92 0 0 0-.084 3.508 7.075 7.075 0 0 0 .944 2.853 3.004 3.004 0 0 1 .268 2.582 21.755 21.755 0 0 0-.836 6.796c.014 3.185.254 6.366.719 9.518.585 4.435 1.353 8.853 1.153 13.346-.075 1.557-.201 3.115-.301 4.68h1.37c0-.336.051-.672.084-1.008a51.302 51.302 0 0 0-.301-12.698c-.468-3.205-.894-6.427-1.136-9.657-.284-3.73-.435-7.484.727-11.141a3.37 3.37 0 0 0-.368-2.754 8.573 8.573 0 0 1-.886-5.525c.209-1.943.644-3.853 1.028-5.739.652-3.229 1.429-6.443 1.813-9.722a82.869 82.869 0 0 0 .134-17.568 31.368 31.368 0 0 0-5.774-15.575 17.61 17.61 0 0 0-3.041-3.378c-.201-.172-.51-.287-.477-.713.418 0 .836-.049 1.279-.131 1.195-.23 1.671-.959 1.328-2.049a60.23 60.23 0 0 0-1.779-4.534 2.987 2.987 0 0 0-1.379-1.658 3.074 3.074 0 0 0-2.156-.317 3.272 3.272 0 0 1-.485 0c-.05-.058-.117-.099-.125-.14a62.93 62.93 0 0 1-1.312-6.91 2.667 2.667 0 0 1 .326-1.64c.1-.221.292-.336.535-.147.242.188.585.541.911.754a3.382 3.382 0 0 0 1.937.547 3.383 3.383 0 0 0 1.906-.646 4.159 4.159 0 0 0 1.387-1.639c.403-.87.542-1.834.401-2.779a2.136 2.136 0 0 1 .276-1.435 9.4 9.4 0 0 0 .944-7.755 1.015 1.015 0 0 1 .184-1.065 17.233 17.233 0 0 0 2.114-3.28c.66-1.188.652-1.049 2.031-1.024a3.825 3.825 0 0 1 1.758.521c.534.313.98.751 1.3 1.274a16.32 16.32 0 0 1 1.203 1.828 24.076 24.076 0 0 1 2.791 8.395c.543 3.484.744 7 1.003 10.509a77.196 77.196 0 0 0 1.061 9.017 53.677 53.677 0 0 0 4.12 12.912 32.373 32.373 0 0 0 6.601 9.304 44.403 44.403 0 0 0 15.575 9.747c1.283.468 2.605.822 3.952 1.058 2.173.385 4.387.573 6.543 1.098a.613.613 0 0 0 .416-.008.599.599 0 0 0 .311-.271.576.576 0 0 0 .056-.403.596.596 0 0 0-.223-.343ZM320.942 171.561c.359-.148.835-.32.902-.713.167-.607.435-.738 1.078-.615.789.101 1.585.145 2.381.131a6.703 6.703 0 0 1 2.624.639c.411.19.795.43 1.145.713a.98.98 0 0 1 .042 1.697 5.892 5.892 0 0 1-1.755 1.009 28.284 28.284 0 0 1-6.242 1.639c-3.197.546-6.44.782-9.684.705h-4.262a6.693 6.693 0 0 1-2.014-.344c-.534-.164-.601-.607-.2-1.017.234-.245.546-.404.886-.45.618-.082 1.245-.164 1.855-.271a106.054 106.054 0 0 0 11.631-2.558c.548-.16 1.086-.349 1.613-.565Zm-.769-1.271a23.701 23.701 0 0 1-5.014 1.451 36.7 36.7 0 0 1-5.155 1.025c-.318.09-.669.246-.593-.336l5.799-2.369c.676-.279 1.378-.509 2.055-.82 1.997-.787 1.563-.992 2.908 1.049Zm-41.78-8.034a.747.747 0 0 1-.15.074 17.841 17.841 0 0 1-6.133 1.402 5.367 5.367 0 0 1-1.947-.238 1.489 1.489 0 0 1-.907-.715 1.449 1.449 0 0 1-.104-1.137 6.477 6.477 0 0 1 1.671-2.878.748.748 0 0 1 .687-.224.732.732 0 0 1 .55.462c.76 1.951 2.398 2.533 4.303 2.64.622.007 1.243-.042 1.855-.148a.346.346 0 0 1 .237.019.332.332 0 0 1 .164.17.459.459 0 0 1-.251.573h.025Zm25.185 6.96a.661.661 0 0 1 .031-.479.69.69 0 0 1 .345-.341 10.536 10.536 0 0 0 2.281-2.008c.502-.574.577-1.074.218-1.303-.36-.23-.619-.066-1.154.434-.534.5-1.052 1.017-1.629 1.476a3.748 3.748 0 0 1-1.43.714 3.754 3.754 0 0 1-1.603.056 8.815 8.815 0 0 1-3.167-1.172 73.016 73.016 0 0 1-2.181-1.32 3.325 3.325 0 0 0-1.989-.658c-.718 0-1.417.231-1.988.658-.602.418-1.212.82-1.822 1.238a5.807 5.807 0 0 1-1.671.877 2.34 2.34 0 0 1-1.264.022 2.306 2.306 0 0 1-1.084-.637 1.247 1.247 0 0 1-.393-.893.824.824 0 0 1 .426-.82c2.34-1.164 4.045-3.041 5.749-4.919.376-.354.662-.789.836-1.27a.509.509 0 0 0-.217-.582.527.527 0 0 0-.636 0c-.24.23-.463.476-.668.737a29.802 29.802 0 0 1-4.32 4.042c-1.989 1.639-4.086.926-5.532 0-.718-.443-.835-.918-.459-1.722.226-.515.54-.989.927-1.401 1.011-1.132 2.039-2.247 3.067-3.378a63.577 63.577 0 0 0 2.373-2.631c.279-.351.528-.724.744-1.115a.568.568 0 0 0-.184-.746.673.673 0 0 0-.919.057c-.192.213-.335.451-.518.664-.627.73-1.212 1.492-1.889 2.164a74.889 74.889 0 0 0-3.668 3.976 4.926 4.926 0 0 1-6.058.648 2.879 2.879 0 0 1-.643-.762 1.165 1.165 0 0 1 0-1.41 14.145 14.145 0 0 1 2.072-2.214c1.17-1.066 2.356-2.107 3.509-3.189.836-.77 1.621-1.574 2.415-2.369.234-.256.446-.53.635-.82a.545.545 0 0 0-.075-.754.66.66 0 0 0-.911-.057 4.442 4.442 0 0 0-.493.467c-1.671 1.812-3.559 3.451-5.406 5.115a14.046 14.046 0 0 0-2.975 3.206.94.94 0 0 1-.359.326.97.97 0 0 1-.476.108 3.53 3.53 0 0 1-1.814-.393c-.986-.451-1.144-1.156-.509-2.025a3.57 3.57 0 0 1 .426-.517 37.23 37.23 0 0 0 3.902-4.869c.944-1.254 1.888-2.525 2.941-3.689a9.232 9.232 0 0 1 5.498-3.131 11.65 11.65 0 0 1 4.229.385 42.407 42.407 0 0 1 7.136 2.238 736.245 736.245 0 0 1 12.099 4.992c1.253.525 2.507 1.115 3.718 1.64a12.486 12.486 0 0 1 5.849 5.656 13.3 13.3 0 0 1 1.204 2.951c.551 2.107 1.027 4.23 1.545 6.345.109.443 0 .754-.442.927-.443.172-1.154.475-1.738.688a85.328 85.328 0 0 0-9.677 4.156 1.594 1.594 0 0 1-1.044.32c-.409-1.156-.794-2.394-1.195-3.689h.025Zm-244.51 20.593c-4.433 4.555-10.441 7.321-16.846 7.755a4.66 4.66 0 0 1-.668 0s-.075-.058-.117-.099c-.092-.451.267-.696.501-.983a12.958 12.958 0 0 1 5.432-3.902 67.331 67.331 0 0 1 9.275-2.714c.835-.205 1.763-.385 2.648-.582.11.246-.091.385-.225.525Zm5.356-8.272a6.987 6.987 0 0 0-3.342-2.566 3.537 3.537 0 0 1-1.558-1.267 3.44 3.44 0 0 1-.598-1.897c-.1-1.73-.159-3.459-.21-5.189a34.78 34.78 0 0 0-.233-3.845 24.88 24.88 0 0 1-.176-2.844 6.877 6.877 0 0 1 .524-2.864 6.98 6.98 0 0 1 1.666-2.407c.359-.361.735-.689 1.111-1.033 4.913 5.664 6.292 16.436 2.816 23.912Zm-17.405-34.151-.736.5a10.098 10.098 0 0 0-2.89 3.033c-.268.426-.527.861-.778 1.295a8.65 8.65 0 0 1-3.019 3.121 8.857 8.857 0 0 1-4.184 1.29c-1.587.155-3.183.221-4.77.262a6.424 6.424 0 0 0-3.652 1.189 40.19 40.19 0 0 1-1.98 1.303 7.15 7.15 0 0 1-5.065.951 8.104 8.104 0 0 0-2.732-.295c5.406-11.124 19.628-16.068 29.806-12.649ZM15.04 165.011c.35-1.058.735-2.107 1.136-3.156a.821.821 0 0 1 .294-.39.85.85 0 0 1 .466-.16 7.742 7.742 0 0 1 2.382.132 8.423 8.423 0 0 0 3.474.108 8.327 8.327 0 0 0 3.21-1.305 22.14 22.14 0 0 0 1.555-1.041 5.5 5.5 0 0 1 3.158-1.115 94.64 94.64 0 0 1 3.41-.107 14.26 14.26 0 0 0 4.353-.82 9.042 9.042 0 0 0 4.855-3.771c.442-.713.835-1.434 1.328-2.147a8.485 8.485 0 0 1 3.485-3.124 1.823 1.823 0 0 1 1.612-.073 26.21 26.21 0 0 1 10.403 7.361c.293.336.569.697.836 1.041-.217.582-.752.82-1.145 1.246a8.441 8.441 0 0 0-2.218 3.141 8.295 8.295 0 0 0-.58 3.778c.083 1.172.258 2.336.325 3.5.117 2.23.184 4.468.276 6.698 0 .451 0 .902.066 1.344.051.756.295 1.488.71 2.127a4.563 4.563 0 0 0 1.664 1.53c.601.319 1.22.606 1.805.95a2.935 2.935 0 0 1 1.328 1.757c.195.732.093 1.51-.284 2.17-.351.64-.785 1.23-1.162 1.861a2.064 2.064 0 0 1-.85 1.004 2.117 2.117 0 0 1-1.297.299c-4.253 1.206-8.648 1.927-12.76 3.624a13.877 13.877 0 0 0-5.264 3.631 8.01 8.01 0 0 0-1.378 1.91 1.139 1.139 0 0 1-.548.599 1.17 1.17 0 0 1-.814.09c-.903-.115-1.822-.156-2.724-.262a9.702 9.702 0 0 1-1.129-.287c.326-.902.669-1.73.92-2.582a5.24 5.24 0 0 0 .1-2.82 5.306 5.306 0 0 0-1.379-2.476 27.932 27.932 0 0 0-2.247-2.05 16.846 16.846 0 0 1-5.599-9.361 12.21 12.21 0 0 1-.184-1.64 8.243 8.243 0 0 0-.824-3.228 8.39 8.39 0 0 0-2.042-2.658 16.976 16.976 0 0 0-5.147-3.221c-1.003-.41-2.03-.73-3.05-1.074-.635-.279-.752-.41-.526-1.033Zm-.636 2.639c.11-.623.343-.819.928-.606a20.865 20.865 0 0 1 7.312 3.853 7.224 7.224 0 0 1 1.929 2.318 7.1 7.1 0 0 1 .803 2.887 16.966 16.966 0 0 0 3.944 9.649 19.082 19.082 0 0 0 2.883 2.844c.607.509 1.18 1.057 1.713 1.64a3.684 3.684 0 0 1 1.002 2.525 5.22 5.22 0 0 1-.384 2.213c-1.036 2.46-.635 2.099-2.85 1.295-9.492-3.418-15.199-10.083-17.238-19.764a23.333 23.333 0 0 1-.066-8.854h.024Zm26.046 53.425a34.759 34.759 0 0 1-8.49-6.132c-1.955-2.033-4.06-3.919-6.2-5.739a51.414 51.414 0 0 1-6.342-7.017 49.861 49.861 0 0 1-3.66-5.254 44.323 44.323 0 0 1-5.122-12.715 60.1 60.1 0 0 1-1.604-7.378 20.928 20.928 0 0 1 .835-9.599c.15-.419.318-.82.485-1.255a2.912 2.912 0 0 1 1.154-1.417 2.993 2.993 0 0 1 1.787-.468c.435 0 .61.188.518.606-.192.878-.417 1.747-.576 2.624a26.403 26.403 0 0 0 3.159 18.039c3.175 5.464 8.205 9.661 14.213 11.858a27.034 27.034 0 0 0 7.812 1.639 3.23 3.23 0 0 1 1.722.607 23.06 23.06 0 0 1 2.757 2.189 83.585 83.585 0 0 1 8.64 9.492 11.37 11.37 0 0 1 1.671 2.952 2.6 2.6 0 0 1-.359.328c-3.626 2.197-7.27 4.377-10.863 6.599a1.334 1.334 0 0 1-.774.271 1.335 1.335 0 0 1-.788-.23h.025Zm117.175-10.042a37.172 37.172 0 0 1-.92 4.262 88.244 88.244 0 0 0-2.423 9.919 214.593 214.593 0 0 0-1.546 10.789c-.584 5.058-.91 10.124-1.044 15.215v2.68c0 .664-.117.82-.694.935-7.52 1.639-14.99 3.279-22.435 5.074-3.2.82-6.359 1.722-9.568 2.459a2709.464 2709.464 0 0 1-23.931 5.452 64.521 64.521 0 0 1-7.73 1.311 25.63 25.63 0 0 1-7.987-.401 16.057 16.057 0 0 1-7.337-3.738 79.676 79.676 0 0 1-3.91-3.747c-3.76-3.82-7.52-7.665-11.097-11.624-2.624-2.861-5.39-5.607-8.072-8.427a71.753 71.753 0 0 1-5.983-7.099 9.73 9.73 0 0 1-1.362-2.32c-.359-.976-.267-1.214.619-1.763a49.898 49.898 0 0 0 6.35-4.517c2.398-2.066 4.855-4.058 7.328-6.041.517-.42.993-.887 1.42-1.394a1.539 1.539 0 0 0 .5-1.127 1.516 1.516 0 0 0-.5-1.127c-.258-.328-.718-.517-.835-.976a8.624 8.624 0 0 1 6.4 1.049c1.38.894 2.817 1.689 4.229 2.533a19.305 19.305 0 0 1 5.974 5.173c.836 1.181 1.772 2.32 2.574 3.55 1.863 2.844 4.713 4.148 7.972 4.599a8.45 8.45 0 0 1 4.553 1.639c.301.254.66.435.978.672a14.25 14.25 0 0 0 7.044 2.747c.769.098.769.098.97.86a18.76 18.76 0 0 0 4.403 7.665 52.218 52.218 0 0 0 4.178 3.968c.459.418.952.434 1.186.106a.803.803 0 0 0 .098-.561.818.818 0 0 0-.298-.488 66.69 66.69 0 0 0-2.106-1.951 24.5 24.5 0 0 1-5.013-6.14 21.579 21.579 0 0 1-.995-2.131 2 2 0 0 1-.15-1.214c1.295-.254 2.624-.492 3.944-.77.67-.13 1.33-.311 1.972-.541a97.352 97.352 0 0 0 11.397-4.919c5.473-2.869 10.863-5.91 16.052-9.222 5.189-3.312 10.495-6.485 15.759-9.714.527-.32 1.086-.591 1.671-.886a8.849 8.849 0 0 1 5.933-.984l2.014.386c.351.131.451.426.393.779h.025Zm72.278 2.459c.042-.09.167-.14.435-.361 1.228 4.501 2.849 8.78 4.178 13.231l-3.852.402a24.292 24.292 0 0 0-9.234 2.771l-.292.172a.576.576 0 0 0-.276.713.55.55 0 0 0 .261.323c.126.07.275.09.416.054.277-.042.543-.133.785-.27a23.873 23.873 0 0 1 8.64-2.411 47.584 47.584 0 0 1 3.067-.278c.769-.049.919.057 1.078.746.282 1.081.508 2.175.677 3.279.14 1.277.21 2.56.209 3.845a7.218 7.218 0 0 1-.995 3.516 24.665 24.665 0 0 1-5.607 6.911 27.882 27.882 0 0 1-4.253 3.082 30.37 30.37 0 0 0-7.654 5.837c-.117.131-.267.238-.426.123a.766.766 0 0 1-.242-.41c-.368-2.033-.677-4.099-1.086-6.099-.635-3.131-.836-6.312-1.312-9.46-.418-2.765-.839-5.525-1.262-8.28-.326-2.098-.66-4.197-1.028-6.287a1.263 1.263 0 0 1 .151-.943c1.011-1.812 2.03-3.615 3.049-5.427.209-.369.402-.41.836-.164 1.095.59 2.181 1.205 3.267 1.82 1.086.615 1.956 1.148 2.967 1.64 1.286.647 1.804.524 2.582-.64 1.654-2.484 3.593-4.771 4.896-7.468l.025.033Zm-19.778 11.091c-.201.336-.468.631-.677.918a1.134 1.134 0 0 1-.836-.598 36.047 36.047 0 0 1-3.1-5.001 4.501 4.501 0 0 1-.561-1.745 4.494 4.494 0 0 1 .185-1.821c.218-.639.401-1.278.61-1.918.079-.437.243-.854.485-1.23.368-.393.836.082 1.27.132a5.95 5.95 0 0 0 3.977-.697c.794 1.09 1.538 2.066 2.248 3.074a2.06 2.06 0 0 1 .092 2.459c-1.303 2.099-2.49 4.263-3.718 6.394l.025.033Zm-14.598-35.143a63.244 63.244 0 0 1-4.178-9.706 3.419 3.419 0 0 1-.167-.467c-.109-.55-.51-.705-.994-.746a5.832 5.832 0 0 0-.836 0 2.384 2.384 0 0 1-1.313-.301 2.307 2.307 0 0 1-.926-.962 10.276 10.276 0 0 1-1.371-3.238 21.113 21.113 0 0 1-.476-5.328c.019-.729.18-1.447.476-2.115.243-.542.46-.623 1.061-.402.986.369 1.162.32 1.672-.484.175-.279.317-.574.468-.861.451.214.392.582.426.894.15 1.394.275 2.779.409 4.173 0 .278 0 .557.084.819a.848.848 0 0 0 .331.651.887.887 0 0 0 .722.169c.969-.065 1.93-.172 2.891-.27l11.548-1.255c1.069-.114 2.147-.221 3.225-.352 1.078-.131 1.379-.402 1.27-1.509-.109-1.106-.217-2.221-.351-3.336a.856.856 0 0 1 .087-.562.884.884 0 0 1 .423-.389 5 5 0 0 1 3.259-.738.97.97 0 0 1 .612.245c.169.15.277.354.307.575.259 1.312.585 2.615.835 3.927.05.213.076.442.126.656.334 1.336.409 1.418 1.871 1.213 2.766-.377 5.524-.82 8.281-1.189 1.914-.279 3.827-.574 5.741-.869.335-.045.667-.111.994-.197a.737.737 0 0 0 .421-.276.713.713 0 0 0 .139-.478 10.816 10.816 0 0 0-.101-1.164 611.67 611.67 0 0 0-.835-6.32 10.51 10.51 0 0 0-.192-.992.735.735 0 0 0-.284-.489.762.762 0 0 0-.552-.151 8.62 8.62 0 0 0-1.028.05l-6.968.696c-2.607.271-5.206.574-7.813.82-1.295.123-1.73.271-1.371 1.804l.151.59a11.041 11.041 0 0 0-4.312 1.008c-.134-.82-.251-1.639-.376-2.385a.687.687 0 0 0-.236-.438.71.71 0 0 0-.474-.169 12.891 12.891 0 0 0-1.362 0c-3.986.189-7.963.394-11.949.59l-3.184.131c-.317-.336-.075-.557 0-.819.368-1.058.777-2.099 1.087-3.173a15.085 15.085 0 0 1 3.25-5.64 10.28 10.28 0 0 1 5.097-3.205 20.071 20.071 0 0 1 6.083-.697l2.566.123c.284 0 .568.057.835.057.644 0 1.036-.188 1.12-.557.117-.516-.209-.82-.593-1.107-.385-.287-.535-.369-.945-.647.448-.164.94-.164 1.387 0a20.394 20.394 0 0 1 5.198 2.066c.944.516 1.863 1.082 2.799 1.639a6.5 6.5 0 0 0 1.061.508.853.853 0 0 0 .505-.01.832.832 0 0 0 .406-.293.716.716 0 0 0 .134-.779c-.201-.401-.418-.82-.652-1.172-.234-.353-.627-.926-.944-1.385a.442.442 0 0 1 .263-.085c.095 0 .187.029.263.085 1.2.486 2.325 1.134 3.342 1.926a47.49 47.49 0 0 1 7.028 6.361 5.182 5.182 0 0 1 1.37 2.976c.24 2 .485 3.998.735 5.993.065.551.163 1.099.293 1.639.159.59.485.754 1.003.517.518-.238.885-.574 1.42-.254a1.858 1.858 0 0 1 .761 1.262c.635 2.676.56 5.468-.218 8.107a3.706 3.706 0 0 1-1.362 1.894 1.475 1.475 0 0 1-1.253.402c-.593-.181-.903.098-1.295.492a7.614 7.614 0 0 0-1.671 2.459c-1.279 3.05-2.741 6.009-4.178 9.017-.318.656-.635 1.312-1.003 1.943a13.449 13.449 0 0 1-5.448 5.394 24.145 24.145 0 0 1-11.256 2.935 19.23 19.23 0 0 1-6.492-1.271 8.75 8.75 0 0 1-3.777-2.787 27.536 27.536 0 0 1-3.1-4.787Zm-2.264-19.748-.652-.517 6.685-8.197.651.516-6.684 8.198Zm6.86-5.419.668.492-2.507 3.279-.668-.492 2.507-3.279Zm18.207 3.779-.651-.516 6.684-8.198.652.516-6.685 8.198Zm6.86-5.419.669.492-2.507 3.279-.668-.491 2.506-3.28Zm-31.267 36.415c1.278-.927 2.573-1.837 3.86-2.755a.64.64 0 0 1 .451-.188.638.638 0 0 1 .452.188c3.108 2.656 6.876 3.279 10.812 3.328a23.101 23.101 0 0 0 8.757-1.934 29.322 29.322 0 0 0 5.089-2.796 10.046 10.046 0 0 1 2.908 3.025c.357.545.494 1.2.384 1.839a2.586 2.586 0 0 1-.978 1.612c-1.253.968-2.456 1.992-3.751 2.902a366.952 366.952 0 0 1-7.571 5.14 27.829 27.829 0 0 1-3.86 2.115 4.526 4.526 0 0 1-3.476.148 11.802 11.802 0 0 1-3.008-1.541 86.845 86.845 0 0 1-10.028-8.534c-.083-.082-.167-.156-.242-.238-1.111-1.115-1.094-1.336.201-2.303v-.008Zm-5.724 11.304c.351-.074.501.213.685.394 3.008 2.984 6.008 5.967 8.999 8.951.36.353.736.705 1.128 1.025a.948.948 0 0 0 1.254 0c.359-.27.685-.582 1.019-.885l2.114-1.91a15.21 15.21 0 0 0 2.666 5.664 3.313 3.313 0 0 1 .576 2.788c-.601 2.836-.994 5.738-1.504 8.574a569.224 569.224 0 0 1-1.612 8.559 10.472 10.472 0 0 1-.544 2.795 3.599 3.599 0 0 1-.484-.254c-3.936-3.132-7.88-6.247-11.807-9.395-1.237-.983-2.398-2.057-3.635-3.041a3.697 3.697 0 0 1-1.265-1.549 3.62 3.62 0 0 1-.264-1.968c.1-.819.075-1.639.142-2.508.067-.869.159-.877.894-.943a11.357 11.357 0 0 1 3.902.238c2.507.647 5.056 1.295 7.579 1.959a3.4 3.4 0 0 0 1.17.189.637.637 0 0 0 .493-.32.575.575 0 0 0-.226-.73 1.683 1.683 0 0 0-.61-.278c-2.857-.746-5.698-1.525-8.573-2.197a16.162 16.162 0 0 0-2.891-.173h-1.303c-.084-.065-.142-.09-.159-.131a.384.384 0 0 1 0-.172c.005-.274.028-.548.067-.82.785-4.574 1.094-9.206 2.047-13.755.025-.05.1-.066.142-.099v-.008Zm-12.066 3.091c-.276-.722-.217-.976.451-1.402 2.824-1.787 5.457-3.845 8.139-5.829.994-.738 1.93-1.557 2.891-2.344.334-.099.476 0 .418.36a52.404 52.404 0 0 0-1.713 7.854 4.368 4.368 0 0 0-.084.664c-.02.362-.134.714-.332 1.021a2.15 2.15 0 0 1-.796.733 22.339 22.339 0 0 1-4.788 2.156 2.028 2.028 0 0 1-2.08-.402 7.572 7.572 0 0 1-2.106-2.803v-.008Zm66.789 12.813c.835 2.91 1.596 5.82 2.506 8.697a2.61 2.61 0 0 1 .158 1.548c-.106.52-.367.997-.751 1.371-.944.975-1.846 1.975-2.807 2.934a4258.93 4258.93 0 0 1-12.259 12.158c-1.671 1.639-3.25 3.279-4.921 4.918-3.2 3.033-6.175 6.263-9.192 9.485-.526.582-.986 1.221-1.504 1.869a8.575 8.575 0 0 1-1.855-1.164c-2.623-1.771-5.314-3.451-7.804-5.411a59.076 59.076 0 0 1-4.638-3.967l-11.188-10.838a114.352 114.352 0 0 1-11.807-13.673 17.147 17.147 0 0 1-1.245-2 4.103 4.103 0 0 1-.54-1.666 4.068 4.068 0 0 1 .206-1.737c.192-.532.342-1.073.56-1.582 1.128-2.68 2.364-5.32 3.342-8.066.074-.265.221-.505.424-.695.203-.189.455-.32.729-.379a23.51 23.51 0 0 0 4.42-1.746c.251-.123.468-.345.836-.238.092.6.066 1.213-.075 1.804-.351 2.656-.761 5.312-1.07 7.976-.184 1.639-.226 3.23-.326 4.845a3.964 3.964 0 0 0 .296 1.89 4.034 4.034 0 0 0 1.15 1.545c1.27 1.114 2.507 2.254 3.852 3.279 2.732 2.197 5.448 4.418 8.264 6.509a64.31 64.31 0 0 1 13.988 14.37 65.007 65.007 0 0 0 1.721 2.295c.334.435.551.451.961 0a31.445 31.445 0 0 0 1.796-2.016 29.577 29.577 0 0 1 8.289-7.378 48.299 48.299 0 0 0 4.529-3 27.28 27.28 0 0 0 6.501-7.05 10.24 10.24 0 0 0 1.972-5.632 22.057 22.057 0 0 0-.367-4.501 64.235 64.235 0 0 0-2.465-9.017c-.168-.467-.259-.959-.385-1.443 0-.041 0-.098.084-.238 2.086.144 4.18.144 6.267 0 .835 0 .885 0 1.061.754.434 1.747.81 3.501 1.287 5.19Zm2.256-8.862s0 .098.067.197c-2.089.68-4.128 1.492-6.409 1.393-1.304-.057-2.607.107-3.919 0a1.689 1.689 0 0 1-.929-.342 1.639 1.639 0 0 1-.567-.797c-.836-2.017-1.479-4.099-2.089-6.173a796.253 796.253 0 0 1-2.214-7.706 9.55 9.55 0 0 1-.167-.992c-.092-.426-.193-.82.509-.82a52.294 52.294 0 0 1 8.055 7.173c2.516 2.755 4.947 5.558 7.663 8.1v-.033Zm15.55-12.297a11.62 11.62 0 0 1 2.849-.729 22.533 22.533 0 0 1 5.24-.599 10.238 10.238 0 0 1 5.506 1.542l1.329.819c-1.128 1.64-2.557 2.533-4.596 2.23a7.262 7.262 0 0 0-2.381 0 6.546 6.546 0 0 0-3.986 1.927c-1.061-1.911-2.616-3.394-3.986-5.14l.025-.05Zm8.632 23.651c-.911-3.394-1.813-6.796-2.457-10.256a13.466 13.466 0 0 0-.902-2.869 6.668 6.668 0 0 1-.427-3.279c.031-.501.223-.981.548-1.368a2.42 2.42 0 0 1 1.266-.788 6.855 6.855 0 0 1 3.451-.385c.814.099 1.639.06 2.44-.115a4.203 4.203 0 0 0 2.08-1.066c.167-.164.318-.328.485-.475 1.604-1.5 2.975-1.64 4.93-.574a9.712 9.712 0 0 0 2.181.926 5.093 5.093 0 0 0 3.818-.295 8.56 8.56 0 0 1 .61-.295c.286-.159.602-.258.928-.292a2.427 2.427 0 0 1 1.822.558c.248.211.45.469.593.759a5.8 5.8 0 0 1 .885 3.017 17.3 17.3 0 0 1-.459 4.148c-.109.549-.251 1.09-.376 1.639a5.596 5.596 0 0 0-.117.656c0 .516 0 1.033.585 1.279a1.273 1.273 0 0 0 1.404-.328c.511-.446.935-.98 1.253-1.574.577-1.025 1.095-2.082 1.671-3.115.259-.492.535-.984.836-1.459.108-.181.434-.09.526.123.224.516.321 1.076.284 1.636a3.529 3.529 0 0 1-.501 1.585 71.607 71.607 0 0 1-2.691 4.648 90.45 90.45 0 0 1-3.225 4.73 15.698 15.698 0 0 0-3.342 9.485c0 .771-.101.82-.836.959l-12.985 1.902c-.836.115-.836.107-1.153-.615a58.274 58.274 0 0 1-3.125-8.853v-.049Zm98.833-5.968c-.117.328-.501.524-1.203.483a13.874 13.874 0 0 1-1.437-.352 14.626 14.626 0 0 1-3.769-1.902 1.628 1.628 0 0 1-.835-1.033.576.576 0 0 1 .267-.574.901.901 0 0 1 .493-.049.64.64 0 0 1 .284.172 11.715 11.715 0 0 0 5.014 2.353c.108 0 .225 0 .334.066.652.213.978.541.852.885v-.049Zm-18.984-21.117a.59.59 0 0 1 .182-.276.632.632 0 0 1 .302-.143h.209c4.295.402 8.156 1.55 11.406 4.288a37.156 37.156 0 0 1 4.821 4.73c.387.483.747.987 1.078 1.508.293.451.234.82-.083 1.025-.318.205-.61.115-1.011-.328a9.37 9.37 0 0 1-.644-.82 33.881 33.881 0 0 0-5.013-5.033 18.069 18.069 0 0 0-8.256-3.779c-.668-.131-1.345-.205-2.022-.328a1.865 1.865 0 0 1-.643-.18c-.259-.091-.452-.312-.326-.664Zm-6.986 6.836c.05-.262.276-.327.502-.434.133.066.342.09.434.197.242.306.458.633.643.975a10.234 10.234 0 0 0 2.892 3.279 40.17 40.17 0 0 0 6.584 4.099c.461.211.91.446 1.345.705a.563.563 0 0 1 .226.73.549.549 0 0 1-.286.296.565.565 0 0 1-.416.015 6.91 6.91 0 0 1-1.287-.418 35.88 35.88 0 0 1-7.671-4.918 11.647 11.647 0 0 1-2.824-3.722 1.155 1.155 0 0 1-.142-.771v-.033Zm7.596 49.908c-.686.041-1.362.074-2.048.098l-1.88.082c-.654 0-1.298.166-1.868.48a3.769 3.769 0 0 0-1.39 1.316 38.74 38.74 0 0 1-4.12 4.918.755.755 0 0 1-.464.326.767.767 0 0 1-.564-.088 11.76 11.76 0 0 0-4.654-.902 43.823 43.823 0 0 0-7.32.459c-2.999.328-5.924 1.099-8.89 1.64-2.691.467-5.398.819-8.114 1.123a1.143 1.143 0 0 1-.799-.109 1.111 1.111 0 0 1-.521-.604c-2.465-4.468-4.964-8.919-7.445-13.371-.276-.492-.568-.967-.953-1.639l3.51-.574c3.417-.558 6.868-1.008 10.261-1.705a120.51 120.51 0 0 0 14.656-3.804 27.798 27.798 0 0 0 5.849-2.656c.234-.148.493-.254.769-.394.301.96.551 1.878.835 2.771a10.295 10.295 0 0 0 2.424 4.004 10.548 10.548 0 0 0 3.969 2.554c1.111.435 2.239.82 3.342 1.238.903.336 1.805.672 2.682 1.074a6.571 6.571 0 0 1 3.468 3.492.995.995 0 0 1-.735.304v-.033Zm17.84-11.657a.45.45 0 0 1-.301-.107 3.242 3.242 0 0 1-.836-2.123c.013-.449.136-.887.359-1.279.126-.262.544-.459.669-.336s0 .435-.05.599a2.275 2.275 0 0 0 0 2.237 2.5 2.5 0 0 1 .292.599c.034.098-.083.262-.133.41Zm3.985-5.452c-.501 0-.685-.401-.986-.606a3.485 3.485 0 0 0-2.49-.669 3.458 3.458 0 0 0-2.264 1.218 4.01 4.01 0 0 0-.863 1.344 3.954 3.954 0 0 0-.265 1.566 5.067 5.067 0 0 1-.66 2.869 4.453 4.453 0 0 0-.443 3.279c.418 1.91.718 3.837 1.069 5.739.117.647 0 .82-.651.885-2.819.35-5.643.691-8.473 1.025-1.128.131-2.256.229-3.393.336a8.376 8.376 0 0 0-2.019-3.206 8.59 8.59 0 0 0-3.245-2.016l-3.977-1.5c-.736-.279-1.496-.533-2.206-.877a8.809 8.809 0 0 1-4.437-4.673 23.037 23.037 0 0 1-1.078-3.697 83.34 83.34 0 0 1-1.755-9.723 42.674 42.674 0 0 1-.259-7.869c.192-2.05.109-4.099.434-6.173a41.02 41.02 0 0 1 1.672-7.001 1.104 1.104 0 0 1 .61-.82c.835 3.984 3.183 7.108 6.066 9.895l1.588 1.525c.199.194.418.37.651.524a.79.79 0 0 0 .836 0 .661.661 0 0 0 .283-.304.64.64 0 0 0 .043-.409c-.142-.656-.343-1.295-.51-1.943-.075-.328.042-.426.359-.295a21.553 21.553 0 0 0 8.114 6.075c.1.041.184.122.292.163.619.238.878 0 .878-.729a3.27 3.27 0 0 0-.067-.492c-.125-.328 0-.418.318-.32a.221.221 0 0 1 .087.082.204.204 0 0 1 .029.115.579.579 0 0 0 .335.402c.309.328.635.639.919.983a15.07 15.07 0 0 0 7.93 4.968c.476.079.91.315 1.232.668.322.353.512.802.539 1.275.067.492 0 1 .075 1.492s-.443 1.213.393 1.418c.685.172.76-.524 1.019-.926.259-.402.427-.656.669-.967.284-.341.637-.62 1.036-.82a1.75 1.75 0 0 1 1.148-.247c.4.053.769.242 1.041.534a3.673 3.673 0 0 1 1.011 1.721 8.122 8.122 0 0 1-.668 6.157l.033.024Zm32.547 26.528a.696.696 0 0 1-.176.902c-.267.221-.66.074-.969-.369-.702-1.017-1.404-2.025-2.098-3.042a2.147 2.147 0 0 1-.242-.606c-.058-.197.293-.599.61-.582.178.059.342.151.485.27a20.23 20.23 0 0 1 2.206 2.96c.062.143.112.291.15.442l.034.025Zm-20.055-45.3a1.836 1.836 0 0 1-.835-.55.516.516 0 0 1 0-.623c.124-.121.265-.226.418-.311.217.074.434.131.635.221a12.883 12.883 0 0 1 3.618 2.189c5.54 4.787 9.434 10.534 10.645 17.822a47.12 47.12 0 0 0 1.671 6.82 34.25 34.25 0 0 0 2.591 6.181c.242.435.426.902.626 1.361a.489.489 0 0 1-.2.59.586.586 0 0 1-.786-.049 5.552 5.552 0 0 1-.593-.82 23.89 23.89 0 0 1-1.997-4.099 54.769 54.769 0 0 1-2.716-9.665 40.542 40.542 0 0 0-1.011-4.057 22.917 22.917 0 0 0-3.96-7.542 44.416 44.416 0 0 0-4.178-4.657 14.848 14.848 0 0 0-3.928-2.836v.025Zm24.232 60.441a9.24 9.24 0 0 1-1.395-.598 14.22 14.22 0 0 1-3.016-2.46 44.11 44.11 0 0 1-8.724-12.927c-1.613-3.64-2.841-7.378-4.103-11.182-.351-1.057-.727-2.107-1.086-3.172-.125-.369-.226-.771.209-1.033.434-.263.727 0 .961.631a337.94 337.94 0 0 1 2.306 6.296c.953 2.688 1.897 5.385 3.05 7.992a43.545 43.545 0 0 0 7.796 11.739 17.208 17.208 0 0 0 4.178 3.435c.317.181.543.41.501.754-.041.345-.443.582-.66.5l-.017.025Z"/>
  <path fill="#FDEAFF" d="M92.608 360.558c.028-.339.187-.656.443-.885 6.108-7.566 12.125-15.215 18.467-22.609 1.721-2 3.568-3.91 5.414-5.804 2.841-2.902 5.591-5.878 8.131-9.018a777.92 777.92 0 0 1 5.957-7.336 47.527 47.527 0 0 0 3.117-4.19c.181-.282.394-.543.635-.778.176-.181.41-.115.619 0a.376.376 0 0 1 .157.19.359.359 0 0 1 .001.244c-.12.312-.271.611-.451.894-.835 1.156-1.537 2.352-2.415 3.451a883.042 883.042 0 0 1-9.258 11.387c-1.83 2.213-3.886 4.238-5.891 6.287a145.147 145.147 0 0 0-7.253 8.017c-5.164 6.173-10.169 12.469-15.208 18.732-.325.41-.919.73-.752 1.41l-1.713.008Zm204.118 0a67.348 67.348 0 0 0-4.437-7.148c-4.387-6.263-8.356-12.772-12.149-19.404a6.252 6.252 0 0 1-.435-.894.479.479 0 0 1 .259-.565.424.424 0 0 1 .319-.083.429.429 0 0 1 .283.165c.206.26.393.533.56.819 2.924 4.73 5.849 9.469 8.765 14.174 1.011 1.64 2.089 3.205 3.2 4.755 1.672 2.377 3.226 4.869 4.688 7.378.121.25.227.508.318.77l-1.371.033Zm-172.315 0c0-.156-.075-.344 0-.467.129-.247.283-.48.459-.697a170.245 170.245 0 0 0 10.763-16.854c1.671-2.861 3.626-5.534 5.373-8.329.059-.098.126-.191.2-.279a.61.61 0 0 1 .403-.266.628.628 0 0 1 .475.102.583.583 0 0 1 0 .771c-.661 1.098-1.312 2.213-2.031 3.279-2.231 3.279-4.178 6.755-6.225 10.181-2.223 3.763-4.587 7.435-7.153 10.985a3.266 3.266 0 0 0-.91 1.574h-1.354Zm121.979-187.48c-.25 0-.543-.394-.443-.607.169-.413.379-.808.627-1.181 3.134-4.459 6.401-8.828 9.718-13.116 2.198-2.853 4.379-5.738 6.568-8.566a2264.317 2264.317 0 0 0 14.339-18.781c4.662-6.198 9.592-12.207 14.388-18.306 2.19-2.787 4.387-5.574 6.485-8.427 1.98-2.672 4.269-5.09 6.367-7.665a1.66 1.66 0 0 1 .509-.426.51.51 0 0 1 .619.115c.087.072.149.17.178.278a.541.541 0 0 1-.019.328 1.02 1.02 0 0 1-.159.296c-.1.13-.217.254-.326.385-4.838 5.287-8.882 11.19-13.37 16.756-3.425 4.246-6.785 8.55-10.194 12.813-3.2 4-6.141 8.198-9.241 12.255-3.1 4.058-6.159 7.903-9.192 11.887-4.788 6.32-9.734 12.526-14.322 18.994-.643.918-1.328 1.812-1.989 2.722a.601.601 0 0 1-.543.246ZM92.675 98.372a.996.996 0 0 1 .326.23c.877 1.1 1.853 2.12 2.916 3.049 11.038 10.854 22.411 21.453 33.599 32.176 4.688 4.484 9.3 9.017 13.913 13.608a283.375 283.375 0 0 0 13.311 12.297c.214.176.4.384.551.614a.524.524 0 0 1 0 .459.466.466 0 0 1-.593.197 1.92 1.92 0 0 1-.577-.352c-.835-.673-1.671-1.328-2.506-2.042-4.095-3.639-8.122-7.377-11.991-11.214-9.726-9.739-19.77-19.158-29.764-28.634-6.108-5.78-12.107-11.666-18.14-17.519a18.85 18.85 0 0 1-1.496-1.64 1.003 1.003 0 0 1-.25-.82.66.66 0 0 1 .279-.322.679.679 0 0 1 .422-.087ZM73.014 329.34a.535.535 0 0 1-.373-.303.52.52 0 0 1 .03-.475c.264-.288.543-.561.836-.82 3.2-2.943 6.425-5.87 9.592-8.837 5.206-4.861 10.662-9.428 16.294-13.805a370.612 370.612 0 0 0 20.288-16.961c3.435-3.099 7.028-6.034 10.562-9.018 2.24-1.901 4.596-3.664 7.003-5.361.225-.167.462-.318.71-.451a.504.504 0 0 1 .618.131.417.417 0 0 1 .095.462.417.417 0 0 1-.095.137 7.349 7.349 0 0 1-.752.68c-6.601 4.878-12.759 10.288-18.884 15.715a400.093 400.093 0 0 1-16.503 13.83c-4.73 3.771-9.576 7.378-14.038 11.476-4.68 4.263-9.325 8.551-13.988 12.822l-.76.672a.784.784 0 0 1-.635.106Zm83.483-147.025c-.066.221-.25.426-.467.402a1.915 1.915 0 0 1-.769-.32c-1.229-.82-2.465-1.639-3.652-2.459a123.612 123.612 0 0 0-6.308-4.296c-13.044-8.197-25.812-16.731-38.438-25.544a514.918 514.918 0 0 0-14.647-9.837 11.43 11.43 0 0 1-1.229-.885.604.604 0 0 1-.117-.771c.109-.213.293-.377.535-.287.254.12.495.266.719.435 7.729 4.918 15.191 10.222 22.744 15.403 10.345 7.107 20.782 14.084 31.46 20.699a73.419 73.419 0 0 1 5.849 4.042c1.262.959 2.582 1.836 3.869 2.746a.763.763 0 0 1 .325.272c.08.119.124.258.126.4Zm-23.53-110.479c-.334 0-.676-.106-1.011-.131a6.804 6.804 0 0 0-3.339.46 6.674 6.674 0 0 0-2.685 2c-.293.335-.527.729-.786 1.09-.259.36-.476.524-.835.401a.829.829 0 0 1-.395-.327.808.808 0 0 1-.123-.492c0-.28-.051-.558-.092-.82a24.625 24.625 0 0 0-1.011-4.23 4.166 4.166 0 0 0-.677-1.526 4.229 4.229 0 0 0-1.229-1.147.603.603 0 0 1-.299-.292.584.584 0 0 1-.035-.413.732.732 0 0 1 .233-.343.754.754 0 0 1 .386-.165c1.119-.197 2.247-.344 3.342-.582a19.967 19.967 0 0 0 2.457-.705 7.346 7.346 0 0 0 2.749-1.64c.317-.311.635-.754 1.144-.54.51.213.46.82.468 1.32.009.5 0 1.008 0 1.508.007.951.16 1.896.452 2.803a3.95 3.95 0 0 0 .566 1.477c.287.45.663.84 1.105 1.146a.585.585 0 0 1 .273.307.566.566 0 0 1 .002.407c-.075.401-.376.418-.66.434ZM44.612 333.342a2.728 2.728 0 0 1-.468-.246c-.41-.295-.785-.639-1.203-.926a7.316 7.316 0 0 0-4.939-1.517c-.339.029-.68.029-1.019 0a.524.524 0 0 1-.31-.125.505.505 0 0 1-.166-.285.563.563 0 0 1 .167-.615c.368-.262.752-.491 1.128-.746a9.103 9.103 0 0 0 2.556-2.559 8.926 8.926 0 0 0 1.338-3.335 5.744 5.744 0 0 0 .058-2 .613.613 0 0 1 .102-.398.633.633 0 0 1 .333-.25 1.026 1.026 0 0 1 1.111.099c.097.137.186.279.268.426a7.376 7.376 0 0 0 3.06 2.721 7.548 7.548 0 0 0 4.067.697l.677-.073c.61 0 .928.123.96.459.051.492-.317.664-.684.82l-.769.36a11.6 11.6 0 0 0-3.919 3.173 6.5 6.5 0 0 0-1.37 2.853 8.67 8.67 0 0 1-.284 1.131c-.076.213-.284.377-.694.336Zm13.044-24.487c-.226 0-.443-.41-.368-.647a1.23 1.23 0 0 1 .527-.631c.835-.541 1.579-1.099 2.39-1.64 5.247-3.345 10.528-6.632 16.043-9.558a147.899 147.899 0 0 0 14.69-9.157 377.437 377.437 0 0 1 7.444-5.042 95.023 95.023 0 0 1 14.205-7.632c.151-.065.301-.156.46-.213a.85.85 0 0 1 .953.123c.209.205-.042.639-.518.885-.911.459-1.83.902-2.75 1.345a105.15 105.15 0 0 0-14.113 8.132c-2.799 1.918-5.615 3.82-8.414 5.738a117.085 117.085 0 0 1-10.428 6.362 239.446 239.446 0 0 0-19.043 11.476c-.31.254-.61.558-1.078.459Zm16.218-120.727c.16 0 .502.058.836.123 4.01.82 8.013 1.64 12.024 2.41a3810.193 3810.193 0 0 0 22.102 4.214c5.473 1.017 10.962 1.959 16.444 2.918.618.107 1.245.132 1.863.23a.51.51 0 0 1 .295.157c.077.083.124.19.131.302a.537.537 0 0 1-.084.399.556.556 0 0 1-.342.232 2.439 2.439 0 0 1-.835 0c-7.345-1.205-14.69-2.41-21.993-3.836l-29.78-5.796a7.942 7.942 0 0 1-.986-.246c-.427-.131-.619-.426-.519-.721.1-.295.36-.394.844-.386Zm119.582-68.262c0 .156 0 .295-.076.369a.76.76 0 0 1-.384.311.558.558 0 0 1-.434-.163.813.813 0 0 1-.209-.443c-.426-2.312-1.295-4.509-1.947-6.763-1.295-4.517-2.206-9.124-3.067-13.731-.894-4.78-1.788-9.559-2.59-14.346-.702-4.19-1.279-8.395-1.897-12.592a47.39 47.39 0 0 1-.317-2.664 3.644 3.644 0 0 1 .041-.984.534.534 0 0 1 .205-.35.551.551 0 0 1 .397-.109.507.507 0 0 1 .31.119.488.488 0 0 1 .166.283c.037.162.063.326.075.492 1.003 8.943 2.574 17.805 4.228 26.642.836 4.558 1.672 9.124 2.791 13.625.56 2.221 1.229 4.41 1.839 6.623.284 1.025.543 2.05.835 3.083.017.196.009.418.034.598ZM42.08 297.469a.807.807 0 0 1-.102.482.831.831 0 0 1-.366.337 8.663 8.663 0 0 0-1.98 1.82 4.333 4.333 0 0 0-1.195 2.689c-.01.168-.03.335-.058.5-.059.279-.134.549-.477.607a.739.739 0 0 1-.735-.287 8.982 8.982 0 0 0-.468-.492 5.391 5.391 0 0 0-1.726-1.19 5.46 5.46 0 0 0-2.06-.449H30.7a3.554 3.554 0 0 1-.836-.066.62.62 0 0 1-.46-.443.533.533 0 0 1 .2-.598 7.575 7.575 0 0 0 2.382-2.107 9.406 9.406 0 0 0 1.889-4.41c0-.164 0-.328.058-.492.059-.164.176-.541.493-.607a.67.67 0 0 1 .414.041.65.65 0 0 1 .305.279c.15.238.267.492.426.721a5.942 5.942 0 0 0 1.87 1.913c.762.49 1.629.803 2.534.916.56.057 1.12.147 1.67.254a.58.58 0 0 1 .323.215.565.565 0 0 1 .112.367Zm38.137-135.664v.345a.67.67 0 0 1-.124.304.7.7 0 0 1-.904.196 6.54 6.54 0 0 1-.836-.82 10.34 10.34 0 0 0-2.055-1.746 6.436 6.436 0 0 0-2.858-1.049 1.258 1.258 0 0 1-.618-.222c-.226-.164-.452-.451-.218-.705 1.605-1.754 1.672-3.926 1.83-6.091a2.326 2.326 0 0 1 0-.336.616.616 0 0 1 .382-.511.625.625 0 0 1 .638.101c.273.2.535.413.785.64a12.21 12.21 0 0 0 2.24 1.525 5.938 5.938 0 0 0 3.877.934c.14-.037.29-.02.419.047a.569.569 0 0 1 .274.314.675.675 0 0 1-.217.754c-.082.075-.171.14-.267.197-2.114 1.352-2.65 3.361-2.432 5.673.034.139.084.295.084.45Zm219.994-94.06c.585-.049.835 0 1.069.238.234.246.434.522.594.82a6.096 6.096 0 0 0 3.342 2.697l.476.18c.694.312.836.82.268 1.279a11.064 11.064 0 0 0-3.251 5.017 5.411 5.411 0 0 1-.192.467.665.665 0 0 1-.503.403.69.69 0 0 1-.617-.198 5.252 5.252 0 0 1-.418-.533 6.934 6.934 0 0 0-4.177-2.697 5.599 5.599 0 0 1-.978-.295.72.72 0 0 1-.365-.22.69.69 0 0 1-.092-.797.712.712 0 0 1 .306-.294c1.856-1.107 2.8-2.878 3.702-4.69.176-.352.351-.704.552-1.04.133-.206.317-.345.284-.337Zm72.153 64.09a.618.618 0 0 1-.284.582c-.293.164-.61.303-.911.451a730.15 730.15 0 0 0-32.997 17.092c-2.131 1.172-4.279 2.32-6.418 3.468a7.868 7.868 0 0 1-.919.434.454.454 0 0 1-.585-.197.456.456 0 0 1 0-.614c.26-.212.54-.399.836-.558a791.485 791.485 0 0 1 22.385-12.116c5.515-2.877 11.097-5.624 16.67-8.386a4.151 4.151 0 0 1 1.58-.607.588.588 0 0 1 .413.1c.119.084.202.21.23.351ZM88.648 209.631c.166.04.328.095.484.164.56.279 1.103.59 1.671.869a7.237 7.237 0 0 0 4.112.82c.17-.013.34-.013.51 0a.672.672 0 0 1 .584.272.657.657 0 0 1 .084.629 7.793 7.793 0 0 1-.376.746 6.05 6.05 0 0 0-.167 5.64c.175.377.576.754.175 1.222-.267.311-.568.303-1.337-.263a12.168 12.168 0 0 0-5.565-2.385 2.352 2.352 0 0 1-.334-.049 1.131 1.131 0 0 1-.867-.6 1.079 1.079 0 0 1 .031-1.04 8.514 8.514 0 0 0 .51-4.099c0-.385-.167-.762-.217-1.147a.745.745 0 0 1 .192-.527.775.775 0 0 1 .51-.252Zm326.114 131.572c-.059.107-.109.287-.234.369a.537.537 0 0 1-.468.066 1.986 1.986 0 0 1-.644-.517c-2.047-2.639-4.595-4.795-7.01-7.082-7.337-6.927-14.765-13.764-21.725-21.093a6.108 6.108 0 0 1-.468-.484c-.184-.237-.276-.5 0-.737a.562.562 0 0 1 .384-.15c.143 0 .28.053.384.15.309.255.602.529.878.819 1.529 1.501 3.058 3.001 4.57 4.517 3.05 3.083 6.15 6.116 9.359 9.018 3.66 3.353 7.236 6.787 10.863 10.198a36.043 36.043 0 0 1 3.651 3.976c.273.246.438.587.46.95ZM247.335 98.159c-.502.074-.886-.36-.836-.64a2.76 2.76 0 0 1 .2-.45 5.883 5.883 0 0 0-.133-6.19.548.548 0 0 1 .042-.754.648.648 0 0 1 .777-.14 6.84 6.84 0 0 0 2.105.616 5.559 5.559 0 0 0 3.593-.738c.284-.18.585-.336.836-.516a.508.508 0 0 1 .627.049.583.583 0 0 1 .209.738c-.126.254-.251.5-.368.754a5.002 5.002 0 0 0 .075 4.812c.163.29.297.595.401.91a.534.534 0 0 1-.122.462.565.565 0 0 1-.446.194 3.099 3.099 0 0 1-.836-.173 5.951 5.951 0 0 0-5.372.582l-.752.484Zm94.555 21.429a.675.675 0 0 1-.192.615c-.468.41-.944.819-1.437 1.18-4.513 3.32-9.008 6.648-13.545 9.936-5.315 3.844-10.337 8.058-15.434 12.173-.401.32-.793.64-1.195.943a.835.835 0 0 1-.467.18.588.588 0 0 1-.443-.188.484.484 0 0 1-.05-.451c.25-.3.53-.574.835-.82 4.696-3.984 9.434-7.919 14.397-11.575 4.964-3.656 9.844-7.222 14.774-10.837.676-.5 1.345-1.033 2.03-1.525a.555.555 0 0 1 .451.018.52.52 0 0 1 .276.351Zm-177.63 65.68c.196.049.382.13.552.237.451.418.835.877 1.312 1.312a6.51 6.51 0 0 0 3.142 1.894c.76.172.91.606.543 1.221-.167.287-.393.541-.569.82a5.59 5.59 0 0 0-.835 4.312c.067.323.084.655.05.984a.542.542 0 0 1-.596.387.564.564 0 0 1-.24-.092c-.3-.254-.551-.558-.835-.82-.502-.451-.995-.91-1.538-1.312a4.022 4.022 0 0 0-2.506-.82c-1.062 0-1.388-.623-.836-1.516.201-.336.443-.648.668-.967.574-.692.984-1.5 1.201-2.367a5.907 5.907 0 0 0 .053-2.642c-.125-.263.108-.451.434-.631Zm7.211-40.12a2.327 2.327 0 0 1-.267.238.357.357 0 0 1-.451-.099 3.52 3.52 0 0 1-.51-.656c-5.774-9.542-11.03-19.354-15.876-29.397a34.712 34.712 0 0 1-.619-1.377 1.624 1.624 0 0 1-.142-.647.634.634 0 0 1 .51-.591.565.565 0 0 1 .416.016.542.542 0 0 1 .286.296c2.34 5.878 5.482 11.378 8.431 16.961 2.248 4.255 4.705 8.403 7.069 12.6l1.061 1.91a.711.711 0 0 1 .092.746Zm166.107-42.202a1.38 1.38 0 0 1-.259.46 5.746 5.746 0 0 0-1.671 4.098v.337c-.167 1.229-.577 1.426-1.671.696a6.227 6.227 0 0 0-4.379-1.008 7.067 7.067 0 0 1-.835.082.659.659 0 0 1-.561-.317.634.634 0 0 1-.016-.634c.12-.19.254-.371.401-.541a8.46 8.46 0 0 0 2.215-4.976 1.69 1.69 0 0 1 .142-.475.63.63 0 0 1 .323-.251.652.652 0 0 1 .412-.004c.05 0 .117 0 .142.082 1.262 1.64 3.017 1.853 4.897 1.746.171-.017.344 0 .509.05.176.098.351.27.351.655ZM90.318 338.818a6.527 6.527 0 0 0-2.815.303c-.66.181-1.295.427-1.955.599-.66.172-.978-.295-.836-.894a4.55 4.55 0 0 1 .167-.475 5.078 5.078 0 0 0-.192-4.222c-.142-.303-.318-.598-.443-.91a.605.605 0 0 1 .048-.629.627.627 0 0 1 .587-.256c.173.002.345.029.51.082a7.287 7.287 0 0 0 4.688-.14c.384-.114.76-.344 1.11 0a.976.976 0 0 1 .159 1.222 5.11 5.11 0 0 0 .076 4.386c.027.049.05.101.067.155.192.599-.126.943-.836.878a1.256 1.256 0 0 1-.334-.099Zm271.183-162.363c-4.437.164-8.865 0-13.302-.09a2.652 2.652 0 0 1-1.488-.222c-.133-.09-.284-.172-.292-.377a.504.504 0 0 1 .368-.5 5.733 5.733 0 0 1 1.186 0c5.573.131 11.138.197 16.712 0 4.713-.155 9.434-.287 14.13-.819.501-.05 1.019-.074 1.529-.099.51-.024.919.139.977.443.059.303-.242.631-.927.746-.335.06-.672.104-1.011.131-5.106.385-10.203.82-15.325.779l-2.557.008ZM138.85 189.481c0 .311-.175.516-.409.533a2.54 2.54 0 0 1-.836-.107 355.81 355.81 0 0 1-19.386-5.115 16.682 16.682 0 0 1-1.754-.623 2.16 2.16 0 0 1-.694-.459.455.455 0 0 1-.092-.607.557.557 0 0 1 .56-.295c.111.013.22.038.326.074 5.272 1.918 10.762 3.107 16.16 4.59 1.805.501 3.618.951 5.423 1.435.343.09.66.238.702.574Zm146.462-12.313c-.092.082-.217.271-.334.271-.31.006-.614.088-.884.238-.27.151-.497.364-.662.622-3.117 3.558-6.484 6.895-9.793 10.288a28.143 28.143 0 0 0-2.925 3.279.396.396 0 0 1-.272.195.4.4 0 0 1-.172-.001.393.393 0 0 1-.157-.071c-.251-.18-.418-.426-.242-.705.27-.488.589-.95.952-1.377a111.123 111.123 0 0 1 2.983-3.23c2.966-3.09 6.008-6.115 8.849-9.329a9.03 9.03 0 0 1 1.253-1.123.746.746 0 0 1 .945.066.937.937 0 0 1 .357.374.916.916 0 0 1 .102.503Z"/>
  <path fill="#897E7E" d="M292.941 216.623c0 .369-.276.82-.484.73-.443-.189-.193-.623 0-.959 0-.05.083-.074.125-.107l.359.336Z"/>
  <path fill="#6067FF" d="M269.06 251.8c-2.281 0-3.451-.91-3.944-2.919a4.624 4.624 0 0 1-.15-1.639 18.4 18.4 0 0 1 1.103-4.714 3.279 3.279 0 0 1 1.157-1.616 3.376 3.376 0 0 1 1.893-.671l.509-.049c3.125-.23 6.2-.82 9.292-1.222 2.808-.393 5.624-.82 8.406-1.352 2.783-.533 5.014.614 5.715 3.623.042.164.101.32.143.484.367 1.713 0 2.459-1.546 3.279a22.41 22.41 0 0 1-2.825 1.172 2270.207 2270.207 0 0 1-14.556 4.673 22.044 22.044 0 0 1-5.197.951Zm-61.082-25.118c1.488.508 1.488.508 3.009-.41.3.899.471 1.834.509 2.779.276 2.615.736 5.197 1.12 7.788.343 2.377.702 4.754.953 7.14.275 2.615.835 5.181 1.253 7.771.226 1.435.543 2.853.835 4.271a1.646 1.646 0 0 1-.317 1.574c-.401.459-.76.951-1.103 1.386-.643-.115-.836-.574-1.07-.918a92.238 92.238 0 0 0-6.509-7.985l-.108-.123c-.661-.82-1.596-1.426-2.156-2.353.15-1.155.267-2.32.476-3.475.518-2.853 1.103-5.698 1.604-8.559.502-2.861.911-5.623 1.371-8.427.025-.156.092-.303.133-.459Zm19.194-24.585c.334 1.287.593 2.361.886 3.435.376 1.402.743 2.804 1.178 4.189a2.835 2.835 0 0 1-.159 2.254 34.5 34.5 0 0 1-2.724 4.632l-2.415 3.435c-.326.459-.518.516-.994.287a8.078 8.078 0 0 1-.744-.402c-1.897-1.016-3.785-2.049-5.69-3.05a2.341 2.341 0 0 1-1.27-1.262 15.902 15.902 0 0 0-1.989-2.91c-.368-.549-.343-.705.251-1.058 2.506-1.475 4.854-3.115 7.236-4.746a86.018 86.018 0 0 0 5.565-4.148c.2-.172.426-.328.869-.656Zm-35.663-.861c.134.055.258.129.368.222a52.928 52.928 0 0 0 4.721 4.607 67.694 67.694 0 0 0 7.737 6.058c.543.369.61.533.385 1.107a12.293 12.293 0 0 1-2.415 3.631c-.485.549-1.036 1.041-1.546 1.574-1.07 1.131-.919 1.303-2.173.049-2.916-2.902-5.849-5.738-8.832-8.64-.284-.279-.568-.549-.835-.82a1.042 1.042 0 0 1-.368-1.189c.518-1.77.978-3.557 1.487-5.328.105-.323.297-.611.556-.835.259-.224.575-.374.915-.436ZM56.277 217.082c-.077.16-.175.309-.293.443-.409.385-.835.771-1.261 1.123-2.256 1.795-4.512 3.591-6.685 5.501a51.79 51.79 0 0 1-6.033 4.394c-.836.541-1.128.533-1.805-.123a12.877 12.877 0 0 1-2.598-3.878 1.232 1.232 0 0 1-.134-.813c.05-.279.194-.532.41-.72.242-.238.484-.475.735-.705a.71.71 0 0 1 .92-.139c.253.129.515.241.784.336a2.962 2.962 0 0 0 2.616-.32c1.07-.639 2.13-1.295 3.192-1.943 2.23-1.344 4.462-2.697 6.684-4.033.427-.262.836-.713 1.362-.606a3.728 3.728 0 0 1 1.906 1.057c.089.131.157.275.2.426Zm289.966 42.899c.544 0 1.145-.074 1.738-.074a62.074 62.074 0 0 0 7.312-.525c2.314-.246 4.637-.483 6.944-.819 1.245-.156 2.506-.394 3.701-.615 2.365-.427 2.799-.189 3.652 2.09.376.992.76 1.976 1.128 2.976a.381.381 0 0 1-.169.536.4.4 0 0 1-.207.038 14.838 14.838 0 0 1-3.409-.099c-3.042-.434-6.1-.631-9.15-.942-2.549-.271-5.097-.459-7.621-.902a16.265 16.265 0 0 1-3.71-1.213c-.142-.017-.301-.115-.209-.451Zm-85.781 53.522c-3.234-.393-6.451-.705-9.534-1.811-2.181-.82-4.437-1.386-6.685-2.082a18.96 18.96 0 0 1-2.072-.763c-.502-.213-.619-.549-.518-1.098.325-1.796.676-2.017 2.506-1.41a92.241 92.241 0 0 0 10.863 2.705c1.446.287 2.925.41 4.387.598a1.11 1.11 0 0 1 .773.289c.209.191.334.456.347.736.083.721.309 1.418.451 2.123.167.541-.017.746-.518.713Zm-81.403-5.271c0 .886-.168 1.148-.936 1.271-1.571.246-3.15.475-4.73.648-4.019.442-8.005 1.131-11.999 1.713a59.848 59.848 0 0 0-5.974 1.287c-.443.115-.619-.057-.577-.508a1.234 1.234 0 0 1 0-.172c.268-1.992.276-2.058 2.298-2.46 2.231-.41 4.487-.738 6.735-1.082 2.64-.393 5.289-.779 7.938-1.131 2.139-.295 4.287-.541 6.434-.82a.609.609 0 0 1 .489.091.567.567 0 0 1 .246.426c.042.311.059.59.076.737Zm196.956-82.025c.035-.323.088-.643.159-.959a47.625 47.625 0 0 0 1.354-6.198c.054-.33.14-.654.259-.967a.54.54 0 0 1 .677-.361c.332.061.658.146.977.254 1.137.402 1.296.689 1.179 1.861a47.71 47.71 0 0 1-1.053 6.558c-.042.156-.05.328-.101.492-.284 1.107-.501 1.23-1.671.992a9.27 9.27 0 0 1-.835-.189c-.853-.205-1.003-.418-.945-1.483Zm-35.93 39.226c.334.287.769.073 1.128.213a1.084 1.084 0 0 1-1.011.287c-.251-.066-.451-.246-.117-.5Z"/>
  <path fill="#FDEAFF" d="M177.387 267.597c2.293.215 4.543.744 6.685 1.574a33.637 33.637 0 0 1 3.543 1.639c2.64 1.427 5.247 2.91 7.854 4.386.242.144.456.327.635.541a.46.46 0 0 1 0 .615c-.142.164-.35.336-.584.221a33.423 33.423 0 0 1-1.972-.975c-2.298-1.238-4.571-2.501-6.869-3.722a22.055 22.055 0 0 0-4.863-2 21.844 21.844 0 0 0-5.181-.919c-.66 0-1.002-.237-1.069-.606-.067-.369.359-.722 1.094-.754h.727Zm17.84-.353c.234.058.685.14 1.12.263a19.269 19.269 0 0 1 5.732 2.885c1.521 1.074 2.933 2.296 4.554 3.279a.916.916 0 0 1 .343.361.752.752 0 0 1 .058.467.483.483 0 0 1-.191.266.5.5 0 0 1-.319.087 1.872 1.872 0 0 1-.793-.263c-.836-.541-1.713-1.098-2.549-1.639-1.178-.82-2.306-1.64-3.509-2.369a11.74 11.74 0 0 0-5.215-1.919 1.066 1.066 0 0 1-.459-.188.529.529 0 0 1-.234-.582.818.818 0 0 1 .267-.402c.358-.214.78-.301 1.195-.246Zm28.644 23.773c-.259 0-.618-.475-.476-.729.133-.245.296-.473.485-.681a16.384 16.384 0 0 1 3.384-2.787 35.551 35.551 0 0 1 6.225-3.066c2.114-.82 4.178-1.705 6.258-2.598 2.081-.894 4.295-1.747 6.451-2.607.206-.088.422-.148.644-.181a.584.584 0 0 1 .412.054c.126.069.22.181.264.315a.637.637 0 0 1-.217.746 2.085 2.085 0 0 1-.434.263l-.777.336a7221.557 7221.557 0 0 0-12.392 5.082 66.559 66.559 0 0 0-3.242 1.476 19.523 19.523 0 0 0-5.707 3.877 1.169 1.169 0 0 1-.878.5Zm-8.874-16.731a4.483 4.483 0 0 1-.885-.14.507.507 0 0 1-.351-.516.591.591 0 0 1 .376-.517c.27-.082.552-.126.835-.131 2.148-.196 4.303-.401 6.459-.582a31.213 31.213 0 0 0 6.685-1.32 3.222 3.222 0 0 1 1.003-.163.54.54 0 0 1 .509.368.594.594 0 0 1-.15.615 2.414 2.414 0 0 1-1.203.599 27.933 27.933 0 0 1-5.49 1.164c-2.565.246-5.122.41-7.788.623Zm-.727 39.799h-3.559c-.334 0-.685-.106-.769-.5-.084-.393.259-.68.752-.721a71.364 71.364 0 0 1 7.119-.254c.296-.022.591.056.836.221a.677.677 0 0 1 .259.582.514.514 0 0 1-.376.492c-.33.069-.666.104-1.003.107h-3.225l-.034.073Zm-.359-36.504a1.416 1.416 0 0 1 .426-1.156c.392-.325.86-.551 1.362-.656a.547.547 0 0 1 .331.048.53.53 0 0 1 .237.231.478.478 0 0 1 0 .615l-.108.131c-.243.295-.836.304-.836.754a1.883 1.883 0 0 0 .735 1.279c.131.104.254.216.368.336a.562.562 0 0 1 .134.615.702.702 0 0 1-.702.369.85.85 0 0 1-.485-.139 3.736 3.736 0 0 1-1.462-2.427Zm127.636 35.029c.3-.008.594.081.836.254.836.508 1.671.967 2.448 1.525a92.178 92.178 0 0 1 19.01 17.928 34.957 34.957 0 0 1 2.975 4.484c.196.338.355.695.476 1.066a.465.465 0 0 1-.042.321.48.48 0 0 1-.242.22.557.557 0 0 1-.644-.041 2.146 2.146 0 0 1-.409-.525 61.83 61.83 0 0 0-9.25-11.575 108.508 108.508 0 0 0-9.609-8.55 56.841 56.841 0 0 0-4.705-3.32 3.626 3.626 0 0 1-1.178-.943.535.535 0 0 1 0-.631c.099-.088.212-.16.334-.213Zm23.856 16.117a.595.595 0 0 1-.412.657.622.622 0 0 1-.281.023 1.255 1.255 0 0 1-.635-.533c-2.875-4.098-6.752-7.222-10.687-10.28-.711-.557-1.454-1.065-2.181-1.639a13.342 13.342 0 0 1-.919-.746.57.57 0 0 1-.12-.756.593.593 0 0 1 .331-.247.605.605 0 0 1 .415.027c.267.1.519.233.752.394a63.938 63.938 0 0 1 10.98 9.296c.917.995 1.74 2.071 2.457 3.214.115.188.216.386.3.59Zm-54.99 24.519a.615.615 0 0 1-.351.451.465.465 0 0 1-.593-.172 6.156 6.156 0 0 1-.51-.869 41.378 41.378 0 0 0-3.342-5.28 20.492 20.492 0 0 1-1.27-1.787c-3.342-5.484-7.253-10.558-10.771-15.903a298.02 298.02 0 0 1-5.398-8.55c-.835-1.337-1.504-2.755-2.247-4.14a.495.495 0 0 1-.076-.148.5.5 0 0 1 .176-.59.521.521 0 0 1 .397-.103.5.5 0 0 1 .346.218c.221.251.412.526.569.82.944 1.918 2.13 3.689 3.233 5.517 2.841 4.648 5.9 9.156 9.108 13.575a195.17 195.17 0 0 1 2.507 3.615c1.671 2.705 3.443 5.402 5.34 7.985a32.515 32.515 0 0 1 2.59 4.328c.203.307.305.667.292 1.033Zm-5.874-64.335a.705.705 0 0 1-.091.468.73.73 0 0 1-.368.311.617.617 0 0 1-.417-.022.593.593 0 0 1-.302-.282 2.001 2.001 0 0 1-.276-.82A28.97 28.97 0 0 0 300.47 281c-.652-1.418-1.404-2.804-2.148-4.181a8.168 8.168 0 0 0-1.537-2.189.6.6 0 0 1 0-.778.718.718 0 0 1 .927-.107c.464.411.854.896 1.153 1.435a43.74 43.74 0 0 1 5.089 10.903c.243.819.376 1.639.543 2.459.031.12.045.245.042.369Zm43.902-8.862c.092 0 .301 0 .409.106.243.231.469.477.677.738 2.081 2.459 4.329 4.73 7.454 5.927.21.085.403.207.568.361a.529.529 0 0 1 .167.598.515.515 0 0 1-.518.353 2.555 2.555 0 0 1-.836-.189 15.503 15.503 0 0 1-5.013-3.074 29.795 29.795 0 0 1-2.908-3.049 2.068 2.068 0 0 1-.577-1.181.595.595 0 0 1 .17-.407.615.615 0 0 1 .407-.183Zm-49.601-54.326c.213.061.418.146.61.254a20.67 20.67 0 0 1 6.685 7.492c.111.262.178.538.201.82a.506.506 0 0 1-.301.549.613.613 0 0 1-.769-.163 3.318 3.318 0 0 1-.359-.566 22.943 22.943 0 0 0-6-7.001 2.804 2.804 0 0 1-.493-.443.46.46 0 0 1 0-.614c.132-.122.274-.232.426-.328Zm-148.893 18.568c-.694-.14-1.672-.287-2.582-.533a23.073 23.073 0 0 1-7.654-3.566 94.266 94.266 0 0 1-10.922-9.599 3.376 3.376 0 0 1-.601-.82.49.49 0 0 1 .117-.607.523.523 0 0 1 .627-.098c.271.195.528.408.768.639 2.131 1.935 4.237 3.902 6.401 5.788 1.32 1.156 2.724 2.197 4.103 3.279a21.475 21.475 0 0 0 9.266 4.008c.337.049.67.123.995.222a.7.7 0 0 1 .412.282.678.678 0 0 1 .114.48c-.042.295-.393.525-1.044.525Zm-30.867-10.854a.98.98 0 0 1 .393.073c.196.113.378.248.543.402a72.49 72.49 0 0 0 9.392 6.64 56.83 56.83 0 0 0 8.865 4.222c.418.172.836.32 1.262.5a.66.66 0 0 1 .385.82.718.718 0 0 1-.342.354.74.74 0 0 1-.494.056 3.027 3.027 0 0 1-.652-.197 61.953 61.953 0 0 1-19.001-11.223 6.536 6.536 0 0 1-.836-.819.54.54 0 0 1-.003-.553.567.567 0 0 1 .488-.275Zm14.063-7.796c.17.019.334.078.476.172.418.375.812.774 1.178 1.197a27.377 27.377 0 0 0 5.85 4.853 17.226 17.226 0 0 0 3.952 1.927c.324.102.637.234.936.393.126.065.227.17.286.298a.62.62 0 0 1 .04.407.844.844 0 0 1-.794.508 4.505 4.505 0 0 1-.51-.123 16.243 16.243 0 0 1-3.133-1.287 28.013 28.013 0 0 1-8.565-7.263 1.5 1.5 0 0 1-.234-.598c-.084-.189.159-.443.518-.484Zm81.227-42.186a61.365 61.365 0 0 0-8.355.394 3.905 3.905 0 0 0-1.661.308 3.836 3.836 0 0 0-1.364.979.516.516 0 0 1-.344.233.527.527 0 0 1-.408-.085.694.694 0 0 1-.266-.412.682.682 0 0 1 .074-.482 3.685 3.685 0 0 1 1.058-1.071 3.78 3.78 0 0 1 1.407-.569 33.038 33.038 0 0 1 4.553-.573 92.46 92.46 0 0 1 9.535-.107c.34-.006.679.044 1.002.148a.625.625 0 0 1 .401.672.599.599 0 0 1-.177.366.623.623 0 0 1-.374.175 7.286 7.286 0 0 1-.836 0l-4.245.024Zm-2.606-6c.401 0 1.019-.066 1.671-.066a.538.538 0 0 1 .396.124.52.52 0 0 1 .18.368.637.637 0 0 1-.088.397.659.659 0 0 1-.313.267 1.675 1.675 0 0 1-.476.172 11.574 11.574 0 0 1-4.178.09 7.113 7.113 0 0 1-1.295-.385 2.06 2.06 0 0 1-1.225-.982 1.997 1.997 0 0 1-.162-1.543c.312-.949.509-1.932.585-2.926 0-.099.217-.279.342-.296a.927.927 0 0 1 .627.132 1.091 1.091 0 0 1 .301 1.082c-.142.647-.318 1.295-.46 1.943-.192.869 0 1.229.911 1.467a8.47 8.47 0 0 0 3.184.156Z"/>
  <path fill="#FDEAFF" d="M211.814 187.948a13.412 13.412 0 0 1-5.214-1.64 1.878 1.878 0 0 1-.836-.82.582.582 0 0 1 0-.623.564.564 0 0 1 .602-.196c.165.035.32.108.451.213a10.245 10.245 0 0 0 3.275 1.32 5.353 5.353 0 0 0 4.412-.541c.435-.263.836-.566 1.279-.82a.612.612 0 0 1 .777.082.7.7 0 0 1 .058.91.803.803 0 0 1-.1.139 7.784 7.784 0 0 1-4.704 1.976Zm-2.139 2.238h-1.362a.457.457 0 0 1-.314-.106.44.44 0 0 1-.154-.287.556.556 0 0 1 .192-.599c.229-.161.497-.263.777-.295 2.147-.098 4.295-.344 6.434-.607.167-.014.336.008.493.066.138.033.262.11.352.218.09.107.143.241.149.38a.529.529 0 0 1-.342.525 4.6 4.6 0 0 1-1.145.287c-1.579.156-3.167.271-5.08.418ZM350.43 244.93c-.259-.385-.694-.311-1.062-.352-3.041-.295-5.623-1.64-8.105-3.279a1.094 1.094 0 0 1-.259-.205.542.542 0 0 1-.075-.623.602.602 0 0 1 .23-.237.621.621 0 0 1 .322-.083c.442 0 .735.279 1.069.475a19.251 19.251 0 0 0 5.448 2.329c1.17.236 2.358.378 3.551.426h1.02a.836.836 0 0 1 .575.43.82.82 0 0 1 .092.353.813.813 0 0 1-.074.356c-.223.39-.535.724-.911.976a18.356 18.356 0 0 1-4.562 2.582c-.735.295-1.504.533-2.256.763a2.392 2.392 0 0 1-1.181.092 2.358 2.358 0 0 1-1.075-.486c-.669-.525-1.346-1.033-1.989-1.574a.571.571 0 0 1-.125-.762.667.667 0 0 1 .387-.311.682.682 0 0 1 .498.04 38.63 38.63 0 0 1 1.922 1.386 1.329 1.329 0 0 0 1.279.254 18.682 18.682 0 0 0 5.088-2.296.976.976 0 0 0 .193-.254Zm-2.089-6.681a.597.597 0 0 1-.176.368.617.617 0 0 1-.376.173c-1.094.098-3.484-1.32-3.96-2.296a1.452 1.452 0 0 1 .066-1.434 13.413 13.413 0 0 1 2.131-2.361c.184-.18.435-.09.627.041a.493.493 0 0 1 .234.574 3.068 3.068 0 0 1-.969 1.344c-1.145 1.09-1.179 1.484.484 2.214.518.229 1.036.442 1.546.696a.686.686 0 0 1 .393.681Zm-9.451-12.928a5 5 0 0 1 2.12.535 4.902 4.902 0 0 1 1.674 1.383c.106.129.177.281.209.443a.647.647 0 0 1-.243.738.628.628 0 0 1-.777-.05 7.844 7.844 0 0 1-.576-.606 3.512 3.512 0 0 0-1.479-.952 3.563 3.563 0 0 0-1.763-.122c-.276.041-.552.115-.836.139a.535.535 0 0 1-.556-.218.615.615 0 0 1 .255-.88 3.664 3.664 0 0 1 1.972-.41Zm17.698 5.763a4.441 4.441 0 0 1 2.124.544 4.335 4.335 0 0 1 1.586 1.489.666.666 0 0 1 .058.156.631.631 0 0 1-.15.754.658.658 0 0 1-.785 0 1.782 1.782 0 0 1-.477-.451 2.894 2.894 0 0 0-1.393-1.037 2.956 2.956 0 0 0-1.749-.061c-.835.155-1.186 0-1.236-.394-.05-.393.225-.623.911-.82.426-.09.877-.09 1.111-.18Zm-61.917-73.451c.17.014.338.047.501.098 1.045.394 2.089.82 3.133 1.214.107.035.2.101.268.188a.897.897 0 0 1 .159.443.432.432 0 0 1-.115.301.447.447 0 0 1-.295.142c-.275.058-.56.058-.835 0a150.959 150.959 0 0 1-3.343-1.156.618.618 0 0 1-.401-.664c.05-.295.443-.574.928-.566Zm-1.571-4.55c-.05.353-.167.59-.493.648a.485.485 0 0 1-.577-.23 4.082 4.082 0 0 0-1.938-1.975c-.142-.09-.269-.2-.376-.328a.619.619 0 0 1-.059-.763.527.527 0 0 1 .594-.221 4.567 4.567 0 0 1 1.662.935c.479.424.861.944 1.12 1.524.038.134.061.271.067.41Zm-8.398-8.107c.467.098.903.305 1.27.603.368.298.658.679.844 1.11a.509.509 0 0 1-.015.327.53.53 0 0 1-.21.255.52.52 0 0 1-.619.066c-.585-.419-1.161-.82-1.729-1.296a.513.513 0 0 1-.167-.598.721.721 0 0 1 .626-.467Z"/>
  <path fill="#6067FF" d="M370.308 242.102a2.193 2.193 0 0 0-.777-.636 2.242 2.242 0 0 0-1.971 0c-.306.15-.572.368-.778.636a3.652 3.652 0 0 0-.879 2.373c0 .868.311 1.708.879 2.373a2.25 2.25 0 0 0 1.854.853 2.285 2.285 0 0 0 1.014-.276c.312-.17.577-.41.775-.7a3.63 3.63 0 0 0 .775-2.332 3.64 3.64 0 0 0-.892-2.291Zm-2.648 4.648a.45.45 0 0 1-.301-.107 3.242 3.242 0 0 1-.836-2.123c.013-.448.136-.887.359-1.279.126-.262.544-.459.669-.336s0 .435-.05.599a2.276 2.276 0 0 0 0 2.238c.124.185.222.387.292.598.034.098-.083.262-.133.41Z"/>
  <path fill="#FDEAFF" d="M50.587 168.118a13.63 13.63 0 0 0-1.229-3.632 3.56 3.56 0 0 0-.784-1.193 3.645 3.645 0 0 0-1.196-.799 7.07 7.07 0 0 0-4.504-.295 56.717 56.717 0 0 1-4.955 1.238 18.43 18.43 0 0 0-3.284.82 5.22 5.22 0 0 0-2.599 2.065c-1.337 2.115-.835 4.099 1.346 5.37a11.163 11.163 0 0 1 2.89 2.304c.443.52.932 1.001 1.463 1.434a6.993 6.993 0 0 0 3.766 1.636 7.042 7.042 0 0 0 4.047-.751 9.635 9.635 0 0 0 4.646-4.918 6.21 6.21 0 0 0 .484-2.386c-.025-.229-.05-.557-.091-.893Zm-1.513 2.705a8.192 8.192 0 0 1-1.829 2.795 8.366 8.366 0 0 1-2.808 1.853 7.291 7.291 0 0 1-2.073.418 6.276 6.276 0 0 1-3.843-1.393 10.829 10.829 0 0 1-1.22-1.165 10.73 10.73 0 0 0-3.426-2.713c-1.245-.582-1.672-1.59-1.045-3.099.215-.527.554-.997.99-1.37a3.67 3.67 0 0 1 1.517-.777 48.005 48.005 0 0 1 4.128-1.009 22.511 22.511 0 0 0 2.966-.721 7.935 7.935 0 0 1 2.507-.344 3.777 3.777 0 0 1 2.103.586c.626.398 1.116.97 1.406 1.643.319.717.598 1.451.836 2.197a4.029 4.029 0 0 1-.209 3.099Zm.56 11.379c-1.02.045-2.036.158-3.041.336a6.992 6.992 0 0 0-2.39.819 1.969 1.969 0 0 0-.848.79 1.91 1.91 0 0 0-.247 1.12c.034.399.2.775.473 1.071.274.297.639.497 1.04.569a6.884 6.884 0 0 0 1.67.238 5.269 5.269 0 0 0 2.772-.921 5.118 5.118 0 0 0 1.824-2.244c.393-1.041-.15-1.844-1.253-1.778Zm-.125 1.68a3.76 3.76 0 0 1-1.961 1.752 3.856 3.856 0 0 1-2.652.06.83.83 0 0 1-.46-.435.571.571 0 0 1-.004-.41.584.584 0 0 1 .272-.311 5.955 5.955 0 0 1 1.37-.648 9.117 9.117 0 0 1 2.666-.475h.501a.317.317 0 0 1 .27.159.305.305 0 0 1-.002.308Z"/>
</svg>
