<svg xmlns="http://www.w3.org/2000/svg" width="358" height="357" fill="none" viewBox="0 0 358 357">
  <path fill="#FDEAFF" d="M268.971 255.297a5.868 5.868 0 0 0-.748-2.809 7.344 7.344 0 0 0-.54-.824c-1.032-1.383-2.077-2.767-3.095-4.151a.813.813 0 0 1-.056-1.1 44.616 44.616 0 0 0 4.716-10.682c1.572-4.919 1.849-7.88 1.385-13.042 0-.276-.069-.546-.111-.823a99.171 99.171 0 0 0-2.209-10.226c-1.385-5.244-2.922-10.44-4.155-15.712-.491-2.075-.99-4.206-1.385-6.323a44.58 44.58 0 0 1-.588-7.556 37.552 37.552 0 0 0-2.285-12.405.737.737 0 0 1-.305-.512 1.827 1.827 0 0 1-.194-.297.256.256 0 0 1 .016-.106.25.25 0 0 1 .06-.088c.076-.048.146 0 .166.118a.893.893 0 0 1 .61.574l3.31 2.913c.266.24.553.455.858.643a.608.608 0 0 0 .546.033.602.602 0 0 0 .348-.42c.056-.268.075-.543.055-.817a35.611 35.611 0 0 0-1.842-9.423 21.016 21.016 0 0 0-7.617-10.378 48.229 48.229 0 0 0-6.689-4.089c-1.551-.788-3.095-1.605-4.66-2.359a42.913 42.913 0 0 1-5.138-2.926c-.076-.035-.173-.042-.229-.097-.055-.056-.117-.139-.104-.194a.211.211 0 0 1 .167-.138.948.948 0 0 1 .831.235c.412.024.826.024 1.239 0a.573.573 0 0 0 .492-.698.58.58 0 0 0-.153-.278 5.13 5.13 0 0 0-.9-.692 59.887 59.887 0 0 1-6.613-4.96 115.485 115.485 0 0 1-9.937-9.963c-1.904-2.117-3.794-4.255-5.719-6.358-.935-1.01-1.898-2.007-2.922-2.927a24.39 24.39 0 0 0-10.283-5.742 26.844 26.844 0 0 0-10.553-.277 67.906 67.906 0 0 0-8.192 1.868 12.194 12.194 0 0 0-3.573 1.425 50.406 50.406 0 0 0-4.792 3.46 9.779 9.779 0 0 0-3.386 7.015c-.097 1.183-.222 2.366-.43 3.536-.47 2.705-1.004 5.41-1.384 8.136a27.648 27.648 0 0 1-1.801 6.621 11.994 11.994 0 0 0-.692 3.459 17.782 17.782 0 0 0 .886 6.725c.235.727.464 1.453.693 2.186a8.023 8.023 0 0 1 .062 4.352 46.548 46.548 0 0 1-.693 2.525 27.372 27.372 0 0 0-.2 15.913c.069.242.283.485.124.734a.903.903 0 0 1-.637.311 5.827 5.827 0 0 1-4.279-1.169c-.693-.492-1.288-1.038-1.967-1.509-1.045-.691-1.579-.622-2.333.346a2.431 2.431 0 0 0-.139.236.605.605 0 0 1-.692.29c-.811-.173-1.628-.297-2.431-.505a15.163 15.163 0 0 0-3.504-.692.988.988 0 0 1-.775-.498c-.831-1.038-1.669-2.075-2.5-3.12 0-.65.312-.457.644-.27.318.069.651.145.817-.249.125-.284 0-.581-.353-.81a3.974 3.974 0 0 0-1.385-.581 5.34 5.34 0 0 1-2.936-1.93c-.18-.208-.346-.436-.54-.623a.79.79 0 0 0-.672-.287.781.781 0 0 0-.616.391 7.517 7.517 0 0 0-.422.692c-.513.886-.513.969.159 1.66.907.921 1.828 1.813 2.77 2.726 1.073 1.073 2.132 2.152 3.206 3.231.242.243.387.45.131.817a3.454 3.454 0 0 0-.291 3.528c.09.208.194.415.312.692-1.205 1.017-.956 2.56-1.316 3.937l-9.396.484a.2.2 0 0 1-.132 0s-.034-.076-.055-.152c.048-.401.367-.692.561-1.045a10.105 10.105 0 0 0 1.385-5.943 4.63 4.63 0 0 0-.811-2.311 2.662 2.662 0 0 0-2.929-.982 5.563 5.563 0 0 0-1.98 1.204c-.166.152-.305.359-.616.186v-3.832a1.53 1.53 0 0 0-1.129-1.675 12.599 12.599 0 0 0-1.579-.491 27.004 27.004 0 0 0-7.271-.477 13.063 13.063 0 0 0-3.268.505c-1.087.346-1.316.65-1.385 1.771v11.305a.36.36 0 0 1-.346.353 4.776 4.776 0 0 1-.547.041l-9.231.491c-2.479.132-4.965.243-7.444.36h-.831a.368.368 0 0 1-.235-.106.369.369 0 0 1-.111-.233v-.968c-.064-3.723-.124-7.445-.18-11.167l-.457-28.262v-.547c0-.56-.208-.761-.734-.789-.415 0-.831 0-1.239-.034a.298.298 0 0 1-.222-.132c-.09-.138 0-.263.097-.346a3.84 3.84 0 0 1 5.54.312c.152.173.297.346.457.505.159.159.394 0 .457-.173a.635.635 0 0 0 0-.533 2.454 2.454 0 0 0-.748-.969 4.692 4.692 0 0 0-6.731.789c-.083.111-.131.249-.221.346a.524.524 0 0 1-.506.131.325.325 0 0 1-.221-.311c0-.872 0-1.743-.035-2.615a.539.539 0 0 1 .124-.353 18.046 18.046 0 0 1 6.53-4.995c3.913-1.675 7.943-2.885 12.257-2.885.381 0 .865.138 1.059-.381.111-.318-.353-.567-1.066-.581h-.139c-1.191.104-2.389.159-3.573.325a34.808 34.808 0 0 0-8.932 2.719 4.082 4.082 0 0 0-1.427.789c-.104.208-.36.131-.498.277h-.333c-.139.14-.307.248-.491.318a2.384 2.384 0 0 1-1.108.837l-1.87 1.82c-.145.138-.256.38-.575.187.125-.692.215-1.44.374-2.152a18.55 18.55 0 0 1 3.068-6.559 26.064 26.064 0 0 1 7.686-7.002 22.82 22.82 0 0 1 6.232-2.816c.97-.262 1.967-.442 2.943-.691a2.56 2.56 0 0 0 1.281-.443.304.304 0 0 0 .083-.374c-.041-.076-.111-.173-.173-.18a2.892 2.892 0 0 0-.81 0c-.637.104-1.26.256-1.89.388-2.341.512-7.984 3.182-8.068 3.224-.101.047-.194.11-.277.187a39.326 39.326 0 0 0-6.114 5.009 8.637 8.637 0 0 1-1.586 1.985 38.323 38.323 0 0 0-2.583 4.615c.049.318-.173.56-.263.837a4.8 4.8 0 0 1-.512 1.675c-.097.816-.229 1.639-.298 2.456a30.809 30.809 0 0 0-.034 3.999 2.93 2.93 0 0 1 0 .546c0 .042-.18.111-.229.083a1.101 1.101 0 0 1-.277-.29 5323.02 5323.02 0 0 0-3.351-5.217 2.811 2.811 0 0 1-.305-.906 34.075 34.075 0 0 1-.79-5.86 3.57 3.57 0 0 1 .887-2.643 41.127 41.127 0 0 1 5.263-5.445 35.847 35.847 0 0 1 10.442-6.317.803.803 0 0 0 .353-.194.685.685 0 0 0 .145-.359.24.24 0 0 0-.154-.248.25.25 0 0 0-.102-.015 2.255 2.255 0 0 0-.81.055c-.561.201-1.101.45-1.648.692-.831.38-1.655.775-2.479 1.162-.028 0-.056-.021-.083-.062 0-.042 0-.097.048-.159a26.231 26.231 0 0 1 8.434-6.441c.894-.457 1.787-.9 2.687-1.343.146-.193.388-.138.582-.228h.118l.096-.076c.174-.166.416-.132.617-.215h.124l.077-.103a.336.336 0 0 0 0-.498.29.29 0 0 0-.34-.16c-.448.102-.889.229-1.322.381a34.269 34.269 0 0 0-7.465 4.068 26.19 26.19 0 0 0-5.699 5.77 6.388 6.388 0 0 1-1.447 1.419 36.253 36.253 0 0 0-7.735 7.299c-.118.152-.208.429-.575.263v-7.95c-.012-3.49.49-6.964 1.49-10.309a1.68 1.68 0 0 0 .117-.387.408.408 0 0 0-.277-.429.365.365 0 0 0-.471.166c-.208.406-.38.83-.512 1.266-.09.36-.18.692-.264 1.079a9.863 9.863 0 0 0-.318 2.007 1.419 1.419 0 0 1-.07.38 9.908 9.908 0 0 0-.442 2.505c-.312 3.77-.098 7.562-.229 11.333a.185.185 0 0 1-.055.124.767.767 0 0 1-.222.048c-.11-.242-.27-.498-.409-.781a52.613 52.613 0 0 0-3.046-5.238 24.23 24.23 0 0 0-9.002-8.302 2.655 2.655 0 0 0-.997-.443.41.41 0 0 0-.457.215.407.407 0 0 0 .131.498c.341.229.695.44 1.06.629a22.932 22.932 0 0 1 8.108 7.334 71.718 71.718 0 0 1 4.626 8.067c.242.464.368.979.367 1.502.027 1.377.16 2.751.394 4.109.089.139.165.285.23.436.047.159.054.401-.112.45-.166.048-.38-.111-.436-.346-4.238-4.034-9.355-5.39-15.068-4.919a1.649 1.649 0 0 0-.637.228.436.436 0 0 0-.16.339c0 .111.14.284.236.298a3.6 3.6 0 0 0 .817 0 19.89 19.89 0 0 1 5.215.214 16.798 16.798 0 0 1 7.921 3.584c.388.141.704.43.88.802.907.78 1.691 1.692 2.326 2.706.956 1.383 1.863 2.843 2.77 4.275 0 0 0 .083-.034.132-.118.187-.319.131-.485.131h-2.078a.61.61 0 0 1-.553-.346c-.113-.199-.23-.395-.354-.588a4.067 4.067 0 0 0-3.74-1.916 9.35 9.35 0 0 0-3.842.989 15.927 15.927 0 0 0-4.002 2.913 28.446 28.446 0 0 0-4.314 5.535 4.365 4.365 0 0 0-.437 1.01.42.42 0 0 0 .243.56c.207.083.346-.062.47-.193.055-.074.106-.15.153-.229.263-.415.533-.83.796-1.252a29.252 29.252 0 0 1 3.317-4.283 12.756 12.756 0 0 1 5.498-3.736 6.978 6.978 0 0 1 2.438-.408 2.834 2.834 0 0 1 2.77 1.84c-.292.121-.613.15-.921.083-1.35 0-1.448 0-1.427 1.481v1.93l-.25 36.835v1.1c0 .512-.069.574-.525.609-.504.004-1.006.043-1.503.117a16.194 16.194 0 0 1-5.955.409 6.978 6.978 0 0 0-4.508.754 6303.134 6303.134 0 0 1-22.56 11.27l-.866.429a.537.537 0 0 0-.353.54c.235 2.013.311 4.033.394 6.054a.75.75 0 0 0 .5.754c.58.131.546.532.546.948v.968L55.46 348.49v1.1a1.438 1.438 0 0 0 1.122 1.384 7.623 7.623 0 0 0 4.487.173c1.973-.581 2.036-.526 2.077-2.608v-.415l.332-123.2v-8.828a7.496 7.496 0 0 1 0-.969.247.247 0 0 1 .09-.171.241.241 0 0 1 .188-.05h1.239l38.778-.436c6.924-.078 13.828-.152 20.711-.221 10.678-.132 21.355-.291 32.033-.416 11.647-.138 23.292-.26 34.934-.366l5.381-.056c.332 0 .512.132.512.478 0 1.155 0 2.304-.048 3.459 0 .505 0 .526-.554.609-2.957.436-5.886 1.003-8.808 1.64a50.072 50.072 0 0 0-13.503 5.05 72.315 72.315 0 0 0-8.379 5.535 81.786 81.786 0 0 0-10.851 9.79c-3.864 4.255-7.707 8.641-11.349 13.249-4.349 5.535-8.829 10.98-12.464 17.054a22.39 22.39 0 0 0-2.112 4.726 10.696 10.696 0 0 0-.624 3.397c.035 1.494.097 1.577 1.607 1.778 1.51.201 2.701.768 3.296 2.304a.92.92 0 0 1-.069.796c-.734 1.162-1.447 2.331-2.265 3.459-3.289 4.435-6.536 8.89-9.832 13.318a43.985 43.985 0 0 1-6.821 7.133c-2.077 1.751-4.259 3.363-6.419 5.002a12.017 12.017 0 0 1-3.116 1.751 25.578 25.578 0 0 1-5.325 1.383 43.47 43.47 0 0 0-3.262.575 5.895 5.895 0 0 0-3.497 2.075 3.762 3.762 0 0 0-.914 2.948c.142.951.336 1.893.582 2.822a29.657 29.657 0 0 1 1.08 4.975c.041.273.1.543.173.809a3.116 3.116 0 0 0 2.126 2.332c.393.131.796.23 1.205.297 2.241.356 4.521.393 6.772.111.561-.055 1.136-.076 1.704-.104a17.732 17.732 0 0 0 6.592-1.522c1.973-.885 3.912-1.826 5.872-2.767.187-.083.381-.277.589 0a5.971 5.971 0 0 0-.132 4.089c.322 1.185.571 2.389.748 3.604.113.673.275 1.337.485 1.986a2.388 2.388 0 0 0 1.717 1.647 7.174 7.174 0 0 0 2.915.29c.831-.117 1.655-.263 2.486-.325 3.372-.256 6.738-.491 10.11-.692a17.17 17.17 0 0 0 6.592-1.543c.355-.167.72-.31 1.094-.429a23.317 23.317 0 0 1 8.289-1.044 7.646 7.646 0 0 0 1.593-.049c1.592-.214 3.192-.207 4.791-.297a17.39 17.39 0 0 0 2.459-.305 3.123 3.123 0 0 0 2.589-2.539c.367-1.515.824-3.016 1.115-4.545.616-3.259.88-6.587 1.614-9.832a8.133 8.133 0 0 0-.264-4.089c-.103-.339 0-.802-.145-1.141a17.531 17.531 0 0 1-.637-2.961 8.5 8.5 0 0 1-.097-3.155 3.93 3.93 0 0 1 .644-1.951 9.422 9.422 0 0 0 3.005 1.439c.641.232 1.268.503 1.877.809a26.656 26.656 0 0 1 4.695 2.885c2.416 1.855 4.798 3.743 7.208 5.597a19.496 19.496 0 0 0 6.634 3.28 9.79 9.79 0 0 0 4.362.325c.312-.055.637-.055.956-.083.138.448.171.921.097 1.384-.079 4.46-.159 8.92-.242 13.38-.104 5.425-.201 10.856-.333 16.28a2.167 2.167 0 0 0 .623 1.743 3.288 3.288 0 0 0 2.895.976 3.715 3.715 0 0 0 2.077-1.239 2.147 2.147 0 0 0 .478-1.66c.037-3.169.083-6.342.139-9.52.145-8.178.318-16.363.443-24.547a8.172 8.172 0 0 1 .692-3.197 59.276 59.276 0 0 1 2.645-5.452c4.114-7.389 8.483-14.625 12.984-21.786.121-.196.253-.386.395-.568a.376.376 0 0 1 .235-.062c.118 0 .139.083.145.194.035.879.077 1.75.132 2.622l.976 15.138c.229 3.459.464 6.974.693 10.461.258 3.994.51 7.986.755 11.976.214 3.397.415 6.794.63 10.184.034.505.09 1.01.138 1.515a.83.83 0 0 0 .305.595.445.445 0 0 0 .661-.013.502.502 0 0 0 .101-.173c.055-.36.069-.734.09-1.1l.623-14.329c.318-6.981.658-13.962.969-20.943.243-5.285.45-10.571.693-15.85.083-1.882.173-3.771.263-5.653 0-.228 0-.456.041-.691a.442.442 0 0 1 .457-.416h.693c2.624 0 5.242-.2 7.859-.332 1.655-.083 3.303-.263 4.951-.422 1.648-.159 3.463-.346 5.284-.525.083 1.19.18 2.331.249 3.459.229 3.812.429 7.61.693 11.429.318 5.279.657 10.558.976 15.837.242 3.992.457 7.984.692 11.976.011.276.051.549.118.817a.46.46 0 0 0 .277.249.394.394 0 0 0 .464-.201 1.53 1.53 0 0 0 .132-.803c.117-2.573.228-5.147.353-7.721.097-2.11.214-4.22.325-6.33.236-4.548.466-9.094.693-13.637.228-4.483.436-8.994.657-13.443 0-.456.056-.913.097-1.383.104-1.163 0-1.149.831-1.329.693-.159 1.441-.283 2.161-.443a41.446 41.446 0 0 0 6.62-1.868 8.255 8.255 0 0 0 3.559-2.269 2.24 2.24 0 0 1 1.011 2.02c.187 3.716.402 7.438.616 11.153.36 6.241.727 12.484 1.101 18.729.097 1.743.201 3.487.312 5.23.24 4.041.471 8.079.692 12.115.213 3.717.423 7.435.63 11.153.02.322.057.643.111.961.031.18.092.353.18.512a.484.484 0 0 0 .464.242.364.364 0 0 0 .346-.359c.035-.409.049-.824.049-1.232l-.291-45.248c-.062-10.378-.138-20.755-.166-31.133Zm-8.31-77.489c.199 1.317.307 2.647.326 3.979a53.677 53.677 0 0 0 1.745 13.352c1.385 5.618 2.964 11.181 4.432 16.778a92.222 92.222 0 0 1 2.202 10.17 4.124 4.124 0 0 1 0 2.166c-.167.443.062.906.083 1.384-.25.311-.527.09-.755 0a54.223 54.223 0 0 0-8.794-1.682 44.854 44.854 0 0 1-8.31-2.075 101.037 101.037 0 0 1-16.619-6.967 38.96 38.96 0 0 0-6.052-2.664 15.339 15.339 0 0 0-5.83-.823 13.467 13.467 0 0 1-3.165-.118c-.533-.104-.692-.36-.54-.885a7.789 7.789 0 0 1 .609-1.536c1.088-1.868 1.233-3.916 1.15-5.999-.042-.872-.208-1.736-.305-2.601a22.316 22.316 0 0 0-2.16-6.794c-.492-1.086-.693-.955.471-1.744a99.267 99.267 0 0 0 8.24-6.226 64.515 64.515 0 0 0 7.416-7.002 45.543 45.543 0 0 0 5.851-8.302 22.668 22.668 0 0 0 2.729-13.028 1.382 1.382 0 0 1 .041-.934.828.828 0 0 1 .838.581 14.523 14.523 0 0 1 .866 7.465 28.447 28.447 0 0 1-1.704 6.656.787.787 0 0 0-.055.401.439.439 0 0 0 .332.395.516.516 0 0 0 .381-.07c.208-.177.38-.393.505-.636.249-.543.46-1.102.631-1.674a39.17 39.17 0 0 0 1.087-5.113 13.407 13.407 0 0 0-.326-5.473c-.104-.38-.194-.775-.297-1.155.422-.132.609.117.817.256 1.682 1.127 3.31 2.338 5.041 3.383 3.801 2.304 6.17 5.68 7.617 9.804a32.33 32.33 0 0 1 1.509 6.731h-.007ZM218.2 211.709a.833.833 0 0 1-.436.921 8.68 8.68 0 0 1-1.157.747c-.872.408-1.759.809-2.666 1.128a73.33 73.33 0 0 1-9.542 2.677 7.456 7.456 0 0 1-.789.083c-.15-3.943-.067-7.891.249-11.824h1.759c.596 0 .907-.249.9-.934 0-1.384-.048-2.767-.117-4.151a.85.85 0 0 1 .588-.948 51.781 51.781 0 0 0 9.362-5.244c.263-.187.54-.346.928-.602a23.174 23.174 0 0 1 2.244 6.732c.314 1.72.426 3.471.332 5.216a8.223 8.223 0 0 1-.734 2.927c-.215.45-.416.92-.603 1.384a3.28 3.28 0 0 0-.311 1.847l-.007.041Zm21.044-65.726c.034-.063.152-.083.291-.152.124.062.29.117.443.207 1.779 1.052 3.656 1.923 5.539 2.768 1.621.761 3.2 1.605 4.744 2.518a30.064 30.064 0 0 1 5.754 4.469 21.761 21.761 0 0 1 4.778 7.5c.142.24.191.522.138.796a.296.296 0 0 1-.187.166.244.244 0 0 1-.235-.056 2.75 2.75 0 0 1-.325-.595 24.694 24.694 0 0 0-2.687-4.953 15.689 15.689 0 0 0-2.14-2.512 33.51 33.51 0 0 0-8.448-5.874c-2.216-1.114-4.494-2.075-6.634-3.355a2.712 2.712 0 0 1-.997-.692.274.274 0 0 1-.034-.235Zm-2.216 4.089c1.214.31 2.3.995 3.102 1.958a8.069 8.069 0 0 1 2.077 4.843 21.816 21.816 0 0 1-2.617 12.93 49.244 49.244 0 0 1-5.45 7.77 62.524 62.524 0 0 1-7.818 7.382 134.322 134.322 0 0 1-12.935 9.396 40.73 40.73 0 0 1-7.333 3.805c-.726.288-1.48.499-2.25.63a6.773 6.773 0 0 1-4.287-.692 2.371 2.371 0 0 1-1.315-1.509c-.245-.837-.4-1.697-.464-2.566-.187-2.429-.319-4.843-.61-7.279-.38-3.155-.47-6.323-.692-9.485v-1.1c-.077-3.952.05-7.906.381-11.845.048-.823.055-1.653.125-2.477.056-.733.151-1.463.283-2.186a1.385 1.385 0 0 1 1.046-1.142 6.44 6.44 0 0 1 3.275-.152c3.421.775 6.883 1.163 10.346 1.661 1.004.138 1.994.332 2.998.463a.858.858 0 0 1 .796.789 8.978 8.978 0 0 1-.069 4.628 30.896 30.896 0 0 0-1.177 5.798 29.763 29.763 0 0 0 .131 8.794c.169.902.441 1.782.811 2.622.125.355.37.656.692.851a.496.496 0 0 0 .519 0 .41.41 0 0 0 .18-.205.404.404 0 0 0 .014-.272 4.403 4.403 0 0 0-.249-.637 12.385 12.385 0 0 1-1.087-4.386 35.309 35.309 0 0 1 .644-9.735 3.257 3.257 0 0 1 .81-1.695c.461-.571.885-1.172 1.267-1.799a30.06 30.06 0 0 1 2.895-3.321c2.396-2.483 4.778-4.981 7.174-7.458a61.456 61.456 0 0 1 2.368-2.311 9.702 9.702 0 0 1 2.396-1.605 6.195 6.195 0 0 1 4.023-.456v-.007Zm-13.662-.692c.117-.201.214-.408.339-.602.256-.422.402-.484.914-.367.222.052.44.121.651.208a18.329 18.329 0 0 0 5.325 1.688c.076.367-.173.456-.326.588a41.239 41.239 0 0 0-3.635 3.57c-2.195 2.345-4.418 4.67-6.71 6.919-.775.774-1.419 1.681-2.126 2.525l-.692.83a13.802 13.802 0 0 0-.291-3.632 2.914 2.914 0 0 0-.27-.913c-.478-.692-.235-1.142.208-1.689 1.288-1.619 2.534-3.258 3.794-4.898a39.041 39.041 0 0 0 2.819-4.248v.021Zm-.43-6.469c.312-.173.506.083.693.221a24.224 24.224 0 0 0 5.851 2.643c.256.083.533.132.783.235a.423.423 0 0 1 .173.326c0 .145-.153.193-.291.214h-.194a7.003 7.003 0 0 1-.886-.173 25.481 25.481 0 0 1-5.402-2.47l-.346-.228c-.415-.312-.581-.671-.346-.789l-.035.021Zm-.554 5.825a32.984 32.984 0 0 1-2.603 3.875c-1.24 1.591-2.41 3.231-3.615 4.843-.187.256-.381.512-.588.754-.035.041-.16 0-.243 0a.148.148 0 0 1-.056-.028.146.146 0 0 1-.041-.048.213.213 0 0 1 0-.132 69.208 69.208 0 0 1-.298-8.793 8.442 8.442 0 0 1 1.794-4.726c1.9 1.286 3.912 2.4 6.01 3.328-.002.347-.13.681-.36.941v-.014Zm-7.277-3.819a9.958 9.958 0 0 0-1.337 4.995 57.756 57.756 0 0 0 .416 7.964c.045.319.073.64.083.961 0 .229-.159.319-.36.298-.637-.083-1.267-.18-1.905-.27-2.451-.36-4.909-.692-7.353-1.079-.949-.152-1.884-.374-2.812-.554a2.164 2.164 0 0 1 .436-1.466c.448-.856.776-1.768.977-2.712.831-3.423 1.659-6.852 2.486-10.288a41.194 41.194 0 0 1 1.308-4.394c.056-.166.146-.318.264-.581a48.601 48.601 0 0 0 2.077 1.681c.692.526 1.329.976 2.008 1.446.679.471 1.454.969 2.174 1.453l2.078 1.384a2.141 2.141 0 0 1-.54 1.142v.02Zm-31.161-26.29a8.977 8.977 0 0 1 1.025-.692 11.17 11.17 0 0 1 2.527-1.294h.035a.497.497 0 0 1 .526-.256h.035a.479.479 0 0 1 .219-.21.477.477 0 0 1 .3-.039h.056a.476.476 0 0 1 .512-.228l.256-.07a.896.896 0 0 1 .831-.256h.042a1.377 1.377 0 0 1 1.087-.269l.076-.07.104.042a1.556 1.556 0 0 1 1.198-.235c1.47-.385 2.99-.541 4.508-.464 2.255.111 4.475.595 6.571 1.432a54.26 54.26 0 0 1 6.232 2.955 26.585 26.585 0 0 1 8.31 7.34 286.41 286.41 0 0 0 3.801 4.905 32.322 32.322 0 0 0 5.921 5.95 18.265 18.265 0 0 0 4.155 2.443c.127.047.248.109.36.186.104.084.242.194.124.34-.117.145-.221.207-.318.186a6.168 6.168 0 0 1-1.911-.761 25.947 25.947 0 0 1-5.097-3.757 35.29 35.29 0 0 1-3.268-3.549 209.736 209.736 0 0 1-3.663-4.663c-.81-1.058-1.621-2.117-2.521-3.099a23.316 23.316 0 0 0-5.539-4.504 41.52 41.52 0 0 0-8.635-3.93 17.33 17.33 0 0 0-7.908-.547c-.45.076-.914.083-1.385.118a.97.97 0 0 1-.81.194l-.547.089a.521.521 0 0 1-.561.173l-.513.111a.607.607 0 0 1-.602.215l-.09.076h-.118a.267.267 0 0 1-.131.153.275.275 0 0 1-.201.02l-.284.097a.202.202 0 0 1-.263.152l-.319.104c-.907.512-1.814 1.017-2.714 1.535a10.86 10.86 0 0 0-1.032.692c-.194.139-.374.305-.554.035-.18-.27-.014-.533.166-.671l.007.021Zm-2.52 3.722c.097-.111.235-.076.339 0a.683.683 0 0 1 .097.104c1.627 2.767 4.155 4.448 6.883 5.956a10.164 10.164 0 0 0 7.458.969c.133-.031.271-.045.408-.041.132 0 .256.048.284.221a.293.293 0 0 1-.028.197.293.293 0 0 1-.145.135 3.879 3.879 0 0 1-.769.27 9.889 9.889 0 0 1-2.236.235 9.012 9.012 0 0 1-3.463-.574 19.182 19.182 0 0 1-7.824-5.424 5.41 5.41 0 0 1-1.115-1.723.444.444 0 0 1 .111-.325Zm-2.438 4.22c0-.138.076-.29.229-.29a.59.59 0 0 1 .346.159c.725.77 1.443 1.547 2.153 2.331a18.588 18.588 0 0 0 12.866 6.144c.921.076 1.835.083 2.77.076a17.904 17.904 0 0 1 7.915 1.515c.208.104.422.194.623.305.416.228.457.318.291.761a52.552 52.552 0 0 0-1.717 5.804c-.575 2.36-1.122 4.733-1.697 7.099-.201.844-.464 1.674-.692 2.463a.7.7 0 0 1-.575 0 2.152 2.152 0 0 0-2.23.733c-.214.242-.429.478-.63.734a7.48 7.48 0 0 1-2.001 1.667 3.63 3.63 0 0 1-4.003-.36 6.573 6.573 0 0 1-1.267-1.619 9.561 9.561 0 0 0-.935-1.383 5.124 5.124 0 0 0-3.15-1.834 7.598 7.598 0 0 1-2.078-.692 1.507 1.507 0 0 1-.907-1.425 9.864 9.864 0 0 1 .049-1.1 11.1 11.1 0 0 1 .18-1.384 6.656 6.656 0 0 0-.893-4.628c-.388-.734-.845-1.425-1.282-2.124a47.04 47.04 0 0 1-2.465-4.622 12.49 12.49 0 0 1-.893-8.33h-.007Zm-18.842 64.343c.201-.277.492-.131.734-.131 10.023-.088 20.04-.169 30.053-.242.769 0 1.108.235 1.246.947a1.77 1.77 0 0 1-1.682 2.173c-.693.048-1.385.062-2.078.083-4.231.124-8.454.235-12.678.367-4.501.138-9.002.297-13.496.449h-1.898c.734-2.02.734-2.02-.194-3.66l-.007.014Zm9.695-1.847c0-.083 0-.201.062-.242.533-.422 1.087-.831 1.62-1.253a.631.631 0 0 1 .755-.048c.36.187.741.346 1.115.512l1.967.906v.118a12.06 12.06 0 0 1-2.279.111h-3.019c-.124.007-.207-.021-.207-.118l-.014.014Zm17.519-1.266a41.33 41.33 0 0 1-.693-1.308c-.062-.069-.083-.138-.048-.194.035-.055.062-.09.09-.09.63.16 1.073 0 1.163-.864a20.682 20.682 0 0 0 2.888 3.417c-.734.298-1.773.346-3.601.18a.205.205 0 0 1 .097-.269.692.692 0 0 0 .118-.886l-.014.014Zm4.155-10.835a21.296 21.296 0 0 1-4.979-7.506 13.123 13.123 0 0 1-.693-3.211 1.386 1.386 0 0 1 .042-.415.547.547 0 0 1 .235-.29c.25-.097.319.103.347.283.09.637.131 1.28.263 1.903a11.71 11.71 0 0 0 1.142 3.093 20.807 20.807 0 0 0 4.758 6.178c.108.085.203.185.283.297.07.111.111.256 0 .353a.376.376 0 0 1-.249.076.888.888 0 0 1-.374-.152 5.374 5.374 0 0 1-.741-.623l-.034.014Zm-13.829-10.225a.332.332 0 0 1 .215-.132c.069 0 .201.042.222.097.092.255.155.519.187.789a14.138 14.138 0 0 0 1.855 5.576 23.82 23.82 0 0 0 4.764 6.365c.161.16.299.342.409.54.035.055-.042.166-.069.249-.028.083-.125.152-.222.097a2.315 2.315 0 0 1-.582-.346 23.372 23.372 0 0 1-1.613-1.688 25.725 25.725 0 0 1-4.342-7.147 13.361 13.361 0 0 1-.907-4.151.812.812 0 0 1 .083-.249Zm-1.011 7.762c.045.125.069.256.07.388.076.283.159.567.235.844.104.339.222.692.319 1.003a.277.277 0 0 1-.118.221c-.049 0-.166 0-.229-.069-.277-.221-.228-.553-.256-.858a1.384 1.384 0 0 1-.27-.865.747.747 0 0 1-.222-.615c0-.125.042-.298.181-.291a.456.456 0 0 1 .29.242Zm-2.174-33.022c.425-1.359.754-2.746.983-4.151.139-.955.139-1.924.215-2.879.035-.415.09-.823.159-1.224a.261.261 0 0 1 .27-.235.273.273 0 0 1 .27.263c.022.23.022.461 0 .691 0 .415-.062.824-.097 1.253a20.447 20.447 0 0 1-1.059 6.226 11.28 11.28 0 0 0-.139 6.919c.381 1.227.682 2.477.901 3.743a16.43 16.43 0 0 1-.194 6.697c-.263 1.073-.478 2.152-.693 3.224-.062.27-.138.533-.214.796a.286.286 0 0 1-.298.221c-.256 0-.291-.207-.277-.38a5.35 5.35 0 0 1 .111-.817c.235-1.072.436-2.158.727-3.224a15.972 15.972 0 0 0-.146-8.039c-.173-.692-.353-1.425-.567-2.124a11.853 11.853 0 0 1 .048-6.96Zm-13.122 39.097c.54-1.01 1.092-2.016 1.655-3.017.215-.38.395-.429.769-.166.56.401 1.128.796 1.648 1.246a6.881 6.881 0 0 0 5.505 1.625l.547-.076a.503.503 0 0 1 .547.305c.27.636.554 1.266.851 1.882a12.453 12.453 0 0 0 3.747 4.524c.179.142.367.274.561.395a.498.498 0 0 0 .63-.076.56.56 0 0 0 .221-.609 8.272 8.272 0 0 0-.443-.851 12.288 12.288 0 0 1-1.115-2.505c.312-.36.575.035.859.042.658 0 1.087-.318 1.052-.962a3.688 3.688 0 0 0-.193-.934c-.243-.789-.527-1.564-.776-2.352a2.226 2.226 0 0 1-.069-.526c0-.042.041-.111.076-.111.035 0 .221-.034.249 0 .177.263.334.538.471.824a27.07 27.07 0 0 0 3.081 5.043 19.505 19.505 0 0 0 3.92 3.854c.415.29.803.616 1.205.92a.299.299 0 0 1 .145.291c-1.97.143-3.948.154-5.92.034a19.83 19.83 0 0 1-6.233-1.577 17.188 17.188 0 0 1-1.627-.734 1.387 1.387 0 0 0-1.863.249 13.41 13.41 0 0 1-2.679 1.924 2.303 2.303 0 0 1-1.171.353c-1.745 0-3.462.097-5.235.131-.692 0-1.384-.041-2.077-.062a6.703 6.703 0 0 0-.318-.81 1.657 1.657 0 0 1-.201-1.847c.318-.602-.049-1.252-.437-1.785-.265-.336-.55-.657-.851-.962a3.172 3.172 0 0 0 1.045-1.196c.506.172.464.608.575.934.143.44.447.811.852 1.037a1.6 1.6 0 0 0 1.256.223 1.621 1.621 0 0 0 1.022-.762c.831-1.322 1.593-2.685 2.375-4.034a.685.685 0 0 0 .104-.394.573.573 0 0 0-.159-.346.41.41 0 0 0-.499-.069 1.238 1.238 0 0 0-.457.505c-.692 1.134-1.385 2.267-2.077 3.397-.319.512-.533.636-.845.532-.312-.103-.547-.484-.464-1.03.099-.863.35-1.702.741-2.477Zm-4.626 11.07a7.762 7.762 0 0 0 1.496-.651.738.738 0 0 1 .586-.104.743.743 0 0 1 .474.36c.251.291.393.66.401 1.045a1.275 1.275 0 0 1-.215.692 3.536 3.536 0 0 1-1.53 1.321 1.105 1.105 0 0 1-1.454-.36 3.484 3.484 0 0 1-.485-.816c-.429-.948-.325-1.114.727-1.487Zm-1.689-.845a1.065 1.065 0 0 1-.997-.601 4.326 4.326 0 0 1-.54-2.228v-.277c0-.657.228-.816.844-.637 1.051.438 2.167.697 3.303.768a.495.495 0 0 1 .444.27c.192.361.283.768.263 1.176a.694.694 0 0 1-.277.45 5.491 5.491 0 0 1-3.04 1.1v-.021Zm3.635-13.304c.81.152 1.621.325 2.514.505-.436 1.093-1.184 2.034-1.475 3.1-.132.062-.173.096-.215.096a.158.158 0 0 1-.063-.022.165.165 0 0 1-.048-.047c-1.024-1.245-2.077-2.484-3.053-3.736-.042-.055 0-.173-.042-.311.873-.118 1.565.29 2.382.436v-.021Zm-4.792-.035a19.1 19.1 0 0 1 3.393 3.384c.249.33.411.718.471 1.127a.685.685 0 0 1-.44.732.698.698 0 0 1-.301.043.963.963 0 0 1-.277-.041c-1.765-.609-2.929-1.592-3.344-3.46a1.847 1.847 0 0 1 .498-1.764v-.021Zm-.934 5.674c.145-1.094.498-1.114 1.177-.547.555.482 1.2.851 1.897 1.086 1.08.346 1.558 1.211 1.967 2.138.249.574-.118.962-1.011.865-1.032-.311-2.306-.692-3.566-1.086a.881.881 0 0 1-.624-.962c.028-.477.097-.975.16-1.474v-.02Zm-15.415-.263a3.704 3.704 0 0 1 1.912-3.501c.851-.547 1.385-.256 1.454.761a4.849 4.849 0 0 1-1.704 4.013c-.235.222-.537.36-.858.394-.506.055-.783-.152-.81-.657v-.132l.006-.878Zm.492 2.539a2.347 2.347 0 0 0 2.077-.851 6.345 6.345 0 0 0 1.766-3.944 2.801 2.801 0 0 0-.166-1.217 1.558 1.558 0 0 0-.937-1.126 1.565 1.565 0 0 0-1.459.143 7.328 7.328 0 0 0-.893.644c-.256.186-.353.539-.803.691a2.305 2.305 0 0 1 .692-2.29 6.218 6.218 0 0 1 1.343-1.169c1.385-.796 2.556-.373 3.075 1.093.181.473.277.975.284 1.481a9.376 9.376 0 0 1-2.368 6.441 3.765 3.765 0 0 1-1.932 1.266 2.791 2.791 0 0 1-.693.09c-.374 0-.54-.27-.533-.789.049-.359.187-.498.547-.456v-.007Zm-1.78-13.478c-2.16 1.308-8.967 1.232-12.021-.269 2.154-1.19 9.57-.997 12.021.29v-.021Zm-45.01 9.839c.042-4.83.086-9.654.132-14.474h.014l.146-21.78v-1.238c0-.692.076-.775.81-.768 3.171.041 6.345.092 9.521.152.63 0 .693.055.693.692.062 2.989.11 5.978.166 8.959l.478 27.426c.048 2.85.062 5.701.124 8.544a2.074 2.074 0 0 1-.554 1.495 6.583 6.583 0 0 1-4.3 2.234 9.865 9.865 0 0 1-6.696-1.598 1.17 1.17 0 0 1-.589-1.128c.049-2.795.056-5.652.084-8.496l-.028-.02Zm-34.414 15.982c4.563-2.284 9.126-4.546 13.69-6.822l8.503-4.234a3.776 3.776 0 0 1 1.586-.381c2.943-.124 5.879-.277 8.822-.415h.692c.277.263.194.602.194.913v4.968c0 .553 0 .595.575.74.432.153.844.36 1.225.616a10.527 10.527 0 0 0 6.793 1.204 7.51 7.51 0 0 0 4.709-2.636 2.599 2.599 0 0 0 .692-1.889c-.048-1.142 0-2.283 0-3.459a3.571 3.571 0 0 1 1.628-.256c4.362-.229 8.725-.436 13.094-.658 1.101-.055 2.202-.138 3.303-.193.596 0 .658.034.693.588v2.615a.915.915 0 0 0 .616.948 14.82 14.82 0 0 0 5.325 1.301c1.652.135 3.313.135 4.965 0 .96-.085 1.909-.268 2.832-.547a1.04 1.04 0 0 0 .845-1.093v-.969c.125-.076.264-.128.408-.152a3.699 3.699 0 0 0 2.438-.789c.239-.21.541-.336.858-.359 3.123-.118 6.232-.27 9.369-.416.326 0 .644-.062.963-.062a.89.89 0 0 1 .776.305.88.88 0 0 1 .172.816 6.39 6.39 0 0 0 .174 2.733c.29.948.692 1.799 1.772 2.11a.443.443 0 0 1 .367.484c.008.786.27 1.549.748 2.173a2.081 2.081 0 0 0 2.528.92 7.018 7.018 0 0 1 2.028-.263c6.122-.157 12.239-.316 18.351-.477 4.044-.111 8.094-.249 12.138-.346a2.38 2.38 0 0 0 1.725-.692 2.982 2.982 0 0 0 .99-1.91v-1.383c.983.346 1.8.643 2.624.913.298.104.471.256.471.581.001.183.013.365.035.547.053 1.617.299 3.222.734 4.78a3.103 3.103 0 0 1-1.385.146l-27.193.103-81.578.339-29.665.236H56.04c.09-.492.519-.561.803-.678Zm5.616 79.605-.187 65.512c0 2.028 0 4.048-.049 6.068 0 .858-.041.913-.858 1.155a6.691 6.691 0 0 1-4.335 0 .894.894 0 0 1-.693-1.024 6.643 6.643 0 0 0 0-.83c0-47.162.016-94.33.049-141.506v-1.238c0-.416.207-.485.526-.485h5.249a.452.452 0 0 1 .376.128.446.446 0 0 1 .122.377v1.246c-.069 23.523-.143 47.06-.221 70.611l.02-.014Zm-6.087-72.825c-.277 0-.547 0-.956-.042-.187-1.674-.187-3.238-.242-4.787a.335.335 0 0 1 .087-.253.324.324 0 0 1 .111-.079.325.325 0 0 1 .134-.028h1.24l31.887-.111 61.144-.263 46.236-.214h.969a2.29 2.29 0 0 1 1.385.401 7.543 7.543 0 0 0 5.664 1.135c.36-.069.693-.125 1.087-.18.116.012.229.035.34.069.041 1.384.076 2.809.111 4.193l-.167.104c-.041 0-.083.069-.117.069l-148.913-.014Zm140.388 8.337c-3.268.055-6.536.124-9.805.166l-38.937.401-23.605.27-23.613.277c-8.051.087-16.104.18-24.16.276-4.314.056-8.635.139-12.914.208a.814.814 0 0 1-.18-.692v-7.451a4.845 4.845 0 0 1 0-.547.347.347 0 0 1 .346-.346h133.284a.423.423 0 0 1 .314.114.414.414 0 0 1 .129.308v.415a2388.25 2388.25 0 0 1-.131 5.93c-.021.636-.042.657-.728.671Zm-66.579 66.64c.201-1.557.554-2.948 1.703-4.006a2.116 2.116 0 0 1 2.77-.332c.278.162.54.35.783.56 1.44 1.211 1.44 1.218.63 2.934-.416.871-.838 1.736-1.254 2.601-.097.208-.159.443-.484.547-.887-1.522-2.369-2.138-4.148-2.304Zm-11.917 26.207a55.594 55.594 0 0 0 5.837-6.967c2.583-3.514 5.242-6.98 7.797-10.523a37.868 37.868 0 0 0 4.266-7.223c.443-1.045.941-2.075 1.454-3.189 1.8 1.46 3.684 1.46 5.671.692a20.826 20.826 0 0 1 2.514-.692 7.886 7.886 0 0 1 4.466.436c.171.069.335.152.492.249 1.114.692 1.198.899.692 2.075a112.34 112.34 0 0 1-10.955 19.241 1.067 1.067 0 0 1-1.135.56 11.707 11.707 0 0 0-5.034.519 28.011 28.011 0 0 0-11.447 6.4c-.436.401-.851.837-1.253 1.28-.402.443-.755.892-1.205 1.432a25.786 25.786 0 0 0-2.534-3.833 5.73 5.73 0 0 1 .394-.47l-.02.013Zm28.46 12.952a.89.89 0 0 1 .145-.906c.471-.623.907-1.266 1.385-1.868a35.9 35.9 0 0 1 7.195-6.78 16.28 16.28 0 0 1 5.969-2.768 5.96 5.96 0 0 1 2.998.062.445.445 0 0 1 .353.505c-.208 1.626.277 3.19.388 4.788a4.933 4.933 0 0 1-.353 2.401 7.616 7.616 0 0 1-3.234 3.646 97.785 97.785 0 0 1-2.77 1.487c-3.185 1.633-6.474 3.052-9.736 4.532-.242.111-.505.201-.879.346a36.866 36.866 0 0 0-1.441-5.459l-.02.014Zm.263 5.964-3.788 1.923c-.256.132-.422.035-.478-.263-.076-.408-.131-.816-.187-1.224a11.054 11.054 0 0 0-2.077-5.161c-.609-.803-1.247-1.585-1.87-2.374-.304-.387-.332-.512 0-.823a41.878 41.878 0 0 0 3.331-3.847.333.333 0 0 1 .568-.048c.458.451.847.966 1.156 1.529.413.711.79 1.443 1.129 2.193a33.069 33.069 0 0 1 2.237 8.081l-.021.014Zm18.045-18.916c-2.597-.636-4.951 0-7.236 1.073a22.454 22.454 0 0 0-3.968 2.463 37.053 37.053 0 0 0-6.744 6.662l-.942 1.197c-.561-1.03-1.025-1.916-1.523-2.767a13.387 13.387 0 0 0-1.739-2.242 157.03 157.03 0 0 0 11.08-20.638c.235-.083.339.042.443.215a7.62 7.62 0 0 0 3.414 2.899c.789.366 1.592.691 2.396 1.037a6.448 6.448 0 0 1 3.337 3.134c.353.692.651 1.419.956 2.131.215.505.395 1.031.602 1.536.208.505.603 1.017.582 1.515a6.466 6.466 0 0 1-.637 1.772l-.021.013Zm-11.585-15.829c-1.35 3.016-2.686 6.04-4.307 8.932-1.212 2.158-2.368 4.351-3.545 6.538a49.584 49.584 0 0 1-5.831 8.683c-.775.906-1.613 1.764-2.423 2.636a.802.802 0 0 1-.616.352 12.518 12.518 0 0 1-.167-7.575 19.926 19.926 0 0 1 2.202-4.885c1.088-1.757 2.237-3.459 3.4-5.189a102.538 102.538 0 0 0 6.883-11.284c1.039-2.076 2.078-4.11 3.013-6.192.095-.368.292-.701.567-.962.385.684.601 1.45.63 2.235.153 1.971.25 3.95.374 5.922a1.57 1.57 0 0 1-.18.789Zm-18.004 19.012c-.067.267-.148.53-.242.789a3.013 3.013 0 0 1-1.385 1.667 22.681 22.681 0 0 1-4.799 2.041c-1.53.498-3.088.886-4.632 1.328-.658.187-1.302.395-2.008.609a3.404 3.404 0 0 1-.208-.526 14.602 14.602 0 0 0-.962-3.147 1.239 1.239 0 0 1 .207-1.384c.506-.595.949-1.246 1.496-1.799a26.22 26.22 0 0 1 12.838-7.112 14.818 14.818 0 0 1 2.597-.284c.692-.035.831.228.464.789a32.834 32.834 0 0 0-2.078 3.577 16.264 16.264 0 0 0-1.274 3.459l-.014-.007Zm-22.636 1.218a1.09 1.09 0 0 1 .312-.27 33.24 33.24 0 0 0 3.462-2.906c.381-.367.575-.332.893.083.166.215.319.45.471.692a24.83 24.83 0 0 1 2.805 6.109c.041.132.09.263.124.394.395 1.654.353 1.709-1.108 2.643-1.232.796-2.437 1.64-3.656 2.463l-1.142.775a2.109 2.109 0 0 1-.021-.463 12.655 12.655 0 0 0-2.001-8.794 1.426 1.426 0 0 1-.208-.353.588.588 0 0 1 .083-.366l-.014-.007Zm-19.534 10.032a3.406 3.406 0 0 1 1.274-1.751 5.546 5.546 0 0 1 2.382-1.003c1.447-.27 2.894-.512 4.335-.768a18.408 18.408 0 0 0 9.002-4.193c.408-.352.851-.691 1.385-1.107a12.26 12.26 0 0 1 2.077 8.4 3.663 3.663 0 0 1-.104.539 2.836 2.836 0 0 1-1.696 2.138 28.96 28.96 0 0 1-4.093 1.591 16.43 16.43 0 0 1-4.646.422 33.72 33.72 0 0 1-6.288-.691 9.126 9.126 0 0 1-2.596-.865 2.144 2.144 0 0 1-1.018-2.705l-.014-.007Zm24.063 6.918c-1.946.927-3.899 1.854-5.879 2.719a16.094 16.094 0 0 1-5.893 1.294c-.734 0-1.468.09-2.202.152a21.56 21.56 0 0 1-6.045-.166 7.155 7.155 0 0 1-1.067-.29 1.893 1.893 0 0 1-1.253-1.384 3.996 3.996 0 0 1-.173-.81 24.985 24.985 0 0 0-.976-4.434.387.387 0 0 1 .048-.533.354.354 0 0 1 .222.034 2.6 2.6 0 0 1 .36.194 23.976 23.976 0 0 0 5.796 1.156c1.191.096 2.375.228 3.58.235 2.537.02 5.047-.526 7.347-1.598a27.807 27.807 0 0 0 4.764-2.768c1.385-1.01 2.77-1.958 4.196-2.899a17.289 17.289 0 0 1 5.394-2.394 43.1 43.1 0 0 0 6.184-1.923 16.905 16.905 0 0 0 2.936-1.474c.069.139.138.215.145.298.1 1.515.351 3.017.748 4.483a1.269 1.269 0 0 1-.45 1.453 39.851 39.851 0 0 1-11.121 7.078 11.413 11.413 0 0 1-4.037.795 6.697 6.697 0 0 0-2.61.762l-.014.02Zm2.167 2.602a1.789 1.789 0 0 1 .97-1.827 5.558 5.558 0 0 1 1.384-.54 23.692 23.692 0 0 0 6.468-2.67 38.953 38.953 0 0 0 7.901-5.729l1.143-1.051c2.395 2.546 4.057 5.362 4.154 8.925a.908.908 0 0 1-.568.968 35.489 35.489 0 0 1-10.012 3.349c-2.14.353-4.287.512-6.44.692a15.11 15.11 0 0 1-3.158-.194 2.076 2.076 0 0 1-1.828-1.944l-.014.021Zm46.18-11.416c-.325 3.245-.692 6.49-1.385 9.686-.277 1.384-.692 2.664-.99 4.006a2.237 2.237 0 0 1-1.987 1.833c-.458.086-.921.144-1.385.173-2.438.125-4.848.312-7.306.312-3.55-.03-7.07.662-10.345 2.034a13.694 13.694 0 0 1-4.695 1.044c-2.299.111-4.591.353-6.89.367-.927.039-1.852.126-2.77.263-1.232.131-2.465.263-3.697.429a6.559 6.559 0 0 1-2.32-.228 1.45 1.45 0 0 1-1.087-.969 2.502 2.502 0 0 1-.146-.38c-.284-1.433-.554-2.858-.838-4.318.464-.152.762.173 1.115.187.321.02.64.056.956.111a15.32 15.32 0 0 0 3.857.041c1.835-.166 3.656-.339 5.477-.636a33.412 33.412 0 0 0 8.628-2.643 63.609 63.609 0 0 0 3.566-1.799c2.029-1.093 4.107-2.076 6.232-3.01 3.608-1.618 7.244-3.182 10.74-5.043 3.013-1.605 3.234-1.792 5.325-4.566-.041 1.19.035 2.158-.055 3.106Zm29.866-1.183a.639.639 0 0 1-.485.692 7.205 7.205 0 0 1-4.065.263 19.343 19.343 0 0 1-7.499-3.667 640.16 640.16 0 0 0-6.315-4.912 26.467 26.467 0 0 0-8.199-4.435 4.16 4.16 0 0 1-2.403-2.138c-.374-.692-.616-1.432-.921-2.152-.304-.719-.651-1.619-1.038-2.401a7.77 7.77 0 0 0-4.003-3.812c-.512-.214-1.025-.408-1.53-.636a14.67 14.67 0 0 1-1.482-.692 5.107 5.107 0 0 1-2.839-4.151c-.055-.637-.111-1.28-.152-1.917-.083-1.335-.153-2.663-.25-3.992a8.847 8.847 0 0 0-.831-3.044 5.58 5.58 0 0 0-4.023-3.245 9.567 9.567 0 0 0-5.166.166c-.83.263-1.675.492-2.506.748a3.474 3.474 0 0 1-3.248-.644c-.512-.387-.962-.858-1.433-1.294-.471-.436-.852-.844-1.316-1.21-1.385-1.087-3.109-1.467-4.757 0-.104.034-.215.062-.277-.063-.062-.124 0-.117.069-.186a24.604 24.604 0 0 1 2.015-3.909 50.903 50.903 0 0 1 3.421-5.169c3.732-5.078 7.575-10.066 11.633-14.882 3.414-4.04 6.862-8.046 10.629-11.761a82.016 82.016 0 0 1 13.843-10.966 48.942 48.942 0 0 1 15.926-6.552c2.77-.609 5.54-1.162 8.4-1.571.464-.069.595 0 .588.478 0 2.027-.09 4.047-.124 6.067-.153 8.275-.303 16.547-.451 24.817l-.484 27.163c-.148 7.624-.303 15.253-.464 22.887-.097 5.101-.192 10.2-.284 15.297.021.276 0 .553.021.83v-.007Zm5.955-43.456c-.157 9.054-.316 18.108-.478 27.163-.138 7.541-.305 15.075-.45 22.616-.162 8.506-.312 17.009-.45 25.509-.021.413-.021.826 0 1.239a1.73 1.73 0 0 1-1.101 1.743 2.033 2.033 0 0 1-2.078 0 2.954 2.954 0 0 1-.339-.228 1.562 1.562 0 0 1-.528-.601 1.56 1.56 0 0 1-.164-.783c.076-1.563.076-3.127.104-4.691.097-5.073.191-10.128.283-15.165.157-8.916.317-17.834.478-26.754.143-7.671.298-15.346.464-23.025v-2.346l.485-24.125c.083-4.276.138-8.551.215-12.827.166-9.336.334-18.667.505-27.993.042-2.207.104-4.414.152-6.614 0-.325 0-.643.049-.969a.34.34 0 0 1 .238-.304.33.33 0 0 1 .136-.014h3.462a.352.352 0 0 1 .243.106.37.37 0 0 1 .073.114.355.355 0 0 1 .023.133v.969c-.097 5.05-.198 10.103-.304 15.158l-.333 17.511c-.138 7.039-.279 14.073-.422 21.102-.159 4.345-.215 8.71-.263 13.076Zm43.14-1.273c-2.867.519-5.796.692-8.704 1.059-2.521.235-5.048.09-7.569.076-.159 0-.235-.132-.332-.222 4.584-3.95 13.496-9.755 16.058-10.461.208 1.682.602 8.413.519 9.548h.028Zm.415-10.876c-.742.238-1.462.539-2.153.899a88.056 88.056 0 0 0-13.704 8.794 42.382 42.382 0 0 0-5.366 5.147 69.805 69.805 0 0 0-8.261 10.814c-4.058 6.677-8.171 13.325-11.911 20.182-.526.968-1.038 1.944-1.551 2.919a.306.306 0 0 1-.318.215c-.208-.166-.083-.401-.083-.602.184-10.442.376-20.88.574-31.314.173-8.779.381-17.559.547-26.339.173-9.056.319-18.113.485-27.169.035-1.93.097-3.861.159-5.791 0-.747.042-.768.741-.899a72.508 72.508 0 0 0 10.082-2.768 22.812 22.812 0 0 0 2.666-1.121 3.73 3.73 0 0 0 1.178-.691 2.69 2.69 0 0 1 2.728-.755 7.132 7.132 0 0 0 1.925 0 15.114 15.114 0 0 1 6.613 1.059 41.507 41.507 0 0 1 4.889 2.221 104.59 104.59 0 0 0 19.388 7.873 38.859 38.859 0 0 0 6.461 1.384c2.881.337 5.731.899 8.524 1.681 1.17.346 1.163.332 1.032 1.591a32.395 32.395 0 0 1-.942 5.009 53.946 53.946 0 0 1-3.739 9.908 20.893 20.893 0 0 1-2.313 3.743 55.227 55.227 0 0 1-9.168 9.513 26.322 26.322 0 0 1-8.51 4.497h.027Zm14.895 7.749c-.962.29-1.918.616-2.901.851-1.558.38-3.13.692-4.702 1.045-.395.083-.803.103-1.184.152-.063-.132-.132-.215-.132-.291.049-1.383.097-2.767.166-4.151 0-.526.167-.602.693-.526a29.192 29.192 0 0 1 8.025 2.359c.125.056.257.104.264.256.007.153-.132.263-.257.305h.028Zm4.293-3.459a.606.606 0 0 1-.256-.042 29.885 29.885 0 0 0-10.089-3.826c-.63-.131-1.274-.145-1.911-.235-.443-.062-.471-.166-.492-.65-.055-1.128.215-2.035 1.385-2.547a5.628 5.628 0 0 0 1.433-1.051 3.528 3.528 0 0 1 2.119-.865c1.828-.159 3.643-.387 5.471-.56.581-.056 1.288-.429 1.724-.076.436.352.291 1.196.332 1.819.16 2.429.277 4.843.402 7.278-.021.236.097.526-.145.741l.027.014Z"/>
  <path fill="#FDEAFF" d="M190.266 140.351a1.477 1.477 0 0 0-1.349-.269c-.23.068-.44.191-.611.359a1.46 1.46 0 0 0-.373.602 2.763 2.763 0 0 0 1.426 3.217 1.45 1.45 0 0 0 1.195-.007 1.45 1.45 0 0 0 .779-.907c.056-.226.089-.458.097-.691a2.963 2.963 0 0 0-1.164-2.304Zm-.602 2.041c-.042.214-.236.249-.374.325a.82.82 0 0 1-.689-.865.822.822 0 0 1 .121-.381.37.37 0 0 1 .339-.138.917.917 0 0 1 .603 1.059Zm.748.449c-.118 0-.167-.124-.146-.256.021-.131.042-.193.09-.207.159-.042.229.055.201.214-.028.159-.021.249-.132.249h-.013Zm-73.546-6.718a2.452 2.452 0 0 0-1.184-1.286 7.337 7.337 0 0 0-3.643-.955c-.367.048-.824.097-1.274.173a1.381 1.381 0 0 0-.9.581.393.393 0 0 0 .062.602c.262.183.543.336.838.457 1.738.788 3.629.947 5.485 1.238a.587.587 0 0 0 .547-.223.59.59 0 0 0 .069-.587Zm-2.126-.415h-.298a1.84 1.84 0 0 1-1.385-.263 1.166 1.166 0 0 1-1.108-.276.549.549 0 0 1-.498-.139.524.524 0 0 1 .471-.207 5.808 5.808 0 0 1 3.026.692c.048 0 .034.145.055.221a.31.31 0 0 1-.263-.028Zm.9-21.793a3.254 3.254 0 0 0-.817.083 6.556 6.556 0 0 0-2.825 1.335 12.347 12.347 0 0 0-3.234 4.048.965.965 0 0 0-.132.773.963.963 0 0 0 .492.61l.533.035.118-.055h.125l1.662-.844c.36-.277.692-.547 1.073-.831a11.467 11.467 0 0 0 3.13-3.424 6.16 6.16 0 0 0 .45-.997.614.614 0 0 0-.117-.5.597.597 0 0 0-.458-.233Zm-5.837 5.777c.097-.74.429-1.314 1.489-2.442a6.697 6.697 0 0 1 3.718-2.29 10.878 10.878 0 0 1-5.207 4.732Zm-5.055 11.16a.502.502 0 0 0-.404-.419.51.51 0 0 0-.206.003 1.842 1.842 0 0 0-.63.243 4.3 4.3 0 0 0-2.077 4.455c.609.388 1.066.097 1.489-.339.034 0 .083-.117.062-.145a.177.177 0 0 1 .033-.06.165.165 0 0 1 .122-.053.173.173 0 0 1 .067.016s.429-.588.637-.886c.462-.633.77-1.365.9-2.137.033-.225.036-.453.007-.678Zm-1.115 1.293a.91.91 0 0 1-.305.568c-.091.334-.287.63-.561.844-.041.076-.062.173-.124.214-.063.042-.284.152-.319.118-.145-.152-.097-.305.097-.401l.09-.263c.047-.331.212-.633.464-.851a.81.81 0 0 1 .582-.575c.09-.18.194-.2.249 0a.289.289 0 0 1-.021.206.285.285 0 0 1-.152.14Zm66.711-60.06a33.847 33.847 0 0 0-4.895-10.274 24.602 24.602 0 0 0-3.65-4.151 16.104 16.104 0 0 0-7.381-3.792c-.81-.173-1.641-.228-2.458-.332a.797.797 0 0 1-.693-.367 3.735 3.735 0 0 0-1.738-1.494c0-.353-.048-.692-.055-.996-.097-6.227-.208-12.412-.298-18.618-.06-4.507-.115-9.01-.166-13.512a7438.05 7438.05 0 0 1-.153-14.204h-.831a2.814 2.814 0 0 0-.103 1.383c.11 8.916.228 17.834.353 26.755.055 4.455.113 8.913.173 13.373 0 1.702.041 3.404.09 5.1a1.205 1.205 0 0 1-.561 1.286 2.248 2.248 0 0 0-1.039 1.384 1.258 1.258 0 0 1-.935.892 22.543 22.543 0 0 0-8.143 5.286 40.746 40.746 0 0 0-7.755 10.821 58.944 58.944 0 0 0-5.401 16.425 5.45 5.45 0 0 0-.063.954.618.618 0 0 0 .45.623c.173.06.349.111.527.152a66.043 66.043 0 0 0 9.916 1.654c1.786.173 3.58.29 5.366.401a1.19 1.19 0 0 1 1.094.692 17.204 17.204 0 0 0 1.918 2.857 11.89 11.89 0 0 0 3.892 3.238 7.075 7.075 0 0 0 7.568-.546 11.149 11.149 0 0 0 2.853-2.982 13.837 13.837 0 0 0 1.683-3.155 1.464 1.464 0 0 1 1.385-1.107 37.032 37.032 0 0 0 6.038-1.384 14.303 14.303 0 0 0 3.158-1.383 5.716 5.716 0 0 0 1.565-1.322 1.64 1.64 0 0 0 .429-1.231 54.026 54.026 0 0 0-2.14-12.426Zm.464 13.678a12.882 12.882 0 0 1-3.462 1.695 45.441 45.441 0 0 1-8.469 1.84c-4.135.514-8.297.775-12.464.782a107.196 107.196 0 0 1-15.019-1.072 43.426 43.426 0 0 1-5.131-1.031c-.693-.194-.748-.222-.596-.948.339-1.667.692-3.328 1.115-4.968a52.25 52.25 0 0 1 3.926-10.564 42.193 42.193 0 0 1 7.091-10.295 24.35 24.35 0 0 1 6.315-4.843 15.751 15.751 0 0 1 6.987-1.861 13.9 13.9 0 0 1 7.25 1.847 18.78 18.78 0 0 1 5.63 5.009 30.976 30.976 0 0 1 4.064 7.016 49.338 49.338 0 0 1 3.504 15.912 1.513 1.513 0 0 1-.741 1.508v-.027Zm169.881 8.441h-.27c-.354 0-.478-.229-.478-.547v-.277l-.208-16.272a2.705 2.705 0 0 1 .18-1.211c.214-.562.281-1.17.194-1.764a7.174 7.174 0 0 0-2.77-5.065 19.39 19.39 0 0 0-6.343-3.798 10.612 10.612 0 0 1-2.589-1.28 3.802 3.802 0 0 1-1.489-1.577c.36-.194.692-.346.997-.547a3.17 3.17 0 0 0 1.302-3.508 3.217 3.217 0 0 0-2.873-2.334 3.214 3.214 0 0 0-3.166 1.92 3.144 3.144 0 0 0 .998 3.825c.311.25.796.27.941.768a5.77 5.77 0 0 1-1.772 2.076 28.583 28.583 0 0 1-4.979 2.643.251.251 0 0 1-.263.01.249.249 0 0 1-.125-.232v-1.238c-.051-5.752-.099-11.501-.145-17.248-.056-5.563-.116-11.125-.18-16.688a2.248 2.248 0 0 1 .187-1.35c.159-.255 0-.497-.326-.636a1.225 1.225 0 0 0-.692-.083 15.93 15.93 0 0 1-1.517.083h-10.629l-37.136.035h-.139c-.374 0-.561.215-.589.623v.408c-.083 2.85-.17 5.7-.263 8.551.028.24-.023.483-.145.692l-1.759.256c-.353-.187-.471.208-.692.29-.838.125-1.455.942-2.403.748-.049 0-.173.187-.208.297a.753.753 0 0 1-.284.43 14.028 14.028 0 0 0-2.195 1.853.232.232 0 0 1-.261.089.24.24 0 0 1-.085-.047c-.111-.07-.263-.2-.346-.166-.215.083-.125.284-.063.436a.649.649 0 0 1 0 .643 74.338 74.338 0 0 0-1.385 2.491c-.24-.4-.36-.862-.346-1.328-.18-1.301-.332-2.609-.63-3.889-.152-.65-.575-1.266-.235-1.971a.251.251 0 0 0-.07-.242c-.533-.298-.401-.886-.595-1.329a.552.552 0 0 1 .034-.526c.118-.18.43-.29.347-.54-.083-.248-.367 0-.561-.062-.194-.062-.173-.187-.215-.311-.291-.955-.582-1.923-.872-2.885-.153-.29-.132-.692-.547-.81a3.337 3.337 0 0 0-2.583-.906h-.942c-.332-.194-.443.173-.658.27a5.153 5.153 0 0 0-2.908 2.36c-.118.2-.215.373-.499.366-.284-.007-.332.152-.201.339a1.25 1.25 0 0 1 .063 1.28 18.443 18.443 0 0 0-.893 3.46c-.624.117-.651.144-.319.573a.887.887 0 0 1 .159.761c-.166.92.208 1.89-.318 2.768-.111.194.318.463.339.816.042.817.166 1.633.263 2.45.132.622.132.622-.318.594-.589.132-.921-.394-1.385-.546-.637-.097-.07-1.045-.783-1.093-.083.27-.277.387-.512.235a2.274 2.274 0 0 0-1.6-.242c-.381.041-.734.367-1.156.083-.083-.062-.215.076-.166.256a.575.575 0 0 1-.042.519 3.869 3.869 0 0 0-.692 2.214c0 .249-.167.38-.367.526-.201.145-.056.27.131.297.187.028.402 0 .45.221.111.492.201.99.263 1.488 0 .221-.45.235-.304.505.145.27.339.284.491.45a.898.898 0 0 1 .174.366c.346 1.232.81 2.427 1.384 3.57.063.118.153.305.104.374-.242.38 0 .422.277.547.277.124.291.345.471.47.388.27.125.913.651 1.086.526.173.693.616 1.018.9.166.138.395.263.346.567-.734.332-1.489.65-2.223 1.003a2.67 2.67 0 0 0-1.274 1.024 5.526 5.526 0 0 0-.955 3.55c.107.678.301 1.34.574 1.971a27.3 27.3 0 0 1 .783 1.917 3.518 3.518 0 0 1-.409 3.286 3.747 3.747 0 0 1-1.585 1.287c-1.004.456-2.022.885-3.026 1.335a17.626 17.626 0 0 0-5.983 4.103 11.41 11.41 0 0 0-2.881 5.86 13.909 13.909 0 0 0-.076 5.348.633.633 0 0 1-.062.533c-.35.105-.72.13-1.081.069l-10.075-.138-14.77-.174a1.252 1.252 0 0 0-.796.132.586.586 0 0 0-.208.318c-.055.16.076.25.18.34.27.241.609.151.921.158l20.981.242c4.155.042 8.379.063 12.562.111l33.819.443c4.238.049 8.469.062 12.707.118l33.404.429c4.695.062 9.383.09 14.078.145l25.122.304a1.98 1.98 0 0 0 1.08-.117v-.83l-13.087-.097ZM323.8 59.216a2.282 2.282 0 0 1 1.397-2.136 2.293 2.293 0 0 1 3.013 2.983 2.295 2.295 0 0 1-2.125 1.416 2.234 2.234 0 0 1-2.121-1.387 2.229 2.229 0 0 1-.164-.876Zm-67.757.38v-.27c.03-.59.216-1.163.54-1.66a2.815 2.815 0 0 1 0-1.722l.692-.049c-.692-.885-.692-.885-.616-1.978 0-.547.049-1.1.062-1.647 0-.318-.055-.65.395-.754.159-.042.09-.235 0-.298-.512-.27-.478-.74-.436-1.197.023-.235.072-.467.145-.691a17.941 17.941 0 0 1 1.738-3.425l.63.387c.042-.076.139-.187.125-.214a.968.968 0 0 1 .208-1.44c.457-.387.907-.774 1.343-1.19.25-.234.547-.214.852-.283.305-.07.249-.533.561-.692a8.756 8.756 0 0 1 3.621-1.252c.464 0 .596.062.589.512 0 .92-.035 1.833-.062 2.767-.083 2.664-.236 5.328-.229 7.991a10.368 10.368 0 0 1-1.683 5.577c-.38.622-.74 1.259-1.107 1.889a5.063 5.063 0 0 1-3.947 2.677 3.417 3.417 0 0 1-1.884-.311c-1.329-.658-1.669-1.246-1.537-2.726Zm-10.65-17.808c-.367-.871 0-1.702.214-2.511.146-.588.146-1.287.728-1.716.339-.125 0-.311.041-.464a3.899 3.899 0 0 1 1.634-2.594c.36-.215.762-.83 1.24-.097.041.062.291 0 .304-.173a.512.512 0 0 1 .527-.519c1.461-.138 2.382.47 2.728 1.557.167.327.206.704.111 1.059-.159.36.124.428.346.546.166.637.582 1.239.305 1.951-.07.173.062.25.173.311a.7.7 0 0 1 .318.568c.153 1.162.547 2.27.762 3.417a.455.455 0 0 1-.242.56c-.201.112-.236.305 0 .368.401.103.464.408.505.691.111.769.201 1.536.298 2.297-.076.166-.222.333-.049.52.513.933.354 1.957.388 2.96 0 .111-.131.222-.194.34-.062.117-.256.2-.083.304.582.353.305.906.326 1.384.041.692 0 1.383-.035 1.992-.381.298-.762-.235-1.052.152.18.422.789.305.941.727.153.422-.076.81-.145 1.21-.069.402.062.955-.596 1.06-.083 0-.076.117 0 .214.651.878 0 1.743-.055 2.608 0 .145-.208.297-.346.408a2.772 2.772 0 0 1-2.452.574 1.51 1.51 0 0 1-1.232-1.134 29.06 29.06 0 0 0-2.562-6.06 26.76 26.76 0 0 0-1.683-2.672 7.535 7.535 0 0 1-1.122-3.459.482.482 0 0 1 .18-.484c.104-.076.153-.145.063-.221-.734-.637-.527-1.46-.45-2.256.512-.387-.16-.38-.194-.588.048-.962-.215-1.951.36-2.83Zm-2.597 17.663c0-.055-.104-.186-.145-.18a.799.799 0 0 1-.769-.484 15.65 15.65 0 0 1-1.419-2.504.415.415 0 0 1-.049-.132c0-.152.104-.221.215-.297.111-.076.422-.083.339-.332-.083-.25-.305-.111-.471-.118-.166-.007-.443-.062-.526-.332-.083-.27-.229-.692-.332-1.052-.208-.692-.201-.692.276-1.314-.415-.076-.761-.166-.782-.727-.021-.56-.187-1.266-.235-1.91-.036-.317 0-.638.103-.94.485-1.294 1.593-1.252 2.452-.65.228.166.138.408.159.63.021.22.194.262.339.09a.348.348 0 0 1 .478-.112c.194.111.381.346.575.353.692 0-.042 1.093.775.948.644-.117.797.505 1.136.81.331.32.632.67.9 1.044.308.4.595.816.859 1.246a28.974 28.974 0 0 1 2.486 5.05c.381.884.695 1.796.942 2.726.13.534.18 1.084.145 1.633-.055.643-.374.879-1.025.768a3.555 3.555 0 0 1-.533-.139 13.572 13.572 0 0 1-5.214-2.975c-.312-.304-.804-.518-.679-1.1Zm22.159 6.967a88.758 88.758 0 0 1-13.759.589 41.02 41.02 0 0 1-7.52-.838c-.894-.193-1.773-.45-2.66-.691a2.326 2.326 0 0 1-.623-.284.746.746 0 0 1-.187-1.086c.17-.218.379-.4.617-.54.519-.284 1.073-.519 1.606-.782a2.364 2.364 0 0 1 2.895.2c.505.437 3.005 1.343 3.261 1.516.363.05.728.08 1.094.09a1.387 1.387 0 0 0 1.385-1.128c.097-.353.139-.692.201-1.044.256-.16.471 0 .692 0a3.713 3.713 0 0 0 2.652-.464c.631-.332.631-.325 1.164.131.138.125.256.263.401.374a4.553 4.553 0 0 0 4.91.692 6.934 6.934 0 0 0 2.327-1.674c.198-.192.376-.403.533-.63a.932.932 0 0 1 1.066-.429c.132 0 .277 0 .409.042.304.041.505.186.491.532-.014.346 0 .554 0 .824-.055 1.238-.104 2.483-.159 3.722-.055.754-.097.795-.789.878h-.007Zm48.347 27.433h-.547l-21.258-.236c-7.848-.087-15.717-.184-23.606-.29a3.769 3.769 0 0 1-2.008-.215 6.012 6.012 0 0 1 0-1.902c.115-4.271.24-8.545.374-12.82.152-4.913.332-9.832.484-14.744.222-7.168.439-14.335.651-21.503.097-3.259.215-6.517.326-9.776v-.692c.048-.754.076-.782.782-.795h23.744v-.049h23.052c1.441 0 1.344-.117 1.385 1.328.049 5.01.083 10.019.139 15.035.064 6.346.136 12.69.214 19.033v1.238a.971.971 0 0 1-.443.934 9.14 9.14 0 0 0-1.62 1.488 8.293 8.293 0 0 0-2.008 4.884c-.102.454-.025.93.214 1.329.214.357.302.776.25 1.19.087 5.235.18 10.474.277 15.719v.415a.38.38 0 0 1-.233.4.381.381 0 0 1-.162.029h-.007Zm25.15.318h-.692l-21.931-.263c-1.343 0-1.211-.055-1.232-1.197-.083-4.87-.169-9.739-.256-14.605a2.994 2.994 0 0 1 .09-1.252c.178.015.354.047.526.097a24.251 24.251 0 0 0 6.177 1.314c2.425.271 4.866.373 7.305.305a39.086 39.086 0 0 0 7.119-.734c.947-.177 1.867-.48 2.735-.9.12-.044.246-.072.374-.082.214.207.131.45.138.692.042 5.198.081 10.391.118 15.58v.554c.007.276-.111.491-.464.491h-.007ZM28.39 331.021a2.972 2.972 0 0 0-1.703-1.329c-.477-.152-.976-.242-1.468-.366-.332-.09-.422-.325-.214-.63.207-.304.54-.733.81-1.107a6.273 6.273 0 0 0 .997-1.799c.38-1.286-.118-2.137-1.385-2.518a10.714 10.714 0 0 0-2.403-.228c.153-.367.305-.692.423-1.01.062-.187-.277-.457-.464-.374a.887.887 0 0 0-.34.201 9.064 9.064 0 0 1-1.384 1.715.522.522 0 0 0-.146.367 2.226 2.226 0 0 1-.388 1.017 4.624 4.624 0 0 0-.221.498.395.395 0 0 0 .207.464c.194.124.347 0 .478-.111.06-.069.113-.143.16-.221.727-.076.117.629.457.782.076 2.767.221 5.59.519 8.35-.305.166-.457-.09-.692-.097-.236-.006-.277 0-.367.111a.43.43 0 0 0 0 .505c.045.079.11.145.186.194.543.256.98.691 1.24 1.231a.38.38 0 0 0 .478.173c.401-.186.692 0 1.018.194.325.194.782.166.851-.048.097-.332-.159-.485-.353-.692-.332-.332-.325-.401 0-.574.575-.277 1.163-.533 1.745-.81a4.845 4.845 0 0 0 1.648-1.218 2.19 2.19 0 0 0 .312-2.67Zm-1.19 2.331a4.475 4.475 0 0 1-1.018.692c-.776.402-1.572.761-2.361 1.128-.319.152-.52.035-.554-.325-.118-1.232-.236-2.47-.326-3.709-.069-.913-.09-1.833-.138-2.767-.063-1.197-.132-2.387-.194-3.584-.042-.782 0-.844.838-.878.6-.025 1.199.052 1.772.228a.942.942 0 0 1 .714.508.935.935 0 0 1-.021.876 4.478 4.478 0 0 1-.533.954c-.326.505-.693.983-1.011 1.481-.158.219-.297.45-.416.692a.885.885 0 0 0 .506 1.342 9.84 9.84 0 0 0 1.052.311c.483.103.95.273 1.385.505a1.499 1.499 0 0 1 .863 1.193 1.495 1.495 0 0 1-.579 1.353h.02Z"/>
  <path fill="#FDEAFF" d="M53.582 308.224a1.967 1.967 0 0 0-.761-1.384 5.738 5.738 0 0 0-1.69-.92 20.583 20.583 0 0 0-4.556-1.045 64.621 64.621 0 0 0-9.127-.56c-6.97.032-13.923.694-20.774 1.979a47.084 47.084 0 0 0-8.607 2.421c-.768.307-1.508.682-2.209 1.121a4.335 4.335 0 0 0-1.135.989 1.588 1.588 0 0 0-.27 1.896c.22.402.386.833.491 1.28 1.08 3.84 2.078 7.707 3.24 11.533.839 2.768 1.545 5.57 2.314 8.358 1.274 4.649 2.583 9.271 3.836 13.948a1.86 1.86 0 0 0 1.302 1.446c.567.18 1.128.394 1.696.56a40.875 40.875 0 0 0 9.55 1.294 55.28 55.28 0 0 0 7.048-.201 47.081 47.081 0 0 0 9.75-1.778 27.953 27.953 0 0 0 2.21-.774 2.772 2.772 0 0 0 1.89-2.173c0-.187.048-.367.076-.546l2.95-18.508c.923-5.622 1.818-11.249 2.686-16.881a8.146 8.146 0 0 0 .09-2.055Zm-1.17 2.996-3.303 20.825c-.743 4.672-1.48 9.347-2.209 14.024a1.382 1.382 0 0 1-.83 1.148 22.47 22.47 0 0 1-5.215 1.751 55.543 55.543 0 0 1-14.666 1.21 40.039 40.039 0 0 1-7.382-.906c-.852-.201-1.676-.484-2.52-.692a1.451 1.451 0 0 1-1.136-1.204c-.783-2.975-1.627-5.936-2.444-8.897-1.505-5.447-3.006-10.892-4.501-16.335-.693-2.567-1.455-5.12-2.189-7.679.035-.236.118-.409.402-.256a29.712 29.712 0 0 0 7.569 1.383 88.36 88.36 0 0 0 14.07 0 93.008 93.008 0 0 0 17.554-2.719 23.597 23.597 0 0 0 6.772-2.767c.123.36.133.748.028 1.114Zm.049-2.498c-.324.438-.74.8-1.22 1.059a16.112 16.112 0 0 1-3.136 1.383 54.312 54.312 0 0 1-7.735 1.938 103.657 103.657 0 0 1-12.575 1.584 90.473 90.473 0 0 1-13.496 0 32.629 32.629 0 0 1-6.384-1.045 7.727 7.727 0 0 1-2.147-.906.933.933 0 0 1-.54-.76.93.93 0 0 1 .395-.845 6.926 6.926 0 0 1 2.202-1.384 37.641 37.641 0 0 1 6.924-2.172 99.269 99.269 0 0 1 13.642-1.958c2.887-.242 5.775-.312 8.434-.422a77.812 77.812 0 0 1 9.32.498 20.14 20.14 0 0 1 4.688 1.045c.571.18 1.098.479 1.544.878a.78.78 0 0 1 .276.536.774.774 0 0 1-.192.571ZM158.157 98.037a.824.824 0 0 1 .305.11c.318.263.63.54.921.83 1.92 1.91 3.834 3.824 5.74 5.743.29.294.559.608.803.941a.352.352 0 0 1-.076.491.446.446 0 0 1-.512.042 2.61 2.61 0 0 1-.423-.339 622.068 622.068 0 0 1-6.862-6.967 1.78 1.78 0 0 1-.277-.457c-.055-.118.173-.394.381-.394Zm-20.012 8.316a.378.378 0 0 1-.262-.112.378.378 0 0 1-.112-.262.874.874 0 0 1 .139-.512 88.42 88.42 0 0 1 5.283-7.223 1.61 1.61 0 0 1 .187-.2.585.585 0 0 1 .637-.132c.201.09.208.422 0 .692-1.835 2.248-3.462 4.663-5.083 7.043a3.988 3.988 0 0 1-.429.533c-.11.077-.231.135-.36.173Zm11.01 2.892.277-1.931c.263-1.716.533-3.459.79-5.147.027-.364.125-.719.29-1.045a.344.344 0 0 1 .334-.19c.046.004.09.017.13.038a.55.55 0 0 1 .243.29c.027.133.027.269 0 .402-.395 2.615-.804 5.237-.997 7.88a2.114 2.114 0 0 1-.097.54c-.077.221-.222.422-.485.387a.473.473 0 0 1-.45-.429 6.6 6.6 0 0 1-.035-.795Zm-19.202 53.495c-.076-.727-.152-1.453-.221-2.18a4.191 4.191 0 0 1 .609-2.885c.1-.153.221-.29.36-.408a.353.353 0 0 1 .492 0 .637.637 0 0 1 .118.36.406.406 0 0 1-.104.249 3.95 3.95 0 0 0-.457 3.293 8.16 8.16 0 0 1 .111 2.076 1.785 1.785 0 0 1-.097.532.434.434 0 0 1-.465.351.428.428 0 0 1-.387-.434 6.237 6.237 0 0 1 0-.947l.041-.007Zm3.234 1.563a2.77 2.77 0 0 1 .471-1.384.414.414 0 0 1 .485-.145.356.356 0 0 1 .263.422 2.467 2.467 0 0 0 0 2.076.358.358 0 0 1-.201.456.419.419 0 0 1-.589-.145 2.945 2.945 0 0 1-.429-1.28Zm-2.618 3.736v-.817a.401.401 0 0 1 .769-.117c.11.397.194.802.249 1.211a.92.92 0 0 1-.263.761.486.486 0 0 1-.484.18.354.354 0 0 1-.277-.402c0-.27.062-.539.096-.809l-.09-.007Zm5.942.471a4.402 4.402 0 0 1-.152.761.364.364 0 0 1-.171.205.348.348 0 0 1-.266.023c-.11-.049-.277-.173-.284-.263v-1.771a.333.333 0 0 1 .395-.291c.131.03.245.109.319.222.148.351.202.735.159 1.114Zm-10.034-3.01c.054-.117.117-.231.187-.339.132-.187.506-.194.575 0 .18.512.346 1.031.505 1.55a.46.46 0 0 1-.367.491.404.404 0 0 1-.429-.263 4.97 4.97 0 0 1-.471-1.439Zm-.761 3.259c0 .117-.049.297-.104.47a.444.444 0 0 1-.402.318.341.341 0 0 1-.335-.199.36.36 0 0 1-.032-.133v-1.501a.267.267 0 0 1 .094-.174.256.256 0 0 1 .19-.054.6.6 0 0 1 .346.166c.249.297.201.678.243 1.107Z"/>
  <path fill="#F59C30" d="M61.767 118.834a.53.53 0 0 1-.492-.533.51.51 0 0 1 .485-.532.534.534 0 0 1 .54.36.539.539 0 0 1 .028.228.6.6 0 0 1-.561.477Zm30.226-27.356a.512.512 0 0 1 .505-.519.526.526 0 0 1 .568.45.573.573 0 0 1-.568.609.597.597 0 0 1-.505-.54Z"/>
  <path fill="#F6A33E" d="M96.085 112.33a.577.577 0 0 1 .506.533.557.557 0 0 1-.415.5.57.57 0 0 1-.23.012.52.52 0 0 1-.415-.588.547.547 0 0 1 .554-.457Z"/>
  <path fill="#F59E34" d="M66.594 160.961a.551.551 0 0 1-.513-.512.56.56 0 0 1 .63-.526.495.495 0 0 1 .457.588.558.558 0 0 1-.575.45Z"/>
  <path fill="#F59C31" d="M130.14 126.528a.578.578 0 0 1-.519-.519.552.552 0 0 1 .056-.222.552.552 0 0 1 .339-.294.568.568 0 0 1 .228-.024c.066.009.129.03.187.063a.512.512 0 0 1 .232.308.48.48 0 0 1 .01.196.551.551 0 0 1-.533.492Z"/>
  <path fill="#F69C31" d="M77.32 90.371a.45.45 0 0 1-.395.477.568.568 0 0 1-.61-.428.506.506 0 1 1 1.005-.049Z"/>
  <path fill="#F59828" d="M74.785 102.451a.54.54 0 0 1-.568.463.447.447 0 0 1-.197-.036.46.46 0 0 1-.28-.49.5.5 0 0 1 .54-.47.533.533 0 0 1 .505.533Z"/>
  <path fill="#F69F36" d="M107.054 129.198c-.097.208-.194.408-.284.609a5.164 5.164 0 0 1-.637-.173.347.347 0 0 1-.236-.216.356.356 0 0 1 .035-.317.386.386 0 0 1 .388-.256.404.404 0 0 1 .159.042c.194.09.381.207.575.311Z"/>
  <path fill="#FDEAFF" d="m253.501 34.434-.547-.81c.561.049.658-.871 1.309-.63.076.582-.616.693-.692 1.184-.028.083-.049.173-.07.256Z"/>
  <path fill="#F48B0D" d="M84.625 162.815a.465.465 0 0 1-.485.512.434.434 0 0 1-.491-.366.5.5 0 0 1 .408-.595.5.5 0 0 1 .509.258.502.502 0 0 1 .06.191Zm38.397-17.85a.502.502 0 0 1-.389.414.499.499 0 0 1-.2.001.432.432 0 0 1-.401-.463.462.462 0 0 1 .033-.198.477.477 0 0 1 .479-.3.51.51 0 0 1 .478.546Z"/>
  <path fill="#F59F37" d="M72.971 139.548c-.048.291-.194.457-.443.464a.53.53 0 0 1-.383-.218.532.532 0 0 1-.088-.432.426.426 0 0 1 .176-.272.416.416 0 0 1 .316-.067.49.49 0 0 1 .422.525Z"/>
  <path fill="#F59623" d="M108.792 92.246a.448.448 0 0 1-.436.429.436.436 0 1 1 0-.865.45.45 0 0 1 .436.436Z"/>
  <path fill="#FDEAFF" d="M242.741 48.223a.527.527 0 0 1-.582-.457c-.042-.221 0-.457-.201-.637a1.12 1.12 0 0 1-.048-.394c0-.11.124-.2.194-.304.097.097.235.18.263.29.052.228.052.465 0 .692-.049.325.201.56.374.81Z"/>
  <path fill="#F6A33F" d="M104.706 100.631a.442.442 0 0 1-.493-.516.389.389 0 0 1 .186-.262.39.39 0 0 1 .155-.052.404.404 0 0 1 .485.339.412.412 0 0 1-.18.43.4.4 0 0 1-.153.061Z"/>
  <path fill="#F69F37" d="M84.057 103.44a.45.45 0 0 1 .457.408.39.39 0 0 1-.304.388.412.412 0 0 1-.326-.041.406.406 0 0 1-.187-.271.43.43 0 0 1 .36-.484Z"/>
  <path fill="#F69D33" d="M86.557 115.817a.403.403 0 0 1-.34-.491.402.402 0 0 1 .389-.318.442.442 0 0 1 .422.436.43.43 0 0 1-.47.373Z"/>
  <path fill="#F7A849" d="M85.788 155.087c-.055.222-.152.416-.422.436a.407.407 0 0 1-.311-.101.41.41 0 0 1-.132-.3.386.386 0 0 1 .409-.429.437.437 0 0 1 .457.394Z"/>
  <path fill="#F49624" d="M109.083 109.812a.457.457 0 0 1-.437.436c-.207.034-.422-.222-.415-.443a.433.433 0 0 1 .429-.443c.201-.048.43.242.423.45Z"/>
  <path fill="#F6A340" d="M81.502 123.843c-.221 0-.47-.208-.43-.415.043-.208.167-.422.444-.415a.406.406 0 0 1 .307.112.4.4 0 0 1 .122.303.423.423 0 0 1-.443.415Z"/>
  <path fill="#F69F36" d="M120.813 139.528a.429.429 0 0 1-.374-.478.401.401 0 0 1 .505-.318.393.393 0 0 1 .312.387.436.436 0 0 1-.443.409Z"/>
  <path fill="#F7AF58" d="M102.054 139.299a.43.43 0 0 1 .381.464.37.37 0 0 1-.381.325.385.385 0 0 1-.381-.325.43.43 0 0 1 .381-.464Z"/>
  <path fill="#F59725" d="M73.65 119.955a.468.468 0 0 1 .436.429.442.442 0 0 1-.436.422.436.436 0 0 1-.437-.422c-.02-.194.229-.422.437-.429Z"/>
  <path fill="#F69E35" d="M107.199 119.962a.41.41 0 0 1 .049-.81.454.454 0 0 1 .429.436.443.443 0 0 1-.478.374Z"/>
  <path fill="#F49624" d="M96.563 137.583a.43.43 0 0 1-.446-.22.434.434 0 0 1-.052-.167.391.391 0 0 1 .223-.416.387.387 0 0 1 .164-.034c.25 0 .464.083.485.367a.426.426 0 0 1-.374.47Z"/>
  <path fill="#F7B15C" d="M102.934 114.8a.448.448 0 0 1-.34.374.359.359 0 0 1-.401-.415.333.333 0 0 1 .128-.229.357.357 0 0 1 .253-.069.373.373 0 0 1 .36.339Z"/>
  <path fill="#F59A2C" d="M96.044 123.151a.444.444 0 0 1-.43.415.372.372 0 0 1-.367-.318.388.388 0 0 1 .326-.477.474.474 0 0 1 .47.38Z"/>
  <path fill="#F6A23C" d="M92.187 138.248a.393.393 0 0 1 .47-.353.357.357 0 0 1 .34.353.435.435 0 0 1-.409.449c-.2.035-.415-.221-.401-.449Z"/>
  <path fill="#F69D31" d="M80.256 137.134a.459.459 0 0 1 .387.463.371.371 0 0 1-.346.339.396.396 0 0 1-.464-.359.505.505 0 0 1 .423-.443Z"/>
  <path fill="#FDEAFF" d="m249.43 32.746-.658.27c0-.222 0-.45.048-.692.049-.242 0-.388.257-.367.256.02.27.187.297.367.028.18.035.29.056.422Z"/>
  <path fill="#F6A13C" d="M131.137 111.853a.374.374 0 0 1-.734.125c-.055-.194.167-.512.36-.478a.433.433 0 0 1 .374.353Z"/>
  <path fill="#F69E35" d="M66.407 142.738c-.056.173-.111.346-.326.366a.318.318 0 0 1-.13 0 .314.314 0 0 1-.243-.276.353.353 0 0 1 .352-.443c.208.021.284.18.347.353Z"/>
  <path fill="#F5941F" d="M67.937 125.469c0 .187-.187.47-.38.436a.437.437 0 0 1-.389-.332.39.39 0 0 1 .228-.403.385.385 0 0 1 .16-.033c.173.02.36.09.381.332Z"/>
  <path fill="#FDEAFF" d="m264.657 40.446-.693.29c0-.13.056-.262.097-.387.042-.124.139-.45.43-.36.29.09.131.291.166.457Z"/>
  <path fill="#F49018" d="M108.771 151.393a.268.268 0 0 1-.226-.395.268.268 0 0 1 .33-.131.254.254 0 0 1 .155.122.249.249 0 0 1 .018.196c-.041.125-.125.235-.277.208Z"/>
  <path fill="#F5931C" d="M116.914 113.05c.125.042.236.097.222.27a.27.27 0 0 1-.249.263c-.173 0-.367-.187-.298-.346a.3.3 0 0 1 .325-.187Z"/>
  <path fill="#F8AD53" d="M110.308 157.378c.056-.049.111-.132.16-.125.048.007.117.076.173.118.055.041-.07.09-.097.09a2.002 2.002 0 0 1-.236-.083Z"/>
  <path fill="#6067FF" d="M239.514 65.596c2.604 1.632 5.415 1.881 8.192 2.172 3.114.316 6.249.397 9.375.242 2.618-.124 5.242-.249 7.839-.623h.139c.47-.055.616.042.609.485 0 .92 0 1.84-.055 2.767l-.541 17.09c-.055 1.66-.131 3.313-.207 4.96 0 .54-.132.636-.693.643h-2.347c-5.706-.055-11.412-.097-17.118-.159-5.539-.06-11.061-.134-16.563-.221-1.136 0-1.323-.125-1.385-1.218-.208-2.691-.069-5.327 1.239-7.79a12.049 12.049 0 0 1 3.643-4.075 20.331 20.331 0 0 1 4.224-2.311c.893-.374 1.793-.734 2.645-1.183a4.432 4.432 0 0 0 2.396-3.037 4.078 4.078 0 0 0 0-2.076 19.983 19.983 0 0 0-1.06-2.692 4.5 4.5 0 0 1-.332-2.974Zm86.446-2.602c1.385 1.813 3.241 2.67 5.159 3.37a18.012 18.012 0 0 1 5.81 3.632 6.311 6.311 0 0 1 2.236 4.29 1.561 1.561 0 0 1-.9 1.667 10.738 10.738 0 0 1-3.926 1.224 48.722 48.722 0 0 1-10.996.388 44.337 44.337 0 0 1-5.332-.692 13.312 13.312 0 0 1-3.019-.955 1.662 1.662 0 0 1-1.025-1.64c.005-.413.08-.822.221-1.21a8.166 8.166 0 0 1 2.403-3.46 11.94 11.94 0 0 1 2.632-1.709l1.862-.899c1.891-.913 3.677-1.93 4.875-4.006Z"/>
  <path fill="#FDEAFF" d="M245.033 44.598c.27 0 .54.034.81.069.27.034.512-.104.471.263-.042.366-.326.256-.547.27-.222.013-.36 0-.54 0-.063-.229-.097-.402-.194-.602Zm8.233-7.722h-.138c-.236 0-.534.38-.693 0-.159-.38.215-.442.478-.525.055.2.381.249.353.525Zm-6.89.222c.111.076.249.124.319.228.159.215.692.332.36.692-.208.194-.533-.18-.693-.429l.014-.491Zm8.967 10.488a.855.855 0 0 1-.38 0c-.097-.062-.146-.214-.215-.325a1.3 1.3 0 0 1 .242-.117c.133-.026.267-.044.402-.056-.014.152-.035.325-.049.498Z"/>
  <path fill="#6067FF" d="M142.978 91.118c.132-.166.326-.117.499-.117h2.077c4.32.053 8.639-.178 12.929-.692.574-.07.692.076.498.553a13.691 13.691 0 0 1-3.462 4.933 7.452 7.452 0 0 1-2.611 1.495 6.194 6.194 0 0 1-4.556-.409 8.298 8.298 0 0 1-2.077-1.383 15.81 15.81 0 0 1-3.213-3.93 1.803 1.803 0 0 1-.153-.38s.056-.028.069-.07Zm100.441 65.16a.822.822 0 0 1 .838.581 14.519 14.519 0 0 1 .873 7.444 28.447 28.447 0 0 1-1.704 6.656.787.787 0 0 0-.055.401.439.439 0 0 0 .332.395.516.516 0 0 0 .381-.07c.208-.177.38-.393.505-.636.249-.543.46-1.102.631-1.674a39.17 39.17 0 0 0 1.087-5.113 13.407 13.407 0 0 0-.326-5.473c-.104-.38-.194-.775-.291-1.155.416-.132.603.117.811.256 1.682 1.127 3.31 2.338 5.041 3.383 3.801 2.304 6.17 5.68 7.617 9.804a32.368 32.368 0 0 1 1.537 6.704c.198 1.317.307 2.646.325 3.978a53.731 53.731 0 0 0 1.745 13.353c1.385 5.618 2.964 11.18 4.432 16.777a92.17 92.17 0 0 1 2.168 10.198 4.124 4.124 0 0 1 0 2.166c-.167.443.062.906.083 1.384-.25.311-.527.09-.755 0a54.202 54.202 0 0 0-8.794-1.682 44.854 44.854 0 0 1-8.31-2.075 101.037 101.037 0 0 1-16.619-6.967 38.96 38.96 0 0 0-6.052-2.664 15.339 15.339 0 0 0-5.83-.823 13.467 13.467 0 0 1-3.165-.118c-.533-.104-.692-.36-.54-.885a7.789 7.789 0 0 1 .609-1.536c1.088-1.868 1.233-3.916 1.15-5.999-.042-.871-.208-1.736-.305-2.601a22.316 22.316 0 0 0-2.16-6.794c-.492-1.086-.693-.955.471-1.744a99.267 99.267 0 0 0 8.24-6.226 64.515 64.515 0 0 0 7.416-7.002 45.543 45.543 0 0 0 5.851-8.302 22.668 22.668 0 0 0 2.729-13.028c-.093-.3-.08-.622.034-.913Z"/>
  <path fill="#6067FF" d="M196.436 176.182c-.077-3.952.05-7.905.381-11.844.048-.824.055-1.654.125-2.477.056-.733.151-1.463.283-2.186a1.385 1.385 0 0 1 1.046-1.142 6.43 6.43 0 0 1 3.275-.152c3.421.747 6.883 1.134 10.346 1.633 1.004.138 1.994.332 2.998.463a.858.858 0 0 1 .796.789 8.978 8.978 0 0 1-.069 4.628 30.896 30.896 0 0 0-1.177 5.798 29.763 29.763 0 0 0 .131 8.794c.169.902.441 1.782.811 2.622.125.355.37.656.692.851a.496.496 0 0 0 .519 0 .41.41 0 0 0 .18-.205.404.404 0 0 0 .014-.272 4.403 4.403 0 0 0-.249-.637 12.385 12.385 0 0 1-1.087-4.386 35.309 35.309 0 0 1 .644-9.735 3.257 3.257 0 0 1 .81-1.695c.461-.571.885-1.172 1.267-1.799a30.06 30.06 0 0 1 2.895-3.321c2.396-2.483 4.778-4.981 7.174-7.458a61.456 61.456 0 0 1 2.368-2.311 9.702 9.702 0 0 1 2.396-1.605 6.203 6.203 0 0 1 4.044-.443 5.96 5.96 0 0 1 3.102 1.958 8.071 8.071 0 0 1 2.077 4.843 21.82 21.82 0 0 1-2.638 12.91 48.842 48.842 0 0 1-5.457 7.77 61.969 61.969 0 0 1-7.811 7.382 134.322 134.322 0 0 1-12.935 9.396 40.73 40.73 0 0 1-7.333 3.805c-.726.287-1.48.498-2.25.629a6.766 6.766 0 0 1-4.287-.691 2.371 2.371 0 0 1-1.315-1.509c-.245-.837-.4-1.697-.464-2.566-.187-2.429-.319-4.843-.61-7.279-.38-3.155-.47-6.323-.692-9.485-.021-.339 0-.706 0-1.073ZM165.698 315.15c0 1.19.076 2.158 0 3.113-.326 3.245-.693 6.49-1.385 9.686-.277 1.384-.692 2.664-.99 4.006a2.243 2.243 0 0 1-1.988 1.833c-.457.086-.92.144-1.384.173-2.438.125-4.848.312-7.306.312-3.551-.03-7.07.662-10.345 2.034a13.694 13.694 0 0 1-4.695 1.044c-2.299.111-4.591.353-6.89.367-.927.039-1.852.126-2.77.263-1.232.131-2.465.263-3.698.429a6.555 6.555 0 0 1-2.319-.228 1.45 1.45 0 0 1-1.087-.969 2.474 2.474 0 0 1-.146-.381c-.284-1.432-.554-2.857-.838-4.317.464-.152.762.173 1.115.187.32.019.639.056.956.111 1.278.176 2.574.19 3.857.041 1.835-.166 3.656-.339 5.477-.636a33.445 33.445 0 0 0 8.614-2.65 63.609 63.609 0 0 0 3.566-1.799c2.029-1.093 4.107-2.076 6.232-3.01 3.608-1.619 7.244-3.182 10.74-5.043 3.006-1.605 3.193-1.792 5.284-4.566Zm-71.205 8.703a23.979 23.979 0 0 0 5.795 1.156c1.191.096 2.376.228 3.58.235 2.538.02 5.048-.526 7.347-1.598a27.854 27.854 0 0 0 4.765-2.768 106.777 106.777 0 0 1 4.196-2.899 17.266 17.266 0 0 1 5.394-2.394 43.1 43.1 0 0 0 6.184-1.923 16.905 16.905 0 0 0 2.936-1.474c.069.139.138.215.145.298.1 1.515.351 3.017.748 4.483a1.276 1.276 0 0 1-.45 1.453 39.866 39.866 0 0 1-11.121 7.078 11.413 11.413 0 0 1-4.037.795 6.664 6.664 0 0 0-2.624.755c-1.946.927-3.899 1.854-5.879 2.719a16.114 16.114 0 0 1-5.893 1.293c-.734 0-1.468.09-2.202.153a21.6 21.6 0 0 1-6.045-.167 7.148 7.148 0 0 1-1.067-.29 1.893 1.893 0 0 1-1.253-1.384 4.015 4.015 0 0 1-.173-.809 24.967 24.967 0 0 0-.977-4.435.388.388 0 0 1 .049-.533.348.348 0 0 1 .221.035c.126.064.247.138.36.221Zm32.829-134.594a24.657 24.657 0 0 1-3.213-.9c-.339-.145-.242-.456-.235-.692.083-3.009-.049-6.019.083-9.028.062-1.523-.063-3.086-.077-4.636 0-.422-.207-.913.194-1.287 1.022.409 2.089.692 3.179.844 2.907.491 5.885.375 8.745-.339.17-.039.341-.069.513-.09.284.236.187.526.187.782 0 4.636-.014 9.271-.042 13.906v.416c0 .581-.097.691-.692.858-.79.245-1.61.383-2.438.408h-4.272c-.561-.761-1.33.214-1.932-.242Z"/>
  <path fill="#6067FF" d="M148.123 324.137a36.707 36.707 0 0 0-1.385-5.48.898.898 0 0 1 .146-.906c.471-.623.907-1.266 1.385-1.868a35.95 35.95 0 0 1 7.194-6.78 16.294 16.294 0 0 1 5.969-2.768 5.953 5.953 0 0 1 2.999.063.443.443 0 0 1 .353.505c-.208 1.625.277 3.189.388 4.787a4.933 4.933 0 0 1-.367 2.415 7.616 7.616 0 0 1-3.234 3.646 97.785 97.785 0 0 1-2.77 1.487c-3.185 1.633-6.474 3.052-9.736 4.532-.305.132-.568.222-.942.367Zm-25.704-8.794a3.4 3.4 0 0 1-.207-.526 14.661 14.661 0 0 0-.963-3.147 1.24 1.24 0 0 1 .208-1.384c.505-.595.949-1.246 1.496-1.799a26.22 26.22 0 0 1 12.838-7.112 14.796 14.796 0 0 1 2.596-.284c.693-.035.831.228.464.789a32.826 32.826 0 0 0-2.077 3.577 16.227 16.227 0 0 0-1.323 3.459c-.067.267-.148.53-.242.789a3.013 3.013 0 0 1-1.385 1.667 22.733 22.733 0 0 1-4.799 2.041c-1.53.498-3.088.886-4.632 1.328-.623.18-1.267.388-1.974.602Zm94.68-150.618a13.805 13.805 0 0 0-.291-3.632 2.914 2.914 0 0 0-.27-.913c-.478-.692-.235-1.142.208-1.688 1.288-1.619 2.534-3.259 3.794-4.899a39.069 39.069 0 0 0 2.826-4.234c.117-.201.214-.408.339-.602.256-.422.402-.484.914-.367.222.052.44.121.651.208a18.298 18.298 0 0 0 5.325 1.688c.076.367-.173.457-.325.588a41.113 41.113 0 0 0-3.636 3.57c-2.195 2.346-4.418 4.67-6.71 6.919-.775.775-1.419 1.681-2.126 2.525l-.699.837ZM115.01 320.096a2.122 2.122 0 0 1-.062-.456 12.656 12.656 0 0 0-2.001-8.794 1.426 1.426 0 0 1-.208-.353.596.596 0 0 1 .083-.373c.086-.109.191-.201.312-.27a33.344 33.344 0 0 0 3.462-2.906c.381-.367.575-.332.893.083.166.215.319.45.471.692a24.79 24.79 0 0 1 2.804 6.109c.042.132.09.263.125.394.395 1.654.353 1.709-1.108 2.643-1.232.796-2.437 1.64-3.656 2.463l-1.115.768Zm31.999 4.525-3.809 1.937c-.256.132-.422.035-.478-.263-.076-.408-.131-.816-.187-1.224a11.054 11.054 0 0 0-2.077-5.161c-.609-.803-1.247-1.585-1.87-2.374-.304-.387-.332-.511 0-.823a40.818 40.818 0 0 0 3.324-3.847.337.337 0 0 1 .274-.184.347.347 0 0 1 .301.136c.458.451.847.966 1.156 1.529.413.712.79 1.444 1.129 2.193a33.069 33.069 0 0 1 2.237 8.081Z"/>
  <path fill="#FDEAFF" d="M124.074 172.702a45.616 45.616 0 0 0-.104 4.947.436.436 0 0 0 .11.374.43.43 0 0 0 .368.131.354.354 0 0 1 .367.332.385.385 0 0 1-.09.324.388.388 0 0 1-.311.126c-.381 0-.457.18-.457.498v8.122c.028.273.084.542.166.803a.461.461 0 0 1-.353-.374 6.285 6.285 0 0 1-.042-.823v-14.065a.49.49 0 0 1 .346-.395Zm3.248 16.556h.658a.38.38 0 0 0 .395-.277c.083-.262.228-.505.567-.394.34.111.312.388.305.657a1.65 1.65 0 0 0 0 .263h-1.212a.843.843 0 0 1-.713-.249Z"/>
  <path fill="#816003" d="M93.91 323.625c0 .18 0 .359-.048.532a.447.447 0 0 1-.2-.525c.048-.16.159-.139.249-.007Zm.583.228a.325.325 0 0 1-.36-.194.32.32 0 0 1 .214.034.322.322 0 0 1 .146.16Z"/>
  <path fill="#448181" d="m6.419 314.195-.402.256c-.18-.097-.235-.277-.104-.401.132-.125.374-.049.506.145Z"/>
  <path fill="#FDEAFF" d="M84.992 108.622a11.35 11.35 0 0 0-5.027-5.666c-.526-.291-1.073-1.059-1.69-.554-.616.505-.2 1.239 0 1.827a19.36 19.36 0 0 0 2.708 5.991c.698.973 1.53 1.842 2.472 2.581.43.345.914.617 1.433.802a.566.566 0 0 0 .468-.032.55.55 0 0 0 .28-.376c.076-.449.097-.913.139-1.383a9.112 9.112 0 0 0-.783-3.19Zm-.228 3.881c-2.819-1.695-5.43-5.956-5.43-8.731 3.242 1.453 5.665 5.307 5.43 8.697v.034Zm22.802-8.606a6.702 6.702 0 0 0-.124-1.232.64.64 0 0 0-.814-.581.635.635 0 0 0-.315.208 4.53 4.53 0 0 0-.457.512 14.43 14.43 0 0 0-3.047 9.236c.012.642.1 1.281.263 1.903a.839.839 0 0 0 1.44.539 4.954 4.954 0 0 0 1.704-1.958c.519-1.024.86-2.128 1.011-3.265.104-1.149.201-2.29.298-3.46h.041c0-.636.014-1.266 0-1.902Zm-.948.484a39.633 39.633 0 0 1-.312 4.795 8.569 8.569 0 0 1-1.087 3.231 2.246 2.246 0 0 1-1.267 1.141c-.741-3.009.484-7.749 2.534-9.783.242.159.152.409.152.616h-.02Zm-28.55 6.317a9.739 9.739 0 0 0-4.079-3.978 14.71 14.71 0 0 0-6.059-1.384c-.25 0-.692.048-1.163.124a.559.559 0 0 0-.45.503.556.556 0 0 0 .034.238c.083.261.205.508.36.733a7.867 7.867 0 0 0 1.454 1.467 17.926 17.926 0 0 0 6.648 3.189c.894.232 1.829.26 2.735.083.596-.069.81-.456.52-.975Zm-2.77.069a16.545 16.545 0 0 1-6.862-3.335c-.27-.244-.52-.51-.748-.795 0 0 0-.187.09-.229a.463.463 0 0 1 .263-.055 11.482 11.482 0 0 1 6.301 1.64 6.153 6.153 0 0 1 2.583 2.802 4.171 4.171 0 0 1-1.613 0l-.014-.028Zm25.641 1.529a23.505 23.505 0 0 0-.408-2.857 3.026 3.026 0 0 0-.312-.9.624.624 0 0 0-.508-.423.632.632 0 0 0-.607.264 6.766 6.766 0 0 0-.63.899 12.771 12.771 0 0 0-1.662 6.684c.035.401.07 1.176.167 1.951.068.544.174 1.083.318 1.612a.983.983 0 0 0 1.766.457 4.754 4.754 0 0 0 1.184-1.986c.56-1.846.795-3.775.692-5.701Zm-1.294 4.414a5.22 5.22 0 0 1-.852 2.159c-.132.18-.256.387-.52.394-1.1-2.767-.526-7.424 1.302-9.748.576 2.361.6 4.823.07 7.195Zm16.051-17.082c-.444-.228-.783.118-1.115.346a11.986 11.986 0 0 0-5.124 8.607 1.38 1.38 0 0 0 .062.692c.194.602.464.754 1.018.525a5.067 5.067 0 0 0 1.461-1.01 16.71 16.71 0 0 0 2.444-2.767 9.603 9.603 0 0 0 1.752-5.009v-.132c-.027-.519-.021-1.017-.498-1.252Zm-1.441 4.843a14.475 14.475 0 0 1-3.109 3.826c-.136.124-.29.227-.457.304a.194.194 0 0 1-.098.014.183.183 0 0 1-.093-.035.196.196 0 0 1-.065-.075.205.205 0 0 1-.021-.097 7.542 7.542 0 0 1 .478-2.138 11.07 11.07 0 0 1 3.843-5.244.623.623 0 0 1 .249-.09h.187a5.913 5.913 0 0 1-.914 3.535Zm-39.158 25.758a3.2 3.2 0 0 0-1.233-.581 7.555 7.555 0 0 0-5.74.691 11.802 11.802 0 0 0-2.555 1.855c-.409.38-.797.768-1.191 1.155a.688.688 0 0 0-.222.74.558.558 0 0 0 .561.319h1.793v.034h.97c2.41-.097 4.618-.692 6.405-2.456.263-.249.589-.443.873-.692a2.79 2.79 0 0 0 .401-.367.51.51 0 0 0-.062-.698Zm-9.237 3.134a7.629 7.629 0 0 1 7.963-2.768c-1.26 2.242-5.27 3.418-7.964 2.768Zm35.536-36.503a.535.535 0 0 0-.507-.551.538.538 0 0 0-.268.053 2.537 2.537 0 0 0-.36.187c-1.608.9-3.05 2.07-4.259 3.459a8.54 8.54 0 0 0-2.029 4.311 1.56 1.56 0 0 0 .561 1.729 1.588 1.588 0 0 0 1.697-.145 7.008 7.008 0 0 0 2.389-2.249 20.745 20.745 0 0 0 2.361-4.656c.249-.595.389-1.23.415-1.875 0-.104.007-.2 0-.263Zm-1.232 1.702a19.995 19.995 0 0 1-2.355 4.65 5.753 5.753 0 0 1-2.368 2.075.45.45 0 0 1-.458-.03.44.44 0 0 1-.186-.42c.08-.915.357-1.802.81-2.601a12.133 12.133 0 0 1 4.584-4.435.868.868 0 0 1-.027.734v.027Zm-8.815 31.508a11.756 11.756 0 0 0-2.694-3.778 14.594 14.594 0 0 0-4.59-2.947c-.603-.256-.998.069-.908.692.018.137.046.274.083.408.232.98.655 1.904 1.247 2.719a14.761 14.761 0 0 0 3.199 3.196c.734.54 1.516 1.017 2.278 1.529a1.386 1.386 0 0 0 1.309.104c.304-.097.415-.325.443-.851a3.132 3.132 0 0 0-.367-1.072Zm-.658 1.224c-2.77-1.723-5.228-3.459-6.433-6.524.152-.069.256-.152.305-.125a12.206 12.206 0 0 1 5.9 5.535c.106.204.194.417.263.637.027.117-.014.214-.014.505l-.021-.028Zm-8.392-3.708a8.86 8.86 0 0 0-3.768-3.522 10.492 10.492 0 0 0-4.93-1.044h-1.516a.488.488 0 0 0-.492.394.388.388 0 0 0 .222.457 8.65 8.65 0 0 1 1.502 1.204c.662.568 1.37 1.08 2.12 1.529a20.322 20.322 0 0 0 5.844 2.373c.408.11.83.228 1.156-.139.326-.366.097-.844-.138-1.252Zm-6.572-1.889a5.538 5.538 0 0 1-2.077-1.743c3.462-.132 6.724 1.75 7.77 4.006a14.959 14.959 0 0 1-5.693-2.263Zm7.548 14.1a3.225 3.225 0 0 0-1.558-.484 11.648 11.648 0 0 0-9.113 3.058 2.917 2.917 0 0 0-.367.408.414.414 0 0 0 .097.602c.215.176.473.29.748.332a5.803 5.803 0 0 0 2.077.056c.478 0 .983-.049 1.489-.09a9.607 9.607 0 0 0 5.81-2.193c.337-.31.654-.64.948-.99a.447.447 0 0 0-.131-.699Zm-1.295.879a7.367 7.367 0 0 1-3.102 1.688 19.46 19.46 0 0 1-5.07.485.353.353 0 0 1 .174-.436 11.34 11.34 0 0 1 7.326-2.277c.182.004.363.025.54.063a.377.377 0 0 1 .222.131c.097.118.014.256-.09.346Zm46.235-28.159a9.384 9.384 0 0 0-1.634-.228 11.226 11.226 0 0 0-6.606 2.076 20.45 20.45 0 0 0-1.641 1.245c-.208.173-.409.401-.27.692a.76.76 0 0 0 .658.436c.367 0 .734.055.838.062a17.76 17.76 0 0 0 6.155-1.315 7.444 7.444 0 0 0 2.14-1.238c.254-.207.486-.438.693-.692a.636.636 0 0 0 .149-.289.64.64 0 0 0-.192-.599.631.631 0 0 0-.29-.15Zm-8.462 3.294c.887-1.502 4.965-2.844 7.583-2.422a12.813 12.813 0 0 1-7.583 2.422Zm-38.915 33.727a2.689 2.689 0 0 0-.755.319 6.413 6.413 0 0 0-2.77 3.66 24.193 24.193 0 0 0-.783 5.05c0 .249 0 .526.049.796a.517.517 0 0 0 .65.504.52.52 0 0 0 .264-.165 9.917 9.917 0 0 0 2.659-3.459 16.024 16.024 0 0 0 1.01-3.702c.126-.823.222-1.64.306-2.463a.549.549 0 0 0-.398-.522.569.569 0 0 0-.232-.018Zm-1.76 6.822a7.812 7.812 0 0 1-1.481 1.896 13.409 13.409 0 0 1 .692-4.629 5.531 5.531 0 0 1 1.842-2.67.291.291 0 0 1 .117-.049.297.297 0 0 1 .126.007.239.239 0 0 1 .138.187 16.163 16.163 0 0 1-1.433 5.258Zm-3.6-5.798c-.277.019-.543.12-.762.291a8.374 8.374 0 0 0-3.864 8.275c.07.359.111.726.208 1.079a.549.549 0 0 0 .394.345.55.55 0 0 0 .506-.137c.091-.102.177-.208.256-.319a28.295 28.295 0 0 0 4.03-7.949c.047-.131.084-.265.111-.401a1.163 1.163 0 0 0-.88-1.184Zm-3.462 8.171a.252.252 0 0 1-.183-.065.254.254 0 0 1-.08-.177c-.174-2.996 1.073-5.272 3.656-7.126a22.817 22.817 0 0 1-3.393 7.368Zm7.312-44.106a3.81 3.81 0 0 0-1.787-.989 8.407 8.407 0 0 0-7.402 1.598c-.371.277-.659.65-.831 1.079a.758.758 0 0 0 .198.947c.092.073.2.123.314.147a9.61 9.61 0 0 0 2.646.352 9.374 9.374 0 0 0 5.207-1.342l1.544-.878a.522.522 0 0 0 .29-.7.522.522 0 0 0-.18-.214Zm-1.385.588a7.723 7.723 0 0 1-2.188 1.128c-.982.34-2.009.536-3.047.581l-2.077-.263a.258.258 0 0 1-.118-.422 4.8 4.8 0 0 1 .692-.629 8.387 8.387 0 0 1 4.972-1.273 4.03 4.03 0 0 1 1.71.47.261.261 0 0 1 .056.408Zm7.679 4.477a5.973 5.973 0 0 0-1.585-.824 8.212 8.212 0 0 0-2.971-.484 5.713 5.713 0 0 0-.693 0 11.176 11.176 0 0 0-3.614.803c-.478.228-.783.636-.693.92a1.02 1.02 0 0 0 .845.636c.935.215 1.884.416 2.832.568 1.857.362 3.77.322 5.61-.118.373-.097.94-.048.976-.567.034-.436-.374-.734-.707-.934Zm-1.032.692c-.069.318-.644.173-.99.2a16.107 16.107 0 0 1-5.816-.692 9.552 9.552 0 0 1 4.757-.449c.41.056.813.163 1.198.318.325.104.97.083.851.623Zm8.234-9.541c-.111-.533-.208-1.079-.353-1.605a13.176 13.176 0 0 0-1.94-4.213 2.26 2.26 0 0 0-.754-.782.645.645 0 0 0-.907.311 2.763 2.763 0 0 0-.18 1.079 11.062 11.062 0 0 0 2.216 7.057c.188.249.4.481.63.692.325.318.575.305.955 0 .178-.147.302-.349.353-.574.347-.65.049-1.308-.02-1.965Zm-.956 1.439c-.2.042-.27-.09-.346-.2a10.605 10.605 0 0 1-1.904-5.944c0-.138 0-.283.152-.339.152-.055.229.09.29.187a13.223 13.223 0 0 1 1.898 5.404c.035.304.139.636-.09.892Zm13.939 8.15a.533.533 0 0 0-.244-.381.543.543 0 0 0-.448-.062 1.111 1.111 0 0 0-.249.104 8.308 8.308 0 0 0-4.259 5.625 11.26 11.26 0 0 0-.132 2.075c0 .374.25.519.651.499.402-.021.492-.229.734-.346.935-.291 1.344-1.073 1.745-1.855.139-.235.277-.47.43-.691a11.824 11.824 0 0 0 1.62-3.314 4.06 4.06 0 0 0 .152-1.654Zm-1.703 2.982a9.731 9.731 0 0 1-2.687 3.459 6.374 6.374 0 0 1 3.213-5.452 2.675 2.675 0 0 1-.526 1.993Zm-26.459 22.243a2.461 2.461 0 0 0-.692-.103c-3.151 0-5.706 1.162-7.416 3.902a2.447 2.447 0 0 0-.236.491.448.448 0 0 0 .409.581c.45-.041.9-.117 1.385-.2a15.164 15.164 0 0 0 4.992-1.855 6.44 6.44 0 0 0 1.856-1.605.897.897 0 0 0 .228-.643.692.692 0 0 0-.526-.568Zm-2.416 2.235a12.469 12.469 0 0 1-4.398 1.502 6.618 6.618 0 0 1 6.108-2.851 4.614 4.614 0 0 1-1.71 1.349Zm16.701-30.151a8.807 8.807 0 0 0-3.462-5.272 1.052 1.052 0 0 0-.63-.236.516.516 0 0 0-.54.332 1.798 1.798 0 0 0-.083.54 10.925 10.925 0 0 0 1.606 5.611c.42.659.938 1.25 1.538 1.751a.949.949 0 0 0 1.128.228.885.885 0 0 0 .499-.893c0-.276 0-.553.041-.982a6.62 6.62 0 0 0-.097-1.079Zm-.844 1.591c0 .131 0 .304-.194.297a.539.539 0 0 1-.346-.145 8.113 8.113 0 0 1-2.216-4.746c0-.346-.367-.837.367-.858a7.944 7.944 0 0 1 1.987 2.913 5.32 5.32 0 0 1 .402 2.539Zm-4.778 23.108a4.898 4.898 0 0 0-2.271 1.931 10.045 10.045 0 0 0-1.434 4.843v.691a.692.692 0 0 0 .409.692.687.687 0 0 0 .734-.256 13.217 13.217 0 0 0 1.772-2.075 11.106 11.106 0 0 0 1.655-5.175c.076-.665-.311-.893-.865-.651Zm-2.625 6.435a6.142 6.142 0 0 1 .804-3.391 3.57 3.57 0 0 1 1.572-1.826c.159 1.633-.831 3.777-2.376 5.217Zm7.894-13.45c-.034-.443-.408-.429-.692-.512-.284-.083-.526-.166-.796-.222a5.309 5.309 0 0 0-2.453-.084 5.307 5.307 0 0 0-2.228 1.025 23.148 23.148 0 0 0-1.732 1.564c-.192.2-.345.435-.45.692a.417.417 0 0 0 .084.48.42.42 0 0 0 .145.094c.25.113.516.184.79.208a10.087 10.087 0 0 0 6.231-1.647c.43-.269.795-.63 1.067-1.059a.607.607 0 0 0 .034-.539Zm-1.558.872a8.683 8.683 0 0 1-5.484 1.383c1.773-1.826 3.51-2.767 5.83-1.875.021.249-.166.374-.346.492Zm34.132-27.198a3.486 3.486 0 0 0-.548-.401 4.44 4.44 0 0 0-2.271-.367 8.254 8.254 0 0 0-4.438 1.308 4.637 4.637 0 0 0-.769.567c-.305.298-.457.913-.305 1.121a1.033 1.033 0 0 0 .866.353h.547a14.655 14.655 0 0 0 6.488-1.543 2.26 2.26 0 0 0 .36-.208.575.575 0 0 0 .183-.629.58.58 0 0 0-.113-.201Zm-1.662.581-.118.063a11.866 11.866 0 0 1-5.18.989 6.362 6.362 0 0 1 3.989-1.487c.408-.021.817-.021 1.226 0 .11 0 .18.062.166.173a.565.565 0 0 1-.083.262Zm1.371-8.475c-.18 0-.367 0-.603-.048a7.277 7.277 0 0 0-5.2 2.65 4.314 4.314 0 0 0-.644 1.051.875.875 0 0 0 .059.98.879.879 0 0 0 .931.314 9.207 9.207 0 0 0 5.671-3.106 2.63 2.63 0 0 0 .423-.692.807.807 0 0 0-.281-1.017.82.82 0 0 0-.356-.132Zm-2.237 2.768a5.974 5.974 0 0 1-3.372 1.093c1.198-1.972 2.991-2.768 5.297-2.982a4.79 4.79 0 0 1-1.925 1.882v.007Zm6.004 19.213a2.648 2.648 0 0 0-.243-.492 8.924 8.924 0 0 0-3.019-2.954 6.346 6.346 0 0 0-2.416-.865c-.928-.069-1.385.443-1.205 1.17.175.719.59 1.359 1.177 1.812a9.83 9.83 0 0 0 4.695 2.145c.135.022.271.033.408.035a.628.628 0 0 0 .642-.548.626.626 0 0 0-.039-.303Zm-2.015-.409a7.527 7.527 0 0 1-3.22-1.757 3.437 3.437 0 0 1-.582-.754.47.47 0 0 1-.048-.394c.103-.18.304-.125.484-.077a6.928 6.928 0 0 1 3.76 2.616c.021.283-.076.442-.394.366Zm-26.411 6.255a2.931 2.931 0 0 0-.38-1.01.618.618 0 0 0-.44-.296.637.637 0 0 0-.51.151 2.856 2.856 0 0 0-.36.408 6.988 6.988 0 0 0-1.26 3.86c-.02 1.057.249 2.1.776 3.017.367.65.866.692 1.427.09.087-.104.161-.218.221-.339.388-.318.443-.803.623-1.225.18-.422-.124-.927.111-1.384a14.023 14.023 0 0 0-.208-3.272Zm-1.565 5.376a5.179 5.179 0 0 1-.353-3.19 3.19 3.19 0 0 1 .963-2.006c.43 2.131.187 4.241-.61 5.196Zm13.337-7.867a.557.557 0 0 0-.251-.369.556.556 0 0 0-.441-.074 4.1 4.1 0 0 0-.728.388 7.067 7.067 0 0 0-2.472 2.712.467.467 0 0 0-.284.609c-.083.263-.159.525-.235.788-.147.386-.206.8-.173 1.211a.693.693 0 0 0 .997.63 2.852 2.852 0 0 0 1.163-.692 7.5 7.5 0 0 0 2.459-4.788 1.414 1.414 0 0 0-.035-.415Zm-3.573 4.726c.069-1.467.782-2.616 2.444-3.813-.339 1.924-1.08 3.058-2.444 3.813Zm15.795 2.67a4.944 4.944 0 0 0-3.109-1.3 4.841 4.841 0 0 0-1.78.235 2.542 2.542 0 0 0-.595.318.688.688 0 0 0-.263.45.39.39 0 0 0 .339.38c.09.01.178.031.263.063 1.579.691 3.296 1.169 4.632 2.373.451.408.963.187 1.164-.422a1.861 1.861 0 0 0-.651-2.097Zm-.429 1.384c-.984-.692-2.23-.955-3.248-1.757a4.091 4.091 0 0 1 3.227 1.217.692.692 0 0 1 .145.36c.014.035-.124.159-.124.159v.021Zm-.201-11.118a1.559 1.559 0 0 0-.693 0 5.415 5.415 0 0 0-4.051 3.528c-.159.388-.339.789 0 1.149.34.359.693.159 1.032.062 2.022-.547 3.165-2.076 4.086-3.785.047-.118.084-.241.11-.366a.684.684 0 0 0-.484-.588Zm-3.92 3.833a4.624 4.624 0 0 1 3.068-2.837c-.45 1.363-1.33 2.207-3.061 2.837h-.007Zm2.313-5.231a2.952 2.952 0 0 0-.491-.47 10.889 10.889 0 0 0-2.389-1.384 6.7 6.7 0 0 0-2.549-.519.843.843 0 0 0-.529.102.844.844 0 0 0-.357.403.984.984 0 0 0 .18 1.031c.3.351.668.638 1.08.844a8.703 8.703 0 0 0 3.726.879c.367.031.736-.011 1.087-.125a.523.523 0 0 0 .189-.126.513.513 0 0 0 .053-.635Zm-5.103-1.1a.294.294 0 0 1-.111-.221c0-.166.173-.166.298-.159.86.072 1.687.363 2.403.844a.904.904 0 0 0 .408.249.11.11 0 0 1 .044-.008c.015.001.03.005.044.011a.118.118 0 0 1 .058.066v.18a4.71 4.71 0 0 1-3.144-.962Zm-.423 2.352c-.401.215-.775.485-1.156.734a4.605 4.605 0 0 0-2.077 3.397c-.153.996.464 1.48 1.385 1.114a1.86 1.86 0 0 0 .692-.45 7.524 7.524 0 0 0 1.302-1.757 6.372 6.372 0 0 0 .762-2.498.579.579 0 0 0-.276-.568.58.58 0 0 0-.632.028Zm-2.34 4.408c.012-.61.184-1.205.501-1.726a3.45 3.45 0 0 1 1.299-1.242c.049 0 .153 0 .222.034.069.035.069.076.062.111a4.573 4.573 0 0 1-2.084 2.823Zm14.59-.263c-.194-.54-.692-.512-1.156-.519h-.139c-.956 0-1.901.208-2.77.608a4.203 4.203 0 0 0-1.703 1.343c-.45.602-.319 1.017.381 1.245a3.191 3.191 0 0 0 1.627.125 6.024 6.024 0 0 0 3.365-1.716c.257-.298.561-.602.395-1.086Zm-1.35.691a4.85 4.85 0 0 1-3.075 1.246c-.124 0-.263 0-.318-.166a.315.315 0 0 1 .145-.353 5.32 5.32 0 0 1 3.338-1.038c-.049.104-.042.249-.09.298v.013Zm-19.063 15.408a2.984 2.984 0 0 0-1.282-.789.903.903 0 0 0-.544-.034.9.9 0 0 0-.466.283.767.767 0 0 0 0 .789c.137.388.299.767.484 1.135a14.872 14.872 0 0 0 1.648 2.373.757.757 0 0 0 .824.367c.36-.104.443-.443.527-.748a3.387 3.387 0 0 0-1.157-3.376h-.034Zm-.977 1.093c-.069-.318.035-.443.36-.353a2.23 2.23 0 0 1 .824 1.938 4.425 4.425 0 0 1-1.184-1.585Zm8.067-2.38a4.25 4.25 0 0 0-1.52-1.166 4.257 4.257 0 0 0-1.88-.377 4.773 4.773 0 0 0-1.495.166.533.533 0 0 0-.38.367.52.52 0 0 0 .13.512 5.54 5.54 0 0 0 4.806 1.522.563.563 0 0 0 .541-.389.563.563 0 0 0-.202-.635Zm-3.531-.56a2.137 2.137 0 0 1 2.174.623 2.644 2.644 0 0 1-2.174-.623Zm-.921-5.147a.697.697 0 0 0-.039-.774.68.68 0 0 0-.204-.181 8.192 8.192 0 0 0-3.026-1.162 3.12 3.12 0 0 0-.955 0 1.105 1.105 0 0 0-.727 1.688 2.31 2.31 0 0 0 1.862.996c.547.031 1.095.031 1.642 0 .47-.194 1.066-.083 1.447-.567Zm-1.787-.395a2.543 2.543 0 0 1-2.077-.193.465.465 0 0 1-.298-.54c.056-.214.27-.208.436-.201a4.316 4.316 0 0 1 2.14.692c-.097.111-.132.215-.201.242Zm5.928-14.335a6.612 6.612 0 0 0-3.269.18 3.322 3.322 0 0 0-1.274.788.856.856 0 0 0-.166.9.692.692 0 0 0 .616.484c.27.035.547.049.852.069a6.761 6.761 0 0 0 3.531-1.321.612.612 0 0 0 .284-.595.603.603 0 0 0-.574-.505Zm-3.546 1.439c.533-.692 1.267-.581 1.994-.692-.491.616-.817.726-1.994.692Zm4.058 23.869a4.21 4.21 0 0 0-3.462-2.11.564.564 0 0 0-.463.251.575.575 0 0 0-.057.524c.142.387.341.75.589 1.079a8.688 8.688 0 0 0 2.327 1.896c.11.058.229.098.353.117a.95.95 0 0 0 .692-.442 1.385 1.385 0 0 0 .021-1.315Zm-1.059.526a3.336 3.336 0 0 1-1.69-1.384.314.314 0 0 1 .395-.034 2.414 2.414 0 0 1 1.385 1.127.23.23 0 0 1-.09.291Zm176.465-84.559-15.165.45a4.99 4.99 0 0 1-.547 0c-.256 0-.457-.188-.429-.444a.479.479 0 0 1 .471-.421h.962l12.112-.443 15.026-.47 2.617-.105h.693c.339 0 .568.229.547.478-.021.249-.229.387-.457.429-.274.032-.549.05-.824.055l-11.578.346-3.462.118.034.007Zm-15.102-8.69a4.662 4.662 0 0 0 2.458-.54l1.018-.408a.393.393 0 0 1 .568.201.362.362 0 0 1-.167.47 10.13 10.13 0 0 1-.969.52 13.17 13.17 0 0 1-2.922.823c.069 1.1.145 2.151.201 3.203.014.274-.007.548-.063.816a.452.452 0 0 1-.304.256.518.518 0 0 1-.374-.124 1.421 1.421 0 0 1-.353-.872 20.46 20.46 0 0 1-.381-5.078 32.192 32.192 0 0 0 0-3.46 9.613 9.613 0 0 1 0-1.1c0-.553.048-.574.81-.643a.447.447 0 0 0 .353-.159c.083-.11.152-.228.235-.346 1.074-1.529 2.978-1.785 4.778-.616a1.615 1.615 0 0 1 .824 1.384.416.416 0 0 1-.283.429.381.381 0 0 1-.478-.16 2.119 2.119 0 0 0-1.766-1.328 2.038 2.038 0 0 0-2.292.865 5.13 5.13 0 0 0-.692 1.384 7.432 7.432 0 0 0-.201 4.483Zm18.737-2.131 2.493-.692c.173-.048.347-.124.52-.173.498-.152.775-.083.81.18.055.43-.284.56-.568.692-.568.187-1.143.332-1.717.484-1.524.409-1.634.575-1.385 2.076.249 1.501.298 1.591 1.856 1.384.961-.07 1.913-.228 2.846-.47a1.27 1.27 0 0 1 .408 0c.208 0 .346.331.256.532a.944.944 0 0 1-.775.505c-1.219.18-2.451.36-3.684.464a1.386 1.386 0 0 1-1.572-1.052 4.529 4.529 0 0 1-.277-1.204 37.568 37.568 0 0 1-.104-6.047c.017-.32.066-.637.146-.948a1.743 1.743 0 0 1 1.385-1.383c.54-.097 1.08-.2 1.62-.277a.507.507 0 0 1 .498.173c.056.076.153.166.139.228-.014.063-.097.312-.187.332-.485.132-.983.201-1.468.319-.956.228-1.177.422-1.233 1.383-.055 1.093-.007 2.194-.007 3.494Zm10 4.546c-.326-.063-.915-.16-1.496-.29a.379.379 0 0 1-.256-.437.36.36 0 0 1 .353-.346c.274-.017.549-.017.824 0 .318 0 .637.104.955.118a1.552 1.552 0 0 0 1.676-.934 2.004 2.004 0 0 0-.775-2.304 3.504 3.504 0 0 0-1.704-.47c-.414 0-.828-.021-1.239-.063a1.647 1.647 0 0 1-1.468-1.57 2.806 2.806 0 0 1 .104-1.225 4.84 4.84 0 0 1 2.195-2.719 2.189 2.189 0 0 1 1.454-.277 1.288 1.288 0 0 1 1.101 1.073.484.484 0 0 1-.291.56.323.323 0 0 1-.262.01.316.316 0 0 1-.181-.19c-.125-.235-.187-.532-.513-.588a1.237 1.237 0 0 0-.914.208 3.854 3.854 0 0 0-1.772 2.518.976.976 0 0 0 .141.917.98.98 0 0 0 .842.39c.408.05.824.063 1.239.084a3.692 3.692 0 0 1 1.579.436 2.96 2.96 0 0 1 1.281 3.68c-.408.97-1.364 1.481-2.873 1.419Zm-13.566.588a4.218 4.218 0 0 0 1.628-.215 1.3 1.3 0 0 1 .54-.055c.124 0 .277.083.277.25 0 .165 0 .31-.083.373-.2.183-.436.322-.693.408a6.822 6.822 0 0 1-2.874.07 1.29 1.29 0 0 1-1.073-.956 8.856 8.856 0 0 1-.27-1.203c-.339-2.374-.353-4.768-.464-7.154a4.252 4.252 0 0 1 .152-1.502.439.439 0 0 1 .506-.353.43.43 0 0 1 .381.492c-.305 2.117.041 4.213.145 6.316.04.826.133 1.649.277 2.463.166.969.284 1.024 1.281 1.066h.27Zm-7.513-8.911c0-.616-.083-.99.097-1.336a.415.415 0 0 1 .457-.221c.166 0 .222.145.284.256.048.08.077.17.083.263.166 2.643.326 5.285.506 7.928.055.817.173 1.633.242 2.45a.33.33 0 0 1-.056.261.333.333 0 0 1-.228.14.43.43 0 0 1-.471-.194 3.297 3.297 0 0 1-.339-1.453c-.062-.962-.132-1.916-.201-2.878-.124-1.82-.111-3.653-.374-5.216Zm48.895 35.803v-2.345c.001-.183.012-.365.034-.547.277-1.93.693-1.923 2.119-2.193a26.04 26.04 0 0 1 1.759-.277.359.359 0 0 1 .409.298.417.417 0 0 1-.215.457 3.357 3.357 0 0 1-1.191.325c-1.974.325-1.911.09-2.015 2.186-.097 1.778-.249 1.515 1.516 1.384.18 0 .36-.063.547-.07a.485.485 0 0 1 .554.298c.076.2-.159.477-.478.553a5.792 5.792 0 0 1-.692.097c-1.856.153-1.475.263-1.482 1.737.004.183.018.365.042.547.055.498.249.622.748.428.498-.193 1.004-.456 1.509-.691a.431.431 0 0 1 .575.228.374.374 0 0 1-.118.491 5.953 5.953 0 0 1-2.659 1.08.695.695 0 0 1-.845-.554 3.665 3.665 0 0 1-.145-.948v-2.484h.028Zm-4.439-.069c.623-.104 1.073-.187 1.53-.249.178-.035.362-.035.54 0a.46.46 0 0 1 .25.29.445.445 0 0 1-.132.354 2.95 2.95 0 0 1-1.447.366c-.568.042-.769 0-.693.865 0 .547.076 1.1.097 1.647a1.83 1.83 0 0 1-.062.546.369.369 0 0 1-.402.298.48.48 0 0 1-.436-.284 1.078 1.078 0 0 1-.069-.401c-.09-2.02-.187-4.034-.256-6.054-.035-.81.242-1.225 1.018-1.384.983-.214 1.987-.325 2.984-.477a.939.939 0 0 1 .277 0 .413.413 0 0 1 .374.346.36.36 0 0 1-.263.422c-.45.104-.9.173-1.385.242-.485.07-.914.07-1.385.16a.824.824 0 0 0-.748.975c.069.747.139 1.466.208 2.338Zm-7.929-.581c.063.872.125 1.923.215 2.975.062.747.104.775.817.81.457 0 .914 0 1.385.076.237.023.469.076.693.159a.383.383 0 0 1 .242.442.46.46 0 0 1-.367.36.873.873 0 0 1-.27 0l-2.334-.166a.935.935 0 0 1-.942-.837 9.168 9.168 0 0 1-.193-1.494c-.049-1.606-.063-3.21-.083-4.843a.758.758 0 0 1 .173-.644.48.48 0 0 1 .339-.166.407.407 0 0 1 .291.222c.055.226.081.458.076.691a51.709 51.709 0 0 0-.042 2.415Zm5.222 1.135v3.03a3.84 3.84 0 0 1 0 .547.362.362 0 0 1-.381.318.442.442 0 0 1-.43-.284 1.146 1.146 0 0 1-.076-.401c-.078-2.2-.148-4.4-.208-6.6a.85.85 0 0 1 .153-.65.691.691 0 0 1 .346-.16.27.27 0 0 1 .298.222c.036.133.055.27.055.408.056 1.19.111 2.38.159 3.57h.084Zm-1.42-16.771c.075.097.14.201.194.311a.3.3 0 0 1-.104.367c-.152.1-.309.19-.471.27a11.152 11.152 0 0 0-3.982 3.113c-.162.29-.402.53-.692.692a.422.422 0 0 1-.367-.041.546.546 0 0 1-.132-.36.7.7 0 0 1 .139-.38 10.973 10.973 0 0 1 4.778-3.813c.206-.075.42-.128.637-.159Zm-70.998-28.574a1.19 1.19 0 0 1-.2.768.266.266 0 0 1-.229.083.242.242 0 0 1-.166-.173 8.71 8.71 0 0 1 .076-.941.216.216 0 0 1 .108-.157.217.217 0 0 1 .19-.016.368.368 0 0 1 .18.173.673.673 0 0 1 .041.263Zm-.962 12.868.824.18a.136.136 0 0 1 .103.083.143.143 0 0 1 .011.068.148.148 0 0 1-.024.064c-.035.07-.104.187-.152.18-.263 0-.527-.083-.79-.132-.263-.048-.374-.083-.284-.311.028-.083.222-.097.312-.132Zm1.302-7.292c-.035.208 0 .43-.25.547a.261.261 0 0 1-.311 0c-.035-.312.173-.547.256-.816.263-.09.388-.021.305.27Zm-2.265 3.231a1.848 1.848 0 0 1-.36-.124.278.278 0 0 1-.097-.222c0-.055.097-.152.153-.152a.83.83 0 0 1 .824.29c-.153.118-.36.105-.52.208Z"/>
  <path fill="#FDEAFF" d="m252.193 45.774-.305-.298a.424.424 0 0 1 .201-.443.31.31 0 0 1 .228-.041c.066.054.108.13.118.214a.557.557 0 0 1-.242.568Zm-3.906-4.172a.463.463 0 0 1-.332-.395.442.442 0 0 1 .104-.36c.104-.076.242 0 .318.139.076.138.132.235.194.353l-.034.097a.496.496 0 0 1-.153.138l-.097.028Z"/>
  <path fill="#FDEAFF" d="M248.592 41.339c.072.05.137.111.194.18a.348.348 0 0 1 .055.249c-.09.152-.235.097-.353 0a.949.949 0 0 1-.18-.194.146.146 0 0 0 .145-.062l.07-.056a.159.159 0 0 0 .069-.118Zm3.864 16.826c-.125.145-.229.07-.27-.062a.454.454 0 0 1 .187-.554c.235.18.193.388.083.616Z"/>
  <path fill="#FDEAFF" d="m252.456 58.164-.083-.615c.097-.16.249-.298.332 0 .083.297.076.498-.249.615Zm-3.629-12.418c.166.048.229.159.049.235a.357.357 0 0 1-.458-.106.36.36 0 0 1-.062-.157.317.317 0 0 1 .242-.094.312.312 0 0 1 .229.122Zm4.134 6.607c0 .221-.118.36-.325.318-.208-.041-.236-.242-.139-.422a.947.947 0 0 1 .166-.2c.18.027.201.207.298.304Zm-.214-.519c0-.27.2-.422.429-.25.228.174.069.388-.118.534-.215 0-.235-.187-.311-.284Zm-4.363-.637c.139 0 .208.076.208.222a.27.27 0 0 1-.049.353.643.643 0 0 1-.505-.52.304.304 0 0 1 .346-.055Zm1.544-2.193c.125-.187.34-.159.52-.207-.014.47-.312.221-.52.207Z"/>
  <path fill="#FDEAFF" d="m252.747 51.834.311.284a.398.398 0 0 1-.076.235l-.298-.304a.29.29 0 0 1 .063-.215Zm-4.203-.048.048-.353c.099.06.189.132.27.214a.25.25 0 0 1-.042.215c-.103.09-.228.027-.276-.076Zm.283-6.04h-.47c-.125-.242-.035-.332.2-.25.104.021.18.167.27.25Zm-.443 5.452-.346.055c-.042-.104-.145-.228 0-.29.145-.063.27.117.346.235Zm3.248-4.906h.311c-.069.097-.166.277-.214.263-.049-.014-.159-.131-.097-.263Zm9.341 11.997.658.228v.118c0 .042-.035.09-.069.104a1.323 1.323 0 0 1-1.025-.125v-.11c0-.035.034-.09.069-.104l.367-.11Zm3.4-12.626c-.035.083-.055.173-.09.249-.035.076-.062.076-.09.076-.028 0-.111 0-.118-.055a1.837 1.837 0 0 1-.124-1.156s.076-.048.11-.055c.035-.007.111 0 .132 0 .229.249.139.602.18.94Zm-7.049 14.979c.201.068.398.149.588.242a.248.248 0 0 1 .097.221.299.299 0 0 1-.207.138.625.625 0 0 1-.624-.145.348.348 0 0 1-.062-.242c.014-.07.111-.118.208-.215Zm3.898-11.907c-.062.048-.131.131-.2.131a.467.467 0 0 1-.464-.221.423.423 0 0 1 0-.25.137.137 0 0 1 .103-.076.697.697 0 0 1 .582.284l-.021.132Zm2.556 1.418a.873.873 0 0 1 .145-.63c.09-.081.193-.147.305-.193 0 .076.097.152.097.228a1.057 1.057 0 0 1-.312.851.496.496 0 0 1-.235-.256Zm-3.082 2.705a.885.885 0 0 1-.651-.45.207.207 0 0 1-.051-.123.202.202 0 0 1 .28-.195c.31.08.578.275.748.547-.049.159-.208.159-.326.221Zm.699 3.667a3.62 3.62 0 0 1-.387 0c-.035 0-.104-.062-.097-.076.007-.014.048-.194.104-.215a1.005 1.005 0 0 1 .803 0c0 .34-.152.409-.423.291Z"/>
  <path fill="#FDEAFF" d="m261.396 56.525.422-.263c.122.037.24.086.353.146a.287.287 0 0 1 .104.221c0 .166-.159.173-.284.166a.859.859 0 0 1-.595-.27Zm3.545-2.22c.152.117.249.283.125.442-.125.16-.305.11-.451 0l-.193-.173a.429.429 0 0 1 .159-.194.431.431 0 0 1 .235-.09l.125.014Z"/>
  <path fill="#FDEAFF" d="M264.421 54.56c-.193-.125-.166-.29-.041-.436.125-.145.242-.062.36 0 .072.052.139.11.201.173l-.104.09a.358.358 0 0 0-.242.11.236.236 0 0 1-.174.063Zm-.643-4.407.235.256c0 .131-.104.249-.215.187-.111-.063-.104-.291-.02-.443Zm-3.082 2.705.326-.221c.152.062.2.18.048.256-.152.076-.249-.021-.374-.035Zm-18.253-1.245a2.134 2.134 0 0 1-.443.934.301.301 0 0 1-.243.069.309.309 0 0 1-.131-.215 1.223 1.223 0 0 1 .415-.954.278.278 0 0 1 .243-.055c.076.02.076.13.159.22Zm5.297 7.922c0 .048 0 .228-.041.408-.042.18-.083.166-.194.103a.537.537 0 0 1-.208-.152 1.094 1.094 0 0 1-.035-.795.435.435 0 0 1 .229-.298c.291-.083.215.18.249.332.008.134.008.268 0 .401Zm-2.52-3.91c-.36-.138-.81-.11-.97-.574a.132.132 0 0 1-.013-.055c0-.02.005-.038.013-.056.499-.228.817.125 1.177.36 0 0 0 .076.042.125a.928.928 0 0 1-.249.2Zm-.783 2.007c.658.387.873.636.644.692-.395.145-.623-.152-.872-.374 0 0 0-.083-.035-.124-.035-.042.145-.118.263-.194Zm-2.957-3.46a.373.373 0 0 1-.339-.352c0-.042.132-.118.208-.118.228 0 .318.125.291.325.027.056-.104.104-.16.145Z"/>
  <path fill="#FDEAFF" d="m245.22 55.625.263-.2c.055.256-.076.263-.263.2Zm-.783 2.007-.263.228c-.104-.27-.014-.339.263-.228Zm14.258 8.503c-.402 0-.513-.145-.547-.332a.394.394 0 0 1 .235-.45 3.06 3.06 0 0 1 .693-.16c.858-.144 1.717-.31 2.583-.421a2.87 2.87 0 0 0 1.952-1.121c.285-.352.588-.69.907-1.01a1.22 1.22 0 0 1 .471-.263c.194-.055.34.07.457.228a.29.29 0 0 1 0 .38 57.7 57.7 0 0 1-1.772 1.917 1.97 1.97 0 0 1-1.081.588c-1.35.236-2.714.45-3.898.644Zm-13.655-1.792c.27.256.602.173.907.152a7.138 7.138 0 0 1 2.299.208c.311.08.586.266.775.525.063.118.118.27 0 .381-.097.09-.21.163-.332.215a.346.346 0 0 1-.263 0 5.29 5.29 0 0 0-2.77-.478 2.84 2.84 0 0 1-2.015-.692 1.127 1.127 0 0 1-.27-.304.436.436 0 0 1 0-.512.352.352 0 0 1 .369-.125.341.341 0 0 1 .122.063c.367.152.686.518 1.178.567Zm10.421.041c-.062.09-.125.277-.208.291a15.77 15.77 0 0 0-2.458.692.36.36 0 0 1-.256 0 .773.773 0 0 1-.236-.298.245.245 0 0 1 .063-.235c.851-.505 1.703-1.024 2.77-.823.187-.007.284.152.325.373Zm-105.787 3.743c1.074-.145 2.016-.31 2.971-.4a21.845 21.845 0 0 1 6.433.525c.305.062.693.07.873.353.073.11.116.236.124.367 0 .166-.145.228-.27.256a3.06 3.06 0 0 1-1.226-.132 23.22 23.22 0 0 0-5.747-.47 16.11 16.11 0 0 0-2.451.38c-.637.132-.693.277-.616.983a34.752 34.752 0 0 0 1.758 7.61c.077.224.123.456.139.692a.27.27 0 0 1-.208.304.487.487 0 0 1-.388-.055 1.682 1.682 0 0 1-.367-.56c-.27-.734-.547-1.46-.748-2.214a33.025 33.025 0 0 1-1.197-6.006c-.347-.221-.61-.041-.838.063a17.563 17.563 0 0 0-5.893 3.992 26.348 26.348 0 0 0-3.151 3.639.84.84 0 0 1-.298.263.346.346 0 0 1-.263 0 .289.289 0 0 1-.221-.304 1.09 1.09 0 0 1 .083-.395c.1-.208.221-.405.36-.588 2.486-3.259 5.346-6.054 9.265-7.555.215-.083.422-.187.63-.284.052-.037.1-.08.145-.124v-1.46a25.856 25.856 0 0 1 1.198-8.413.994.994 0 0 1 .118-.242.341.341 0 0 1 .197-.18.352.352 0 0 1 .267.014.392.392 0 0 1 .208.304c-.032.41-.093.816-.18 1.218a35.102 35.102 0 0 0-.81 5.327 15.987 15.987 0 0 0 .103 3.093Zm89.445 120.128a.69.69 0 0 1-.139.498c-.332.441-.71.844-1.128 1.204a104.296 104.296 0 0 0-7.181 7.251 20.82 20.82 0 0 0-3.4 4.843 2.311 2.311 0 0 1-.381.567.602.602 0 0 1-.637.152.523.523 0 0 1-.381-.512.832.832 0 0 1 .319-.857c.23-.155.412-.37.526-.623a23.81 23.81 0 0 1 3.954-5.286c2.16-2.318 4.425-4.545 6.724-6.725a9.95 9.95 0 0 1 1.08-.851c.208-.152.616.083.644.339Zm16.91-4.414c0-.298.016-.596.048-.892a.423.423 0 0 1 .36-.367.438.438 0 0 1 .334.045.436.436 0 0 1 .206.266c.08.357.129.721.146 1.087.123 1.783.355 3.557.692 5.313a59.769 59.769 0 0 0 3.289 10.053c.187.47.361.941.506 1.425a.445.445 0 0 1-.263.567.456.456 0 0 1-.603-.173 6.333 6.333 0 0 1-.526-.968 62.826 62.826 0 0 1-3.518-10.558 50.846 50.846 0 0 1-.671-5.798Zm-23.405 7.015a.442.442 0 0 1-.377-.334.444.444 0 0 1-.004-.178 2.13 2.13 0 0 1 .305-.601 28.051 28.051 0 0 0 4.411-8.669c.082-.26.191-.51.325-.748a.507.507 0 0 1 .609-.193.481.481 0 0 1 .381.512 5.02 5.02 0 0 1-.277 1.196 54.147 54.147 0 0 1-2.292 5.155 22.273 22.273 0 0 1-2.423 3.508c-.18.214-.381.449-.658.352Zm24.679 6.428a.473.473 0 0 1 .267.043.469.469 0 0 1 .197.185c.291.574.533 1.162.838 1.73.914 1.688 1.849 3.369 2.77 5.057.16.279.301.568.422.865a.451.451 0 0 1-.194.588.528.528 0 0 1-.637-.097 2.883 2.883 0 0 1-.436-.525 74.115 74.115 0 0 1-3.462-6.705 1.793 1.793 0 0 1-.153-.657.508.508 0 0 1 .388-.484Zm-156.44-26.09c.083 3.768.164 7.534.243 11.298.017.413.003.827-.042 1.239a.33.33 0 0 1-.272.274.333.333 0 0 1-.137-.005c-.117 0-.29-.117-.311-.214a4.27 4.27 0 0 1-.125-.941c-.097-4.225-.191-8.45-.284-12.675a8168.4 8168.4 0 0 1-.242-10.613v-.962a.47.47 0 0 1 .395-.491c.263 0 .415.166.45.422.028.23.042.461.041.692l.305 11.983-.021-.007ZM95.6 191.099a2.262 2.262 0 0 1-1.204-.201.361.361 0 0 1-.166-.346.286.286 0 0 1 .263-.27 3.15 3.15 0 0 1 .692-.041 6.538 6.538 0 0 0 5.581-2.456c.138-.182.307-.339.499-.464a.452.452 0 0 1 .381.063c.09.069.194.256.166.339a2.787 2.787 0 0 1-.395.691 6.982 6.982 0 0 1-5.817 2.685Zm100.435-42.688c-.146 1.91-.693 3.459-2.14 4.594-.34.309-.756.522-1.205.616a.604.604 0 0 1-.417-.056.602.602 0 0 1-.276-.318.524.524 0 0 1 .194-.609c.109-.081.228-.149.354-.2 1.606-.83 2.167-2.263 2.243-3.958 0-.318-.055-.636-.055-.954a.547.547 0 0 1 .526-.526.496.496 0 0 1 .526.36c.132.394.18.795.25 1.051Zm-7.168-10.855c-.322 0-.643.023-.962.069-1.24.235-2.244.761-2.611 2.075-.152.54-.401.692-.747.63-.347-.062-.541-.45-.423-1.003a2.883 2.883 0 0 1 .79-1.425 5.147 5.147 0 0 1 4.937-1.384c.174.046.334.131.471.249a.413.413 0 0 1 .159.484.481.481 0 0 1-.381.36 2.94 2.94 0 0 1-.547 0c-.18.014-.36-.021-.686-.055Zm-53.083 46.161a.428.428 0 0 1-.215.262.41.41 0 0 1-.339.014.428.428 0 0 1-.159-.07.421.421 0 0 1-.148-.468.417.417 0 0 1 .401-.283.415.415 0 0 1 .169.04.42.42 0 0 1 .291.505Zm-7.68-1.848a.437.437 0 0 1-.097.865.438.438 0 0 1-.373-.477.479.479 0 0 1 .47-.388Z"/>
  <path fill="#FFDEAF" d="M135.168 180.091a.458.458 0 0 1-.374-.484.385.385 0 0 1 .062-.156.4.4 0 0 1 .443-.169.406.406 0 0 1 .312.394.438.438 0 0 1-.14.295.44.44 0 0 1-.303.12Z"/>
  <path fill="#FDEAFF" d="M125.252 181.821a.464.464 0 0 1 .394.463.39.39 0 0 1-.168.275.404.404 0 0 1-.317.057.363.363 0 0 1-.332-.359.447.447 0 0 1 .423-.436Zm6.391-2.429c-.083.194-.194.388-.457.367a.415.415 0 0 1-.278-.146.414.414 0 0 1-.093-.3.413.413 0 0 1 .447-.37.412.412 0 0 1 .287.143.411.411 0 0 1 .094.306Zm-4.785-3.314a.417.417 0 0 1-.204.423.434.434 0 0 1-.156.055.437.437 0 0 1-.313-.081.43.43 0 0 1-.165-.279.441.441 0 0 1 .367-.477.4.4 0 0 1 .313.078.405.405 0 0 1 .158.281Zm-.415 11.416a.427.427 0 0 1-.464-.367.397.397 0 0 1 .233-.406.39.39 0 0 1 .161-.037.389.389 0 0 1 .395.298.418.418 0 0 1-.325.512Zm4.431-1.785a.379.379 0 0 1 .28.541.391.391 0 0 1-.411.22.366.366 0 0 1-.326-.374.431.431 0 0 1 .457-.387Zm4.106 1.737a.401.401 0 1 1 .002.802.401.401 0 0 1-.002-.802Zm-7.353-7.846a.384.384 0 0 1-.281-.168.385.385 0 0 1-.052-.323.368.368 0 0 1 .374-.318.44.44 0 0 1 .43.442.402.402 0 0 1-.051.158.402.402 0 0 1-.107.125.418.418 0 0 1-.313.084Zm2.984-4.386a.395.395 0 0 1-.311.329.392.392 0 0 1-.423-.176.402.402 0 0 1-.055-.312.428.428 0 0 1 .401-.298c.201-.021.416.242.388.457Zm4.079-.333c.214.042.318.166.291.367a.353.353 0 0 1-.256.292.346.346 0 0 1-.367-.124.35.35 0 0 1-.07-.258c.049-.221.229-.256.402-.277Zm-2.161 8.268c-.138 0-.228-.097-.228-.249s.201-.339.346-.263a.266.266 0 0 1 .156.119.256.256 0 0 1 .03.193.26.26 0 0 1-.112.161.26.26 0 0 1-.192.039ZM33.397 323.874c.125-.298.374-.298.506-.077a2.765 2.765 0 0 0 1.71 1.44.359.359 0 0 1 .104.643 3.352 3.352 0 0 1-.547.297c1.08 1.197 2.299 2.214 3.462 3.314 1.163 1.101 2.306 2.194 3.573 3.349 0-1.245-1.793-10.897-3.012-16.231-.346-.346-.803 0-1.17-.159a.565.565 0 0 1-.27-.27.315.315 0 0 1 .014-.267.32.32 0 0 1 .214-.162 2.177 2.177 0 0 0 1.343-.581.261.261 0 0 1 .257 0c.401.318.88.173 1.322.249a.457.457 0 0 1 .422.457c0 .228-.18.297-.36.346a3.99 3.99 0 0 1-.408.034c-.388.083-.457.187-.38.568.65 3.334 1.306 6.667 1.966 9.997.436 2.2.9 4.4 1.385 6.6.049.178.088.358.117.54 0 .27.125.567-.166.754-.29.187-.602 0-.838-.242-.512-.457-1.024-.927-1.523-1.384l-5.824-5.486c-.159-.152-.332-.291-.457-.395-.29 0-.256.187-.242.305.208 1.591.43 3.182.644 4.774.083.581.118 1.203.963 1.197.076 0 .207.193.214.304a.39.39 0 0 1-.194.318 4.33 4.33 0 0 1-2.022.312.508.508 0 0 1-.319-.222.294.294 0 0 1 .024-.381.286.286 0 0 1 .115-.075c.457-.153.464-.409.402-.845-.27-1.722-.47-3.459-.692-5.188-.077-.54-.167-1.08-.243-1.592-.443-.09-.803-.145-1.15-.242-.228-.062-.207-.291.05-.588-.105-.803.678-.934 1.01-1.411Z"/>
  <path fill="#FDEAFF" d="M30.96 324.801a57.583 57.583 0 0 0 .304 8.226c0 .228.09.45.125.692.055.359.222.574.63.553a.842.842 0 0 1 .374.159.308.308 0 0 1 .107.232.306.306 0 0 1-.107.232.932.932 0 0 1-.228.145 5.653 5.653 0 0 1-2.043.173.402.402 0 0 1-.263-.256c0-.111 0-.339.097-.36.567-.193.526-.595.457-1.079a43.062 43.062 0 0 1-.347-7.002v-.968c0-.325 0-.837-.56-.927-.07 0-.125-.125-.18-.194-.056-.069 0-.533.214-.533h1.925a.413.413 0 0 1 .25.09c.138.111.297.215.256.443a.331.331 0 0 1-.27.263c-.215.048-.444.069-.741.111Zm2.437-.927c0 .131 0 .345-.097.373a1.128 1.128 0 0 0-.692.948c0 .035-.166.035-.256.048a1.814 1.814 0 0 0 0-.387c-.07-.408 0-.692.498-.692.25.028.388-.194.547-.29Zm215.105-282.39-.069.055-.014-.083.083.028Zm16.092 13.02c0-.18.125-.159.243-.11l-.243.11Z"/>
</svg>
