<svg xmlns="http://www.w3.org/2000/svg" width="356" height="377" fill="none" viewBox="0 0 356 377">
  <path fill="#FDEAFF" d="M257.208 266.42a15.514 15.514 0 0 0-.647-1.994 84.075 84.075 0 0 1-3.849-14.043c-1.192-6.217-2.169-12.479-2.989-18.762a102.21 102.21 0 0 1-.923-12.201c-.048-4.786-.041-9.579.124-14.364.097-2.872.324-5.736.324-8.614 0-6.854-.069-13.707-.248-20.567-.11-4.384-.213-8.768-.413-13.151-.262-5.794-.606-11.581-.757-17.375a403.281 403.281 0 0 0-2.004-30.605 58.947 58.947 0 0 0-2.169-10.923 62.628 62.628 0 0 0-2.755-7.774 1.029 1.029 0 0 1 .131-1.227c1.396-1.679 2.189-3.826 2.238-6.064a20.89 20.89 0 0 0-1.184-8.9c-1.136-3.039-2.266-6.085-3.546-9.06-2.135-4.945-4.187-9.92-5.943-15.035-1.377-4.07-2.527-8.227-3.636-12.42a128.258 128.258 0 0 0-4.551-14.263c-2.536-6.67-6.605-12.56-11.837-17.133-4.715-4.162-10.641-6.467-16.774-6.524a33.58 33.58 0 0 0-8.05.957 27.63 27.63 0 0 0-10.9 4.983 50.402 50.402 0 0 0-4.2 3.653 29.269 29.269 0 0 0-6.583 9.228 7.017 7.017 0 0 1-1.736-.629 21.516 21.516 0 0 0-13.083-.445c-4 .99-7.666 3.128-10.597 6.18a1.764 1.764 0 0 1-.624.47 1.674 1.674 0 0 1-.753.145c-3.673.073-7.329.16-10.97.263a5.23 5.23 0 0 1-2.065-.3 8.062 8.062 0 0 0-4.205-.486 8.261 8.261 0 0 0-3.907 1.72 10.78 10.78 0 0 0-3.532 4.472 15.44 15.44 0 0 0-1.426 7.172c.103 2.48.798 4.892 2.018 7.01a10.807 10.807 0 0 0 3.525 3.88 8.535 8.535 0 0 0 5.33 1.561 8.614 8.614 0 0 0 5.171-2.073 2.352 2.352 0 0 1 1.536-.643c.998 0 1.99-.125 2.988-.183l8.684-.497 6.259-.365a1.19 1.19 0 0 1 .95.183 10.157 10.157 0 0 0 2.334 1.46.405.405 0 0 1 .149.101.446.446 0 0 1 .065.52c-.778 1.959-.427 3.844.296 5.714a23.862 23.862 0 0 0 1.838 3.361c.579.98 1.185 1.95 1.687 2.974a6.96 6.96 0 0 1 .786 2.723 7.047 7.047 0 0 1-.359 2.822 8.893 8.893 0 0 0-.647 4.135c.016.099.002.2-.04.29a.454.454 0 0 1-.194.207c-.2.14-.399.27-.606.395-4.731 2.776-9.516 5.45-14.46 7.744a29.205 29.205 0 0 1-3.987 1.608c-.507.127-1.019.225-1.536.292-.179 0-.31-.241-.22-.416a8.386 8.386 0 0 1 1.563-1.951 65.511 65.511 0 0 1 6.025-5.32c3.491-2.783 7.079-5.428 10.715-8.036.317-.216.616-.46.895-.73a.387.387 0 0 0 0-.541.556.556 0 0 0-.372-.154c-.33.064-.636.226-.882.468-4.131 2.922-8.18 5.845-12.077 9.089-1.577 1.3-3.133 2.63-4.586 4.084a16.332 16.332 0 0 0-1.825 2.119 1.96 1.96 0 0 0-.472.916c-.074.346-.056.706.052 1.042.063.237.079.486.048.73-.145 2.317-.234 4.633-.468 6.941-.276 2.806-.537 5.619-.647 8.432-.173 4.281-.407 8.563-.386 12.851 0 1.009 0 2.017-.076 3.025a128.219 128.219 0 0 0 .393 17.221c.21 2.714.79 5.382 1.721 7.92.847 2.325 2.4 4.284 4.414 5.567.875.59 1.796 1.099 2.754 1.52a14.788 14.788 0 0 0 7.113 1.169 25.822 25.822 0 0 0 4.352-.731 16.011 16.011 0 0 0 6.569-3.127c.51-.438 1.006-.899 1.495-1.351.275.175.213.445.22.686.041 1.264.048 2.521.117 3.778.165 3.375.386 6.743.53 10.119.232 7.358.002 14.724-.688 22.05a382.37 382.37 0 0 1-.689 7.372c-.22 2.192-.447 4.383-.73 6.575-.378 2.996-.86 5.977-1.205 8.972-.592 5.202-1.212 10.397-1.584 15.628-.42 5.933-.95 11.851-1.273 17.791a77.37 77.37 0 0 1-1.378 10.316 51.711 51.711 0 0 0-.922 6.576c-.172 2.871-.372 5.735-.283 8.614a29.222 29.222 0 0 1-.213 5.428c-.262 1.695.138 2.251 1.804 2.565.738.14 1.441.438 2.066.877.95.662 1.907 1.32 2.871 1.972a10.902 10.902 0 0 0 6.342 1.914 31.633 31.633 0 0 0 5.344-.482c.282.271.227.592.268.884.105.95.313 1.885.62 2.784a4.315 4.315 0 0 0 1.21 1.939c.563.515 1.25.856 1.985.983.372.066.737.19 1.115.242 1.742.241 3.485.474 5.227.686 1.136.146 2.272.234 3.401.366.517.065.579.138.634.635.089.906.193 1.805.262 2.711.392 5.019.791 10.039 1.149 15.065.4 5.582.813 11.157 1.123 16.739.365 6.575.64 13.093.929 19.639.124 2.718.207 5.436.262 8.161 0 .687.413 1.344.145 2.053l-1.915.504c-7.088 1.997-13.729 5.475-19.535 10.229a14.644 14.644 0 0 0-2.486 2.484 7.881 7.881 0 0 0-1.191 2.046 3.246 3.246 0 0 0-.115 2.359c.127.383.325.734.581 1.035.256.301.566.545.911.719a6.475 6.475 0 0 0 2.7.862 45.37 45.37 0 0 0 9.247-.183c2.514-.204 5.013-.489 7.52-.774 3.16-.358 6.314-.774 9.447-1.374 1.632-.314 3.257-.73 4.882-1.052a.46.46 0 0 1 .408.03.527.527 0 0 1 .24.35 5.44 5.44 0 0 0 1.529 2.423 4.968 4.968 0 0 0 2.492 1.23c1.359.291 2.746.408 4.131.351 3.333-.044 6.638-.416 9.944-.782 4.82-.526 9.64-1.125 14.46-1.753a45.908 45.908 0 0 0 7.258-1.498 15.5 15.5 0 0 0 3.443-1.461 4.232 4.232 0 0 0 1.475-1.389 4.565 4.565 0 0 0 .701-1.957 9.203 9.203 0 0 0-.184-3.702 8.87 8.87 0 0 0-1.621-3.283 12.428 12.428 0 0 0-3.869-3.522 1.49 1.49 0 0 1-.754-.762 1.63 1.63 0 0 1-.08-1.101c.084-.546.137-1.098.159-1.651.151-2.192.289-4.325.44-6.488.083-1.205.159-2.411.269-3.616.379-4.209.84-8.417 1.081-12.648.096-1.709.255-3.412.413-5.114.303-3.31.689-6.612.944-9.922.447-5.37.909-10.747 1.253-16.124a80.777 80.777 0 0 0-.289-15.687.766.766 0 0 1 .039-.517.708.708 0 0 1 .353-.36 9.975 9.975 0 0 0 2.066-1.629 5.466 5.466 0 0 0 1.42-2.143c.302-.826.41-1.718.315-2.599 0-.255-.048-.504-.089-.73-.062-.395.158-.548.454-.636.138-.04.278-.07.42-.088a38.593 38.593 0 0 0 7.878-2.506c.152-.037.295-.109.418-.211.123-.101.224-.231.296-.378a1.202 1.202 0 0 0 .036-.96ZM226.504 48.44a.282.282 0 0 1 .193.16c.089.541.158 1.082.241 1.623.082.54.385.95.323 1.46.208.346.32.746.324 1.155.097.075.169.18.209.3.039.12.043.25.011.372a.298.298 0 0 1 .049.256c.369.794.654 1.63.847 2.492l.055.058v.066c0 .071.017.141.048.204a.954.954 0 0 1-.048-.204.638.638 0 0 1 .227.482c.277.466.473.98.578 1.52.195.235.309.534.324.847.318.338.524.777.585 1.25a.627.627 0 0 1 .216.24c.05.099.076.21.073.322.308.309.516.713.593 1.154a34.74 34.74 0 0 1 2.754 5.846.263.263 0 0 1 .076.234c.38.562.647 1.2.785 1.877.295.563.484 1.18.558 1.82a.325.325 0 0 1 .068.262c.104.218.189.446.255.68.076.372-.048.577-.268.519-.221-.059-.31-.322-.283-.578l-.075-.496a5.78 5.78 0 0 1-.586-1.783 6.34 6.34 0 0 1-.792-1.9.225.225 0 0 1-.062-.1.231.231 0 0 1-.007-.12 3.613 3.613 0 0 1-.592-1.16l-2.176-4.67a3.237 3.237 0 0 1-.564-1.212 1.507 1.507 0 0 1-.372-.87.537.537 0 0 1-.217-.24.589.589 0 0 1-.045-.33 2.411 2.411 0 0 1-.585-1.212 5.613 5.613 0 0 1-.875-2.075 6.886 6.886 0 0 1-.757-2.236.307.307 0 0 1-.055-.256.706.706 0 0 1-.214-.65 5.837 5.837 0 0 1-.399-1.783c-.262-.233-.227-.562-.262-.877a4.61 4.61 0 0 1-.447-2.191.264.264 0 0 1 .086-.202.241.241 0 0 1 .096-.051.227.227 0 0 1 .107-.003Zm-2.307 9.074a.246.246 0 0 1 .221.11c.117.321.213.65.316.979l2.204 4.625a.208.208 0 0 1 .096.205l1.129 1.592c.207.168.317.38.056.563-.262.182-.345 0-.42-.198a4.47 4.47 0 0 1-1.054-1.6.234.234 0 0 1-.096-.219 21.726 21.726 0 0 1-2.225-4.603 2.116 2.116 0 0 1-.385-1.25.275.275 0 0 1 .158-.205v.001Zm-.613 10.82c.07.014.132.053.178.11.045.058.07.13.07.205.073.007.141.04.193.095a.34.34 0 0 1 .09.204.345.345 0 0 1 .198.104.38.38 0 0 1 .098.21c.072.002.141.03.196.08a.34.34 0 0 1 .107.19 13.701 13.701 0 0 1 2.238 2.193.322.322 0 0 1 .182.098c.05.053.082.12.093.194h.041a7.68 7.68 0 0 1 1.722 1.461 9.09 9.09 0 0 1 1.721 1.513c.636.41 1.204.928 1.68 1.534a.31.31 0 0 1 .183.1.344.344 0 0 1 .086.2h.034a16.013 16.013 0 0 1 3.443 3.653c.07.019.132.059.181.115a.407.407 0 0 1 .095.199 4.54 4.54 0 0 1 1.17 1.461c.362.337.647.757.834 1.228.08.084.145.183.192.292a.227.227 0 0 1 .095.1.242.242 0 0 1 .022.14.387.387 0 0 1 .158.165c.036.07.05.15.042.23a.27.27 0 0 1 .083.241.76.76 0 0 1 .218.259.82.82 0 0 1 .092.333.305.305 0 0 1-.023.196.275.275 0 0 1-.136.133.251.251 0 0 1-.22-.088c-.09-.153-.145-.328-.22-.49a.232.232 0 0 1-.083-.205.356.356 0 0 1-.178-.143.39.39 0 0 1-.063-.228 2.13 2.13 0 0 1-.186-.3l-.992-1.556a6.199 6.199 0 0 1-1.115-1.513v-.05a.352.352 0 0 1-.182-.11.39.39 0 0 1-.094-.198l-3.394-3.594-.31-.278a7.918 7.918 0 0 1-1.735-1.505 9.376 9.376 0 0 1-1.722-1.512 6.847 6.847 0 0 1-1.673-1.534l-.296-.278a9.51 9.51 0 0 1-2.245-2.192l-.289-.329a.39.39 0 0 1-.197-.117.428.428 0 0 1-.106-.212.333.333 0 0 1-.188-.1.373.373 0 0 1-.095-.2.37.37 0 0 1-.186-.097.414.414 0 0 1-.11-.187 4.007 4.007 0 0 1-1.177-1.337 4.159 4.159 0 0 1-1.067-1.608.174.174 0 0 1-.078-.085.186.186 0 0 1-.012-.12 7.604 7.604 0 0 1-1.377-3.718l-.083-.519a2.788 2.788 0 0 1-.241-1.717 1.663 1.663 0 0 1-.206-1.074v-.321c-.069-.475-.145-.957-.2-1.461a.264.264 0 0 1 .122-.277.226.226 0 0 1 .196-.014c.032.012.06.031.084.056a.266.266 0 0 1 .073.19c.007.144.007.288 0 .432.175.323.245.697.2 1.067.113.332.135.692.062 1.037.182.32.259.695.22 1.067v.329a.368.368 0 0 0-.082.182l.082-.182c0 .27.069.54.097.81.274.643.46 1.325.55 2.024a.435.435 0 0 0 0 .19.861.861 0 0 1 0-.19.565.565 0 0 1 .161.21.615.615 0 0 1 .053.265.182.182 0 0 1 .067.098c.011.04.01.083-.005.122.047.137.114.265.2.38a.21.21 0 0 1 .089.234.425.425 0 0 1 .2.387.247.247 0 0 1 .103.227 7.303 7.303 0 0 1 1.102 1.599c.456.437.85.941 1.17 1.498ZM185.092 13.32c.358-.519.909-.526 1.433-.6l.44-.087a10.21 10.21 0 0 1 3.505-.49 26.868 26.868 0 0 1 4.6 0c.197-.05.401-.057.601-.022.2.035.391.112.563.227a8.17 8.17 0 0 1 3.181.892 3.184 3.184 0 0 1 1.653.643.234.234 0 0 1 .254.05 9.78 9.78 0 0 1 3.168 1.761 2.98 2.98 0 0 1 1.164.9 4.373 4.373 0 0 1 1.377 1.249.316.316 0 0 1 .181.102.349.349 0 0 1 .087.197.35.35 0 0 1 .207.098.383.383 0 0 1 .11.209.316.316 0 0 1 .203.092c.055.054.09.128.1.207a.302.302 0 0 1 .195.09.336.336 0 0 1 .094.203.293.293 0 0 1 .194.093.332.332 0 0 1 .089.206.31.31 0 0 1 .199.096.34.34 0 0 1 .09.211.894.894 0 0 1 .341.232.98.98 0 0 1 .21.367.3.3 0 0 1 .194.106.34.34 0 0 1 .081.216c.071.014.137.05.19.104a.41.41 0 0 1 .106.195 6.027 6.027 0 0 1 1.391 1.783.794.794 0 0 1 .344.526 7.511 7.511 0 0 1 1.378 2.192c.286.314.501.694.626 1.11.288.243.487.584.565.965a.335.335 0 0 1 .155.136.364.364 0 0 1 .051.207 22.192 22.192 0 0 1 2.066 4.384 15.736 15.736 0 0 1 1.377 3.485 6.59 6.59 0 0 1 .613 1.768 15.66 15.66 0 0 1 1.067 3.09.248.248 0 0 1 .062.256 16.02 16.02 0 0 1 1.102 3.054 21.538 21.538 0 0 1 1.123 3.34c.03.033.053.073.067.118a.32.32 0 0 1 .015.137c.101.146.186.302.255.468.055.175.055.394-.172.438-.227.044-.31-.117-.338-.321l-.124-.468a14.062 14.062 0 0 1-1.177-3.222 12.989 12.989 0 0 1-1.033-2.922.286.286 0 0 1-.062-.256 16.323 16.323 0 0 1-1.095-3.054 8.187 8.187 0 0 1-.688-2.002 31.593 31.593 0 0 1-1.329-3.441l-2.459-5.115a1.088 1.088 0 0 1-.358-.657l-.688-1.17a10.99 10.99 0 0 1-1.377-2.191l-.352-.534a9.323 9.323 0 0 1-1.377-1.87v.015a.336.336 0 0 1-.187-.109.374.374 0 0 1-.088-.205.373.373 0 0 1-.185-.114.403.403 0 0 1-.097-.2.465.465 0 0 1-.229-.147.516.516 0 0 1-.116-.255.336.336 0 0 1-.19-.1.371.371 0 0 1-.099-.2.359.359 0 0 1-.189-.106.4.4 0 0 1-.1-.2.686.686 0 0 1-.284-.171.745.745 0 0 1-.178-.29.346.346 0 0 1-.189-.101.384.384 0 0 1-.1-.199.29.29 0 0 1-.194-.08.32.32 0 0 1-.095-.197.4.4 0 0 1-.202-.094.428.428 0 0 1-.128-.191 6.865 6.865 0 0 1-1.453-1.242l-1.075-.84-3.16-1.798a.216.216 0 0 1-.131-.01.232.232 0 0 1-.103-.085 8.065 8.065 0 0 1-2.156-.84 3.432 3.432 0 0 1-1.487-.35h-.42a.438.438 0 0 1-.288.006.462.462 0 0 1-.235-.175l-.758-.095h-.358l-5.509.044-1.907.22-.819.153a3.412 3.412 0 0 1-1.439.475 1.2 1.2 0 0 1-.276-.227l.276.227c-.193-.022-.359-.008-.29-.3Zm28.694 42.617a3.798 3.798 0 0 1-.689-2.104 4.107 4.107 0 0 1 .744-2.192.41.41 0 0 1 .164-.112.39.39 0 0 1 .194-.02c.213.08.22.285.103.483a4.11 4.11 0 0 0-.509 1.395 2.882 2.882 0 0 0 .241 1.754c.117.272.29.513.505.706a1.9 1.9 0 0 0 .741.412 6.4 6.4 0 0 1 .689.204.316.316 0 0 1 .082.107.325.325 0 0 1 .028.134.277.277 0 0 1-.056.12.25.25 0 0 1-.103.078 2.08 2.08 0 0 1-1.197-.16 2.224 2.224 0 0 1-.937-.805Zm.255 8.205a4.966 4.966 0 0 1-2.369 2.418c-.221-1.848.076-1.556 1.164-2.104a6.86 6.86 0 0 1 .936-.343.89.89 0 0 1 .269.029Zm1.576-14.269c-.158-.453 0-.98-.351-1.527a3.819 3.819 0 0 1-.482 1.965c-2.61 1.922-2.864 3.208-1.239 6.24a.86.86 0 0 1 .167.403.89.89 0 0 1-.05.437c-.131 1.651-.296 3.302-.372 4.961.027.279-.046.558-.204.783-.158.225-.39.378-.65.43l-.379.124c-.275-.088-.22-.314-.234-.49-.158-3.17-.434-6.32-.736-9.498a37.742 37.742 0 0 0-1.426-7.218 26.286 26.286 0 0 0-1.811-4.581c-1.081-2.126-2.017-4.318-2.94-6.525-.53-1.278-1.102-2.542-1.639-3.799.179-.234.365-.16.537-.087 1.949.827 3.626 2.245 4.82 4.076a20.524 20.524 0 0 1 2.768 6.08c.057.247.129.491.214.73a.493.493 0 0 0 .178.227.45.45 0 0 0 .269.08.384.384 0 0 0 .268-.082.426.426 0 0 0 .152-.247c.076-.343.124-.687.207-1.03.165-.672.234-1.527.943-1.732.861-.248 1.378.497 1.839 1.14a10.365 10.365 0 0 1 1.508 4.033 13.29 13.29 0 0 1-.152 5.684c-.606.285-.943-.036-1.205-.577Zm-15.149 25.462c-.11.227-.275.395-.509.234-.234-.16-.083-.35-.034-.526.046-.13.111-.25.192-.358l.751-3.653c.06-.24.102-.484.124-.73.096-2.967.406-5.919.082-8.9a9.425 9.425 0 0 0-1.146-3.85 8.846 8.846 0 0 0-2.613-2.937 21.306 21.306 0 0 1-5.385-5.765 10.21 10.21 0 0 1-1.116-2.265c-.578-1.76-1.149-3.514-1.57-5.326-.42-1.812-.881-3.639-1.26-5.458a12.296 12.296 0 0 0-2.664-5.428 1.045 1.045 0 0 1-.124-.285c.199-.322.495-.183.73-.117a3.78 3.78 0 0 1 1.377.804 11.488 11.488 0 0 1 2.961 3.82c.489.98.929 1.988 1.377 2.974.121.383.365.709.688.92a.353.353 0 0 0 .269 0c.103-.08.241-.218.234-.328-.01-.252-.066-.5-.165-.73a37.228 37.228 0 0 0-2.486-4.918 1.268 1.268 0 0 1-.165-.248 11.564 11.564 0 0 1-.606-3.69c0-.453.351-.606.688-.3.338.308.82.826 1.226 1.25 2.084 2.158 3.578 4.875 4.324 7.862.088.339.211.667.365.979.04.062.093.113.156.148a.42.42 0 0 0 .202.056.404.404 0 0 0 .251-.123.443.443 0 0 0 .121-.264 1.192 1.192 0 0 0 0-.446 19.053 19.053 0 0 0-1.549-4.383 6.545 6.545 0 0 1-.806-2.236c-.103-.643-.289-1.271-.413-1.907a3.612 3.612 0 0 1-.076-.899 1.004 1.004 0 0 1 .168-.567.911.911 0 0 1 .452-.353.763.763 0 0 1 .491-.022.806.806 0 0 1 .411.285c.268.285.517.59.744.913a14.668 14.668 0 0 1 1.769 3.434c.489 1.359.964 2.733 1.447 4.099.131.376.283.745.454 1.103.045.09.121.157.212.19a.36.36 0 0 0 .277-.015.407.407 0 0 0 .207-.192.445.445 0 0 0 .041-.29 4.221 4.221 0 0 0-.193-.877 47.215 47.215 0 0 0-.689-1.987 8.471 8.471 0 0 1-.606-2.754 12.99 12.99 0 0 0-.392-2.192c-.103-.548-.248-1.271.234-1.527.606-.329.999.358 1.377.803.63.82 1.175 1.71 1.625 2.653 1.061 2.082 1.963 4.245 2.865 6.407.688 1.615 1.377 3.193 2.183 4.75a32.649 32.649 0 0 1 3.222 11.69c.165 1.701.296 3.411.462 5.113a78.28 78.28 0 0 1 .186 7.394c.014.399-.067.794-.237 1.15-.17.355-.423.659-.734.881-3.03 2.433-6.122 4.764-9.331 6.92l-.076.014Zm-2.754 95.463c.069.95.055.986-.861 1.191-1.067.241-2.141.467-3.222.606-2.589.344-5.13 1.008-7.699 1.461-.881.169-1.776.307-2.664.446a.619.619 0 0 1-.483-.056.683.683 0 0 1-.309-.397c-.214-.562-.475-1.103-.689-1.658a104.15 104.15 0 0 1-5.281-17.667c-.744-3.594-1.378-7.196-1.839-10.849-.227-1.951-.461-3.895-.688-5.845a6.857 6.857 0 0 1 0-1.359c.358-3.756.688-7.518 1.115-11.267.331-2.922.751-5.786 1.171-8.672.516-3.536 1.094-7.058 1.611-10.587a70.723 70.723 0 0 1 4.214-16.417c.337-.825.62-1.687.916-2.535a1.151 1.151 0 0 1 .509-.73c1.109 3.243 2.335 6.414 2.817 9.826.227 1.644.482 3.288.592 4.947a70.329 70.329 0 0 0 1.226 8.036c.775 4.038 1.535 8.086 2.279 12.143a89.21 89.21 0 0 0 5.419 18.266c.356.821.561 1.706.606 2.608.048 1.154.186 2.309.303 3.456.482 4.559.778 9.133.84 13.721 0 .555 0 1.111.076 1.659.23 2.457.244 4.933.041 7.393-.05.76-.041 1.522.028 2.28h-.028Zm1.556-99.532a124.038 124.038 0 0 0-10.473 7.569 50.806 50.806 0 0 0-4.256 3.726 21.928 21.928 0 0 0-1.377 1.534 1.299 1.299 0 0 0-.294.423c-.07.16-.108.335-.112.512a2.99 2.99 0 0 1-.379 1.462 86.238 86.238 0 0 0-3.966 11.784c-.544 2.302-.95 4.625-1.315 6.956-.758 4.771-1.501 9.542-2.176 14.32-.4 2.842-.758 5.684-1.005 8.548-.441 4.918-.923 9.827-1.605 14.708-.799 5.684-1.57 11.361-2.389 17.038-.248 1.746-.592 3.47-.895 5.202a.77.77 0 0 1-.114.372.707.707 0 0 1-.279.256 68.742 68.742 0 0 1-1.233-7.094 84.99 84.99 0 0 1-.578-15.087c.069-1.761.207-3.515.317-5.275.379-6.087.723-12.173 1.157-18.266a62.548 62.548 0 0 1 1.377-9.396 32.89 32.89 0 0 1 3.25-8.037c.971-1.848 1.983-3.653 2.982-5.494.101-.17.193-.345.275-.526.285-.692.055-1.123-.689-1.293a9.832 9.832 0 0 0-4.937.19 1.124 1.124 0 0 1-.902.058 8.803 8.803 0 0 1 1.253-2.126 99.883 99.883 0 0 1 5.943-7.532c1.708-1.966 3.491-3.85 5.302-5.7 2.024-2.06 4.021-4.15 6.032-6.217.193-.197.324-.533.778-.424-.062.972-.131 1.951-.179 2.923-.031.298-.031.6 0 .898.03.069.075.128.132.174a.425.425 0 0 0 .192.09.46.46 0 0 0 .197-.037.492.492 0 0 0 .168-.117 1.23 1.23 0 0 0 .241-.847c.069-1.308.151-2.616.151-3.924 0-1.308-.082-2.615-.117-3.923 0-.483.145-.658.585-.614a22.083 22.083 0 0 0 8.573-1.118 2.14 2.14 0 0 1 1.164-.139 19.072 19.072 0 0 1 0 3.135c-.005.271-.08.536-.216.766-.135.23-.327.418-.555.541h-.028Zm.331 1.578c-.2.927-.393 1.855-.62 2.776a2.45 2.45 0 0 1-.394.871c-.186.259-.42.475-.687.634a120.398 120.398 0 0 1-11.017 6.576c-.689.35-1.378.65-2.066.95-.26.086-.524.157-.792.211a.773.773 0 0 1 .058-.417.72.72 0 0 1 .266-.313c.654-.658 1.287-1.337 1.983-1.944a120.014 120.014 0 0 1 12.243-9.264c.282-.183.578-.336.826-.482a.32.32 0 0 1 .191.152.355.355 0 0 1 .036.25h-.027Zm-18.234-3.873a.3.3 0 0 1 .031-.132.27.27 0 0 1 .087-.1.248.248 0 0 1 .247-.023.409.409 0 0 1 .124.328.909.909 0 0 1-.179.358l-.186.505a.538.538 0 0 1-.138.263 4.33 4.33 0 0 1-1.191 1.812 1.133 1.133 0 0 1-.165.197.24.24 0 0 1-.172.074.243.243 0 0 1-.173-.074c-.123-.124 0-.249.042-.35a.77.77 0 0 1 .193-.176l.964-1.513.206-.35a.262.262 0 0 1 .103-.256c.062-.124.118-.249.173-.373a.204.204 0 0 1 .062-.19h-.028Zm-4.765-8.767a16.312 16.312 0 0 1-3.078-3.142 12.786 12.786 0 0 1-2.141-4.566c-.124-.475 0-.643.44-.73 1.55-.234 3.099-.454 4.648-.731 2.582-.388 5.185-.687 7.74-1.22 2.066-.432 4.131-.629 6.163-1.133a.423.423 0 0 1 .277.021.457.457 0 0 1 .212.19c.144.198.282.395.42.607a22.296 22.296 0 0 0 5.508 5.845c.389.285.76.598 1.109.935 1.331 1.327 2.132 3.144 2.238 5.078.062.73.089 1.41.138 2.112h.041v1.06c0 1.022 0 1.154-1.067 1.365-1.439.278-2.858.68-4.311.958-3.25.588-6.591.1-9.571-1.396a48.481 48.481 0 0 1-8.738-5.282l-.028.029Zm-2.376 12.72c.042-.615.139-1.224.29-1.82l-.062-2.586a1.91 1.91 0 0 1-.193-1.037v-.314l-.048-.84a2.653 2.653 0 0 1-.276-1.542 6.57 6.57 0 0 1-.234-3.098c0-.058.131-.16.158-.146.028.015.173.124.179.19.069.899.124 1.797.186 2.696.184.48.278.994.276 1.512l.082.512a.744.744 0 0 1 .19.337.78.78 0 0 1-.004.393c.117.329.146.686.083 1.03.22.42.296.909.213 1.381a5.234 5.234 0 0 1-.192 2.528 1.73 1.73 0 0 1-.283 1.191c0 .168-.062.344-.096.512a14.509 14.509 0 0 1-1.081 3.558.182.182 0 0 1-.032.067.158.158 0 0 1-.126.061.15.15 0 0 1-.069-.019c-.138-.05-.269-.11-.207-.306l1.253-3.99a.309.309 0 0 1-.03-.153.304.304 0 0 1 .051-.146l-.028.029Zm-3.381 11.807c.048.448-.07.899-.33 1.257l-2.754 4.544h-.235c.097-1.944.138-3.894.303-5.845a604.16 604.16 0 0 1 1.075-11.105c.096-.952.096-1.913 0-2.864a1.995 1.995 0 0 0-.129-.739 1.893 1.893 0 0 0-.388-.628 1.258 1.258 0 0 1-.288-.416 1.317 1.317 0 0 1-.104-.504 5.668 5.668 0 0 1 .31-2.813c.509-1.242.998-2.492 1.501-3.748a.808.808 0 0 1 .273.284.86.86 0 0 1 .112.388c.311 1.73.772 3.424 1.377 5.063.329.89.596 1.802.799 2.733a8.285 8.285 0 0 1 0 3.587 164.35 164.35 0 0 1-.792 3.207 20.602 20.602 0 0 0-.702 7.57l-.028.029Zm-10.893-32.41c5.915-5.115 6.301-13.882 1.522-19.866a1.491 1.491 0 0 1 1.033-.307c3.208-.35 6.424-.68 9.64-1.015 2.128-.227 4.276-.315 6.369-.731a13.48 13.48 0 0 1 4.662.139c.447.056.876.222 1.253.485.376.262.69.614.916 1.027a11.728 11.728 0 0 1 1.494 3.405c.255 1.125.565 2.236.834 3.353a74.955 74.955 0 0 0 2.547 8.885c-9.977 1.987-20.003 3.295-30.27 4.624Zm57.153 2.98a.455.455 0 0 1 .306.182.499.499 0 0 1 .093.36.575.575 0 0 1-.226.327.518.518 0 0 1-.373.089.502.502 0 0 1-.297-.191.556.556 0 0 1-.109-.35.52.52 0 0 1 .211-.338.476.476 0 0 1 .374-.079h.021Zm-41.054-35.625c.248-.197.406-.036.468.241.186.212.365.424.551.629.445.208.847.506 1.185.877a.289.289 0 0 1 .134.021.316.316 0 0 1 .114.08c.416.07.814.23 1.17.468l.53.11c1.717.08 3.437.059 5.151-.066a1.468 1.468 0 0 1 1.129-.212l1.68-.138c.225-.076.455-.13.689-.161a52.186 52.186 0 0 1 6.046-.066c.283-.024.565.056.799.227l.785.139c.284.001.556.122.757.335a.3.3 0 0 1 .031.136.3.3 0 0 1-.031.135c0 .066-.131.11-.213.146a.153.153 0 0 1-.138 0c-.42-.227-.944-.16-1.336-.49l-.448-.058h-7.051a1.846 1.846 0 0 1-1.274.227 3.379 3.379 0 0 1-1.432.087c-.413.366-.943.19-1.377.329a4.909 4.909 0 0 1-3.202 0c-.324-.102-.689 0-.978-.307l-.358-.051a1.537 1.537 0 0 1-.687-.127 1.617 1.617 0 0 1-.573-.421.167.167 0 0 1-.108-.008.184.184 0 0 1-.085-.072 2.22 2.22 0 0 1-1.184-.906.348.348 0 0 1-.181-.113.388.388 0 0 1-.088-.201c-.165 0-.227-.132-.282-.27a.462.462 0 0 1-.117-.074c-.138-.11-.262-.3-.076-.446Zm-.688 6.92c.473-.044.95.04 1.384.245.435.204.814.522 1.101.923.359.401.628.883.785 1.41-1.094.424-5.309.943-9.089 1.126-.74.248-1.52.335-2.293.255a3.612 3.612 0 0 1-1.921.263l.041-.08s0 .051-.041.08c-1.494.176-2.996.285-4.476.556-.737.131-1.122-.3-1.584-.687-.069-.051 0-.197.138-.205.136.005.271.017.406.037a2.68 2.68 0 0 1 1.377-.197c2.066-.052 4.132-.08 6.253-.11.232.042.47.031.698-.032.228-.063.441-.176.624-.333a6.218 6.218 0 0 1 2.617-2.229 9.841 9.841 0 0 1 3.986-1.023h-.006Zm-33.424 2.849c.351-.336.688-.68 1.081-.986 3.374-2.74 7.392-4.447 11.616-4.932a19.827 19.827 0 0 1 9.936 1.256 14.56 14.56 0 0 1 4.765 3.018c-.365.38-.647.643-.895.935a1.38 1.38 0 0 1-.46.346c-.174.08-.362.122-.552.122-1.329 0-2.658.087-3.987.117-2.066.058-4.18.175-6.266.131-2.472-.058-4.937.197-7.402.205-2.466.007-4.938.131-7.41.212a1.818 1.818 0 0 0-.282 0c-.117 0-.2 0-.206-.161a.405.405 0 0 1 .068-.263h-.006ZM129.64 51.428a8.158 8.158 0 0 1-2.666 2.044 7.744 7.744 0 0 1-3.212.755 7.722 7.722 0 0 1-3.23-.656 8.127 8.127 0 0 1-2.722-1.96c-1.677-1.729-2.824-3.954-3.291-6.386a14.454 14.454 0 0 1 .998-9.257 10.794 10.794 0 0 1 2.293-3.244c1.403-1.423 3.243-2.26 5.181-2.359 1.938-.098 3.845.55 5.369 1.826 1.666 1.356 2.931 3.192 3.642 5.29.621 1.753.925 3.614.895 5.487-.032 3.156-1.197 6.182-3.257 8.46Zm18.496-1.015a.203.203 0 0 1-.11.058c-5.585.35-11.169.65-16.719.957-.214-.467.11-.643.248-.87 2.885-4.909 2.995-9.95.633-15.101a11.777 11.777 0 0 0-2.403-3.31 1.976 1.976 0 0 1-.689-.928l21.126-.533a13.967 13.967 0 0 1-1.439 1.461c-.429.463-.834.95-1.212 1.461-.386.575-.729 1.18-1.026 1.812-.274.584-.505 1.19-.688 1.812a14.88 14.88 0 0 0-.414 1.907 12.15 12.15 0 0 0-.082 3.909c.071.648.184 1.29.337 1.921.163.683.373 1.352.627 2.002.247.601.535 1.182.861 1.74.316.547.688 1.066 1.026 1.585a.849.849 0 0 1-.076.117Zm.592-1.199c-1.715-2.24-2.605-5.064-2.506-7.949-.043-2.66.768-5.257 2.299-7.364a10.085 10.085 0 0 1 1.722-1.798 7.565 7.565 0 0 1 4.222-1.598 7.488 7.488 0 0 1 4.358 1.116 9.514 9.514 0 0 1 3.112 3.259 13.25 13.25 0 0 1 1.891 6.271c.101 2.23-.355 4.45-1.319 6.434a8.994 8.994 0 0 1-2.872 3.558 7.406 7.406 0 0 1-3.684 1.462c-3.085.336-5.364-.994-7.216-3.376l-.007-.015Zm7.939 24.907c.207-.825.393-1.658.689-2.462a7.988 7.988 0 0 0 .423-3.112 7.908 7.908 0 0 0-.809-3.025c-.489-1.03-1.094-1.995-1.659-2.988-.489-.862-1.026-1.688-1.467-2.58a8.213 8.213 0 0 1-1.019-3.419 6.968 6.968 0 0 1 .076-1.651c.255-1.25.358-1.359 1.508-1.213a6.198 6.198 0 0 0 1.838-.058c.375-.073.755-.11 1.137-.11a29.535 29.535 0 0 0 4.82-.482c.75-.11 1.508-.16 2.258-.263 1.598-.22 3.195-.46 4.786-.68.688-.095.854 0 .964.731a11.127 11.127 0 0 1 0 3.31c-.272 2.3-.881 4.54-1.804 6.641-.351.73-.634 1.564-.93 2.36a5.778 5.778 0 0 0-.406 3.09.78.78 0 0 1-.008.512.72.72 0 0 1-.323.38c-3.208 2.046-6.403 4.113-9.695 5.998a.701.701 0 0 1-.282 0 1.38 1.38 0 0 1-.097-.964v-.015Zm5.309 66.647c-.199 1.14-.454 2.265-.688 3.398a4.974 4.974 0 0 1-1.66 2.572 10.973 10.973 0 0 1-3.202 2.235 21.825 21.825 0 0 1-10.411 1.995c-2.717-.226-5.319-1.262-7.506-2.988-1.509-1.165-2.665-2.773-3.326-4.625a28.756 28.756 0 0 1-1.446-6.145 107.07 107.07 0 0 1-.626-14.481c0-2.323.069-4.639.11-6.955.124-5.341.262-10.682.585-16.015.097-1.556.303-3.105.434-4.662.131-1.556.22-2.922.31-4.383.055-1.001.076-2.01.11-3.018a.606.606 0 0 1 .12-.419.535.535 0 0 1 .362-.21 33.585 33.585 0 0 0 8.408-3.25c7.574-3.807 14.818-8.19 21.986-12.75.531-.336 1.061-.68 1.598-1a.484.484 0 0 1 .54-.044.523.523 0 0 1 .204.206.561.561 0 0 1 .068.29c.047.451.07.905.069 1.36a47.801 47.801 0 0 1-.454 5.844c-.31 2.923-.689 5.794-.799 8.724-.165 4.025-.303 8.037-.565 12.077-.309 4.822-.571 9.651-.998 14.474-.427 4.822-.971 9.498-1.453 14.269-.447 4.566-.998 9.059-1.77 13.516v-.015Zm-6.713 131.512c-1.26-.044-1.426-.336-1.316-1.556.185-1.551.277-3.113.276-4.676v-1.812a64.46 64.46 0 0 1 1.012-13.378 91.748 91.748 0 0 0 1.68-14.079c.131-3.068.441-6.13.689-9.191.124-1.607.275-3.207.372-4.822.234-3.872.688-7.723 1.081-11.573.558-5.261 1.418-10.477 2.01-15.723.372-3.302.689-6.612.958-9.922.268-3.31.599-6.627.736-9.951.269-4.173.331-8.358.186-12.537-.206-3.653-.42-7.35-.557-11.025-.097-2.47-.09-4.939-.104-7.409.012-.402.065-.801.159-1.191a98.726 98.726 0 0 0 1.583-9.819c.551-4.757 1.095-9.498 1.598-14.262.275-2.55.468-5.114.689-7.672.275-3.565.532-7.133.771-10.703.137-2.192.241-4.325.337-6.488a4.366 4.366 0 0 1 .406-1.732 39.603 39.603 0 0 1 2.28-4.179c.771-1.213 1.519-2.43 2.244-3.653a26.672 26.672 0 0 1 6.604-7.642 39.234 39.234 0 0 1 8.711-5.392 2.198 2.198 0 0 1 1.198-.336c.117.628-.406.84-.689 1.162a712.707 712.707 0 0 1-6.776 6.918 107.622 107.622 0 0 0-10.976 12.896 16.98 16.98 0 0 0-1.893 3.185c-.31.731 0 1.228.757 1.126.61-.1 1.213-.244 1.804-.431a9.465 9.465 0 0 1 3.677-.227c.29 0 .434.263.31.504-.199.402-.427.79-.633 1.184-1.192 2.294-2.465 4.537-3.588 6.868a30.093 30.093 0 0 0-2.506 8 92.073 92.073 0 0 0-1.185 10.652c-.137 2.411-.365 4.822-.509 7.233-.262 4.428-.482 8.856-.73 13.283a73.711 73.711 0 0 0 0 8.461c.179 2.973.496 5.918.923 8.862.304 2.14.734 4.258 1.287 6.342.209.776.252 1.593.124 2.389-.413 2.681-.847 5.363-1.225 8.037a126.227 126.227 0 0 0-.689 5.845 1017.2 1017.2 0 0 0-1.081 11.12c-.241 2.557-.448 5.114-.689 7.679-.199 2.257-.392 4.515-.613 6.772-.309 3.208-.42 6.43-.447 9.659-.041 5.999 0 11.997-.152 17.995-.082 4.231-.282 8.468-.544 12.691-.254 3.968-.688 7.928-.991 11.895-.255 3.163-.455 6.327-.689 9.498 0 .307-.034.606-.062.906-.048.409-.248.562-.571.38a3.505 3.505 0 0 0-2.355-.3c-.958.14-1.926.196-2.892.168v-.029Zm16.884-5.684a63.902 63.902 0 0 0-.634 8.884c.044.328-.008.663-.151.957a20.743 20.743 0 0 1-7.575.329 7.255 7.255 0 0 1-2.754-1.081c-1.102-.687-2.183-1.425-3.264-2.148-.062-.037-.069-.154-.138-.307.944-.19 1.853-.351 2.72.256.165.097.345.163.531.197a.707.707 0 0 0 .554-.062c.17-.095.3-.256.361-.45a4.22 4.22 0 0 0 .179-1.03c.414-5.37.806-10.747 1.212-16.117.179-2.309.4-4.618.558-6.927.365-5.377.53-10.769.579-16.161.045-6.195.123-12.391.234-18.587.041-2.067.234-4.128.399-6.181.227-2.813.496-5.618.757-8.424.207-2.258.427-4.515.648-6.765.241-2.558.502-5.115.737-7.665.302-3.317.729-6.575 1.232-9.885.432-2.835.879-5.665 1.343-8.49.399-2.425.867-4.844 1.239-7.306.572-3.733 1.081-7.467 1.618-11.2.193-1.294.4-2.579.6-3.873a2.679 2.679 0 0 1 .206-1.541v-.607a1.76 1.76 0 0 1 0-.423c0-.081.103-.147.159-.22.052.079.093.165.123.256.011.144.011.288 0 .431v1.206c.469 2.922.875 5.845 1.433 8.767a107.84 107.84 0 0 0 6.362 21.568c.207.482.393.884-.034 1.359a2.23 2.23 0 0 0-.372 1.279c-.324 3.002-.689 5.998-.806 9.023a1413.52 1413.52 0 0 1-.909 18.996c-.316 5.63-.69 11.259-1.122 16.884-.331 4.216-.689 8.432-1.281 12.618-.365 2.696-.633 5.4-.95 8.103a266.815 266.815 0 0 1-2.148 14.773c-.538 3.222-1.205 6.371-1.646 9.564Zm17.4 56.988c-.282-4.931-.688-9.849-1.005-14.78-.227-3.361-.413-6.737-.688-10.097-.303-3.917-.544-7.84-1.047-11.741 0-.3-.055-.6-.069-.899-.014-.3.096-.519.489-.541h.289c3.374.11 6.741-.117 10.109-.256 2.231-.094 4.455-.306 6.686-.46.186 0 .379-.051.564-.058.393 0 .544.109.565.482v.453c-.2 3.375-.11 6.751-.186 10.126-.131 5.948-.33 11.895-.296 17.93-.303 7.467-.186 15.029-.317 22.591a85.674 85.674 0 0 1-.688 9.498c-.138 1.103-.262 2.191-.407 3.295-.041.299-.137.591-.185.884a1.073 1.073 0 0 1-.208.465.972.972 0 0 1-.392.302 10.39 10.39 0 0 1-5.508 1.257 25.191 25.191 0 0 1-5.963-1.403.767.767 0 0 1-.404-.288.85.85 0 0 1-.161-.487 25.808 25.808 0 0 1-.31-3.003c0-3.024-.131-6.049-.275-9.067-.159-4.77-.303-9.505-.572-14.232l-.021.029Zm17.05-38.898 17.71-1.717c.2.856.302 1.734.303 2.616.062 3.229.579 6.422.772 9.637.124 2.009.282 4.018.413 6.034.172 2.609.351 5.224.502 7.84.124 2.111.255 4.223.317 6.342.11 3.879.523 7.737.833 11.602.131 1.556.214 3.112.317 4.676.317 5.078.62 10.156.964 15.233.083 1.199.31 2.39.475 3.588.055.431-.041.614-.372.65a44.389 44.389 0 0 0-9.116 2.309 73.015 73.015 0 0 0-11.369 4.734c-.165.088-.337.154-.455.205-.351-.088-.261-.336-.268-.504-.072-2.185-.941-4.255-2.424-5.772a2.284 2.284 0 0 1-.755-1.19 2.4 2.4 0 0 1 .066-1.433c.243-1.026.4-2.072.469-3.127.365-3.558.654-7.116.688-10.704a4504.7 4504.7 0 0 1 .4-29.634c.103-6.758.268-13.509.413-20.26a1.905 1.905 0 0 1 .138-1.154l-.021.029Zm-6.197 80.836a.959.959 0 0 1-.28.502.856.856 0 0 1-.505.228c-1.481.337-2.961.731-4.456.987-3.787.73-7.574 1.183-11.43 1.614-3.684.417-7.368.797-11.644.928-.689 0-1.894-.058-3.133-.117a5.433 5.433 0 0 1-2.452-.73 2.026 2.026 0 0 1-.661-.501 2.165 2.165 0 0 1-.422-.736 2.267 2.267 0 0 1 .099-1.686 6.83 6.83 0 0 1 1.246-2.009 15.695 15.695 0 0 1 2.204-2.141c5.881-4.727 12.582-8.18 19.721-10.163a5.1 5.1 0 0 1 3.326.125 15.857 15.857 0 0 0 5.687 1.256 10.784 10.784 0 0 0 4.965-1.132c.689-.365.799-.322 1.377.285 1.363 1.359 2.266 3.156 2.569 5.114.034.3.062.599.096.899a1.3 1.3 0 0 1-.103.804 1.197 1.197 0 0 1-.551.562c-.62.373-1.22.783-1.797 1.228a30.752 30.752 0 0 0-1.908 1.57 5.674 5.674 0 0 0-1.921 3.084l-.027.029Zm43.546-7.891a7.842 7.842 0 0 1 .964 4.647 3.808 3.808 0 0 1-.56 1.85 3.516 3.516 0 0 1-1.375 1.284 15.592 15.592 0 0 1-3.188 1.264 49.572 49.572 0 0 1-7.409 1.498c-4.82.614-9.641 1.22-14.426 1.732-3.023.321-6.046.73-9.09.73a15.019 15.019 0 0 1-4.386-.351 4.469 4.469 0 0 1-2.589-1.738 3.424 3.424 0 0 1-.344-3.427 5.08 5.08 0 0 1 1.274-1.79 22.986 22.986 0 0 1 4.558-3.339 63.973 63.973 0 0 1 9.799-4.479c2.864-1.081 5.791-1.936 8.724-2.761.868-.242 1.763-.38 2.651-.541a.503.503 0 0 1 .421.034.534.534 0 0 1 .167.144.59.59 0 0 1 .101.202c.268.73.902.964 1.577 1.11 1.411.219 2.849.162 4.241-.168a14.6 14.6 0 0 0 3.016-.891.808.808 0 0 1 .799.058c2.085 1.118 3.848 2.812 5.102 4.903l-.027.029Zm-.771-69.993c-.152 4.997-.29 9.176-.737 13.341-.269 2.506-.386 5.019-.606 7.533-.227 2.659-.503 5.311-.737 7.971-.255 2.959-.489 5.918-.744 8.884-.335 3.96-.674 7.922-1.019 11.887-.117 1.41-.241 2.813-.344 4.216-.213 2.966-.434 5.932-.585 8.899.024.324-.063.646-.247.906a1.252 1.252 0 0 1-.752.504c-1.71.617-3.502.945-5.309.972a8.264 8.264 0 0 1-1.274-.132 1.152 1.152 0 0 1-.495-.27c-.179-.161 0-.366 0-.548a5.415 5.415 0 0 0-.083-.731 39.314 39.314 0 0 1-.64-5.392c-.331-5.231-.648-10.462-1.006-15.686-.199-2.967-.482-5.926-.688-8.885a147.409 147.409 0 0 1-.331-5.435c-.158-4.581-.544-9.155-.785-13.729a280.336 280.336 0 0 0-.647-9.198c-.266-3.064-.537-6.072-.813-9.023v-.453a.542.542 0 0 1 .244-.58.481.481 0 0 1 .204-.063c1.26-.22 2.527-.461 3.794-.651 2.6-.252 5.184-.661 7.74-1.227 1.652-.438 3.284-.979 4.923-1.461.269-.081.468 0 .524.292.069.295.115.596.137.899.035 2.615.4 5.275.303 7.13l-.027.03Zm2.375-11.887a9.086 9.086 0 0 1-3.801 2.579 41.367 41.367 0 0 1-8.862 2.191c-2.83.307-5.639.804-8.449 1.316-1.825.328-3.677.504-5.508.694-3.12.321-6.246.643-9.365.891-7.106.563-14.213 1.154-21.346 1.081a72.201 72.201 0 0 1-9.186-.869c-.985-.139-1.97-.329-2.961-.46a3.264 3.264 0 0 1-1.932-.883 3.615 3.615 0 0 1-1.057-1.93 15.538 15.538 0 0 1-.53-3.42 54.9 54.9 0 0 1 .723-11.142c.689-4.383 1.536-8.709 2.238-13.078.496-3.076.902-6.173 1.295-9.271.475-3.741.915-7.496 1.342-11.244.241-2.105.475-4.202.641-6.313.381-4.773.739-9.547 1.074-14.32.262-3.872.475-7.745.689-11.617.296-5.743.53-11.485.853-17.221.111-2.009.372-4.011.593-6.013.089-.818.247-1.001 1.094-1.118 1.378-.182 2.81-.46 4.208-.73 3.401-.731 6.803-1.381 10.205-2.061.082 0 .179.037.337.073 0 .636.048 1.286.083 1.937.179 3.521.316 7.05.557 10.564.111 1.659.42 3.296.599 4.947.297 2.754.517 5.516.854 8.263.689 5.304.861 10.645 1.164 15.979.282 4.778.482 9.556.627 14.349.068 2.192.365 4.384.564 6.619.159 1.812.4 3.61.468 5.422.214 5.487.565 10.959.606 16.468.092 2.62.322 5.232.689 7.825.103.898.255 1.79.393 2.681.033.433.216.838.513 1.138.298.299.688.471 1.098.484 1.184.139 2.362.256 3.539.431 1.79.256 3.567.563 5.357.826 1.171.175 2.348.358 3.533.453 6.396.535 12.819.618 19.225.248 1.136-.073 2.286 0 3.443-.095 1.611-.102 3.216-.255 4.82-.387.689-.051.648-.044.778.548a4.512 4.512 0 0 1-.058 2.238 4.3 4.3 0 0 1-1.119 1.897l-.028.03Zm8.952-8.001a43.5 43.5 0 0 1-6.032 1.79 40.534 40.534 0 0 1-9.33.972c-1.329 0-2.658.117-3.987.183-3.443.16-6.845.175-10.26 0a210.254 210.254 0 0 1-8.263-.585c-1.185-.102-2.348-.38-3.526-.548-2.066-.299-4.131-.577-6.197-.862-.186 0-.379-.037-.565-.066-.688-.124-.916-.307-1.026-1.045-.213-1.461-.385-2.995-.578-4.493-.353-3.253-.55-6.523-.592-9.797-.145-4.881-.372-9.769-.62-14.613-.103-1.965-.331-3.916-.579-5.845-.344-2.754-.358-5.531-.447-8.292-.172-5.115-.524-10.266-.778-15.402-.152-2.966-.345-5.932-.689-8.884-.255-2.192-.516-4.384-.688-6.612-.221-2.609-.655-5.188-.937-7.789-.179-1.651-.241-3.317-.31-4.975-.142-3.41-.271-6.834-.385-10.273a20.77 20.77 0 0 1 0-1.965 84.152 84.152 0 0 0-.186-10.119c0-.453-.042-.906-.049-1.359-.08-4.031-.353-8.054-.819-12.055-.041-.351 0-.731-.055-1.067.448.066.503.46.654.731a42.71 42.71 0 0 0 3.643 5.589c2.34 2.976 5.647 4.91 9.268 5.421 2.486.444 5.022.462 7.513.051a21.656 21.656 0 0 0 3.718-1.023c2.376-.876 4.731-1.812 7.086-2.754a31.073 31.073 0 0 0 4.785-2.667c.579-.358.778-.818.53-1.045-.392-.358-.688 0-1.019.19-3.987 2.645-8.4 4.209-12.842 5.684a19.74 19.74 0 0 1-11.258.183c-2.695-.69-5.109-2.28-6.886-4.537a40.635 40.635 0 0 1-5.392-9.045 83.35 83.35 0 0 1-5.763-18.266 1619.445 1619.445 0 0 1-3.051-16.139 51.175 51.175 0 0 1-.688-5.239 43.883 43.883 0 0 0-2.755-12.764c-.296-.73-.537-1.46-.847-2.36 5.062-2.06 9.524-4.931 13.958-7.868a131.906 131.906 0 0 0 13.421-9.959c.916-.789 1.769-1.665 2.658-2.506.22-.204.468-.16.551.11.082.27.227.73.337 1.154a120.23 120.23 0 0 1 3.353 15.132c.475 3.083.799 6.188.999 9.308.199 3.12.468 6.224.723 9.337.089 1.103.2 2.192.317 3.31.034.245.114.481.234.694a.393.393 0 0 0 .351.153c.11 0 .282-.168.289-.263.035-.45.035-.902 0-1.351-.33-3.617-.627-7.226-.861-10.843a107.696 107.696 0 0 0-2.065-15.854c-.297-1.374-.579-2.748-.875-4.121a.342.342 0 0 1-.009-.214.322.322 0 0 1 .119-.173.298.298 0 0 1 .269 0c.888.49 1.769.979 2.644 1.461 1.501.87 3.002 1.731 4.483 2.63.484.303.945.648 1.377 1.03 5.088 4.27 9.183 9.725 11.968 15.942a80.881 80.881 0 0 1 4.482 12.041 65.448 65.448 0 0 1 1.928 10.514 531.21 531.21 0 0 1 1.047 12.04c.193 2.558.317 5.115.434 7.694.268 5.991.509 11.982.764 17.973.179 4.026.399 8.037.53 12.077.172 4.939.283 9.878.4 14.817.082 3.653.124 7.255.179 10.886.062 4.742-.131 9.498-.393 14.204a60.14 60.14 0 0 0-.076 2.718c0 3.879-.048 7.766 0 11.646.051 3.48.3 6.955.744 10.404.82 6.853 1.908 13.648 3.195 20.413a87.602 87.602 0 0 0 3.939 14.335c.293.576.48 1.206.551 1.856a5.665 5.665 0 0 1-1.749.935l-.014.029ZM179.99 71.834l.055.073-.055-.073Z"/>
  <path fill="#FDEAFF" d="M214.185 27.471c0 .146.152.227.214.344l-.214-.344Zm-34.14 44.422a.181.181 0 0 0 .152.073l-.097-.044s-.041-.014-.055-.029Zm-.11-.117a.583.583 0 0 1 0-.102.163.163 0 0 0 0 .102Zm46.762.234a.154.154 0 0 0 .096.035.155.155 0 0 0 .097-.035.14.14 0 0 1-.042-.051l-.151.05Zm5.426 4.83a.178.178 0 0 0 .22 0 .123.123 0 0 1-.062-.052l-.158.051ZM206.9 18.075l-.138.05a.16.16 0 0 0 .1.036.16.16 0 0 0 .1-.035s-.048-.037-.062-.051Zm-19.273-5.159-.111-.05.111.05Zm48.455 67.7a.129.129 0 0 0 0-.161l-.048.139.048.022ZM176.836 20.69a.157.157 0 0 0-.075.154l.075-.154Zm-11.43 9.995.055-.102h-.048a.187.187 0 0 1-.007.102Zm11.485-10.046.049-.051.13-.044a.173.173 0 0 0-.107.01.185.185 0 0 0-.085.07v.037-.037l.013.015Zm-16.67 18.084a2.292 2.292 0 0 0-.947-.508 2.205 2.205 0 0 0-1.06-.01 2.275 2.275 0 0 0-.955.487 2.462 2.462 0 0 0-.654.886 4.209 4.209 0 0 0-.151 3.346 3.505 3.505 0 0 0 1.377 1.87c.27.21.578.356.906.429.327.072.665.07.991-.008.326-.077.633-.228.9-.442a2.45 2.45 0 0 0 .646-.797 3.477 3.477 0 0 0 .489-1.892 4.356 4.356 0 0 0-.394-1.876 4.103 4.103 0 0 0-1.148-1.485Zm-.544 4.01c-.058.216-.171.41-.328.56-.156.15-.35.25-.557.29a1.062 1.062 0 0 1-.617-.07 1.13 1.13 0 0 1-.488-.407 3.021 3.021 0 0 1-.588-1.428 3.093 3.093 0 0 1 .188-1.545c.07-.221.198-.416.37-.56a1.083 1.083 0 0 1 1.232-.126c.194.106.356.271.464.474a3.38 3.38 0 0 1 .544 2.01 5.188 5.188 0 0 1-.22.825v-.022Zm1.239.878a.61.61 0 0 1-.372.131c-.262-.044-.427-.438-.379-.862.035-.256.131-.504.414-.526.067 0 .134.015.195.044a.49.49 0 0 1 .163.124c.083.138.148.288.192.446 0 .328-.041.54-.213.664v-.021Zm-31.269-4.596a2.117 2.117 0 0 0-.767-.783 1.969 1.969 0 0 0-2.056.034c-.31.196-.566.474-.744.808a3.37 3.37 0 0 0-.344.664 6.014 6.014 0 0 0-.434 2.428 6 6 0 0 0 .572 2.395c.201.413.483.776.826 1.066.19.193.415.343.661.44a1.83 1.83 0 0 0 1.527-.084c.235-.123.445-.297.615-.51.253-.297.464-.631.626-.993.335-.73.498-1.534.475-2.345a5.608 5.608 0 0 0-.957-3.12Zm-1.377 4.45a.876.876 0 0 1-.305.265.821.821 0 0 1-.767 0 .876.876 0 0 1-.305-.265 2.788 2.788 0 0 1-.505-.942 2.894 2.894 0 0 1-.122-1.075 2.648 2.648 0 0 1 .42-1.607.948.948 0 0 1 .297-.314.858.858 0 0 1 .813-.074.908.908 0 0 1 .343.256 3.25 3.25 0 0 1 .669 1.85 3.279 3.279 0 0 1-.51 1.906h-.028Zm1.322.825a.39.39 0 0 1-.248.124c-.261 0-.482-.416-.44-.81.041-.395.206-.424.468-.512.103.073.268.124.317.234.089.146.131.32.119.494a.822.822 0 0 1-.188.47h-.028Zm184.872-.175a13.924 13.924 0 0 0-2.631-5.8 12.88 12.88 0 0 0-4.854-3.859 19.933 19.933 0 0 0-13.083-1.33c-7.857 1.695-14.178 8.373-16.285 16.622a11.64 11.64 0 0 0 .689 8.365c1.997 3.975 5.281 6.057 9.337 6.927 1.367.22 2.749.322 4.131.307.441 0 .765.08.964.628.2.548.593.49.792 0 .101-.276.292-.504.537-.643.379-.212.758-.416 1.15-.6a29.165 29.165 0 0 1 5.929-2.074c.558-.124.689 0 .813.519.096.387.186.781.254 1.176a.769.769 0 0 1-.03.435.725.725 0 0 1-.259.34 31.577 31.577 0 0 1-4.503 2.564c-.241.124-.455 0-.51-.314-.117-.643-.22-1.286-.358-1.93a.282.282 0 0 0-.127-.17.254.254 0 0 0-.203-.026.277.277 0 0 0-.176.104.31.31 0 0 0-.065.203 7.34 7.34 0 0 0 .255 2.082.85.85 0 0 1-.025.588.78.78 0 0 1-.396.413 3.955 3.955 0 0 0-1.377 1.278.968.968 0 0 0-.089 1c.082.155.203.28.349.366a.86.86 0 0 0 .477.117 8.623 8.623 0 0 0 1.508-.285 6.9 6.9 0 0 1 .737 3.34c0 .606.454.73.744.986.289.255.447-.132.688-.285.847-.621 1.047-.57 1.667.336a4.25 4.25 0 0 0 1.377 1.461 1.358 1.358 0 0 0 1.3.154 1.43 1.43 0 0 0 .555-.403c.152-.18.262-.394.321-.628.101-.333.154-.68.158-1.03a3.269 3.269 0 0 0-.083-.898c-.186-.833-.096-1.126.854-1.345a6.61 6.61 0 0 0 .813-.263c.177-.068.346-.159.502-.27a.328.328 0 0 0 .14-.166.351.351 0 0 0 .012-.221.314.314 0 0 0-.122-.178.284.284 0 0 0-.202-.049c-.365.066-.73.175-1.101.248a.308.308 0 0 1-.271-.035.336.336 0 0 1-.149-.242c-.097-.402-.159-.79.247-1.074a2.02 2.02 0 0 0 .737-.906c.124-.253.15-.547.073-.82a1.091 1.091 0 0 0-.486-.641 1.054 1.054 0 0 0-.509-.241c-.978 0-1.144-.687-1.247-1.462-.034-.248-.131-.482-.186-.73a.777.777 0 0 1-.023-.443.74.74 0 0 1 .223-.376 5.32 5.32 0 0 0 .503-.54c.334-.3.564-.711.654-1.167.09-.455.034-.929-.159-1.347 2.018-1.307 3.87-2.615 5.647-4.04a12.296 12.296 0 0 0 3.03-3.565 13.85 13.85 0 0 0 1.633-4.939 14.07 14.07 0 0 0-.291-5.224Zm-18.13 26.207c-.288.16-.614.226-.937.19-.137 0-.282-.153-.199-.292.241-.42.618-.731 1.06-.877.172-.058.365.227.344.519a.483.483 0 0 1-.063.276.445.445 0 0 1-.205.184Zm1.652-7.635c-1.039.373-1.019.358-1.198-.73-.399-2.382-.826-4.757-1.246-7.131a33.87 33.87 0 0 1-.131-.892.307.307 0 0 1 .043-.213.276.276 0 0 1 .171-.123 9.034 9.034 0 0 0 2.293-.993c.337 1.629.454 3.236.874 4.778.42 1.541.785 2.988 1.184 4.552a8.619 8.619 0 0 1-1.99.752Zm1.329-14.78a.312.312 0 0 1 .145-.148.286.286 0 0 1 .2-.02.329.329 0 0 1 .178.108.359.359 0 0 1 .083.198c.031.194.031.392 0 .585-.103.628-.303.95-1.143 1.848a3.948 3.948 0 0 1 .537-2.571Zm-1.969 21.655c-.089-.27-.255-.555 0-.833.1-.105.22-.187.351-.24a59.019 59.019 0 0 0 4.683-2.616c.054.09.1.185.137.285.042.54.469 1.088.234 1.585-.234.497-.915.35-1.377.555-1.177.504-2.375.95-3.56 1.462-.213.043-.385.05-.468-.198Zm5.97 6.276a.791.791 0 0 1-.163.328.736.736 0 0 1-.286.21.698.698 0 0 1-.673-.077 3.753 3.753 0 0 1-.923-.914c-.689-.876-.627-1.008.351-1.395.131-.059.262-.124.393-.168 1.143-.417 1.315-.665 1.377 1.242-.002.26-.027.52-.076.774Zm.64-6.977c0-.059.131-.11.207-.168a.69.69 0 0 1 .337.068c.105.05.197.127.269.224a.449.449 0 0 1 0 .54.517.517 0 0 1-.169.227.473.473 0 0 1-.258.095.381.381 0 0 1-.24-.134.423.423 0 0 1-.097-.268 2.794 2.794 0 0 1-.049-.584Zm-.068 2.922c.089.198.082.395-.117.497a4.643 4.643 0 0 1-.655.27c-.929.33-1.859.643-2.788.965a.87.87 0 0 1-.593.307c-.113.123-.249.22-.4.284-.15.064-.312.094-.474.088a.228.228 0 0 1-.109-.04.246.246 0 0 1-.077-.091.314.314 0 0 1 .09-.256c.196-.126.398-.24.605-.343l.6-.27a32.626 32.626 0 0 1 3.408-1.725c.289-.117.413.132.51.35v-.036Zm-.655-2.352c.29 1.074.297 1.088-.688 1.556a32.122 32.122 0 0 0-3.925 2.046.326.326 0 0 1-.329.07.34.34 0 0 1-.146-.099.373.373 0 0 1-.083-.161c-.688-2.046-.688-2.104 1.233-2.923a13.463 13.463 0 0 1 3.718-1.183c.103.35.165.54.22.73v-.036Zm.524-6.196a4.434 4.434 0 0 1-.503.73c-.048.066-.165.074-.248.103-.082.03-.158-.102-.179-.175-.076-.234-.103-.483-.172-.731-.207-.687.11-.913.689-.73.516.102.661.401.413.84v-.037Zm10.274-15.387a12.367 12.367 0 0 1-1.254 5.302 11.6 11.6 0 0 1-3.374 4.13c-1.522 1.206-3.112 2.31-4.696 3.405-.392.27-.647.73-1.067.884-.47.072-.946.09-1.419.051a2.823 2.823 0 0 0-.427.044c-.833.11-.998.322-1.287-.862a57.922 57.922 0 0 1-1.522-6.575c-.055-.453-.076-.906-.152-1.352a1.798 1.798 0 0 1 .047-.951c.101-.306.284-.575.525-.773a4.74 4.74 0 0 0 1.281-2.316 2.224 2.224 0 0 0-.166-1.462 1.028 1.028 0 0 0-.291-.373.935.935 0 0 0-.874-.172.986.986 0 0 0-.398.238c-.32.312-.557.708-.688 1.148a6.999 6.999 0 0 0-.338 2.528c.022.224-.02.45-.121.65-.1.2-.255.362-.443.467a4.696 4.696 0 0 1-1.667.811.538.538 0 0 1-.486-.05.622.622 0 0 1-.271-.431 13.683 13.683 0 0 0-1.095-2.777 2.57 2.57 0 0 0-1.109-1.14.77.77 0 0 0-.975.179.874.874 0 0 0-.175.325 1.938 1.938 0 0 0-.041 1.184c.142.64.408 1.244.781 1.77.374.525.846.963 1.388 1.284.249.133.463.328.625.569.162.24.267.519.305.812.523 2.761 1.081 5.523 1.473 8.314.09.606.083.614-.475.891a8.937 8.937 0 0 1-2.196 1.053c-.8.056-1.603.005-2.39-.154a18.985 18.985 0 0 1-3.959-.41c-3.36-.985-6.197-2.732-7.974-6.078a10.115 10.115 0 0 1-1.005-7.014 22.682 22.682 0 0 1 4.212-9.4c2.09-2.733 4.766-4.895 7.804-6.308a17.43 17.43 0 0 1 7.925-1.79c2.981-.085 5.945.51 8.69 1.746 2.25 1.115 4.139 2.909 5.434 5.157a14.05 14.05 0 0 1 1.845 7.483v-.037Zm-20.004 3.946c0 .073-.062.175-.11.248-.048.073-.097 0-.131 0a3.367 3.367 0 0 1-1.043-1.168 3.61 3.61 0 0 1-.431-1.543c0-.065.104-.124.186-.212.124.05.24.119.345.205a5.892 5.892 0 0 1 1.184 2.47Zm40.778 261.021a12.664 12.664 0 0 0 2.266-4.669 13.785 13.785 0 0 0-.882-9.403c-2.065-4.523-5.508-7.306-10.191-7.986-4.797-.688-9.673.382-13.82 3.032-3.412 2.184-6.194 5.321-8.043 9.067a24.28 24.28 0 0 0-2.437 12.18 10.521 10.521 0 0 0 1.887 5.458c2.919 4.135 6.982 5.508 11.657 5.114a28.97 28.97 0 0 0 4.187-.855c.344-.08.482.051.689.292.495.563.75.504.854-.219.065-.341.25-.644.516-.847a28.537 28.537 0 0 1 5.233-3.895c1.598-.913 1.274-1.081 2.19.819a.765.765 0 0 1-.09.957 29.101 29.101 0 0 1-3.911 3.821c-.25-.2-.436-.479-.53-.796-.172-.41-.337-.833-.523-1.235a.353.353 0 0 0-.07-.131.314.314 0 0 0-.392-.074.405.405 0 0 0-.175.231.434.434 0 0 0 .017.295c.104.386.247.758.427 1.111.145.163.254.358.32.571.066.213.086.439.061.661a1.586 1.586 0 0 1-.21.626c-.112.19-.262.351-.44.473a2.24 2.24 0 0 0-.606 1.176.94.94 0 0 0-.026.485.894.894 0 0 0 .222.425c.11.117.249.199.401.235.152.037.31.027.457-.027a4.17 4.17 0 0 0 .785-.336 3.09 3.09 0 0 1 .503-.271c.11 0 .33 0 .371.11.441.877 1.164 1.622 1.274 2.652.069.679.524.774.957.921.434.146.434-.242.606-.475a1.943 1.943 0 0 1 1.068-.731 7.058 7.058 0 0 0 1.659 1.41 1.596 1.596 0 0 0 1.88.081c.296-.219.516-.535.626-.9a1.844 1.844 0 0 0-.02-1.117 12.139 12.139 0 0 0-.413-1.279c-.255-.73-.234-.84.351-1.249.241-.168.489-.307.73-.468.172-.088.329-.204.468-.343.145-.168.358-.38.165-.636a.387.387 0 0 0-.523-.058c-.255.139-.489.307-.744.446-.254.139-.44.102-.647-.3a.76.76 0 0 1 0-.833c.192-.285.35-.594.468-.92a1.164 1.164 0 0 0-.047-1.015 1.09 1.09 0 0 0-.341-.378c-.14-.096-.3-.154-.465-.171a1.556 1.556 0 0 0-.84 0c-.414.11-.62-.117-.785-.46a79.72 79.72 0 0 0-.655-1.345.762.762 0 0 1 0-.847c.176-.297.33-.607.462-.928.209-.34.296-.749.244-1.152a1.722 1.722 0 0 0-.527-1.04l.51-.592c1.308-1.548 2.61-3.083 3.842-4.668Zm-9.874 15.343c-.134.2-.307.369-.506.495a1.603 1.603 0 0 1-.651.235c-.055-.087-.165-.175-.145-.233.057-.26.163-.504.314-.716.151-.213.342-.39.561-.519a.237.237 0 0 1 .129.009.246.246 0 0 1 .105.079c.11.197.331.423.193.65Zm-.964-7.219c-.303.212-.461.139-.627-.285-.867-2.228-1.866-4.383-2.871-6.575-.227-.49-.455-.979-.689-1.542a10.044 10.044 0 0 0 2.238-1.753c.462 1.066.833 2.023 1.274 2.922.441.899.937 1.856 1.432 2.769.496.913 1.013 1.819 1.57 2.806a75.944 75.944 0 0 1-2.327 1.658Zm-1.708-15.182a.35.35 0 0 1 .207-.161.264.264 0 0 1 .2.026.285.285 0 0 1 .13.164c.441 1.008.152 1.878-.461 2.798a3.662 3.662 0 0 1-.076-2.827Zm9.826 26.777a3.708 3.708 0 0 1-2.134-1.461l2.065-1.461c.277.302.494.66.637 1.053.143.393.21.812.197 1.234a.725.725 0 0 1-.072.289.676.676 0 0 1-.182.228.615.615 0 0 1-.538.118h.027Zm-.172-7.817a1.29 1.29 0 0 1 .524-.044c.199 0 .302.204.358.402a.94.94 0 0 1-.105.346.9.9 0 0 1-.226.275.249.249 0 0 1-.227 0 1.226 1.226 0 0 1-.413-.731c-.042-.088.013-.234.075-.248h.014Zm-.103 2.922a.357.357 0 0 1 .307-.14.364.364 0 0 1 .285.184.452.452 0 0 1 .126.398.457.457 0 0 1-.083.199.41.41 0 0 1-.16.133c-.689.461-1.336.906-2.011 1.359a4.615 4.615 0 0 1-1.501 1.126.188.188 0 0 1-.227.095.247.247 0 0 1-.074.163.215.215 0 0 1-.16.063c-.035 0-.097-.051-.097-.08 0-.146.083-.219.207-.249l.145-.248a3.423 3.423 0 0 1 1.329-1.264l1.914-1.739Zm-.875-2.411c.333.364.582.804.73 1.286a1.281 1.281 0 0 1-.213.365c-.31.307-.641.585-.971.877a22.624 22.624 0 0 0-2.837 2.703.296.296 0 0 1-.104.101.275.275 0 0 1-.274 0 .296.296 0 0 1-.104-.101 8.645 8.645 0 0 1-.517-.891c-.585-1.162-.723-1.023.372-1.885a30.109 30.109 0 0 1 2.899-2.148c.201-.132.413-.245.634-.336a.46.46 0 0 1 .358.029h.027Zm-.468-1.162c-.186.395-.523.497-.805.658a30.243 30.243 0 0 0-3.443 2.572c-.186.146-.365.35-.599.087a.663.663 0 0 1-.254-.432.705.705 0 0 1 .109-.496 3.8 3.8 0 0 1 .406-.416 42.873 42.873 0 0 0 3.615-3.595c.524.49.592 1.147.944 1.622h.027Zm-.737-3.536a2.01 2.01 0 0 1-.688-1.227c-.062-.227.089-.373.289-.417.18-.046.366-.063.551-.051.282 0 .385.212.379.497a1.885 1.885 0 0 1-.558 1.198h.027Zm.234-2.922c0 .255-.199.306-.385.343-.811.22-1.601.515-2.362.884-.399-.051-.475-.387-.613-.628-1.301-2.338-2.706-4.618-3.567-7.197l-.254-.731a.953.953 0 0 1 .068-.854c.18-.298.341-.608.482-.928.291-.637.425-1.34.393-2.046a3.408 3.408 0 0 0-.11-.731 1.489 1.489 0 0 0-.384-.709 1.351 1.351 0 0 0-.684-.379c-.468-.073-1.012.467-1.143 1.147a7.311 7.311 0 0 0 0 2.703c.055.3.172.585.207.877a.866.866 0 0 1-.096.57 5.314 5.314 0 0 1-1.708 1.571.522.522 0 0 1-.744-.198c-.317-.496-.626-1.001-.957-1.497a6.895 6.895 0 0 0-1.177-1.308 2.107 2.107 0 0 0-.889-.446.8.8 0 0 0-.423-.028.834.834 0 0 0-.384.193.892.892 0 0 0-.246.367.942.942 0 0 0-.048.447c.061.657.33 1.273.764 1.746a4.747 4.747 0 0 0 2.506 1.63c.187.024.365.097.519.211.153.115.278.268.363.446 1.28 2.696 2.603 5.37 3.684 8.169.045.142.075.289.089.438-.11.109-.206.212-.317.307a10.872 10.872 0 0 1-2.065 1.79 9.26 9.26 0 0 1-2.5.475c-.744.146-1.48.343-2.231.475-3.285.591-8.401-.6-10.976-4.019-1.332-1.658-2.124-3.729-2.259-5.903-.318-5.511 1.321-10.948 4.593-15.241 2.945-3.951 7.128-6.649 11.789-7.606a18.937 18.937 0 0 1 6.934-.365c2.623.403 5.061 1.669 6.971 3.619 1.91 1.95 3.195 4.487 3.675 7.253a12.615 12.615 0 0 1-.128 5.241 12.178 12.178 0 0 1-2.241 4.673c-1.116 1.498-2.355 2.923-3.519 4.384-.206.256-.606.431-.654.884l.027-.029Zm-11.705-5.97c-1.247-.642-2.128-1.242-2.473-2.44a.315.315 0 0 1 .016-.136.285.285 0 0 1 .074-.112.26.26 0 0 1 .248-.051c.283.177.546.388.785.628a6.155 6.155 0 0 1 1.308 2.141l.042-.03Zm-224.412-42.77a20.494 20.494 0 0 0-13.675-.942c-4.129 1.112-7.833 3.552-10.604 6.984-2.425 2.841-4.12 6.295-4.924 10.032a11.329 11.329 0 0 0-.158 4.724 11.04 11.04 0 0 0 1.777 4.336 13.44 13.44 0 0 0 4.344 4.055 12.597 12.597 0 0 0 5.564 1.687c.8.073 1.612.073 2.417.11.613.036 1.233 0 1.46.862.07.248.558.248.579.044.082-.731.633-.965 1.129-1.198a32.944 32.944 0 0 1 6.197-2.287c1.005-.249 1.033-.344 1.302.877.048.197.04.401.103.591a.85.85 0 0 1 0 .585.79.79 0 0 1-.372.431 31.828 31.828 0 0 1-3.877 2.192 1.093 1.093 0 0 1-.433.227 1.051 1.051 0 0 1-.483.014c-.137-.731-.275-1.498-.42-2.236a.272.272 0 0 0-.119-.178.24.24 0 0 0-.204-.026c-.117 0-.29.175-.29.263.005.492.06.982.166 1.461.227.891.11 1.541-.758 1.958-.435.22-.782.598-.977 1.067-.303.73 0 1.359.764 1.337a16.13 16.13 0 0 0 1.721-.241c.11 1.234.758 2.235.572 3.455-.076.468.413.629.689.855.275.227.468-.073.688-.285a1.404 1.404 0 0 1 1.04-.409c.358 0 .42.49.613.731.31.506.696.955 1.143 1.329.212.208.477.346.761.397.285.052.578.014.843-.107s.491-.322.652-.576c.16-.255.247-.554.25-.861a7.818 7.818 0 0 0 0-1.205c0-.3-.048-.599-.069-.899a.506.506 0 0 1 .1-.268.461.461 0 0 1 .224-.163l1.377-.467c.177-.061.344-.15.496-.263a.327.327 0 0 0 .121-.181.34.34 0 0 0-.018-.221c-.055-.146-.137-.285-.296-.249-.372.081-.737.198-1.108.278-.228.051-.338-.102-.393-.314-.096-.336-.22-.672.159-.935a2.73 2.73 0 0 0 .523-.512c.723-.92.461-1.936-.654-2.148a1.165 1.165 0 0 1-.867-.415 1.312 1.312 0 0 1-.25-.441 1.36 1.36 0 0 1-.068-.51 4.09 4.09 0 0 0-.172-.731.957.957 0 0 1-.033-.588.909.909 0 0 1 .315-.486 3 3 0 0 0 .496-.54c.44-.614.833-1.25.468-2.075-.144-.322.097-.431.297-.563a54.643 54.643 0 0 0 5.405-3.916 12.497 12.497 0 0 0 3.433-4.472 13.272 13.272 0 0 0 1.201-5.625 14.733 14.733 0 0 0-2.138-8.015c-1.457-2.382-3.558-4.241-6.029-5.334Zm-10.383 36.071c-.358.066-.689.336-1.082.153-.185-.095.159-.628.69-.993.075-.056.156-.105.24-.146.269-.146.53.065.537.423a.492.492 0 0 1-.08.361.45.45 0 0 1-.135.124.416.416 0 0 1-.17.056v.022Zm.77-7.306a11.513 11.513 0 0 1-.495-2.704c-.379-2.016-.737-4.04-1.095-6.064-.096-.562-.069-.686.393-.73.77-.103 1.377-.68 2.162-.855.255 3.229 1.163 6.239 1.997 9.352l-2.961 1.001Zm2.184-12.939a.993.993 0 0 1-.104.263c-.09.109-.192.241-.35.16a.318.318 0 0 1-.11-.234c-.07-.39.006-.793.213-1.125a2.17 2.17 0 0 1 .543-1.344.293.293 0 0 1 .241-.095.267.267 0 0 1 .112.076.304.304 0 0 1 .068.121c.097.39.092.801-.016 1.188a2.214 2.214 0 0 1-.597 1.004v-.014Zm-1.9 19.485a.766.766 0 0 1 .116-.95c.207-.131.42-.241.634-.35a39.23 39.23 0 0 0 3.897-2.192c.275-.183.51-.154.6.292.089.446.171.884.275 1.461a30.49 30.49 0 0 0-4.896 1.827c-.22.073-.448.131-.627-.139v.051Zm6.059 5.765a1.12 1.12 0 0 1-.108.585 1.03 1.03 0 0 1-.388.43.867.867 0 0 1-.558.023.916.916 0 0 1-.468-.322 5.536 5.536 0 0 1-1.205-1.695l2.43-.935a4.12 4.12 0 0 1 .297 1.863v.051Zm.647-6.656c.317-.124.881.248.854.548a.848.848 0 0 1-.117.348.796.796 0 0 1-.248.258c-.165.102-.351.205-.448-.066a6.055 6.055 0 0 1-.192-.869.298.298 0 0 1 .029-.176.277.277 0 0 1 .122-.124v.081Zm-.18 3.09c.09.263.09.534-.171.629-1.281.467-2.569.906-3.856 1.351a.548.548 0 0 1-.214.215.512.512 0 0 1-.289.063c-.14.096-.293.165-.454.204-.159 0-.193-.124 0-.233a.903.903 0 0 1 .273-.376.832.832 0 0 1 .415-.18 40.634 40.634 0 0 1 3.801-1.921c.241-.19.4-.095.496.197v.051Zm-.653-2.506c.337 1.242.344 1.242-.744 1.783a38.472 38.472 0 0 0-3.932 2.06.883.883 0 0 1-.31.044 10.27 10.27 0 0 1-.612-2.287 4.931 4.931 0 0 1 1.893-.971 13.22 13.22 0 0 1 3.085-1.06.46.46 0 0 1 .388.047.51.51 0 0 1 .232.333v.051Zm.599-6.254a.762.762 0 0 1-.083.278c-.179.277-.31.73-.647.694-.337-.037-.317-.519-.406-.833a.977.977 0 0 1 0-.139c-.062-.467.069-.606.599-.562.116.021.231.051.344.087.193.03.22.219.193.424v.051Zm5.192-5.341c-1.426 1.082-2.913 2.083-4.366 3.12-.234.161-.53.234-.688.533-.159.3-.345.3-.593.285a6.676 6.676 0 0 0-2.12.176c-.338.095-.503-.066-.6-.431-.757-2.857-1.604-5.685-1.845-8.665a1.493 1.493 0 0 1 .048-.731 1.42 1.42 0 0 1 .386-.607 5.574 5.574 0 0 0 1.184-1.68 2.905 2.905 0 0 0 .2-2.053 1.072 1.072 0 0 0-.245-.501.989.989 0 0 0-.453-.295.943.943 0 0 0-.532-.004.978.978 0 0 0-.457.289 2.473 2.473 0 0 0-.592 1.008 8.191 8.191 0 0 0-.393 2.674c.003.247-.06.49-.182.701a1.261 1.261 0 0 1-.506.49c-.443.293-.92.524-1.419.687-.489.146-.689.036-.854-.475a11.982 11.982 0 0 0-.895-2.382 7.473 7.473 0 0 0-.627-1.008 1.377 1.377 0 0 0-.688-.512.827.827 0 0 0-.82.066.914.914 0 0 0-.292.326.976.976 0 0 0-.114.434 2.912 2.912 0 0 0 .22 1.461 5.028 5.028 0 0 0 2.135 2.543c.193.095.362.239.491.418.13.179.216.389.253.612.475 2.615.957 5.231 1.425 7.854.063.44.102.884.117 1.33l-2.61 1.351a.94.94 0 0 1-.543.088c-1.508-.153-3.03-.227-4.524-.453-3.843-.577-7.038-2.375-9.145-5.94a9.964 9.964 0 0 1-1.37-3.816 10.175 10.175 0 0 1 .248-4.075c2.066-8.19 6.886-13.801 14.598-16.227a19.196 19.196 0 0 1 13.255.665c2.989 1.253 5.414 3.67 6.779 6.757a14.125 14.125 0 0 1 .568 9.85c-.811 2.494-2.368 4.639-4.434 6.108v.029Zm-14.826-5.34c-1.108-.804-1.735-1.615-1.866-2.784a.326.326 0 0 1 .029-.211.295.295 0 0 1 .15-.14.446.446 0 0 1 .386.117 8.129 8.129 0 0 1 1.301 2.966v.052ZM61.16 101.556c-.581-2.94-2.028-5.609-4.131-7.62-5.702-5.692-12.354-8.08-20.135-6.225-4.205.953-8.035 3.247-10.976 6.576a11.103 11.103 0 0 0-2.843 5.49 11.524 11.524 0 0 0 .475 6.243c.932 2.99 2.782 5.563 5.253 7.307.792.555 1.598 1.074 2.404 1.614.33.227.592.49.468.979a.911.911 0 0 0 .076.439c.062.197.468.328.571.146.248-.446.62-.417.999-.388a29.16 29.16 0 0 1 6.7 1.257c1.205.373 1.198.395.798 1.666a4.347 4.347 0 0 0-.117.431.864.864 0 0 1-.315.48.781.781 0 0 1-.532.156c-1.618.117-3.222-.073-4.82-.125-.378 0-.475-.197-.344-.613.2-.614.427-1.22.613-1.841 0-.088-.117-.263-.214-.358-.096-.095-.255 0-.35.102a2.664 2.664 0 0 0-.524 1.22c-.241 1.001-.689 1.593-1.763 1.461a1.876 1.876 0 0 0-1.329.461.815.815 0 0 0-.261.3.877.877 0 0 0 0 .794.818.818 0 0 0 .261.301c.245.148.498.283.758.402.289.161.688.088.915.489-.42 1.001-.289 2.251-1.08 3.164a.492.492 0 0 0-.042.533c.088.334.235.646.434.921.158.183.44-.139.688-.124.379.057.754.14 1.123.248 0 .431 0 .84.082 1.228.053.498.16.988.317 1.461a1.6 1.6 0 0 0 .454.763c.218.202.487.333.774.377.286.043.579-.003.841-.133.263-.13.484-.337.637-.598.257-.36.474-.75.648-1.162.509-1.103.502-1.103 1.666-.833.275.066.558.125.833.161a.653.653 0 0 0 .406-.044.622.622 0 0 0 .234-.329.29.29 0 0 0-.117-.241c-.44-.175-.888-.328-1.425-.526.13-.643.262-1.154.978-1.139.285-.026.558-.132.792-.307.136-.078.255-.186.348-.318a1.185 1.185 0 0 0 .179-.933 1.143 1.143 0 0 0-.204-.437 5.801 5.801 0 0 0-.688-.731.534.534 0 0 1-.165-.238.574.574 0 0 1-.021-.295c.165-.636.351-1.257.544-1.878a.68.68 0 0 1 .195-.309.617.617 0 0 1 .321-.151c.233-.04.464-.099.689-.175.847-.329 1.535-.819 1.535-1.951a52.643 52.643 0 0 0 6.005-.365 12.217 12.217 0 0 0 5.88-2.075c2.192-1.593 3.887-3.843 4.867-6.463a14.98 14.98 0 0 0 .635-8.245ZM31.675 121.13c.396-.27.859-.408 1.329-.395.2 0 .372.095.379.351.006.255-.124.54-.372.57-.247.045-.5.021-.735-.071a1.425 1.425 0 0 1-.601-.455Zm4.662 8.964a.742.742 0 0 1-.302.254.693.693 0 0 1-.735-.102.771.771 0 0 1-.23-.327 4.506 4.506 0 0 1-.393-2.017c0-.241.2-.328.393-.314.75.04 1.49.211 2.19.504a4.674 4.674 0 0 1-.944 2.002h.02Zm1.9-2.74c-.689-.109-1.377-.255-2.066-.394-.371-.08-.73-.175-1.094-.263a.963.963 0 0 1-.472.006 1 1 0 0 1-.424-.218l-.495-.073h-.538c-.089 0-.068-.051-.103-.073-.034-.022.062-.146.11-.161a.726.726 0 0 1 .255 0h.276a5.193 5.193 0 0 1 1.714 0 2.696 2.696 0 0 1 1.563.234c.468 0 .937 0 1.377.058.207 0 .303.205.283.424-.02.219-.11.512-.406.46h.02Zm1.047-2.922c-.248 1.191-.269 1.205-1.377 1.132h-.283c-1.08-.095-2.169-.233-3.25-.27-1.294-.051-1.46.219-1.005-1.359.082-.292.179-.577.275-.855a.415.415 0 0 1 .17-.23.376.376 0 0 1 .27-.055c1.652.132 3.286.446 4.876.936a.5.5 0 0 1 .17.112.536.536 0 0 1 .157.381.563.563 0 0 1-.038.208h.035Zm.289-1.388a27.836 27.836 0 0 0-5.144-1.082c-.172 0-.385 0-.427-.284a.953.953 0 0 1 .127-.491.877.877 0 0 1 .355-.342c.14-.019.28-.019.42 0 1.653.16 3.306.19 4.958.182.076 0 .159.073.296.139-.11.417-.213.848-.344 1.271a5.386 5.386 0 0 1-.262.607h.021Zm1.088 1.68a.435.435 0 0 1 .143.329.453.453 0 0 1-.143.329.984.984 0 0 1-.372.182c-.29.073-.475-.095-.413-.38.032-.198.085-.391.158-.577 0-.073.131-.117.2-.175.172-.029.296.139.392.292h.035Zm-.75-8.292c-.496-.103-.992-.198-1.481-.315l-1.494-.365c-.193-.343.041-.584.137-.847.95-2.506 1.77-5.064 2.569-7.635.158-.504.22-.57.688-.373.742.182 1.498.283 2.259.3a39.235 39.235 0 0 0-1.563 4.661c-.4 1.498-.744 2.988-1.136 4.574h.02Zm-.758-11.997c-.269-.979-.503-1.958 0-2.923a.325.325 0 0 1 .22-.16.256.256 0 0 1 .196.054.283.283 0 0 1 .1.187c.049.394.09.789.131 1.14-.082.606-.151 1.147-.24 1.695 0 .058-.132.146-.207.146a.253.253 0 0 1-.22-.139h.02Zm3.615 14.897c-.25.289-.595.466-.964.497a.246.246 0 0 1-.245-.084.287.287 0 0 1-.052-.267c.05-.19.104-.372.16-.562.054-.19.11-.482.35-.592.241-.11.613.175.792.468.037.088.062.182.076.277a.979.979 0 0 1-.138.263h.021Zm12.112-3.573a10.042 10.042 0 0 1-4.413 1.586c-2.025.234-4.063.358-6.101.526-.228 0-.469-.095-.689.095a.394.394 0 0 1-.262.101.394.394 0 0 1-.261-.101 13.23 13.23 0 0 0-2.528-1.271c.613-2.441 1.054-4.764 1.84-6.978.247-.73.55-1.388.819-2.082a1.2 1.2 0 0 1 .353-.552c.164-.145.364-.237.576-.266a4.841 4.841 0 0 0 1.818-.833 2.749 2.749 0 0 0 1.164-1.659c.062-.192.07-.401.019-.597a1.028 1.028 0 0 0-.302-.506.986.986 0 0 0-.501-.268.957.957 0 0 0-.56.056c-.398.173-.764.42-1.08.731a6.217 6.217 0 0 0-1.308 1.775 1.348 1.348 0 0 1-.564.641 1.233 1.233 0 0 1-.814.148 8.476 8.476 0 0 1-1.136-.087c-.812-.132-.895-.285-.744-1.206.198-.881.298-1.783.297-2.689a3.157 3.157 0 0 0-.269-1.315.982.982 0 0 0-.321-.448.89.89 0 0 0-1.016-.057.965.965 0 0 0-.364.41 3.647 3.647 0 0 0-.44 2.192c.015.91.267 1.798.73 2.565a1.202 1.202 0 0 1 .103 1.132c-.847 2.667-1.646 5.348-2.624 7.971-.372 1.016-.516.84-1.253.782a45.52 45.52 0 0 1-1.983-.197.986.986 0 0 1-.517-.198c-1.163-1.044-2.527-1.79-3.739-2.754-2.356-1.835-4.045-4.474-4.785-7.474a10.6 10.6 0 0 1-.114-5.16 10.206 10.206 0 0 1 2.324-4.536c2.507-2.995 5.768-5.167 9.4-6.261 7.904-2.448 14.783-.365 20.746 5.487a14.44 14.44 0 0 1 3.1 4.486 14.125 14.125 0 0 1 .644 9.32c-.849 3.088-2.718 5.748-5.265 7.491h.02ZM44.2 105.94a4.427 4.427 0 0 1 1.75-2.082.435.435 0 0 1 .392 0 .388.388 0 0 1 .14.245.407.407 0 0 1-.058.281 2.95 2.95 0 0 1-.928 1.073 2.734 2.734 0 0 1-1.296.483Zm37.329-65.07h19.521c.425-.005.849.029 1.267.103a.5.5 0 0 1 .284.22.556.556 0 0 1 .074.365.51.51 0 0 1-.115.347.453.453 0 0 1-.312.164c-.326.05-.655.075-.984.073-13.111.054-26.222.1-39.332.139a4.85 4.85 0 0 1-1.13-.102.513.513 0 0 1-.28-.223.567.567 0 0 1-.078-.362.515.515 0 0 1 .118-.346.46.46 0 0 1 .309-.165c.423-.053.848-.08 1.274-.08h19.384v-.132Zm21.332-6.802a.738.738 0 0 1-.239.439.662.662 0 0 1-.449.168c-.324-.08-.641-.19-.951-.3l-8.758-3.112-26.952-9.498c-.537-.19-1.067-.41-1.584-.65a.512.512 0 0 1-.247-.264.556.556 0 0 1-.021-.372.675.675 0 0 1 .266-.361.611.611 0 0 1 .422-.1c.365.096.73.22 1.088.344l19.68 6.963 16.031 5.677c.454.16.895.336 1.336.518.1.052.187.13.253.225a.747.747 0 0 1 .125.323Zm1.708 14.021c-.041.095-.076.336-.207.431a11.85 11.85 0 0 1-1.218.73l-19.7 11.157-13.435 7.54c-.372.22-.756.415-1.15.585a.482.482 0 0 1-.351-.02.523.523 0 0 1-.255-.258.518.518 0 0 1 .062-.687c.34-.272.699-.516 1.074-.73l16.065-9.023 17.214-9.688c.372-.22.753-.42 1.143-.6a.567.567 0 0 1 .504.092.62.62 0 0 1 .177.206c.044.08.07.172.077.265Zm173.62-15.635a.331.331 0 0 1-.079.225.294.294 0 0 1-.203.104.692.692 0 0 1-.392-.095c-1.653-.986-3.443-1.6-5.165-2.455-1.721-.855-3.491-1.768-5.233-2.652a6.9 6.9 0 0 1-.503-.285c-.165-.102-.323-.27-.241-.49.083-.219.393-.262.599-.182.53.226 1.033.49 1.55.73 1.797.884 3.594 1.776 5.391 2.653.944.46 1.901.891 2.844 1.359.423.215.833.459 1.226.73.117.095.165.263.206.358ZM27.543 68.05c.097.044.262.058.345.16.224.259.427.538.606.833 1.79 2.923 3.76 5.685 5.687 8.49.324.442.58.935.758 1.462a.4.4 0 0 1-.105.408.353.353 0 0 1-.122.074.267.267 0 0 1-.209.007.288.288 0 0 1-.156-.146c-2.066-3.383-4.573-6.415-6.535-9.863a2.695 2.695 0 0 1-.523-1.06c0-.197.09-.285.254-.365Zm26.49 193.066c.131.059.407.154.689.285 3.002 1.622 6.121 3.083 9.227 4.545.425.212.834.456 1.226.73.08.056.14.14.168.237a.46.46 0 0 1-.017.297.326.326 0 0 1-.206.189.3.3 0 0 1-.269-.051c-3.36-1.826-6.948-3.141-10.267-5.055a2.22 2.22 0 0 1-.943-.629.376.376 0 0 1-.041-.27c.034-.161.11-.285.433-.278Zm232.055 33.149c.454.094 1.15.248 1.852.372 2.802.497 5.605 1.001 8.414 1.461a4.329 4.329 0 0 1 1.488.468.31.31 0 0 1 .133.168.335.335 0 0 1-.002.219.354.354 0 0 1-.103.186.316.316 0 0 1-.187.085.317.317 0 0 1-.137 0c-3.092-.797-6.28-.95-9.379-1.681-.923-.219-1.845-.446-2.754-.687a.282.282 0 0 1-.149-.152.277.277 0 0 1-.022-.11.293.293 0 0 1 .019-.11.525.525 0 0 1 .172-.198.22.22 0 0 1 .138-.036l.517.015ZM51.162 281.676a32.913 32.913 0 0 0-4.634.19.731.731 0 0 1-.406-.088.435.435 0 0 1-.166-.219.309.309 0 0 1 .002-.217.288.288 0 0 1 .143-.156.942.942 0 0 1 .386-.168 17.46 17.46 0 0 1 1.838-.19h6.542a3.472 3.472 0 0 1 1.535.249.32.32 0 0 1 .124.248c0 .139 0 .3-.2.329-.138.025-.279.04-.42.044l-4.744-.022Zm261.457-10.558c.093.01.182.045.259.101a.583.583 0 0 1 .181.221c.394.689.755 1.398 1.082 2.126.984 2.448 1.934 4.917 2.892 7.379.055.192.069.394.041.592a.31.31 0 0 1-.067.122.28.28 0 0 1-.112.075.3.3 0 0 1-.262-.044 1.475 1.475 0 0 1-.427-.73c-.468-1.206-.929-2.419-1.411-3.653-.689-1.761-1.377-3.529-2.259-5.21-.103-.211-.289-.416-.213-.694a.362.362 0 0 1 .104-.194.329.329 0 0 1 .192-.091Zm-224.99-14.239a4.598 4.598 0 0 1-.075.562.285.285 0 0 1-.112.178.245.245 0 0 1-.198.041c-.09 0-.213-.08-.227-.146a14.497 14.497 0 0 1-.269-1.322c-.31-2.287-.599-4.581-.923-6.868-.117-.84-.323-1.673-.482-2.513-.055-.3.097-.563.31-.563a.384.384 0 0 1 .264.084c.075.06.128.147.15.245.22.767.397 1.548.53 2.338.378 2.689.702 5.384 1.032 7.964ZM300.445 22.7a.47.47 0 0 1-.121.283.42.42 0 0 1-.265.134.397.397 0 0 1-.183-.09.436.436 0 0 1-.12-.173 26.765 26.765 0 0 1-.296-1.93c-.317-2.783-.647-5.574-1.219-8.314a1.749 1.749 0 0 1-.034-.599.288.288 0 0 1 .079-.199.257.257 0 0 1 .189-.079.31.31 0 0 1 .2.04.34.34 0 0 1 .138.158c.134.322.238.657.31 1 .275 1.623.564 3.245.791 4.881.228 1.637.359 3.083.531 4.625a1.65 1.65 0 0 1 0 .263Zm13.234-5.545c-.103.818-.227 1.965-.392 3.098-.248 1.68-.524 3.36-.778 5.04a3.497 3.497 0 0 1-.386 1.418.295.295 0 0 1-.241.08.292.292 0 0 1-.2-.153 3.277 3.277 0 0 1 .042-1.461c.172-1.286.385-2.572.557-3.858.207-1.534.393-3.076.6-4.61.029-.298.086-.591.172-.877a.447.447 0 0 1 .289-.263c.227 0 .33.168.337.38.007.212 0 .577 0 1.206ZM62.462 72.331c.022.3-.023.6-.131.877a37.788 37.788 0 0 1-1.646 4.808c-.503 1.293-1.046 2.571-1.577 3.857-.09.234-.186.46-.289.687-.103.227-.234.35-.434.278-.2-.073-.255-.395-.186-.629.105-.333.227-.66.365-.979.413-1.066.854-2.126 1.247-3.2.612-1.688 1.198-3.383 1.797-5.07.083-.241.151-.475.24-.73a.344.344 0 0 1 .138-.161.314.314 0 0 1 .2-.044c.193-.008.214.153.276.306Zm4.407 19.968c-.152-.102-.234-.249-.172-.387a4.52 4.52 0 0 1 .44-.73c1.864-2.529 3.732-5.05 5.605-7.563.09-.116.19-.223.296-.321.131-.117.262-.052.38 0 .06.04.103.103.124.175.02.073.015.15-.015.22a2.876 2.876 0 0 1-.268.525c-.379.578-.744 1.162-1.157 1.71-1.377 1.834-2.796 3.653-4.194 5.487-.216.273-.446.534-.688.782-.062.087-.241.08-.351.102ZM292.98 313.063c0 .088 0 .227-.062.256a3.127 3.127 0 0 1-.64.285c-2.982.796-5.956 1.607-8.855 2.681a1.14 1.14 0 0 1-.407.081.345.345 0 0 1-.227-.147.308.308 0 0 1-.073-.2c0-.075.026-.146.073-.201.09-.115.2-.209.324-.278.47-.232.953-.432 1.446-.599 2.323-.687 4.65-1.359 6.982-2.017a5.243 5.243 0 0 1 1.116-.124.31.31 0 0 1 .207.069c.059.048.1.117.116.194ZM11.548 81.318c.165.015.329.047.489.095.31.123.613.264.908.424 2.307 1.264 4.531 2.674 6.762 4.091.278.188.537.406.772.65a.443.443 0 0 1 .075.417.352.352 0 0 1-.093.11.329.329 0 0 1-.268.06.328.328 0 0 1-.128-.06c-1.432-.877-2.843-1.79-4.283-2.638a44.623 44.623 0 0 0-4.131-2.323.78.78 0 0 1-.344-.256.67.67 0 0 1-.07-.41c.008-.05.16-.087.31-.16ZM329.42 280.711v1.104a.252.252 0 0 1-.101.187.223.223 0 0 1-.202.032c-.082 0-.206-.066-.234-.132a2.348 2.348 0 0 1-.137-.57c-.276-2.498-.537-4.997-.813-7.488-.062-.548-.165-1.096-.22-1.644a11.277 11.277 0 0 1-.055-1.191.258.258 0 0 1 .165-.197c.131 0 .317 0 .372.116.126.225.21.473.248.731.127.588.223 1.183.289 1.783.227 2.316.413 4.668.688 7.269Zm-224.231-11.587c-.138.044-.228 0-.234-.132a1.123 1.123 0 0 1 0-.57c.212-.447.466-.87.757-1.264a68 68 0 0 1 4.992-5.764c.239-.319.549-.57.902-.731a.327.327 0 0 1 .207-.017.34.34 0 0 1 .179.112.327.327 0 0 1 0 .409c-.15.191-.311.372-.482.541-1.632 1.673-3.175 3.441-4.676 5.246-.461.562-.854 1.198-1.274 1.804-.082.183-.206.373-.371.366ZM324.924 26.412a1.018 1.018 0 0 1-.393.592c-1.673 1.702-3.243 3.507-4.785 5.333a18.713 18.713 0 0 0-1.543 2.148.236.236 0 0 1-.171.115.238.238 0 0 1-.194-.064.498.498 0 0 1-.158-.38c.174-.623.491-1.19.923-1.65 1.088-1.33 2.196-2.63 3.312-3.924a46.642 46.642 0 0 1 1.9-2.017 3.15 3.15 0 0 1 .689-.475c.062-.036.186 0 .255.074.066.073.122.157.165.248ZM77.72 98.275c.12.016.235.048.345.095.075.05.129.129.152.22a.34.34 0 0 1-.062.263c-.14.13-.305.226-.482.285-2.066.496-4.008 1.176-5.991 1.855a12.33 12.33 0 0 0-2.885 1.228.36.36 0 0 1-.276.062.374.374 0 0 1-.24-.157c-.11-.183 0-.38.144-.519.1-.107.213-.198.337-.27.37-.225.755-.423 1.15-.592a67.877 67.877 0 0 1 6.886-2.272c.324-.088.668-.14.923-.198Zm263.909 179.828c.012.2-.034.398-.131.57-.619 1.132-1.246 2.258-1.825 3.412a30.606 30.606 0 0 0-2.472 5.582c-.048.175-.185.38-.426.248a.422.422 0 0 1-.199-.205.472.472 0 0 1-.036-.292c.081-.446.201-.884.358-1.307a65.405 65.405 0 0 1 3.691-7.475c.172-.299.331-.628.689-.73a.319.319 0 0 1 .207.036.342.342 0 0 1 .144.161ZM99.24 261.291h-.27c-.233-.299-.137-.621-.061-.942l.09-.804c.233-.394 0-.884.213-1.278.124-1.096.227-2.192.379-3.288.237-1.381.41-2.773.516-4.172a1.302 1.302 0 0 1 0-.153c0-.263.145-.534.399-.541.255-.007.4.241.4.519a10.1 10.1 0 0 1-.062 1.205c-.386 2.988-.806 5.962-1.377 8.921-.083.161-.07.395-.228.533ZM14.206 98.356h1.418c.096 0 .241.205.248.322a.447.447 0 0 1-.072.193.413.413 0 0 1-.149.135 2.474 2.474 0 0 1-.688.11 49.595 49.595 0 0 0-6.197.606 9.289 9.289 0 0 1-1.274.066.339.339 0 0 1-.264-.1.38.38 0 0 1-.115-.273c0-.204.145-.343.337-.416.09-.03.182-.05.276-.058l6.514-.731-.034.146Zm36.626 201.037c-.056-.109-.173-.241-.166-.365a.653.653 0 0 1 .22-.365 72.136 72.136 0 0 1 6.157-4.567c.227-.153.454-.38.77-.306.09.023.169.08.221.16a.314.314 0 0 1 0 .271.887.887 0 0 1-.282.321 66.949 66.949 0 0 0-5.784 4.333 5.485 5.485 0 0 1-.854.533c-.048.037-.158-.007-.282-.015ZM263.729 64.835c-.096-.08-.2-.124-.227-.205a.41.41 0 0 1 0-.284 1.36 1.36 0 0 1 .282-.322c1.88-1.534 3.794-3.01 5.805-4.34.689-.46 1.205-.533 1.233-.241.068.614-.482.672-.813.899a81.546 81.546 0 0 0-4.744 3.572c-.378.304-.771.584-1.178.84a1.138 1.138 0 0 1-.358.081Zm28.088 267.239c-.076-.146-.186-.263-.193-.395a.755.755 0 0 1 .151-.401 65.276 65.276 0 0 1 4.765-6.006 4.02 4.02 0 0 1 .689-.555c.041 0 .179.043.241.102.062.058.144.197.124.256a1.63 1.63 0 0 1-.289.504c-1.522 1.724-2.92 3.572-4.277 5.45a6.987 6.987 0 0 1-.778.877c-.117.095-.289.109-.433.168ZM46.982 72.178a6.813 6.813 0 0 1 .049-2.243.323.323 0 0 1 .114-.18.29.29 0 0 1 .195-.061.28.28 0 0 1 .196.08.314.314 0 0 1 .093.198c.07.73.104 1.46.166 2.25.13 1.71.275 3.412.4 5.114.03.401.03.805 0 1.206a.331.331 0 0 1-.084.201.297.297 0 0 1-.185.098.25.25 0 0 1-.196-.038.278.278 0 0 1-.114-.174 4.834 4.834 0 0 1-.152-.884 567.85 567.85 0 0 1-.482-5.567Zm237.529-54.643a.347.347 0 0 1 .206.026c.064.03.12.08.159.142a3693.48 3693.48 0 0 1 4.372 6.846c.073.124.109.27.103.416 0 .073-.075.183-.144.234a.348.348 0 0 1-.255.044.444.444 0 0 1-.22-.176c-1.377-2.09-2.755-4.179-4.132-6.29a1.335 1.335 0 0 1-.344-.957c.021-.14.083-.285.255-.285Zm22.461 269.051a.271.271 0 0 1-.03.104.254.254 0 0 1-.259.144.711.711 0 0 1-.385-.146 554.958 554.958 0 0 1-5.309-4.735 2.066 2.066 0 0 1-.689-.913c0-.087 0-.241.041-.277a.504.504 0 0 1 .365-.132.803.803 0 0 1 .351.234l5.041 4.603c.282.263.544.555.806.84a.8.8 0 0 1 .068.278ZM71.703 252.064c.268 0 .378.234.51.438 1.197 1.863 2.41 3.712 3.6 5.582.258.414.488.846.689 1.293a.449.449 0 0 1-.026.21.423.423 0 0 1-.119.17c-.082.059-.254 0-.385-.058-.131-.059-.07-.059-.09-.102a471.2 471.2 0 0 1-4.049-6.16 1.937 1.937 0 0 1-.42-1.088.308.308 0 0 1 .09-.205.274.274 0 0 1 .2-.08Zm235.717 86.001c.131-.731.282-1.629.441-2.521.266-1.424.615-2.83 1.046-4.208.077-.235.181-.458.31-.665.035-.058.165-.066.248-.08a.227.227 0 0 1 .192.068.252.252 0 0 1 .056.093.253.253 0 0 1 .014.109c-.003.248-.04.494-.11.731a40.667 40.667 0 0 0-1.378 6.743l-.041.3a.47.47 0 0 1-.119.266.424.424 0 0 1-.246.136c-.193 0-.33-.168-.365-.38-.034-.212-.021-.292-.048-.592ZM68.46 303.083a4.762 4.762 0 0 1-.221.475 49.22 49.22 0 0 0-3.14 6.415 1.28 1.28 0 0 1-.186.394c-.082.117-.213.241-.351.146a.52.52 0 0 1-.227-.336c.008-.25.055-.496.137-.73a34.628 34.628 0 0 1 3.202-6.364.571.571 0 0 1 .184-.223.542.542 0 0 1 .264-.099c.151.008.262.095.337.322ZM20.589 111.865a.845.845 0 0 1-.042.27c-.117.241-.35.315-.557.431a42.56 42.56 0 0 0-5.51 3.741 2.32 2.32 0 0 1-.488.307.275.275 0 0 1-.241-.066.319.319 0 0 1-.125-.179.34.34 0 0 1 .015-.223c.251-.426.593-.784.998-1.044a30.374 30.374 0 0 1 3.712-2.492 28.17 28.17 0 0 1 1.762-.957.28.28 0 0 1 .293-.034c.048.021.09.055.122.098a.332.332 0 0 1 .06.148Zm248.649-65.281c.213.11.262.293.062.431a.88.88 0 0 1-.523.132c-3.106-.066-6.198 0-9.303.11a1.025 1.025 0 0 1-.42 0c-.117 0-.283-.154-.296-.264a.471.471 0 0 1 .185-.358.904.904 0 0 1 .407-.065 65.695 65.695 0 0 1 9.888.014Zm11.995 21.89a1.477 1.477 0 0 1-.103.394 47.471 47.471 0 0 0-3.25 6.67.575.575 0 0 1-.145.256.734.734 0 0 1-.379.125.234.234 0 0 1-.098-.035.262.262 0 0 1-.117-.176.273.273 0 0 1 .002-.11 9.5 9.5 0 0 1 .303-1.155 33.354 33.354 0 0 1 2.141-4.384c.339-.602.706-1.185 1.102-1.746.055-.088.255-.103.386-.088.13.015.089.132.158.249ZM114.526 275.897c-.048.073-.076.204-.145.233a7.148 7.148 0 0 1-.929.373c-1.322.402-2.644.804-3.973 1.184a3.792 3.792 0 0 0-1.563.672.264.264 0 0 1-.19.083.26.26 0 0 1-.189-.083.424.424 0 0 1-.125-.263.427.427 0 0 1 .07-.285c.101-.169.244-.306.413-.395.304-.142.617-.261.936-.358 1.453-.46 2.906-.92 4.366-1.366a2.024 2.024 0 0 1 1.122-.117.287.287 0 0 1 .16.121c.037.058.054.13.047.201ZM72.756 113.18l-2.94-.774a75.636 75.636 0 0 1-2.066-.57 2.537 2.537 0 0 0-1.253-.168c-.213 0-.365-.051-.386-.3a.52.52 0 0 1 .062-.289.478.478 0 0 1 .207-.2.832.832 0 0 1 .689-.051c1.88.474 3.766.957 5.646 1.461.182.05.352.142.496.27a.61.61 0 0 1 .09.409c0 .066-.104.154-.18.19-.12.023-.243.031-.365.022Zm254.13-72.265c.179.058.372.102.427.328a.378.378 0 0 1-.14.394.342.342 0 0 1-.128.06c-.813.262-1.632.474-2.438.73-1.329.482-2.754.592-3.994 1.41a.247.247 0 0 1-.248-.073c-.075-.11-.165-.285-.137-.387a.92.92 0 0 1 .323-.46c.246-.144.507-.255.778-.33 1.529-.486 3.06-.974 4.593-1.46.31-.088.641-.14.964-.212Zm14.653 255.242c-.068-.059-.199-.117-.199-.183-.03-.192-.009-.39.062-.57.13-.207.302-.382.502-.511 1.577-1.023 3.154-2.046 4.745-3.047.523-.329.936-.329.971-.044.055.446-.29.592-.565.767-1.019.643-2.066 1.272-3.05 1.929a7.465 7.465 0 0 0-2.204 1.615c-.055.058-.186.029-.262.044ZM55.204 128.72c-.076.139-.11.249-.179.3a.311.311 0 0 1-.255.058.896.896 0 0 1-.344-.241 3.994 3.994 0 0 1-.503-.73 539.24 539.24 0 0 1-2.265-4.691.384.384 0 0 1 .09-.415.329.329 0 0 1 .123-.074.384.384 0 0 1 .38 0c.166.176.303.381.405.606.386.804.744 1.629 1.136 2.433.393.804.792 1.461 1.178 2.236.117.197.165.387.234.518Zm53.593 159.568h-1.983a.338.338 0 0 1-.248-.125.372.372 0 0 1-.068-.129c-.015-.048-.02-.098-.015-.148a.474.474 0 0 1 .103-.188.437.437 0 0 1 .173-.119c.321-.079.648-.126.977-.139a38.997 38.997 0 0 0 4.504-.306.721.721 0 0 1 .413.043c.061.033.115.08.157.136a.528.528 0 0 1 .091.193.432.432 0 0 1-.06.195.402.402 0 0 1-.14.141c-.219.1-.451.162-.688.183-1.067.152-2.14.24-3.216.263Zm204.91-227.194c.165-.05.365.073.564.212 1.061.73 2.121 1.505 3.196 2.236.475.329.984.592 1.459.913a.488.488 0 0 1 .117.395c0 .153-.172.204-.323.211a1.6 1.6 0 0 1-.93-.306c-.558-.373-1.115-.731-1.68-1.11a29.481 29.481 0 0 0-2.589-1.82c-.09-.051-.138-.248-.152-.387-.013-.14.117-.256.338-.344Zm30.738 256.075-1.377-.387c-1.28-.365-2.458-1.059-3.773-1.322a.348.348 0 0 1-.219-.174.388.388 0 0 1-.036-.287.43.43 0 0 1 .135-.26.379.379 0 0 1 .264-.098c.236.036.467.099.689.19 1.6.628 3.232 1.157 4.889 1.586a.4.4 0 0 1 .248.128.45.45 0 0 1 .117.266c0 .183-.282.431-.51.417l-.427-.059Zm-243.526-21.597c.221.124.434.219.627.351 1.026.731 2.066 1.461 3.071 2.192.475.321.985.577 1.467.891a.51.51 0 0 1 .158.373c0 .234-.234.307-.434.27a3.718 3.718 0 0 1-1.528-.73 239.02 239.02 0 0 1-3.547-2.47.376.376 0 0 1-.183-.377.395.395 0 0 1 .046-.142c.092-.134.201-.254.323-.358ZM66.47 122.013c.054.198-.194.49-.331.446a4.23 4.23 0 0 1-.93-.314 265.137 265.137 0 0 1-4.242-2.353.767.767 0 0 1-.268-.314.331.331 0 0 1 0-.277.301.301 0 0 1 .213-.161.889.889 0 0 1 .4.102c1.648.848 3.291 1.705 4.93 2.572.124.058.18.226.227.299Zm252.938 211.734c.042.891.09 1.79.111 2.681a.424.424 0 0 1-.097.279.368.368 0 0 1-.255.123.388.388 0 0 1-.251-.117.434.434 0 0 1-.12-.263 43.047 43.047 0 0 1-.262-5.077 1.45 1.45 0 0 1 .193-.541c.041-.073.172-.168.227-.153.055.014.289.138.303.241.053.34.078.685.076 1.03v1.797h.075Zm29.52-30.182c0 .161 0 .307-.151.388a6.068 6.068 0 0 1-.882.453c-1.425.496-2.864.964-4.297 1.461a.737.737 0 0 1-.688 0 .246.246 0 0 1-.128-.275.25.25 0 0 1 .045-.098c.123-.144.28-.25.455-.307a440.774 440.774 0 0 1 5.068-1.834c.289-.146.558 0 .578.212ZM23.474 123.577a.316.316 0 0 1-.33-.292.653.653 0 0 1 .103-.41 43.452 43.452 0 0 1 3.14-3.689.912.912 0 0 1 .35-.256.543.543 0 0 1 .4.037c.227.146.124.38 0 .518a267.004 267.004 0 0 1-3.34 3.909c-.097.08-.206.142-.323.183ZM324.366 52.67h1.123c.062 0 .131.117.172.19a.26.26 0 0 1 .035.106.262.262 0 0 1-.009.111.257.257 0 0 1-.136.163 2.483 2.483 0 0 1-.806.256c-1.598.102-3.202.183-4.82.27a.574.574 0 0 1-.278-.023.611.611 0 0 1-.239-.152.405.405 0 0 1-.103-.263c0-.095.062-.234.124-.256.223-.078.454-.127.689-.146 1.377-.087 2.823-.16 4.235-.234l.013-.022Zm-33.968 18.616c0 .095 0 .19-.034.293-.31 1.563-.634 3.127-.937 4.697-.062.307-.151.585-.468.673-.213.065-.42-.402-.337-.84.282-1.462.564-2.843.874-4.253a2.86 2.86 0 0 1 .379-.789c0-.058.172-.08.255-.073a.275.275 0 0 1 .188.09c.05.054.079.127.08.202ZM75.814 310.74c.296-1.498.537-3.134.998-4.713a.742.742 0 0 1 .22-.38.578.578 0 0 1 .386-.087c.055 0 .13.139.151.219.02.099.02.201 0 .3-.303 1.519-.608 3.037-.915 4.551a2.848 2.848 0 0 1-.241.731.283.283 0 0 1-.147.151.255.255 0 0 1-.205.002.326.326 0 0 1-.163-.125.365.365 0 0 1-.064-.203 4.31 4.31 0 0 1-.02-.446Z"/>
  <path fill="#FDEAFF" d="M269.238 46.584h-9.888a2.615 2.615 0 0 1 1.377-.277h7.34c.372-.037.833-.125 1.171.277ZM99.212 258.267a1.38 1.38 0 0 1-.214 1.278 2.04 2.04 0 0 1 .214-1.278Zm-.303 2.082.062.943c-.448-.285-.22-.614-.062-.943Zm.33.943a.577.577 0 0 1 .053-.307.534.534 0 0 1 .202-.227c.048.249.048.475-.255.534Z"/>
  <path fill="#6067FF" d="M184.328 85.98c5.061-2.061 9.523-4.933 13.958-7.87a131.783 131.783 0 0 0 13.42-9.958c.916-.789 1.77-1.666 2.658-2.506.221-.205.469-.16.551.11.083.27.227.73.338 1.154a120.23 120.23 0 0 1 3.353 15.131c.475 3.083.799 6.189.998 9.308.2 3.12.469 6.225.724 9.338.089 1.103.199 2.191.316 3.309.035.246.114.481.234.694a.392.392 0 0 0 .352.154c.11 0 .282-.168.289-.263.034-.45.034-.902 0-1.352a407.783 407.783 0 0 1-.861-10.842 107.565 107.565 0 0 0-2.066-15.855c-.296-1.373-.578-2.747-.874-4.12a.342.342 0 0 1-.01-.215.323.323 0 0 1 .12-.173.296.296 0 0 1 .268 0c.889.49 1.77.98 2.645 1.462 1.501.869 3.002 1.731 4.482 2.63.485.303.946.648 1.378 1.03 5.088 4.27 9.182 9.725 11.967 15.942a80.832 80.832 0 0 1 4.455 12.121 65.448 65.448 0 0 1 1.928 10.514 531.21 531.21 0 0 1 1.047 12.04c.193 2.557.317 5.115.434 7.694.268 5.991.509 11.982.764 17.973.179 4.026.4 8.037.53 12.077.173 4.939.283 9.878.4 14.817.082 3.653.124 7.255.179 10.886.062 4.742-.131 9.498-.393 14.204a58.706 58.706 0 0 0-.075 2.718c0 3.879-.049 7.766 0 11.646.051 3.48.299 6.955.743 10.404.82 6.853 1.908 13.648 3.195 20.413a87.63 87.63 0 0 0 3.939 14.335c.293.576.48 1.206.551 1.856a5.68 5.68 0 0 1-1.728.935 43.5 43.5 0 0 1-6.032 1.79 40.604 40.604 0 0 1-9.331.972c-1.329 0-2.658.117-3.987.182-3.443.161-6.844.176-10.26 0a208.607 208.607 0 0 1-8.263-.584c-1.184-.102-2.348-.38-3.525-.548-2.066-.3-4.132-.577-6.198-.862-.186 0-.378-.037-.564-.066-.689-.124-.916-.307-1.026-1.045-.214-1.461-.386-2.995-.579-4.493-.352-3.253-.55-6.523-.592-9.798-.144-4.88-.372-9.768-.62-14.612-.103-1.966-.33-3.916-.578-5.845-.344-2.755-.358-5.531-.448-8.293-.172-5.114-.523-10.265-.778-15.401-.151-2.966-.344-5.933-.688-8.884-.255-2.192-.517-4.384-.689-6.613-.22-2.608-.654-5.187-.936-7.788-.179-1.651-.241-3.317-.31-4.976-.143-3.409-.271-6.833-.386-10.272a20.77 20.77 0 0 1 0-1.965 84.152 84.152 0 0 0-.186-10.119c0-.453-.041-.906-.048-1.359-.08-4.031-.354-8.055-.819-12.056-.042-.35 0-.73-.055-1.066.447.065.502.46.654.73a42.535 42.535 0 0 0 3.642 5.589c2.34 2.976 5.648 4.911 9.269 5.422 2.485.444 5.022.461 7.512.051a21.642 21.642 0 0 0 3.719-1.023c2.375-.877 4.73-1.812 7.085-2.754a31.13 31.13 0 0 0 4.786-2.667c.578-.358.778-.819.53-1.045-.392-.358-.689 0-1.019.19-3.987 2.645-8.401 4.208-12.842 5.684a19.752 19.752 0 0 1-11.259.183c-2.694-.69-5.108-2.281-6.886-4.537a40.632 40.632 0 0 1-5.391-9.045 83.406 83.406 0 0 1-5.764-18.266 1654.208 1654.208 0 0 1-3.05-16.139 51.495 51.495 0 0 1-.689-5.239 43.882 43.882 0 0 0-2.754-12.764c-.303-.789-.544-1.549-.854-2.41Zm-51.107 29.808c.124-5.34.262-10.681.585-16.015.097-1.556.303-3.105.434-4.661.131-1.556.221-2.923.31-4.384.055-1 .076-2.009.11-3.017a.606.606 0 0 1 .12-.42.535.535 0 0 1 .362-.209 33.585 33.585 0 0 0 8.408-3.25c7.574-3.807 14.818-8.191 21.987-12.75.53-.336 1.06-.68 1.597-1.001a.482.482 0 0 1 .54-.044.521.521 0 0 1 .204.207.571.571 0 0 1 .069.29c.047.451.07.905.068 1.359a47.803 47.803 0 0 1-.454 5.845c-.31 2.922-.689 5.794-.799 8.723-.165 4.026-.303 8.037-.564 12.078-.31 4.822-.572 9.651-.999 14.473-.427 4.822-.971 9.498-1.453 14.269-.447 4.515-.998 9.009-1.769 13.465-.2 1.14-.455 2.265-.689 3.398a4.974 4.974 0 0 1-1.66 2.572 10.982 10.982 0 0 1-3.201 2.235 21.83 21.83 0 0 1-10.412 1.995c-2.717-.226-5.319-1.262-7.506-2.988-1.509-1.165-2.665-2.773-3.325-4.625a28.697 28.697 0 0 1-1.446-6.145 107.07 107.07 0 0 1-.627-14.481c.007-2.286.069-4.602.11-6.919Z"/>
  <path fill="#6067FF" d="M154.244 264.265a64.451 64.451 0 0 1 1.012-13.377 91.902 91.902 0 0 0 1.68-14.079c.131-3.069.441-6.13.689-9.192.124-1.607.275-3.207.371-4.822.235-3.872.689-7.722 1.081-11.573.558-5.26 1.419-10.477 2.011-15.723.372-3.302.689-6.612.957-9.921.269-3.31.599-6.627.737-9.952.269-4.172.331-8.357.186-12.537-.207-3.653-.42-7.35-.558-11.025-.096-2.469-.089-4.939-.103-7.408.012-.402.065-.802.158-1.191a98.701 98.701 0 0 0 1.584-9.82c.551-4.756 1.095-9.498 1.598-14.262.275-2.55.468-5.114.688-7.671.276-3.566.533-7.133.771-10.704.138-2.192.241-4.325.338-6.488a4.349 4.349 0 0 1 .406-1.731 39.778 39.778 0 0 1 2.279-4.18 135.67 135.67 0 0 0 2.245-3.652 26.672 26.672 0 0 1 6.604-7.643 39.227 39.227 0 0 1 8.71-5.392 2.2 2.2 0 0 1 1.198-.336c.118.629-.406.84-.688 1.162a712.707 712.707 0 0 1-6.776 6.919 107.538 107.538 0 0 0-10.976 12.895 16.984 16.984 0 0 0-1.894 3.186c-.309.73 0 1.227.758 1.125.61-.1 1.213-.244 1.804-.431a9.465 9.465 0 0 1 3.677-.227c.289 0 .434.263.31.504-.2.402-.427.79-.634 1.184-1.191 2.294-2.465 4.537-3.587 6.868a30.143 30.143 0 0 0-2.507 8 92.088 92.088 0 0 0-1.184 10.653c-.138 2.411-.365 4.822-.51 7.233-.261 4.427-.482 8.855-.729 13.282a73.711 73.711 0 0 0 0 8.461c.179 2.974.495 5.918.922 8.863.305 2.14.735 4.258 1.288 6.341.209.777.252 1.593.124 2.389-.413 2.682-.847 5.363-1.226 8.037a126.543 126.543 0 0 0-.688 5.845 997.645 997.645 0 0 0-1.081 11.12c-.241 2.557-.448 5.115-.689 7.679-.2 2.258-.393 4.515-.613 6.773-.31 3.207-.42 6.429-.447 9.659-.042 5.998 0 11.996-.152 17.995-.083 4.23-.282 8.468-.544 12.691-.255 3.967-.689 7.927-.991 11.894-.255 3.164-.455 6.327-.689 9.498 0 .307-.035.607-.062.906-.048.409-.248.563-.572.38a3.503 3.503 0 0 0-2.355-.299c-.94.133-1.888.187-2.837.16-1.26-.043-1.425-.336-1.315-1.549a39.38 39.38 0 0 0 .276-4.683c-.055-.621-.055-1.227-.055-1.834ZM208.89 370.6a15.016 15.016 0 0 1-4.386-.351 4.463 4.463 0 0 1-2.589-1.739 3.43 3.43 0 0 1-.345-3.426c.295-.69.73-1.301 1.274-1.79a22.952 22.952 0 0 1 4.559-3.339 63.824 63.824 0 0 1 9.798-4.479c2.865-1.081 5.791-1.936 8.725-2.762.867-.241 1.762-.38 2.651-.54a.499.499 0 0 1 .42.033.553.553 0 0 1 .268.346c.269.731.902.965 1.577 1.111a11.04 11.04 0 0 0 4.242-.168 14.68 14.68 0 0 0 3.016-.891.805.805 0 0 1 .799.058c2.084 1.13 3.842 2.836 5.088 4.939a7.834 7.834 0 0 1 .964 4.647 3.797 3.797 0 0 1-.56 1.85c-.34.552-.815.996-1.375 1.284a15.569 15.569 0 0 1-3.188 1.264 49.522 49.522 0 0 1-7.409 1.498c-4.82.614-9.64 1.22-14.426 1.731-3.037.322-6.06.716-9.103.724Zm-36.743-.819c-.689 0-1.894-.058-3.133-.117a5.425 5.425 0 0 1-2.451-.73 2.03 2.03 0 0 1-.662-.5 2.18 2.18 0 0 1-.422-.737 2.264 2.264 0 0 1 .099-1.686c.3-.743.722-1.423 1.246-2.009a15.695 15.695 0 0 1 2.204-2.141c5.881-4.727 12.582-8.18 19.721-10.162a5.094 5.094 0 0 1 3.326.124 15.857 15.857 0 0 0 5.687 1.256 10.784 10.784 0 0 0 4.965-1.132c.689-.365.799-.322 1.377.285 1.363 1.359 2.266 3.156 2.569 5.114.034.3.062.599.096.899a1.3 1.3 0 0 1-.103.804 1.197 1.197 0 0 1-.551.562c-.62.373-1.22.783-1.797 1.228a30.752 30.752 0 0 0-1.908 1.57 5.673 5.673 0 0 0-1.928 3.098.943.943 0 0 1-.279.502.851.851 0 0 1-.506.229c-1.48.336-2.961.731-4.455.986-3.787.731-7.574 1.184-11.43 1.615-3.739.431-7.423.811-11.665.942Z"/>
  <path fill="#FDEAFF" d="M235.642 205.399c-4.649.046-9.156-1.704-12.677-4.924a30.948 30.948 0 0 1-3.443-3.836 7.384 7.384 0 0 1-.489-.731.486.486 0 0 1 .048-.555.39.39 0 0 1 .325-.125.383.383 0 0 1 .168.06.418.418 0 0 1 .127.131c.792 1.015 1.639 1.958 2.486 2.922 2.661 2.995 6.154 5.01 9.97 5.75 2.888.714 5.909.514 8.69-.577.31-.132.627-.336.889.058.261.395-.035.673-.538.892a11.64 11.64 0 0 1-3.863.957c-.55.007-1.149-.022-1.693-.022Zm-7.355-114.327a4.858 4.858 0 0 1 2.755.891 8.925 8.925 0 0 1 2.844 3.303.844.844 0 0 1 .124.43.53.53 0 0 1-.193.373.448.448 0 0 1-.393 0 1.367 1.367 0 0 1-.406-.402c-.31-.445-.585-.92-.902-1.359-1.88-2.542-4.496-2.703-6.886-1.417a19.54 19.54 0 0 0-1.666 1.147c-.2.139-.413.263-.634 0-.22-.263-.172-.511.124-.782 1.445-1.365 3.3-2.139 5.233-2.184Zm-20.058 277.613a7.747 7.747 0 0 1-2.396-.241 2.926 2.926 0 0 1-1.187-.514 3.15 3.15 0 0 1-.879-.991 1.538 1.538 0 0 1-.195-1.077c.07-.372.273-.701.567-.917a.346.346 0 0 1 .399-.051c.042.024.08.056.11.094a.865.865 0 0 1 .104.402c0 .088-.083.176-.117.271-.2.584-.152.854.206 1.183a2.772 2.772 0 0 0 1.832.731c1.704.055 3.41.003 5.109-.154 2.975-.285 5.874-1.088 8.821-1.534 1.412-.212 2.823-.38 4.228-.562a.97.97 0 0 1 .688.095.335.335 0 0 1 .15.15.37.37 0 0 1 .036.215.538.538 0 0 1-.117.248 1.098 1.098 0 0 1-.785.3c-3.257.343-6.459 1.015-9.674 1.651a54.94 54.94 0 0 1-6.9.701Zm-32.798-1.41a30.346 30.346 0 0 0 5.619-.811c1.577-.314 3.14-.73 4.71-1.088.273-.083.552-.144.833-.183a.395.395 0 0 1 .269.063.435.435 0 0 1 .172.229.417.417 0 0 1 .016.295.39.39 0 0 1-.181.224c-.299.151-.61.273-.93.365a57.049 57.049 0 0 1-6.521 1.462c-1.212.204-2.437.336-3.656.496a6.917 6.917 0 0 1-3.085-.343 2.243 2.243 0 0 1-.98-.591 2.422 2.422 0 0 1-.59-1.019 2.53 2.53 0 0 1 .441-2.27c.127-.144.276-.265.44-.358a.264.264 0 0 1 .255.037c.097.095.227.256.207.351a3.641 3.641 0 0 1-.282.679c-.489 1.176-.166 1.914 1.005 2.28.74.18 1.501.242 2.258.182Zm14.371-307.138c-2.114-.044-3.856-.533-5.247-2.009a5.328 5.328 0 0 0-1.246-.979.379.379 0 0 1-.189-.217.406.406 0 0 1 .01-.294.52.52 0 0 1 .22-.289.47.47 0 0 1 .344-.062c.185.03.361.102.517.212.276.19.534.407.771.65 1.419 1.585 3.209 2.017 5.171 1.936.806 0 1.605-.102 2.41-.131.184.004.366.04.538.11.151.043.185.38.075.518a.663.663 0 0 1-.475.278l-2.899.277Zm-69.857-25.491c.118.06.225.142.317.241a.431.431 0 0 1-.076.54.467.467 0 0 1-.103.103c-1.329.68-1.846 1.987-2.19 3.36a13.448 13.448 0 0 0 .076 6.993c.043.196.099.389.165.577.468 1.227.992 2.411 2.341 2.835a.406.406 0 0 1 .16.08.455.455 0 0 1 .129.511.513.513 0 0 1-.22.286.465.465 0 0 1-.344.058 2.561 2.561 0 0 1-1.481-.833 6.073 6.073 0 0 1-1.26-1.987 12.83 12.83 0 0 1-.929-4.69c-.09-1.71.144-3.422.688-5.035.29-.909.781-1.73 1.432-2.396a1.886 1.886 0 0 1 1.295-.643Zm28.025 7.248a11.53 11.53 0 0 1 .939-4.685 10.916 10.916 0 0 1 2.732-3.813c.253-.225.525-.425.812-.599a.373.373 0 0 1 .278-.028.398.398 0 0 1 .225.175.374.374 0 0 1 .13.257.381.381 0 0 1-.089.276 9.825 9.825 0 0 1-.743.73c-1.444 1.323-2.482 3.072-2.983 5.025-.5 1.952-.44 4.019.173 5.935a8.026 8.026 0 0 0 2.754 3.953c.27.202.53.419.779.65a.322.322 0 0 1 .048.41c-.104.181-.248.357-.448.291a2.86 2.86 0 0 1-.757-.38c-1.739-1.269-2.98-3.168-3.491-5.34a9.395 9.395 0 0 1-.359-2.857Zm67.744 8.205a1.247 1.247 0 0 1-1.019.036c.182-.625.21-1.289.082-1.929a.632.632 0 0 1 0-.3.52.52 0 0 1 .124-.263.47.47 0 0 1 .241-.145.366.366 0 0 1 .272.032.4.4 0 0 1 .183.216c.172.36.255.759.241 1.162-.021.394-.083.774-.124 1.19Z"/>
  <path fill="#6067FF" d="M217.676 51.421c-.254-.35-.557-.672-.833-1.008l-1.129-.314c-.358-.424-.689-.154-1.019.036-2.355.475-3.491 4.07-1.639 6.437.207.263.399.54.606.818.346.151.7.28 1.06.387a2.754 2.754 0 0 0 2.003-.191 3.007 3.007 0 0 0 1.406-1.526 4.359 4.359 0 0 0 .447-2.394 4.284 4.284 0 0 0-.902-2.245Zm-1.776 5.458a2.08 2.08 0 0 1-1.182-.156 2.222 2.222 0 0 1-.932-.787 3.805 3.805 0 0 1-.689-2.104 4.115 4.115 0 0 1 .744-2.192.41.41 0 0 1 .164-.112.39.39 0 0 1 .194-.02c.214.081.22.286.103.483-.251.426-.424.9-.509 1.395a2.89 2.89 0 0 0 .241 1.754c.117.272.29.513.506.706.215.193.468.334.74.412a6.4 6.4 0 0 1 .689.204.316.316 0 0 1 .082.107.325.325 0 0 1 .028.134.27.27 0 0 1-.179.176Zm1.005-.621a.501.501 0 0 1-.297-.191.556.556 0 0 1-.109-.35.523.523 0 0 1 .212-.37.48.48 0 0 1 .401-.076.457.457 0 0 1 .306.182.499.499 0 0 1 .093.359.582.582 0 0 1-.221.348.52.52 0 0 1-.385.098Z"/>
</svg>
