<svg xmlns="http://www.w3.org/2000/svg" width="371" height="396" fill="none" viewBox="0 0 371 396">
  <path fill="#FDEAFF" d="M279.853 126.113c-.496-2.814-1.63-5.449-3.3-7.665-.534-.688-1.014-1.417-1.525-2.105a35.877 35.877 0 0 0-5.404-5.735 88.055 88.055 0 0 0-9.384-6.737c-4.062-2.627-8.217-5.088-12.417-7.458-5.015-2.826-10.069-5.577-15.298-7.914a2.63 2.63 0 0 1-1.029-.944 14.747 14.747 0 0 0-1.525-3.63 689.422 689.422 0 0 1-2.408-4.144 41.001 41.001 0 0 1-2.996-5.85 49.254 49.254 0 0 1-2.866-9.886c-.435-2.586-.808-5.18-1.052-7.798-.16-1.616-.297-3.232-.488-4.84a311.948 311.948 0 0 0-.854-6.63 71.618 71.618 0 0 0-1.875-9.098 55.873 55.873 0 0 0-3.338-9.182 49.22 49.22 0 0 0-3.667-6.787c-2.263-3.428-5.269-6.198-8.75-8.063-3.879-2.129-8.19-3.155-12.532-2.983a26.27 26.27 0 0 0-3.239.174 33.123 33.123 0 0 0-6.861 1.93 39.737 39.737 0 0 0-8.872 4.973 13.257 13.257 0 0 0-3.583 3.654c-1.326 2.155-.762 1.6-3.049 2.055h-.152c-3.389.645-6.538 2.326-9.08 4.846s-4.371 5.774-5.274 9.383c-1.283 4.844-.774 10.043 1.418 14.485 1.266 2.702 3.112 5.033 5.382 6.795.503.398.526.448.282 1.103-1.083 2.9-2.188 5.8-3.293 8.676-.191.497-.275.539-.846.381a6.485 6.485 0 0 0-1.982-.248c-.466-.02-.929.09-1.345.32a2.83 2.83 0 0 0-1.033.989c-.183.315-.282.737-.656.886-1.928-.911-3.43-.447-4.49 1.393-.083.14-.152.29-.205.447a.826.826 0 0 1-.314.445.714.714 0 0 1-.502.127 2.362 2.362 0 0 0-1.397.444 2.684 2.684 0 0 0-.936 1.213 5.26 5.26 0 0 0-.457 1.061.963.963 0 0 1-.364.594.822.822 0 0 1-.642.152c-1.921 0-2.454 1.21-2.66 2.619a8.856 8.856 0 0 0 .106 3.497c.179.701.263 1.427.252 2.154a29.655 29.655 0 0 0 .168 3.182 5.587 5.587 0 0 1 0 1.948c-.869.108-1.715-.249-2.462.282a1.397 1.397 0 0 0-.847.372 13.456 13.456 0 0 0-2.439 2.544c-6.168 7.84-10.921 16.872-14.01 26.626a84.398 84.398 0 0 0-1.524 5.453 70.778 70.778 0 0 0-1.731 11.751 46.174 46.174 0 0 0 .801 12.347c.706 3.856 2.277 7.462 4.573 10.499 2.491 3.252 6.041 5.331 9.909 5.801a18.876 18.876 0 0 0 9.681-1.525 33.522 33.522 0 0 0 9.574-6.016c.877-.77 1.738-1.566 2.607-2.353.274-.241.495-.174.549.165.05.274.086.551.106.829.115 2.18.244 4.359.343 6.547a88.173 88.173 0 0 1 0 10.905c-.091 1.227-.19 2.486-.251 3.68a3758.77 3758.77 0 0 0-.907 17.104c-.229 4.524-.458 9.049-.656 13.582-.228 5.37-.495 10.773-1.006 16.076-.32 3.315-.595 6.572-.976 9.845a177.085 177.085 0 0 1-1.25 8.784c-.663 3.787-1.25 7.599-2.21 11.32-.069.265-.13.539-.183.829-.831 4.093-1.7 8.179-2.821 12.19a447.378 447.378 0 0 0-2.98 11.278 15.954 15.954 0 0 0-.518 3.315 5.478 5.478 0 0 0 .237 2.153 5.165 5.165 0 0 0 1.043 1.849 8.983 8.983 0 0 0 3.491 2.37c.664.249 1.441.166 1.967.829-.236.729-.465 1.458-.709 2.188-.066.212-.145.42-.236.621a20.547 20.547 0 0 0-1.212 3.97c-.602 2.751-.229 5.237 2.012 7.052 1.09.373 1.098 1.284.976 2.27 0 .282 0 .564-.069.829-.449 3.828-.945 7.649-1.296 11.494-.335 3.671-.884 7.317-1.219 10.996-.336 3.68-.892 7.459-1.235 11.163-.374 4.011-.907 7.997-1.349 11.991-.397 3.505-.762 7.002-1.151 10.499-.229 2.055-.511 4.144-.762 6.166a.927.927 0 0 1-.195.538.794.794 0 0 1-.461.29c-1.357.498-2.729.978-4.07 1.525a71.415 71.415 0 0 0-7.211 3.39c-2.081 1.118-4.056 2.428-6.022 3.745a28.308 28.308 0 0 0-5.031 3.854c-1.427 1.298-2.511 2.985-3.14 4.889a5.97 5.97 0 0 0-.011 3.703c.389 1.199 1.146 2.215 2.145 2.877a13.81 13.81 0 0 0 6.38 2.32 30.94 30.94 0 0 0 11.639-.945 45.86 45.86 0 0 0 13.332-5.991 19.793 19.793 0 0 0 5.428-5.146c1.566-2.246 2.395-4.997 2.355-7.815a29.61 29.61 0 0 0-.587-4.649 6.307 6.307 0 0 0-.518-1.574 2.214 2.214 0 0 0-.762-1.134 1.925 1.925 0 0 0-1.235-.408c-.161 0-.283-.082-.344-.381.839-3.008 1.708-6.107 2.569-9.206.526-1.873 1.06-3.738 1.578-5.611 1.022-3.696 2.02-7.392 3.049-11.079.64-2.296 1.326-4.583 1.967-6.878 1.402-5.08 2.782-10.177 4.177-15.256.823-3 1.654-5.997 2.492-8.992.328-1.176.709-2.336 1.045-3.513.122-.448.457-.34.762-.431a5.619 5.619 0 0 1 1.959-.116.735.735 0 0 0-.434.224 5.552 5.552 0 0 0 2.492.24c1.118.202 2.245.329 3.377.381 1.895.122 3.793.268 5.694.439 2.66.241 5.336.514 8.004.564.876 0 1.753 0 2.622.091 4.573.356 9.147.298 13.72.34 2.462 0 4.932-.067 7.402-.29 2.286-.216 4.52-.166 6.776-.456.64-.083.679 0 .823.671.542 2.486 1.068 4.972 1.426 7.549.419 3.033.892 6.066 1.174 9.116.049 1.286.241 2.56.571 3.795a7.642 7.642 0 0 0 0 .829c.267 2.329.557 4.657.763 6.994.228 2.959.51 5.909.83 8.851.237 2.171.298 4.358.412 6.53.168 3.314.313 6.612.435 9.894.023.896 0 1.792-.069 2.685-.252 4.019-.61 8.03-.983 12.041a43.755 43.755 0 0 0-.145 7.549c.179 3.26 1.311 6.373 3.232 8.884 1.289 1.693 3.014 2.928 4.954 3.546 1.694.511 3.465.643 5.207.39 1.955-.258 3.77-1.235 5.145-2.768a8.981 8.981 0 0 0 1.917-3.115 9.594 9.594 0 0 0 .568-3.697 23.554 23.554 0 0 0-1.967-8.742c-1.158-2.735-2.485-5.395-3.712-8.097a65.25 65.25 0 0 1-3.91-11.601 46.944 46.944 0 0 1-.923-7.301 7.21 7.21 0 0 0-.244-2.146c-.09.11-.167.232-.228.364a3.772 3.772 0 0 1 .19-1.259v-11.768c.038-.331.099-.662.122-.994.404-7.715.564-15.438.412-23.162a71.742 71.742 0 0 0-.183-6.878c-.038-.323.122-.505.419-.58.962-.195 1.903-.5 2.805-.911 1.822-.937 3.255-2.486 2.851-5.163-.091-.605-.107-1.235-.251-1.823a52.087 52.087 0 0 0-1.418-5.138c-.481-1.417-1.159-2.735-1.662-4.143-.191-.514-.099-.713.366-.829 1.524-.439 3.087-.879 4.627-1.301a26.497 26.497 0 0 1 4.794-1.218 2.556 2.556 0 0 0 1.556-.685c.436-.405.741-.953.868-1.561a9.574 9.574 0 0 0 .389-3.472c-.107-1.169-.213-2.345-.412-3.497-.686-3.895-1.379-7.79-2.142-11.668-.929-4.707-1.806-9.414-2.69-14.129-.763-4.268-1.7-8.519-2.5-12.795-.869-4.657-1.845-9.29-2.714-13.947-.816-4.384-1.608-8.767-2.226-13.193-.358-2.593-.892-5.162-1.341-7.748-.603-3.455-1.174-6.919-1.815-10.367a1.906 1.906 0 0 1-.017-.879c.062-.29.192-.557.376-.778 1.837-2.337 3.636-4.723 5.457-7.077.221-.282.382-.655.763-.771.381.116.571.473.815.746a3813.92 3813.92 0 0 1 4.383 4.972 45.767 45.767 0 0 0 5.694 5.627 19.908 19.908 0 0 0 6.007 3.315 7.933 7.933 0 0 0 2.287.34c.281.005.56-.061.814-.194a1.85 1.85 0 0 0 .649-.569 21.78 21.78 0 0 0 3.758-6.696c1.418-4.019 2.851-8.021 4.162-12.082 1.41-4.367 2.866-8.726 4.192-13.134.61-2.014 1.266-4.011 1.845-6.042.579-2.03 1.037-4.093 1.601-6.124.922-3.372 1.768-6.77 2.507-10.201a49.99 49.99 0 0 0 1.121-7.458 29.342 29.342 0 0 0-.206-7.425ZM184.48 40.701c0-.887 0-.92.762-1.144 2.774-.861 5.325-2.41 7.455-4.525 1.182-1.151.915-1.201 2.752-.828 2.372.583 4.501 1.998 6.06 4.027 2.051 2.614 3.231 5.905 3.346 9.34.084 1.11 0 2.237 0 3.314a.43.43 0 0 0 .096.306.35.35 0 0 0 .27.133c.206 0 .427 0 .549-.19.283-.592.593-1.167.93-1.724.225-.287.507-.516.824-.67a2.182 2.182 0 0 1 2.009.05c.31.17.582.413.795.711a5.983 5.983 0 0 1 1.014 3.108c.04 1.95-.506 3.862-1.555 5.444a12.112 12.112 0 0 1-2.195 2.486 2.657 2.657 0 0 1-1.769.324c-2.287.099-3.438 1.151-3.857 3.62-.084.531 0 1.128-.457 1.517-2.119 3.589-5.176 6-8.568 7.948a10.515 10.515 0 0 1-5.324 1.52 10.49 10.49 0 0 1-5.347-1.421 22.756 22.756 0 0 1-6.388-4.89 16.648 16.648 0 0 1-2.348-3.314 2.576 2.576 0 0 1-1.059-1.318c-.229-.472-.435-.97-1.022-1.019-1.318-.655-2.797-.348-4.139-.829a3.11 3.11 0 0 1-.434-1.243c-.061-.406.084-.621.472-.688a11.162 11.162 0 0 0 3.156-.638 13.13 13.13 0 0 0 5.504-2.411c3.373-2.3 5.952-5.75 7.332-9.812.439-1.129.696-2.331.763-3.555.324-1.175.45-2.405.373-3.63Zm22.83 27.297a.444.444 0 0 1-.076.305.375.375 0 0 1-.252.159.317.317 0 0 1-.28-.071.39.39 0 0 1-.132-.277.461.461 0 0 1 .069-.3.4.4 0 0 1 .236-.173c.236-.008.412.091.435.356Zm-2.287-.357c.18.101.351.22.511.356.038 0 0 .183 0 .274a.183.183 0 0 1-.036.072.153.153 0 0 1-.064.044c-.146.03-.295.03-.442 0a2.99 2.99 0 0 1-1.734-1.26 3.454 3.454 0 0 1-.552-2.187 3.923 3.923 0 0 1 .815-2.677.303.303 0 0 1 .282-.066c.145 0 .267.149.183.356-.137.356-.289.705-.404 1.07-.579 1.764-.107 3.065 1.448 4.002l-.007.016Zm-6.19 90.443c.069 1.284.138 2.569.13 3.853.043 2.461.208 4.918.495 7.359.282 2.834.511 5.676.763 8.519.221 2.676.419 5.353.625 8.03 0 .273.045.555.061.828 0 .531-.115.68-.633.672l-13.721-.373c-1.021 0-2.042-.083-2.98-.125-.358-.364-.191-.704-.183-1.019.008-.315.053-.563.061-.829.221-6.712.595-13.416.419-20.137-.091-3.521-.442-7.027-.762-10.532-.183-2.006-.343-4.011-.533-6.008-.191-1.997-.435-4.226-.664-6.331-.251-2.279-.518-4.55-.762-6.829-.45-3.994-.762-8.005-1.029-12.024-.267-4.019-.534-7.922-.762-11.883-.076-1.227-.115-2.486-.183-3.679a2.354 2.354 0 0 0-.198-1.144c-.069-2.229-.13-4.458-.199-6.68-.06-1.78-.129-3.563-.205-5.51a29.889 29.889 0 0 0 3.811 1.483 26.93 26.93 0 0 0 3.956.614 16.14 16.14 0 0 0 3.994-.216 63.707 63.707 0 0 0 3.811-.73c1.3-.335 2.562-.822 3.766-1.45 1.204-.588 2.34-1.35 3.59-2.088.122.928.237 1.799.358 2.669.313 2.262.58 4.533.709 6.812.032.367.083.732.153 1.093-.076 2.299-.155 4.589-.236 6.87-.122 2.967-.427 5.917-.801 8.851-.671 5.262-1.44 10.499-2.165 15.745a46.667 46.667 0 0 0-.495 5.162c-.053 2.238-.214 4.475-.274 6.713a124.43 124.43 0 0 0 .091 12.297l-.008.017Zm-27.708-55.414a.583.583 0 0 0-.176-.267.518.518 0 0 0-.281-.123c-2.02-.381-3.948-1.276-6.037-1.251-.526 0-.61-.141-.61-.721a42.316 42.316 0 0 1 1.571-12.066 33.477 33.477 0 0 1 1.455-4.582c.183-.458.485-.847.869-1.119.846-.53 1.654-1.144 2.531-1.6 2.82-1.45 5.671-2.85 8.514-4.267.13-.066.305-.124.397.074.03.103.03.213 0 .315a60.483 60.483 0 0 0-1.113 5.727 55.296 55.296 0 0 0-.557 8.021 140.25 140.25 0 0 0 .359 12.903c.061 1.168.122 2.345.206 3.513.068.871.175 1.732.266 2.603-.762 1.243-.449 2.618-.305 3.911.26 2.486.298 4.914.481 7.359.358 4.74.655 9.48 1.166 14.203.549 4.972 1.082 9.944 1.608 15.173-6.166-7.788-11.134-16.608-14.711-26.12a18.178 18.178 0 0 1-1.345-6.687 18.224 18.224 0 0 1 1.2-6.721c.495-1.292 1.113-2.486 1.685-3.77.251-.522 1.684-3.257 2.53-3.829a.613.613 0 0 0 .26-.292.69.69 0 0 0 .045-.404l-.008.017Zm-3.049-32.079c.1 0 .206 0 .298.075.091.075.267.182.236.373a.318.318 0 0 1-.111.203.272.272 0 0 1-.209.062 2.235 2.235 0 0 1-1.387-.432 2.552 2.552 0 0 1-.9-1.225 8.368 8.368 0 0 1-.236-1.078 5.68 5.68 0 0 1 .57-2.664 5.158 5.158 0 0 1 1.717-2.001.392.392 0 0 1 .211-.015.416.416 0 0 1 .193.098.28.28 0 0 1 .091.211.292.292 0 0 1-.091.211 7.026 7.026 0 0 0-1.609 1.99 4.117 4.117 0 0 0-.457 1.748c-.06.563.083 1.13.398 1.583.315.452.779.755 1.294.845l-.008.016Zm2.181 0a.487.487 0 0 1 .164-.344.418.418 0 0 1 .346-.095.409.409 0 0 1 .253.14.473.473 0 0 1 .113.283.492.492 0 0 1-.167.339.401.401 0 0 1-.344.092c-.213-.083-.381-.224-.358-.464l-.007.05Zm30.23 20.8a21.524 21.524 0 0 1-6.86 3.249 22.214 22.214 0 0 1-10.245.48 13.3 13.3 0 0 1-4.062-1.524 1.22 1.22 0 0 1-.582-.517 1.386 1.386 0 0 1-.181-.793c0-2.685.061-5.378.321-8.046.182-1.494.437-2.977.762-4.442a29.362 29.362 0 0 1 1.097-4.533c.222-.63.343-.696.892-.464.671.282 1.327.613 2.005.829a11.008 11.008 0 0 0 8.293-.174 21.549 21.549 0 0 0 4.399-2.652 10.58 10.58 0 0 1 1.311 2.826 76.56 76.56 0 0 1 2.401 8.477c.404 1.848.701 3.721 1.074 5.577.096.311.086.649-.027.953a1.338 1.338 0 0 1-.59.705l-.008.05Zm-48.997-40.92c-1.973-3.72-2.715-8.063-2.104-12.306.538-3.909 2.195-7.534 4.736-10.36 2.541-2.827 5.837-4.711 9.419-5.385a15.778 15.778 0 0 1 7.783.447c4.05 1.264 7.519 4.129 9.726 8.03 1.723 3 2.657 6.457 2.698 9.994 0 .448 0 .895.038 1.334-.068.324-.175.647-.213.97-.43 3.848-1.93 7.462-4.298 10.36-2.369 2.897-5.493 4.94-8.958 5.857-.541.158-1.135 0-1.638.365a28.928 28.928 0 0 1-5.077-.174c-2.646-.46-5.154-1.595-7.318-3.315-1.97-1.534-3.607-3.52-4.794-5.817Zm4.672 22.872a3.093 3.093 0 0 1 2.287.712 5.478 5.478 0 0 1 1.525 2.685c.402 1.8.505 3.663.305 5.503a9.718 9.718 0 0 1-1.433 4.035c-.227.43-.482.843-.763 1.235a61.153 61.153 0 0 0-4.398 6.68 13.835 13.835 0 0 1-3.156 3.654 22.545 22.545 0 0 0-4.192 4.657 18.144 18.144 0 0 0-1.685 3.19c-.861 1.964-1.623 3.978-2.462 5.959a59.453 59.453 0 0 1-5.335 9.413 18.02 18.02 0 0 1-1.441 1.749c-.274.307-.564.249-.694-.174a56.457 56.457 0 0 1-.922-3.19c-.168-.647-.244-1.318-.351-1.973a17.235 17.235 0 0 0-.663-3.099 2.68 2.68 0 0 1-.175-.638c-.168-2.006-.762-3.945-.915-5.942a10.303 10.303 0 0 1 1.121-5.966 44.118 44.118 0 0 1 2.355-4.144c1.509-2.296 2.141-5.139 1.761-7.93-.061-.671-.084-1.343-.13-2.014-.045-.671-.495-1.293.313-1.715.457.67.884 1.375 1.387 2.005a9.48 9.48 0 0 0 1.342 1.376c.891.72 1.295.696 2.218 0 .198-.158.366-.348.587-.555.35.281.67.563 1.014.828.256.208.55.355.863.432.312.076.635.081.95.013a2.19 2.19 0 0 0 .872-.408c.262-.2.482-.459.646-.758.163-.284.304-.584.419-.895.052-.234.175-.443.349-.593a.95.95 0 0 1 .611-.235c1.365-.116 2.043-1.169 2.287-2.536.084-.431.175-.696.64-.73.207-.028.403-.11.573-.24.171-.13.309-.304.403-.505a1.59 1.59 0 0 1 .587-.626c.245-.146.521-.216.8-.203a1.636 1.636 0 0 0 1.083-.597c.462-.414.756-1.01.819-1.657a2.643 2.643 0 0 0-.484-1.806 4.06 4.06 0 0 0-1.624-1.5 5.34 5.34 0 0 1-2.05-1.99c-.762-1.267-.617-2.12.229-3.173a.573.573 0 0 1 .165-.176.517.517 0 0 1 .65.052c.212.156.415.325.61.505.852.83 1.958 1.288 3.102 1.284Zm-3.132 7.615c.053-.829.114-1.657.19-2.486 0-.075.13-.132.198-.19.069-.058.115 0 .153 0 .276.138.511.356.679.632.169.275.263.595.274.925a1.614 1.614 0 0 1-.316.906 1.4 1.4 0 0 1-.752.52c-.137.074-.442-.124-.426-.307Zm-4.513-12.049c.143-.229.333-.418.555-.552a1.52 1.52 0 0 1 .726-.219 3.535 3.535 0 0 1 2.107.293 3.906 3.906 0 0 1 1.635 1.472c.102.092.19.201.259.324l.039.058a.353.353 0 0 1 .139.111c.038.05.063.108.074.17a.328.328 0 0 1 .152.241.491.491 0 0 1-.053.563l-.602-.58a.375.375 0 0 1-.156-.087.411.411 0 0 1-.103-.153h-.069a1.966 1.966 0 0 0-.343-.24 7.762 7.762 0 0 0-1.067-.075 1.04 1.04 0 0 0-.572.207 3.661 3.661 0 0 0-1.187 1.784 3.954 3.954 0 0 0-.032 2.202 5.8 5.8 0 0 0 1.593 2.412c.195.177.346.406.439.663.094.258.126.537.094.812-.076.886-.122 1.773-.205 2.66a3.57 3.57 0 0 1-.427 1.417.477.477 0 0 1-.145.193.408.408 0 0 1-.44.048.459.459 0 0 1-.178-.158 5.645 5.645 0 0 1-1.181-2.13 57 57 0 0 1-1.852-7.582 5.386 5.386 0 0 1 .033-2.017 5.184 5.184 0 0 1 .767-1.837Zm-5.42 3.315c.029-.59.241-1.153.601-1.597a2.373 2.373 0 0 1 1.381-.848c.961-.19 1.525.381 1.487 1.484 0 .107 0 .223-.061.546.099.672.175 1.567.373 2.428.404 1.782.862 3.547 1.304 5.32.221.918.554 1.798.991 2.62.345.69.484 1.481.396 2.262-.016.25-.08.496-.186.72a1.843 1.843 0 0 1-.431.58.844.844 0 0 1-.281.218.78.78 0 0 1-.674 0 .84.84 0 0 1-.28-.217 5.161 5.161 0 0 1-.892-1.144 30.488 30.488 0 0 1-3.644-10.218 10.877 10.877 0 0 1-.084-2.179v.025Zm-2.866 1.168c.116-.224.279-.415.475-.559a1.46 1.46 0 0 1 .654-.27c.282 0 .518.067.579.39.066.327.102.66.107.995.029 1.005.188 2 .472 2.958a34.445 34.445 0 0 0 3.705 8.792c.159.213.268.464.315.733.048.27.034.547-.041.809a2.513 2.513 0 0 1-.416.975c-.205.287-.466.52-.765.682a.719.719 0 0 1-.763 0 4.471 4.471 0 0 1-1.669-1.657 32.763 32.763 0 0 1-3.468-10.666 5.712 5.712 0 0 1 0-.555 5.033 5.033 0 0 1 .815-2.652v.025Zm-4.078 3.696c.115-.345.336-.637.627-.825a1.36 1.36 0 0 1 .966-.202.54.54 0 0 1 .227.035c.073.028.14.072.198.128a.64.64 0 0 1 .137.2.688.688 0 0 1 .056.242 31.026 31.026 0 0 0 3.049 9.944c.068.149.145.298.206.447.134.21.188.467.151.72a1.002 1.002 0 0 1-.35.631.592.592 0 0 1-.38.27.534.534 0 0 1-.443-.112 6.896 6.896 0 0 1-.998-1.011 18.909 18.909 0 0 1-3.438-6.862 7.312 7.312 0 0 1-.229-1.923c-.04-.58.035-1.162.221-1.707v.025Zm3.164 207.37a4.467 4.467 0 0 1-1.24-1.886 4.825 4.825 0 0 1-.201-2.307c.143-1.277.375-2.54.694-3.779.945-3.663 1.951-7.3 2.919-10.955.762-2.793 1.38-5.618 1.967-8.453.67-3.273 1.524-6.505 2.088-9.795.564-3.289 1.273-6.563 1.578-9.944.229-2.444.663-4.864.968-7.309.176-1.384.29-2.776.397-4.143.442-5.461.99-10.914 1.173-16.4.199-6.209.526-12.411.984-18.604.175-2.403.251-4.806.312-7.218.099-3.861.442-7.706.641-11.56a74.355 74.355 0 0 0-.13-10.773c0-.331-.053-.671-.061-1.002a52.438 52.438 0 0 0-.313-5.362c-.083-.713-.061-1.442-.083-2.171 0-.224 0-.456-.244-.539a.534.534 0 0 0-.306-.025.557.557 0 0 0-.274.149c-.297.299-.541.663-.838.962-3.162 3.218-6.791 5.847-10.74 7.781a19.976 19.976 0 0 1-9.147 2.138 13.26 13.26 0 0 1-6.606-1.768c-2.038-1.163-3.784-2.849-5.087-4.911a25.066 25.066 0 0 1-3.613-9 50.255 50.255 0 0 1-.29-17.187 76.821 76.821 0 0 1 5.603-19.797c2.659-6.256 6.098-12.084 10.221-17.32.869-1.102 1.853-2.088 2.76-3.157a2.53 2.53 0 0 1 1.057-.684 2.367 2.367 0 0 1 1.23-.07c.236.116.465.24.701.332a.775.775 0 0 1 .363.29.884.884 0 0 1 .148.464c.144 2.22 0 4.375-1.159 6.298-.656 1.069-1.281 2.163-1.951 3.224a13.923 13.923 0 0 0-1.998 6.447 10.875 10.875 0 0 0 .366 3.314c.258.966.429 1.957.511 2.959.02.619.117 1.232.29 1.823.51 1.991.922 4.01 1.235 6.049a13.793 13.793 0 0 0 1.73 4.276 7.572 7.572 0 0 1 1.128 4.276 5.498 5.498 0 0 0 .35 1.959 5.174 5.174 0 0 0 1.014 1.663c.054-.208.298-.299.351-.688a5.906 5.906 0 0 1-.884-3.638 6.174 6.174 0 0 0-.915-3.315c-.335-.646-.328-.829.206-1.284 2.645-2.246 4.185-5.345 5.618-8.511 1.273-2.809 2.462-5.66 3.689-8.494.164-.34.35-.667.556-.978 0-.049.222 0 .267 0a.565.565 0 0 1 .076.315c.344 3.787.641 7.574 1.022 11.353.32 2.776.412 5.577.274 8.37a70.262 70.262 0 0 1-.335 3.671 66.925 66.925 0 0 1-1.578 9.057c-.923 3.981-2.813 7.619-5.473 10.533-.762.779-1.41 1.657-2.096 2.486a.305.305 0 0 0 .014.349.265.265 0 0 0 .093.074c.076.049.213.099.274.058.23-.123.445-.276.64-.456a21.2 21.2 0 0 0 1.075-1.202c.953-1.168 1.951-2.312 2.828-3.538a22.823 22.823 0 0 0 2.737-5.801 49.823 49.823 0 0 0 1.798-7.964c.428-2.416.708-4.86.839-7.317a37.037 37.037 0 0 0-.053-5.361c-.191-2.064-.267-4.144-.458-6.191-.236-2.486-.533-4.972-.8-7.499 0-.108-.046-.216-.054-.324-.137-2.916-.434-2.245 1.228-4.582a14.461 14.461 0 0 1 3.506-3.497 35.045 35.045 0 0 0 3.743-3.224 5.4 5.4 0 0 0 1.136-1.367 16.477 16.477 0 0 1 4.1-4.732c1.395-1.243 2.699-2.585 3.987-3.953.252-.265.473-.596.877-.638.228.356 0 .647-.122.937a73.43 73.43 0 0 0-1.563 5.958 37.931 37.931 0 0 0-.678 6.157 125.792 125.792 0 0 0-.145 3.315c0 .828.198 1.143.975 1.143 1.752.063 3.49.358 5.176.879.412.107.488.397.16.688-.499.398-.9.924-1.166 1.533-.854.704-1.197 1.798-1.685 2.759a20.565 20.565 0 0 0-2.295 7.93 20.905 20.905 0 0 0 .977 8.246 77.06 77.06 0 0 0 3.811 9.116 139.531 139.531 0 0 0 7.036 12.43c.914 1.475 2.042 2.792 3.049 4.143.327.431.686.829 1.029 1.252 2.042 2.428 2.058 2.486 2.241 5.8.16 2.959.396 5.909.526 8.867a86.861 86.861 0 0 1-.046 8.213c-.191 4.01-.328 8.038-.465 12.057-.046 1.168 0 2.345 0 3.514a4.596 4.596 0 0 0-.16 1.823c-.054 5.875.061 11.759-.137 17.634-.13 3.746-.244 7.458-.321 11.245-.076 3.787 0 7.608.237 11.411.236 3.804.244 7.384.396 11.08.168 3.853.343 7.707.808 11.543.206 1.716.282 3.456.374 5.188.236 4.748.571 9.497.503 14.262 0 .828 0 1.657.068 2.486a51.755 51.755 0 0 1-.297 6.704 15.402 15.402 0 0 0 .206 4.665c.056.216.101.434.137.655.093.643-.045 1.3-.386 1.835-.34.535-.857.908-1.443 1.04a11.57 11.57 0 0 1-3.995.199c-.205 0-.411-.099-.609-.099-3.766-.075-7.44-1.069-11.205-1.243-2.714-.133-5.42-.68-8.126-1.036-2.142-.282-4.284-.605-6.441-.829-2.82-.298-5.61-.779-8.385-1.359a9.032 9.032 0 0 1-4.474-2.163v.025Zm11.51 83.904a8.08 8.08 0 0 1 .518 1.749c.24 1.145.421 2.305.541 3.472a12.035 12.035 0 0 1-1.402 6.63c-1.299 2.362-3.114 4.34-5.283 5.759a45.297 45.297 0 0 1-6.25 3.646c-1.304.63-2.683 1.127-4.04 1.658-1.022.373-2.073.654-3.11.977a33.317 33.317 0 0 1-8.263 1.301 18.612 18.612 0 0 1-8.796-1.947 5.534 5.534 0 0 1-1.525-1.11 4.514 4.514 0 0 1-1.17-2.039 4.817 4.817 0 0 1-.019-2.403 8.594 8.594 0 0 1 1.448-3.116 19.536 19.536 0 0 1 5.161-4.723 81.789 81.789 0 0 1 8.583-5.287 77.655 77.655 0 0 1 9.741-4.144c.503-.166.679-.074.816.431.099.373.175.754.267 1.135.057.28.129.557.213.829.087.384.251.741.481 1.047.23.306.52.553.848.722.329.169.688.256 1.051.256a2.29 2.29 0 0 0 1.05-.26 15.365 15.365 0 0 0 4.094-2.652 35.677 35.677 0 0 1 3.049-2.527c.853-.696 1.539-.473 1.997.572v.024Zm14.345-62.689c-.625 2.303-1.242 4.607-1.89 6.911-1.105 3.953-2.234 7.897-3.339 11.85-1.26 4.491-2.51 8.98-3.75 13.466-1.24 4.486-2.51 9.027-3.811 13.624a4875.393 4875.393 0 0 0-4.063 14.775c-.056.319-.206.61-.427.829-1.723 1.4-3.285 3.049-5.221 4.143-.442.279-.91.506-1.395.68-1.151.348-1.754.074-2.241-1.119a8.192 8.192 0 0 1-.686-4.069c.249-2.165.503-4.331.762-6.497l.823-7.325.709-6.323c.29-2.553.564-5.113.854-7.666.579-5.154 1.227-10.308 1.738-15.479.312-3.232.716-6.439 1.067-9.663.381-3.497.762-6.994 1.174-10.491 0-.157.068-.315.122-.58.909.022 1.814.13 2.706.323 2.721.216 5.434.415 8.148.688 1.433.141 2.851.447 4.276.646 1.426.199 2.661.315 3.995.481.495.066.594.24.449.771v.025Zm69.815 55.679c.526.373.541.986.686 1.491a57.67 57.67 0 0 0 1.89 5.304c1.045 2.743 2.432 5.295 3.652 7.939a27.132 27.132 0 0 1 2.462 7.905c.318 1.706.26 3.47-.168 5.147-.463 1.669-1.42 3.125-2.721 4.143a8.986 8.986 0 0 1-3.804 1.744 8.639 8.639 0 0 1-4.124-.203c-3.62-.903-5.907-3.414-7.317-7.01-1.289-3.315-1.38-6.746-1.09-10.226.289-3.481.678-7.119 1.006-10.674.084-.886.099-1.781.16-2.826a8 8 0 0 0 5.069.193c1.67-.487 3.167-1.507 4.299-2.927Zm-1.197-3.804c.473 2.776.115 3.622-2.248 4.873a7.873 7.873 0 0 1-2.966.829c-1.798.165-2.538-.589-2.576-2.569-.061-3.315 0-6.68-.267-10.036-.61-8.063-1.273-16.118-2.241-24.148a1.877 1.877 0 0 0-.297-1.102 17.223 17.223 0 0 0-.16-2.652c-.51-4.78-1.243-9.529-2.195-14.228-.351-1.599-.199-1.715 1.242-1.923 2.904-.414 5.816-.828 8.713-1.292 2.195-.365 2.286-.249 2.286 2.154v21.314a1.94 1.94 0 0 0-.305 1.268 72.415 72.415 0 0 0 .084 7.367c.139.484.219.985.237 1.491v3.879a11.103 11.103 0 0 1-.244 2.121 38.434 38.434 0 0 0-.092 5.461c0 .531 0 1.135.534 1.442 0 .091-.046.191-.084.282-.259 1.864.274 3.654.579 5.453v.016Zm4.482-63.32c1.677 5.851.526 7.724-5 8.71a153.904 153.904 0 0 1-19.613 2.527c-4.261.199-8.522.655-12.798.406-7.447-.422-14.91-.397-22.349-.953-2.028.266-4.025-.397-6.045-.29a5.485 5.485 0 0 0-.976 0c-1.158-.091-2.286-.174-3.476-.281a66.24 66.24 0 0 1-7.203-.895c-1.41-.282-2.851-.431-4.284-.58-1.951-.199-3.902-.332-5.846-.531-1.586-.166-3.179-.323-4.757-.613a4.794 4.794 0 0 1-2.616-1.668 5.53 5.53 0 0 1-1.195-3.031 6.5 6.5 0 0 1 .13-1.997 55.958 55.958 0 0 1 2.21-6.787c.176-.439.412-.522.839-.455 4.573.621 9.093 1.209 13.636 1.831 1.632.224 3.263.464 4.894.754 1.579.244 3.17.394 4.764.448 1.745.121 3.483.342 5.206.662 2.643.492 5.327.661 8.004.506a3.48 3.48 0 0 0 1.342-.348c1.265-.646 2.103-1.591 1.974-3.24a9.87 9.87 0 0 0-.107-1.508 13.733 13.733 0 0 1-.114-4.5c.091-1.111.175-2.229.175-3.315v-10.251c0-2.792-.274-5.585-.488-8.37-.16-2.121-.213-4.251-.434-6.364-.435-4.143-.526-8.287-.831-12.389-.214-2.9-.229-5.8-.328-8.726-.19-5.196-.511-10.4-.274-15.612.106-2.486.167-5.03.244-7.549 0-.39 0-.779-.046-1.169l-.038-.041c.876-1.053.762-2.403.762-3.671.046-4.865 0-9.737 0-14.61 0-1.79.175-1.931 1.73-2.005 4.642-.224 9.254.439 13.889.348.968 0 1.364.555 1.524 1.508.191 1.168.16 2.345.328 3.513 1.829 12.688 2.104 25.507 2.569 38.294.205 5.602.762 11.154 1.128 16.731.335 5.188.991 10.35 1.433 15.53a143.752 143.752 0 0 0 2.698 18.231c.762 3.596 2.821 5.585 6.098 6.298a20.2 20.2 0 0 0 7.226.174c3.774-.539 7.577-.829 11.312-1.749a2.03 2.03 0 0 1 .868-.126c.294.021.581.106.845.249.263.144.498.343.689.587.192.243.337.526.426.832a51.574 51.574 0 0 1 1.875 5.485Zm-.808-111.292c-1.6 2.047-3.163 4.143-4.771 6.165-1.758 2.283-3.91 4.169-6.335 5.553a17.618 17.618 0 0 1-7.073 2.196c-.564.033-1.129.033-1.693 0-.137 0-.327 0-.365-.199-.039-.199.068-.29.228-.373l4.574-2.395c1.943-1.019 3.887-2.055 5.823-3.083a.655.655 0 0 0 .221-.223.427.427 0 0 0 .061-.29c-.045-.166-.167-.34-.327-.291a6.423 6.423 0 0 0-1.151.44c-2.325 1.193-4.635 2.419-6.952 3.621a196.584 196.584 0 0 1-3.918 1.972 6.185 6.185 0 0 1-3.926.547 1.063 1.063 0 0 1-.259-.124c-.069-.116-.069-.224 0-.298a103.65 103.65 0 0 1 12.326-7.251c.564-.282 1.143-.514 1.7-.829a.374.374 0 0 0 .125-.096.414.414 0 0 0 .1-.307.428.428 0 0 0-.043-.161.388.388 0 0 0-.191-.246.346.346 0 0 0-.296-.01c-.534.215-1.068.422-1.578.679a97.165 97.165 0 0 0-11.167 6.439c-.778.548-1.612.996-2.485 1.334a2.726 2.726 0 0 1-1.525.149.879.879 0 0 1-.504-.196 1.001 1.001 0 0 1-.321-.467 1.086 1.086 0 0 1-.031-.582c.042-.193.136-.368.269-.503.38-.459.841-.829 1.357-1.086a153.56 153.56 0 0 1 3.629-1.873c1.219-.605 2.286-1.069 3.392-1.599a26.064 26.064 0 0 0 5.473-3.406c.617-.505 1.28-.945 1.905-1.442.374-.293.728-.614 1.06-.961a.55.55 0 0 0 .053-.464.355.355 0 0 0-.403-.182.363.363 0 0 0-.138.074c-.976.721-1.967 1.434-2.92 2.196a28.535 28.535 0 0 1-5.335 3.315c-1.967.961-3.949 1.898-5.923 2.842-.648.315-1.098.257-1.38-.174a1.6 1.6 0 0 1-.249-.862c0-.308.087-.609.249-.861.382-.534.88-.955 1.449-1.227 1.021-.53 2.02-1.127 3.049-1.558 4.459-1.823 7.721-5.237 10.542-9.256.655-.928 1.25-1.914 1.867-2.876a.427.427 0 0 0-.031-.47.381.381 0 0 0-.121-.102.315.315 0 0 0-.412.083c-.08.071-.15.155-.206.249-.762 1.599-2.058 2.42-3.476 3.132-1.631.829-3.155 1.89-4.932 2.346a8.109 8.109 0 0 1-2.728.472 3.217 3.217 0 0 1-.763-.141.82.82 0 0 1-.42-.456.902.902 0 0 1 .009-.646c.146-.361.387-.667.693-.879.435-.298.877-.596 1.327-.828.869-.489 1.745-.962 2.614-1.434a33.936 33.936 0 0 0 6.525-4.757 37.815 37.815 0 0 1 1.837-1.541c1.139-.889 2.517-1.344 3.918-1.293 1.387 0 2.782 0 4.17.058a6.235 6.235 0 0 0 4.268-1.06.639.639 0 0 1 .968.091s.077.074.115.116c2.02 2.146 4.032 4.301 6.151 6.546a23.244 23.244 0 0 0-3.049 2.876c-1.57 1.972-3.118 3.911-4.65 5.875v-.008Zm-6.639-16.408c.572-5.502.93-11.021 1.212-16.574.153-3.016.404-6.024.678-9.032.138-1.5.42-2.983.656-4.467 0-.149.137-.273.206-.389.328 0 .488.223.671.397a19.435 19.435 0 0 0 4.573 3.075c.701.348 1.342.829 2.051 1.143a10.847 10.847 0 0 0 4.969 1.011c.305-.029.611-.029.915 0a.374.374 0 0 1 .176.07.408.408 0 0 1 .125.15.456.456 0 0 1 .004.394 2.067 2.067 0 0 1-.13.306c-1.387 3.116-2.789 6.224-4.161 9.348-1.372 3.124-2.927 5.9-4.04 9.033-.526 1.45-1.098 2.883-1.647 4.325-.099.257-.282.531-.259.779.099 1.127-.633 1.218-1.349 1.368a9.023 9.023 0 0 1-2.287 0 10.098 10.098 0 0 1-2.249-.15 1.44 1.44 0 0 1-.114-.779v-.008Zm47.199-24.653c-.808 3.464-1.715 6.903-2.622 10.342-.831 3.174-1.807 6.289-2.699 9.438-1.524 5.345-3.308 10.591-5.023 15.861a283.276 283.276 0 0 1-4.086 11.602 19.792 19.792 0 0 1-2.797 4.972c-.13.174-.282.323-.419.497-.182.238-.42.416-.69.514a1.409 1.409 0 0 1-.835.042 16.678 16.678 0 0 1-3.956-1.393 26.572 26.572 0 0 1-5.336-3.986 44.976 44.976 0 0 1-3.392-3.662c-1.593-1.832-3.201-3.647-4.794-5.478-.442-.505-.442-.58 0-1.119a19.476 19.476 0 0 1 3.681-4.052c.717-.522.763-.555 1.433.099.503.481.984.995 1.456 1.5 1.273 1.384 2.546 2.76 3.758 4.218 1.212 1.459 2.561 2.909 3.85 4.351.428.404.792.883 1.074 1.417a.6.6 0 0 1-.008.563.53.53 0 0 1-.195.201.484.484 0 0 1-.262.065 1.296 1.296 0 0 1-.869-.299 6.749 6.749 0 0 0-.625-.439c-.053 0-.175.067-.259.125-.084.058-.038.099 0 .14.136.454.417.84.791 1.089.375.249.818.345 1.252.27.178-.035.347-.111.496-.223.149-.112.274-.257.368-.425a1.494 1.494 0 0 0 .127-1.133 3.302 3.302 0 0 0-.892-1.542c-.61-.679-1.235-1.35-1.837-2.046-3.262-3.73-6.548-7.459-10.039-10.914-.983-.978-1.928-2.014-2.873-3.05a37.36 37.36 0 0 0-3.4-3.422c-.473-.406-.473-.506-.221-1.144 1.311-3.315 2.63-6.679 4.177-9.944 1.845-3.87 3.537-7.823 5.29-11.742l.076-.15c.526-1.384.069-2.163-1.311-2.221h-.617a8.716 8.716 0 0 1-5.206-1.243c-1.167-.696-2.394-1.292-3.56-1.997a17.163 17.163 0 0 1-4.779-4.707c-.321-.431-.664-.828-1.014-1.259a.262.262 0 0 0-.092-.071.25.25 0 0 0-.221 0 .259.259 0 0 0-.091.071.454.454 0 0 0-.099.456c.129.513.541.828.8 1.218.434.688 1.242 1.185 1.342 1.997a7.002 7.002 0 0 1-.374 2.287 36.558 36.558 0 0 0-.671 4.972c-.233 2.961-.449 5.92-.648 8.875-.244 3.796-.434 7.599-.701 11.395-.099 1.384-.358 2.768-.549 4.143a.621.621 0 0 1-.181.447.54.54 0 0 1-.2.125.51.51 0 0 1-.229.025c-2.157-.066-3.879 1.036-5.419 2.486a38.776 38.776 0 0 1-8.926 6.265c-.602.315-1.182.679-1.761 1.036a3.42 3.42 0 0 0-1.037.994 1.876 1.876 0 0 0-.397.904c-.052.336-.016.681.104.996.12.315.319.586.575.784.255.197.557.313.869.332a5.232 5.232 0 0 0 2.15-.091 15.897 15.897 0 0 0 4.368-1.657c.229-.122.466-.227.709-.315.213-.058.335 0 .404.083.186-.137.364-.287.533-.448.061-.066.13-.132.191-.207a.179.179 0 0 1 .108-.077.17.17 0 0 1 .128.019.412.412 0 0 0-.297.174c-.206.207-.427.39-.648.572.05.116.064.247.038.373-1.789 2.4-4.074 4.305-6.67 5.56a127.457 127.457 0 0 0-4.07 2.031 7.82 7.82 0 0 0-1.441.953 2.67 2.67 0 0 0-1.07 1.601 2.878 2.878 0 0 0 .239 1.962c.089.221.188.437.298.646-.328.365-.679.696-.961 1.078-.968 1.309-.427 2.486.663 3.016.136.08.283.133.435.158a11.166 11.166 0 0 1 1.837.066c.587.141 1.075.63 1.715.696a8.111 8.111 0 0 0 2.614-.116 2.58 2.58 0 0 1 1.35.066c1.647.48 3.376.531 5.046.149 4.236-.844 8.127-3.097 11.136-6.447.183-.195.376-.378.579-.547h.176c.207.369.327.787.35 1.218.824 4.666 1.685 9.323 2.44 14.005.8 4.972 1.57 9.944 2.507 14.842l2.287 12.157c.686 3.613 1.395 7.218 2.096 10.831l2.836 14.775c.945 4.922 1.928 9.837 2.836 14.776a32.98 32.98 0 0 1 .533 4.972c.014.953-.104 1.902-.35 2.817a1.883 1.883 0 0 1-.572 1.073 1.612 1.612 0 0 1-1.067.435 11.853 11.853 0 0 0-3.004.705c-2.073.663-4.146 1.309-6.25 1.856-1.296.331-2.645.414-3.956.713-3.049.671-6.098.961-9.147 1.4-1.128.166-2.241.373-3.369.514-2.561.366-5.166.03-7.577-.978a4.826 4.826 0 0 1-1.944-1.474 5.425 5.425 0 0 1-1.059-2.305c-.214-.828-.389-1.732-.61-2.594-.618-2.378-.846-4.831-1.258-7.25-.663-3.962-.831-7.997-1.296-11.992-.655-5.543-.998-11.129-1.524-16.689-.511-5.238-.717-10.491-.915-15.745-.236-6.265-.427-12.53-.701-18.787-.092-2.121-.381-4.234-.602-6.347a554.648 554.648 0 0 0-.763-7.003c-.274-2.552-.564-5.104-.831-7.665-.152-1.442-.335-2.884-.388-4.334-.138-3.422-.61-6.795-.854-10.201-.107-1.392-.274-2.784-.374-4.144-.335-4.74-.655-9.48-.808-14.236a8.051 8.051 0 0 1 1.113-4.425 389.087 389.087 0 0 1 2.737-4.865 72.608 72.608 0 0 0 3.247-6.629c1.159-2.619 2.241-5.279 3.308-7.947a77.717 77.717 0 0 0 2.935-8.992c.61-2.312 1.311-4.591 1.73-6.961.627-3.063.791-6.218.488-9.339a10.769 10.769 0 0 0-1.303-3.92 5.143 5.143 0 0 0-2.241-2.229c-.282-.132-.557-.29-.831-.447-.275-.158-.343-.398-.099-.647.487-.505.991-.986 1.486-1.475.34-.249.622-.58.823-.97.018-.043.033-.087.046-.132a.504.504 0 0 0-.15-.259.44.44 0 0 0-.262-.114l-.571.431c-.846.829-1.708 1.591-2.546 2.412-.419.414-.328.903.206 1.193.186.09.377.167.571.232 2.447.961 3.644 3.008 3.987 5.668.455 3.84.169 7.74-.839 11.453-.876 3.439-1.76 6.886-2.927 10.226-.488 1.408-.975 2.817-1.524 4.201-1.525 3.853-3.141 7.649-4.947 11.345a99.781 99.781 0 0 1-4.033 7.334 1.5 1.5 0 0 1-.289.306c-.282-.132-.244-.364-.244-.58 0-3.862.137-7.715.373-11.601.26-4.185.961-8.287 1.525-12.431.709-4.972 1.418-9.944 1.738-14.974.263-3.567.339-7.147.229-10.723a3.962 3.962 0 0 0-.244-1.807 52.49 52.49 0 0 0-.763-7.657c-.564-3.315-1.128-6.712-1.943-10.01-.313-1.243-.717-2.486-1.06-3.68a2.613 2.613 0 0 1-.229-1.35 8.871 8.871 0 0 1 3.484.314 3.567 3.567 0 0 1 1.402 1.011c.382.365.671.83 1.197 1.028l.137.1a.62.62 0 0 0 .298-.307 1.798 1.798 0 0 1-.061-.19l-.542-.83c.328-.306.687-.157.999-.082a35.23 35.23 0 0 1 6.906 2.279c1.7.828 3.362 1.657 5.061 2.486 3.987 1.79 7.859 3.845 11.77 5.8.444.287.941.462 1.455.514.741.5 1.525.919 2.341 1.252 2.241 1.118 4.512 2.17 6.73 3.314 3.095 1.658 6.19 3.315 9.224 5.072a290.326 290.326 0 0 1 10.229 6.24 141.582 141.582 0 0 1 6.784 4.649c4.005 2.879 7.465 6.567 10.191 10.864 1.629 2.608 2.568 5.652 2.714 8.8a44.137 44.137 0 0 1-1.349 12.961v-.008Z"/>
  <path fill="#6067FF" d="M184.358 288.121a6.987 6.987 0 0 0-.137-.655 15.434 15.434 0 0 1-.206-4.665 51.57 51.57 0 0 0 .297-6.704c-.038-.829-.083-1.657-.068-2.486.068-4.765-.267-9.513-.503-14.262-.092-1.732-.168-3.472-.374-5.187-.465-3.837-.64-7.691-.808-11.544-.152-3.696-.19-7.392-.396-11.079-.206-3.688-.32-7.608-.236-11.411.083-3.804.19-7.5.32-11.246.198-5.883.084-11.759.137-17.634a4.598 4.598 0 0 1 .16-1.823v-3.514c.137-4.019.274-8.046.465-12.057.145-2.735.16-5.476.046-8.212-.13-2.959-.366-5.909-.526-8.867-.183-3.265-.198-3.315-2.241-5.801-.343-.414-.701-.829-1.029-1.251-1.037-1.384-2.165-2.702-3.049-4.144a139.39 139.39 0 0 1-7.036-12.43 76.99 76.99 0 0 1-3.811-9.116 20.9 20.9 0 0 1-.977-8.245 20.56 20.56 0 0 1 2.296-7.931c.487-.961.83-2.055 1.684-2.759a4.014 4.014 0 0 1 1.166-1.533c.328-.29.252-.58-.16-.688a19.947 19.947 0 0 0-5.175-.878c-.763 0-1.007-.315-.976-1.144 0-1.119.084-2.237.145-3.315.058-2.07.285-4.13.678-6.157a77.806 77.806 0 0 1 1.563-5.958c.091-.29.35-.58.122-.936-.404 0-.625.372-.877.638-1.288 1.367-2.591 2.71-3.986 3.952a16.466 16.466 0 0 0-4.101 4.732 5.4 5.4 0 0 1-1.136 1.367 34.947 34.947 0 0 1-3.743 3.224 14.478 14.478 0 0 0-3.506 3.497c-1.662 2.337-1.365 1.658-1.227 4.583 0 .108.045.215.053.323.267 2.486.564 4.972.8 7.5.191 2.063.267 4.143.458 6.19a37.04 37.04 0 0 1 .053 5.361 60.217 60.217 0 0 1-.838 7.318 49.897 49.897 0 0 1-1.799 7.963 23.054 23.054 0 0 1-2.729 5.801c-.884 1.227-1.883 2.37-2.836 3.539-.343.414-.701.828-1.075 1.201-.195.18-.41.333-.64.456-.061.041-.198 0-.274-.058a.277.277 0 0 1-.146-.184.305.305 0 0 1 .039-.239c.686-.828 1.364-1.657 2.096-2.486 2.66-2.914 4.55-6.551 5.473-10.532a66.94 66.94 0 0 0 1.578-9.058c.137-1.218.259-2.444.335-3.671a51.093 51.093 0 0 0-.274-8.37c-.381-3.778-.678-7.565-1.021-11.353a.569.569 0 0 0-.077-.314c-.045-.05-.236-.067-.266 0a8.161 8.161 0 0 0-.557.977c-1.227 2.835-2.416 5.685-3.689 8.494-1.433 3.166-2.973 6.265-5.618 8.511-.533.448-.541.638-.206 1.284.608.978.927 2.135.915 3.315a5.915 5.915 0 0 0 .884 3.646c-.053.39-.297.481-.35.688a5.156 5.156 0 0 1-1.015-1.663 5.492 5.492 0 0 1-.35-1.958 7.57 7.57 0 0 0-1.128-4.276 13.793 13.793 0 0 1-1.73-4.276 62.522 62.522 0 0 0-1.235-6.05 7.319 7.319 0 0 1-.29-1.823 16.777 16.777 0 0 0-.511-2.958 10.846 10.846 0 0 1-.365-3.315 13.91 13.91 0 0 1 1.997-6.447c.67-1.06 1.296-2.154 1.951-3.224 1.182-1.922 1.303-4.077 1.159-6.297a.884.884 0 0 0-.148-.463.77.77 0 0 0-.363-.292c-.236-.09-.465-.215-.701-.331a2.367 2.367 0 0 0-1.23.07 2.53 2.53 0 0 0-1.057.684c-.907 1.069-1.89 2.055-2.759 3.157-4.111 5.243-7.538 11.077-10.184 17.336a76.896 76.896 0 0 0-5.603 19.798 50.255 50.255 0 0 0 .29 17.187 25.104 25.104 0 0 0 3.613 8.999c1.306 2.057 3.053 3.738 5.09 4.898a13.268 13.268 0 0 0 6.603 1.756c3.157.029 6.28-.701 9.147-2.138 3.945-1.943 7.569-4.581 10.725-7.806.297-.298.541-.663.838-.961a.559.559 0 0 1 .274-.15.526.526 0 0 1 .306.026c.251.082.236.315.244.538 0 .721 0 1.459.084 2.171.195 1.78.299 3.57.312 5.362 0 .331 0 .671.061 1.003.304 3.581.347 7.184.13 10.773-.199 3.853-.542 7.698-.641 11.56-.061 2.411-.137 4.814-.312 7.218a445.814 445.814 0 0 0-.984 18.604c-.182 5.485-.762 10.938-1.173 16.399-.107 1.392-.221 2.785-.397 4.144-.305 2.444-.762 4.864-.968 7.309-.305 3.314-.991 6.629-1.578 9.944-.587 3.315-1.417 6.522-2.088 9.795a166.545 166.545 0 0 1-1.967 8.452c-.968 3.655-1.974 7.293-2.919 10.956a27.349 27.349 0 0 0-.694 3.779 4.827 4.827 0 0 0 .201 2.307 4.473 4.473 0 0 0 1.24 1.886 9.056 9.056 0 0 0 4.444 2.196c2.782.58 5.572 1.06 8.384 1.359 2.158.223 4.3.547 6.441.828 2.706.357 5.412.904 8.126 1.036 3.766.174 7.44 1.169 11.205 1.243.198 0 .404.083.61.1 1.333.166 2.681.099 3.994-.199a2.33 2.33 0 0 0 1.46-1.05c.343-.543.478-1.21.377-1.859Zm-10.366-121.75a2.705 2.705 0 0 1 .733-1.818 2.285 2.285 0 0 1 1.702-.722 2.302 2.302 0 0 1 1.673.798c.438.496.676 1.162.663 1.85a2.703 2.703 0 0 1-.734 1.818 2.28 2.28 0 0 1-1.701.721 2.303 2.303 0 0 1-1.673-.797 2.72 2.72 0 0 1-.663-1.85Zm3.331 48.345a1.964 1.964 0 0 1-.819-.158 2.12 2.12 0 0 1-.699-.49c-.2-.212-.36-.466-.47-.746a2.46 2.46 0 0 1-.17-.885 2.327 2.327 0 0 1 .625-1.553 1.965 1.965 0 0 1 1.449-.626c.267-.009.533.041.783.146.249.105.477.263.669.466.191.202.344.445.448.713.104.267.158.555.158.846a2.334 2.334 0 0 1-.552 1.587c-.37.429-.882.681-1.422.7Zm53.799-126.001c.741.5 1.525.918 2.341 1.251 2.241 1.119 4.512 2.171 6.73 3.315 3.095 1.657 6.19 3.315 9.223 5.071a291.542 291.542 0 0 1 10.23 6.24 142.319 142.319 0 0 1 6.784 4.649c4.005 2.879 7.465 6.567 10.191 10.864 1.629 2.608 2.568 5.653 2.714 8.801a44.067 44.067 0 0 1-1.311 12.952c-.808 3.473-1.715 6.912-2.622 10.351-.831 3.173-1.807 6.289-2.699 9.438-1.524 5.345-3.308 10.591-5.023 15.861a248.688 248.688 0 0 1-4.093 11.602 19.535 19.535 0 0 1-2.79 4.972c-.13.174-.282.323-.419.497-.182.238-.42.416-.69.514a1.4 1.4 0 0 1-.835.041 16.63 16.63 0 0 1-3.956-1.392 26.572 26.572 0 0 1-5.336-3.986 44.976 44.976 0 0 1-3.392-3.662c-1.593-1.832-3.201-3.647-4.794-5.478-.442-.506-.442-.58 0-1.119a19.45 19.45 0 0 1 3.681-4.052c.717-.522.763-.555 1.433.099.504.481.984.995 1.456 1.5 1.273 1.384 2.546 2.76 3.758 4.218 1.212 1.459 2.561 2.909 3.85 4.351a5.41 5.41 0 0 1 1.074 1.417.6.6 0 0 1-.008.563.52.52 0 0 1-.195.2.476.476 0 0 1-.262.066 1.302 1.302 0 0 1-.869-.299 6.563 6.563 0 0 0-.625-.439c-.053 0-.175.066-.259.124-.084.058-.038.1 0 .141.136.454.417.84.791 1.089.375.249.818.345 1.252.27a1.23 1.23 0 0 0 .496-.223c.149-.112.274-.257.368-.425a1.494 1.494 0 0 0 .127-1.133 3.294 3.294 0 0 0-.892-1.542c-.61-.679-1.235-1.35-1.837-2.047-3.262-3.729-6.548-7.458-10.039-10.913-.983-.978-1.928-2.014-2.873-3.05a38.404 38.404 0 0 0-3.4-3.422c-.473-.406-.473-.506-.221-1.144 1.311-3.315 2.63-6.679 4.177-9.944 1.845-3.87 3.537-7.823 5.29-11.743l.076-.149c.526-1.384.069-2.163-1.311-2.221h-.617a8.716 8.716 0 0 1-5.206-1.243c-1.167-.696-2.394-1.292-3.56-1.997a17.163 17.163 0 0 1-4.779-4.707c-.321-.431-.664-.828-1.014-1.259a.264.264 0 0 0-.202-.097.268.268 0 0 0-.111.025.274.274 0 0 0-.091.072.45.45 0 0 0-.099.455c.129.514.541.829.8 1.219.434.687 1.242 1.185 1.342 1.997a7.002 7.002 0 0 1-.374 2.287 36.558 36.558 0 0 0-.671 4.972c-.233 2.961-.449 5.92-.648 8.875-.244 3.796-.434 7.599-.701 11.395-.099 1.384-.358 2.767-.549 4.143a.612.612 0 0 1-.181.447.54.54 0 0 1-.2.125.509.509 0 0 1-.229.025c-2.157-.067-3.879 1.036-5.419 2.486a38.807 38.807 0 0 1-8.926 6.265c-.602.315-1.182.679-1.761 1.035a3.435 3.435 0 0 0-1.037.995 1.885 1.885 0 0 0-.397.904c-.052.336-.016.681.104.996.12.315.319.586.575.784.255.197.557.312.869.332a5.232 5.232 0 0 0 2.15-.091 15.897 15.897 0 0 0 4.368-1.657c.231-.121.467-.229.709-.323.396-.1.503.116.457.497-1.789 2.399-4.074 4.305-6.67 5.56a125.384 125.384 0 0 0-4.07 2.031c-.51.26-.993.58-1.441.953a2.667 2.667 0 0 0-1.07 1.601 2.878 2.878 0 0 0 .239 1.962c.089.221.188.437.298.646-.328.365-.679.696-.961 1.078-.968 1.309-.427 2.486.663 3.016.136.079.283.133.435.157a11.166 11.166 0 0 1 1.837.067c.587.141 1.075.63 1.715.696a8.111 8.111 0 0 0 2.614-.116 2.57 2.57 0 0 1 1.35.066c1.648.48 3.376.531 5.046.149 4.236-.844 8.127-3.097 11.136-6.447.183-.195.376-.378.58-.547h.175c.207.369.327.787.35 1.218.824 4.666 1.685 9.323 2.44 14.005.8 4.972 1.57 9.944 2.507 14.842l2.287 12.157c.686 3.613 1.395 7.217 2.096 10.831l2.836 14.775c.945 4.922 1.929 9.836 2.836 14.775.303 1.639.481 3.302.533 4.973.014.952-.104 1.902-.35 2.817a1.883 1.883 0 0 1-.572 1.073 1.612 1.612 0 0 1-1.067.435 11.853 11.853 0 0 0-3.004.705c-2.073.663-4.146 1.309-6.25 1.856-1.296.331-2.645.414-3.956.713-3.049.671-6.098.961-9.147 1.4-1.128.166-2.241.373-3.369.514-2.561.366-5.166.03-7.577-.978a4.835 4.835 0 0 1-1.944-1.474 5.425 5.425 0 0 1-1.059-2.305c-.214-.829-.389-1.732-.61-2.594-.618-2.378-.846-4.831-1.258-7.251-.663-3.961-.831-7.996-1.296-11.991-.655-5.544-.998-11.129-1.524-16.689-.511-5.238-.717-10.492-.915-15.745-.236-6.265-.427-12.53-.701-18.787-.092-2.121-.381-4.234-.602-6.347a554.648 554.648 0 0 0-.763-7.003c-.274-2.552-.564-5.104-.831-7.665-.152-1.442-.335-2.884-.388-4.334-.137-3.423-.61-6.795-.854-10.201-.107-1.392-.274-2.776-.373-4.144-.336-4.74-.656-9.48-.808-14.236a8.047 8.047 0 0 1 1.112-4.426 396.201 396.201 0 0 1 2.737-4.864 72.608 72.608 0 0 0 3.247-6.629c1.159-2.619 2.241-5.279 3.308-7.948a77.638 77.638 0 0 0 2.935-8.991c.61-2.312 1.311-4.591 1.73-6.961.627-3.064.791-6.218.488-9.339a10.769 10.769 0 0 0-1.303-3.92 5.143 5.143 0 0 0-2.241-2.229c-.282-.132-.557-.29-.831-.447-.275-.158-.343-.398-.099-.647.488-.505.991-.986 1.486-1.475a2.78 2.78 0 0 0 .823-.97c.328-1.21 1.266-1.889 2.051-2.66.785-.77.998-1.4.312-2.394-2.904-4.144-5.335-8.784-9.032-12.265a2.595 2.595 0 0 1-.763-1.235l-.541-.828c.328-.307.686-.158.999-.083a35.398 35.398 0 0 1 6.906 2.279c1.7.828 3.361 1.657 5.061 2.486 3.987 1.79 7.859 3.845 11.769 5.8.432.274.913.444 1.41.498ZM123.538 393.472a18.6 18.6 0 0 1-8.796-1.948 5.514 5.514 0 0 1-1.525-1.11 4.509 4.509 0 0 1-1.17-2.039 4.817 4.817 0 0 1-.019-2.403 8.601 8.601 0 0 1 1.448-3.116 19.553 19.553 0 0 1 5.161-4.723 81.789 81.789 0 0 1 8.583-5.287 77.952 77.952 0 0 1 9.741-4.144c.503-.165.679-.074.816.431.099.373.175.754.267 1.136.057.28.129.556.213.828.087.384.251.742.481 1.048.23.306.52.552.848.721a2.278 2.278 0 0 0 2.101-.004 15.361 15.361 0 0 0 4.094-2.651 36.582 36.582 0 0 1 3.049-2.528c.846-.563 1.524-.331 1.989.713.239.56.413 1.15.518 1.757a33.31 33.31 0 0 1 .542 3.464 12.026 12.026 0 0 1-1.403 6.629c-1.299 2.362-3.113 4.34-5.282 5.759a45.415 45.415 0 0 1-6.251 3.647c-1.311.629-2.683 1.127-4.04 1.657-1.021.373-2.073.655-3.11.978-2.7.74-5.47 1.138-8.255 1.185Zm102.081-29.402a8 8 0 0 0 5.069.193c1.67-.488 3.167-1.507 4.299-2.928.526.373.541.987.686 1.492a57.775 57.775 0 0 0 1.89 5.304c1.045 2.743 2.432 5.295 3.652 7.938a27.139 27.139 0 0 1 2.462 7.906c.318 1.706.26 3.469-.168 5.146-.463 1.669-1.42 3.126-2.721 4.144a8.998 8.998 0 0 1-3.804 1.744 8.651 8.651 0 0 1-4.124-.203c-3.62-.903-5.907-3.414-7.317-7.011-1.288-3.314-1.38-6.745-1.09-10.226.289-3.48.678-7.118 1.006-10.673.084-.887.099-1.782.16-2.826Z"/>
  <path fill="#FDEAFF" d="M333.706 36.458a15.684 15.684 0 0 0-2.86-6.615c-1.439-1.916-3.289-3.418-5.387-4.373-4.427-2.088-9.349-2.593-14.056-1.442-8.652 1.905-15.474 9.38-17.73 18.579a13.12 13.12 0 0 0 .122 7.458c1.837 5.494 5.724 8.287 10.748 9.43a26.89 26.89 0 0 0 4.764.373.666.666 0 0 1 .422.117.76.76 0 0 1 .279.364c.373.829.427.762 1.021-.066.236-.297.534-.528.869-.672a33.117 33.117 0 0 1 6.365-2.486c2.112-.572 1.578-.364 2.066 1.426.079.235.073.495-.017.726a.952.952 0 0 1-.471.517 41.54 41.54 0 0 1-4.619 2.668c-.343.182-.541 0-.618-.448-.106-.605-.206-1.21-.312-1.806-.038-.224-.107-.448-.366-.431-.259.017-.358.356-.328.613.061.605.153 1.218.267 1.815.097.26.097.55.001.81a1.04 1.04 0 0 1-.519.582c-.354.23-.68.509-.968.829-.427.423-.763.903-.557 1.608.16.488.656.63 1.486.538.397 0 .763-.398 1.281-.149.122 1.218.846 2.345.595 3.688a.567.567 0 0 0 .05.325c.048.1.123.18.216.23.252.182.488.39.763.597l.366-.315c1.067-.887 1.219-.829 1.997.298.122.182.236.365.366.539a3.51 3.51 0 0 0 1.166 1.085 1.457 1.457 0 0 0 1.36.11c.22-.093.417-.24.578-.428a1.77 1.77 0 0 0 .349-.66c.194-.58.247-1.205.152-1.814-.137-1.542-.137-1.542 1.25-2.022l.45-.133c.343-.108.709-.199.762-.696 0-.298-.312-.381-.915-.232-.099 0-.19.074-.289.108-.237.082-.488.223-.709 0a1.258 1.258 0 0 1-.076-1.11c.137-.167.32-.29.457-.448 1.159-1.293.937-2.346-.671-2.743a1.184 1.184 0 0 1-.712-.412 1.38 1.38 0 0 1-.317-.806 4.64 4.64 0 0 0-.16-.83c-.282-.679-.038-1.118.404-1.657 1.082-1.193 1.128-1.508.884-3.115a68.227 68.227 0 0 0 5.626-4.144 13.852 13.852 0 0 0 3.666-4.25 15.512 15.512 0 0 0 1.775-5.402c.259-1.91.168-3.856-.266-5.728Zm-19.742 28.93c-.282.099-.579.148-.816.206-.236.058-.297-.058-.335-.124a.351.351 0 0 1 .069-.43c.221-.219.456-.42.701-.606.19-.124.434-.356.625 0a.686.686 0 0 1 .091.54.656.656 0 0 1-.124.249.582.582 0 0 1-.211.164Zm3.575-9.116c-.917.352-1.857.63-2.813.828a6.295 6.295 0 0 1-.312-1.815c-.473-2.577-.915-5.162-1.365-7.748-.114-.654-.076-.68.542-.92.617-.24 1.417-.604 2.134-.911.061.163.107.332.137.505a56.491 56.491 0 0 0 2.012 9.356c.092.448.092.647-.335.738v-.033Zm-.884-13.607a4.217 4.217 0 0 1 .602-2.263c.084-.116.213-.273.381-.149a.636.636 0 0 1 .274.34c.043.438-.009.88-.15 1.293a2.882 2.882 0 0 1-.665 1.085.352.352 0 0 1-.117.097.324.324 0 0 1-.142.036c-.183 0-.176-.207-.183-.365v-.074Zm-1.525 21.81c-.206-.497-.175-.828.122-1.027.084-.063.17-.12.259-.174a51.043 51.043 0 0 0 5.062-2.917c.114.24.16.282.16.34.046.596.511 1.21.259 1.765-.252.555-.999.381-1.525.605-1.227.547-2.477 1.02-3.719 1.525-.237.09-.473.298-.641-.083l.023-.033Zm5.946 7.567c-.64.265-1.006-.349-1.403-.755a4.944 4.944 0 0 1-.488-.646c-.449-.688-.404-.829.328-1.152a36.65 36.65 0 0 1 1.586-.605.31.31 0 0 1 .296.026.344.344 0 0 1 .11.116c.028.047.045.1.051.157.076.372.107.762.13.953-.016.886.091 1.649-.633 1.939l.023-.034Zm1.578-8.528c.381.058.617.299.609.589a.86.86 0 0 1-.169.439.76.76 0 0 1-.364.265c-.252 0-.442-.373-.45-.928a.34.34 0 0 1 .102-.258.295.295 0 0 1 .117-.067.274.274 0 0 1 .132-.007l.023-.033Zm-.427 3.473c.099.215.091.43-.13.547-.227.117-.462.22-.701.306l-3.049 1.06a.92.92 0 0 1-.64.349 1.25 1.25 0 0 1-.436.315c-.165.07-.341.1-.517.09a.215.215 0 0 1-.117-.04.242.242 0 0 1-.081-.1.35.35 0 0 1 .017-.154.316.316 0 0 1 .082-.128c.206-.149.434-.257.648-.39l.655-.297a35.983 35.983 0 0 1 3.697-1.915c.32-.14.442.141.549.39l.023-.033Zm-.709-2.62c.312 1.194.32 1.21-.762 1.733a34.371 34.371 0 0 0-4.261 2.27.365.365 0 0 1-.168.083.363.363 0 0 1-.338-.123.417.417 0 0 1-.089-.175c-.762-2.279-.762-2.329 1.334-3.224a38.55 38.55 0 0 1 2.592-1.019c.472-.137.95-.248 1.433-.331.106.406.183.613.236.82l.023-.033Zm.686-7.159a2.59 2.59 0 0 1-.671 1.077.265.265 0 0 1-.12.09.245.245 0 0 1-.145.008.258.258 0 0 1-.128-.076.302.302 0 0 1-.072-.138 19.064 19.064 0 0 1-.244-1.127c-.068-.38.145-.547.549-.555.114 0 .358.091.595.182a.402.402 0 0 1 .213.23.452.452 0 0 1 0 .326l.023-.017Zm5.953-6.29c-1.608 1.301-3.3 2.486-4.954 3.705-.328.248-.763.348-.938.828a.36.36 0 0 1-.142.184.312.312 0 0 1-.216.048 13.198 13.198 0 0 0-2.622.15.475.475 0 0 1-.363-.107.557.557 0 0 1-.194-.35c-.838-3.223-1.806-6.413-2.012-9.794a1.61 1.61 0 0 1 .09-.726c.085-.23.222-.434.398-.592a5.808 5.808 0 0 0 1.524-2.677 2.561 2.561 0 0 0-.114-1.657 1.163 1.163 0 0 0-.305-.474 1.038 1.038 0 0 0-.478-.255.984.984 0 0 0-.532.027 1.056 1.056 0 0 0-.454.304 3.145 3.145 0 0 0-.701 1.293 6.91 6.91 0 0 0-.335 2.643c.033.308-.028.618-.172.884a1.347 1.347 0 0 1-.629.592c-.467.34-.982.594-1.524.754-.511.116-.762 0-.938-.58a14.965 14.965 0 0 0-1.044-2.793 3.12 3.12 0 0 0-1.235-1.45.858.858 0 0 0-.89-.059.946.946 0 0 0-.354.321 1.05 1.05 0 0 0-.166.467c-.077.44-.045.895.091 1.318.177.676.475 1.309.876 1.86a5.067 5.067 0 0 0 1.464 1.355c.247.135.46.331.623.573.163.242.271.523.315.82.587 3.123 1.189 6.239 1.639 9.388.061.447 0 .779-.45.895l-.137.075c-.795.507-1.645.906-2.531 1.185-.923.043-1.847-.04-2.751-.249-1.28 0-2.556-.136-3.812-.406-2.882-.7-5.49-2.367-7.455-4.765a11.369 11.369 0 0 1-2.295-4.593 11.987 11.987 0 0 1-.098-5.227c.889-4.6 2.977-8.826 6.016-12.17 3.039-3.345 6.899-5.668 11.119-6.69 4.661-1.151 9.539-.64 13.912 1.458 2.408 1.234 4.433 3.207 5.824 5.677 1.391 2.469 2.087 5.326 2.004 8.22a14.079 14.079 0 0 1-1.362 5.976c-.883 1.847-2.156 3.44-3.715 4.648l.023-.034Zm-16.655-6.124v.15c0 .05-.114.207-.229.116a3.681 3.681 0 0 1-1.138-1.289 4.033 4.033 0 0 1-.47-1.711c0-.04.009-.08.027-.115a.228.228 0 0 1 .075-.085.198.198 0 0 1 .21-.007c.138.067.258.17.351.298a6.97 6.97 0 0 1 1.174 2.643Zm46.657 284.77c.927-3.542.578-7.335-.975-10.608-2.249-4.972-5.9-8.013-10.954-8.767-5.253-.781-10.593.428-15.123 3.422-3.664 2.431-6.651 5.9-8.638 10.036-1.988 4.136-2.902 8.783-2.643 13.441.117 2.194.815 4.303 2.012 6.074 3.148 4.624 7.554 6.124 12.615 5.801a28.898 28.898 0 0 0 4.391-.912c.442-.107.8-.198 1.014.365 0 .091.145.158.228.224.282.207.702.041.656-.323-.069-.63.282-.92.625-1.243a31.02 31.02 0 0 1 5.953-4.467c1.189-.688 1.067-.928 1.791.605.059.156.125.308.199.456a.962.962 0 0 1-.13 1.201 42.392 42.392 0 0 1-4.169 4.21 6.802 6.802 0 0 1-1.022-1.939 5.82 5.82 0 0 0-.297-.564.335.335 0 0 0-.282-.041.405.405 0 0 0-.214.215 1.102 1.102 0 0 0 .115.829c.297.762.61 1.517.907 2.262-.366.489-.717.895-1.022 1.343a2.78 2.78 0 0 0-.533 1.376 1 1 0 0 0 .038.369.938.938 0 0 0 .171.323.84.84 0 0 0 .274.223.777.777 0 0 0 .332.087c.261-.004.519-.057.763-.157.289-.125.541-.332.815-.481a.444.444 0 0 1 .449-.087.485.485 0 0 1 .199.137.55.55 0 0 1 .115.224c.411 1.002 1.234 1.781 1.288 2.991 0 .547.564.589.937.738.374.149.511-.15.679-.456a2.797 2.797 0 0 1 1.075-.879c.434.398.815.763 1.219 1.094.324.277.677.511 1.052.696a1.514 1.514 0 0 0 1.694-.105c.247-.184.442-.439.564-.737.122-.297.166-.625.128-.948a6.302 6.302 0 0 0-.252-1.301c-.099-.372-.266-.729-.373-1.102a.618.618 0 0 1-.025-.407.566.566 0 0 1 .231-.322c.35-.24.701-.464 1.044-.721.25-.184.482-.395.694-.63a.535.535 0 0 0 .076-.447.492.492 0 0 0-.185-.133.459.459 0 0 0-.219-.033c-.511.108-.854.622-1.395.663-.465-.489-.625-.978-.137-1.591a2.68 2.68 0 0 0 .396-.895 1.303 1.303 0 0 0-.067-.967 1.18 1.18 0 0 0-.29-.382 1.09 1.09 0 0 0-.405-.226 1.3 1.3 0 0 0-.762-.124c-.801.298-1.129-.182-1.403-.829a15.152 15.152 0 0 0-.564-1.193.787.787 0 0 1-.103-.393c0-.14.035-.276.103-.394.18-.27.331-.562.45-.87.203-.454.324-.947.358-1.45a2.586 2.586 0 0 0-.518-1.202c1.577-2.005 3.11-3.895 4.573-5.801a14.145 14.145 0 0 0 2.477-5.278Zm-13.187 22.25a5.47 5.47 0 0 1-.762.555c-.16.099-.373.257-.541.083-.168-.174-.046-.489.099-.705.145-.215.366-.522.564-.762.061-.066.183-.075.305-.124.097.112.184.234.259.364.115.183.282.398.076.589Zm-.975-8.113c-.252.174-.519.19-.641-.133-1.151-3.091-2.568-6.057-3.948-9.115a11.492 11.492 0 0 0 2.432-1.964c.487 1.168.891 2.229 1.364 3.256.473 1.028 1.021 2.056 1.525 3.075.503 1.019 1.097 2.014 1.715 3.141l-2.447 1.74Zm-1.921-16.839a.44.44 0 0 1 .221-.191.273.273 0 0 1 .222.014c.07.035.124.099.151.177.511 1.127.115 2.088-.457 3.199a4.137 4.137 0 0 1-.386-1.584 4.174 4.174 0 0 1 .249-1.615Zm11.487 28.896a.838.838 0 0 1-.045.372.778.778 0 0 1-.201.304.68.68 0 0 1-.309.165.648.648 0 0 1-.344-.012c-.702-.124-1.228-.514-2.127-1.583a10.236 10.236 0 0 1 2.241-1.724c.508.708.784 1.58.785 2.478Zm-.976-7.897a.621.621 0 0 1 .511-.03.694.694 0 0 1 .381.37c.008.16-.022.32-.086.465a.95.95 0 0 1-.28.363c-.084 0-.198 0-.251-.074a1.48 1.48 0 0 1-.412-.829.217.217 0 0 1-.008-.084.204.204 0 0 1 .075-.145.18.18 0 0 1 .07-.036Zm.496 3.315a.49.49 0 0 1 .132.203c.027.08.035.165.023.249a.504.504 0 0 1-.093.228.447.447 0 0 1-.184.148c-.762.514-1.456 1.011-2.18 1.508a4.954 4.954 0 0 1-1.631 1.252.38.38 0 0 1-.14-.109.432.432 0 0 1-.081-.165 3.78 3.78 0 0 1 1.44-1.417l2.074-1.939a.396.396 0 0 1 .151-.116.367.367 0 0 1 .36.037.429.429 0 0 1 .129.145v-.024Zm-1.334-2.42c0 .05.068.091.091.132.603 1.036.603 1.078-.305 1.898-.663.605-1.364 1.177-2.012 1.798-.648.622-1.197 1.21-1.845 1.873-.175-.141-.282-.19-.327-.273-.343-.68-.999-1.301-.93-2.047.068-.746.983-1.028 1.524-1.517a16.978 16.978 0 0 1 2.927-2.138c.397-.215.633-.132.877.299v-.025Zm-.762-1.558a1.656 1.656 0 0 1-.763.621 32.125 32.125 0 0 0-3.887 2.951c-.198.165-.404.348-.64.049-.237-.298-.351-.746-.115-1.044.102-.124.211-.24.328-.348a60.71 60.71 0 0 0 4.048-4.069 6.192 6.192 0 0 1 1.013 1.906l.016-.066Zm-.587-4.144a.291.291 0 0 1-.101.113.256.256 0 0 1-.279 0 .291.291 0 0 1-.101-.113c-.099-.19-.182-.389-.282-.58-.099-.19-.35-.629-.099-.895a.915.915 0 0 1 .862-.174.382.382 0 0 1 .258.138c.066.08.102.185.1.293a2.249 2.249 0 0 1-.374 1.21l.016.008Zm.8-4.077c-.373.448-.587 1.045-1.006 1.384a4.3 4.3 0 0 1-1.456.497 5.237 5.237 0 0 1-1.525.547 53.586 53.586 0 0 1-4.474-9.115 1.784 1.784 0 0 1 .13-1.583 5.402 5.402 0 0 0 .808-3.165 2.375 2.375 0 0 0-.564-1.517 1.034 1.034 0 0 0-.377-.285.959.959 0 0 0-.893.064 1.059 1.059 0 0 0-.339.337c-.246.361-.39.794-.411 1.243a8.632 8.632 0 0 0 .266 3.157c.094.233.115.492.058.738a1.158 1.158 0 0 1-.37.621 8.285 8.285 0 0 1-1.41 1.293.617.617 0 0 1-.845.004.707.707 0 0 1-.184-.261c-.45-.688-.869-1.4-1.365-2.038a6.246 6.246 0 0 0-1.257-1.218 1.168 1.168 0 0 0-.792-.286 1.179 1.179 0 0 0-.779.327 1.616 1.616 0 0 0-.061 1.591c.192.521.483.993.854 1.384a5.241 5.241 0 0 0 2.653 1.616c.178.027.347.103.491.22.144.118.258.273.332.451 1.402 3.041 2.881 6.049 4.04 9.223.029.105.047.214.053.324a.397.397 0 0 1-.076.14 12.085 12.085 0 0 1-2.378 2.114c-.884.464-1.99.422-2.981.663a16.567 16.567 0 0 1-4.893.646 13.483 13.483 0 0 1-6.327-1.939c-1.58-.91-2.914-2.254-3.867-3.898a11.812 11.812 0 0 1-1.568-5.475c-.337-6.108 1.457-12.13 5.023-16.863 2.431-3.204 5.56-5.694 9.103-7.244a21.195 21.195 0 0 1 11.181-1.632c2.844.439 5.49 1.837 7.565 3.997 2.074 2.16 3.473 4.974 3.998 8.044.36 1.927.318 3.918-.123 5.825a13.615 13.615 0 0 1-2.423 5.197c-1.219 1.698-2.523 3.281-3.826 4.872h.015Zm-13.66-5.8a3.577 3.577 0 0 1-1.479-.851 3.972 3.972 0 0 1-.975-1.478.36.36 0 0 1-.02-.24.33.33 0 0 1 .134-.191.315.315 0 0 1 .282 0c.948.643 1.668 1.616 2.043 2.76h.015Zm-242.975-47.31c-4.37-1.915-9.162-2.379-13.774-1.334-8.255 1.707-15.931 9.289-17.99 19.491a12.677 12.677 0 0 0-.13 4.921c.28 1.631.875 3.18 1.747 4.542 2.622 4.144 6.357 6.215 10.892 6.704.915.091 1.845.1 2.775.124.64 0 1.19.108 1.44.92.115.357.679.315.71 0 .091-.77.647-.969 1.135-1.21a33.464 33.464 0 0 1 7.158-2.676c.64-.141.762-.1.884.53.107.431.152.887.26 1.309a.897.897 0 0 1-.025.569.806.806 0 0 1-.357.418 33.045 33.045 0 0 1-4.192 2.486 1.37 1.37 0 0 1-1.045.298c-.137-.829-.266-1.657-.434-2.486a.475.475 0 0 0-.126-.19.423.423 0 0 0-.194-.1.33.33 0 0 0-.152.024.36.36 0 0 0-.128.092.42.42 0 0 0-.101.306c.076.721.152 1.442.282 2.155.099.555.068.986-.48 1.235a2.441 2.441 0 0 0-.633.48 5.42 5.42 0 0 0-.763.829 1.228 1.228 0 0 0-.114 1.268c.102.163.246.29.415.362a.827.827 0 0 0 .53.044c.55-.041 1.098-.157 1.693-.249.175.688.335 1.335.503 1.973.066.209.122.422.167.638.041.274.059.551.054.829-.017.296.051.59.196.841.145.251.36.447.612.559a.44.44 0 0 0 .419-.083c.328-.63.915-.621 1.456-.829.259.406.472.829.724 1.127.277.404.589.778.93 1.119.227.269.523.457.85.538.327.082.67.053.981-.082a1.68 1.68 0 0 0 .765-.673 1.91 1.91 0 0 0 .278-1.026v-1.508a2.587 2.587 0 0 1 0-1.16 11.086 11.086 0 0 1 1.882-.729c.185-.079.352-.2.488-.357.076-.091.054-.306 0-.456a.319.319 0 0 0-.099-.115.277.277 0 0 0-.137-.05c-.404.083-.762.19-1.197.298a.337.337 0 0 1-.293-.031.401.401 0 0 1-.172-.259c-.206-.555-.175-.704.244-1.16a5.43 5.43 0 0 0 .549-.589 1.38 1.38 0 0 0 .326-.61 1.468 1.468 0 0 0-.001-.707 1.374 1.374 0 0 0-.33-.608 1.215 1.215 0 0 0-.567-.345 4.876 4.876 0 0 0-.762-.166.694.694 0 0 1-.402-.223.806.806 0 0 1-.2-.44 2.58 2.58 0 0 0-.076-.497c-.366-1.069-.412-1.989.564-2.818.302-.227.526-.557.637-.938.11-.382.1-.792-.027-1.166-.183-.506 0-.672.358-.904a59.477 59.477 0 0 0 5.61-4.143c1.657-1.35 2.992-3.111 3.893-5.137a15.11 15.11 0 0 0 1.29-6.506c.01-3.086-.82-6.106-2.385-8.681-1.565-2.574-3.796-4.588-6.411-5.788Zm-11.083 39.926a2.049 2.049 0 0 1-1.441.298c.038-.696.549-.911.945-1.226a.35.35 0 0 1 .267-.126.35.35 0 0 1 .267.126c.198.29.183.853-.038.928Zm.617-8.03a12.762 12.762 0 0 1-.534-3c-.419-2.245-.762-4.491-1.189-6.745-.106-.605-.068-.763.427-.829.831-.116 1.48-.754 2.34-.945.275 3.58 1.266 6.928 2.165 10.384l-3.209 1.135Zm2.37-14.369a1.08 1.08 0 0 1-.114.29c-.091.124-.213.273-.38.174a.372.372 0 0 1-.123-.257 1.837 1.837 0 0 1 .229-1.251 2.528 2.528 0 0 1 .594-1.492.295.295 0 0 1 .26-.099.305.305 0 0 1 .123.081.34.34 0 0 1 .075.134c.058.271.081.55.069.829a2.94 2.94 0 0 1-.763 1.607l.03-.016Zm-2.05 21.653a.89.89 0 0 1-.093-.622.828.828 0 0 1 .337-.513c.313-.191.633-.373.96-.539a37.04 37.04 0 0 0 3.812-2.196c.142-.071.29-.127.442-.165.374.546.274 1.209.473 1.773.083.257-.084.398-.313.456a28.31 28.31 0 0 0-4.932 1.906c-.236.107-.503.207-.686-.1Zm6.457 6.92a.856.856 0 0 1-.162.38.762.762 0 0 1-.312.246.709.709 0 0 1-.738-.112c-.557-.34-.907-.829-1.563-2.072.83-.461 1.701-.83 2.6-1.102a5.13 5.13 0 0 1 .175 2.66Zm1.189-7.889.145.058c.442.207.518.489.251.911a.792.792 0 0 1-.286.297.71.71 0 0 1-.385.101c-.091-.298-.198-.613-.274-.928-.076-.315.137-.588.549-.456v.017Zm-.58 3.397c.092.299.092.597-.19.696-1.388.522-2.782 1.011-4.177 1.509a.624.624 0 0 1-.236.235.557.557 0 0 1-.313.071 1.445 1.445 0 0 1-.496.232c-.175 0-.213-.141 0-.265.065-.168.17-.314.304-.423a.897.897 0 0 1 .459-.198c1.31-.829 2.744-1.426 4.116-2.13.259-.158.427-.042.533.273Zm-.503-1.864a.551.551 0 0 1-.12.566.473.473 0 0 1-.162.105l-.137.083a53.726 53.726 0 0 0-5.229 2.826c-.221-.928-.381-1.658-.564-2.321-.084-.315 0-.538.244-.679a26.565 26.565 0 0 1 4.886-1.939c.625-.166.762-.05.922.712.046.216.1.431.16.647Zm.435-7.864a.784.784 0 0 1-.084.306c-.19.315-.335.829-.701.779-.366-.05-.343-.58-.443-.928a1.112 1.112 0 0 1 0-.157c-.068-.523.077-.68.656-.622.124.022.246.052.366.091a.4.4 0 0 1 .201.22.45.45 0 0 1 .005.311Zm5.42-5.801c-1.525 1.143-3.05 2.245-4.574 3.364a2.34 2.34 0 0 0-.595.506.69.69 0 0 1-.274.274.627.627 0 0 1-.366.074 7.455 7.455 0 0 0-2.82.323c-.465-1.757-.915-3.406-1.327-5.063a37.28 37.28 0 0 1-.861-5.279 1.571 1.571 0 0 1 .06-.73c.078-.234.21-.442.382-.604.425-.487.813-1.01 1.159-1.566.32-.514.49-1.12.488-1.741a1.783 1.783 0 0 0-.157-1.057 1.588 1.588 0 0 0-.72-.733c-.33-.02-.656.076-.931.275a1.644 1.644 0 0 0-.594.828c-.255.55-.41 1.15-.457 1.765 0 .563-.099 1.118-.122 1.657.01.225-.04.447-.144.642a1.111 1.111 0 0 1-.443.452c-.404.232-.762.514-1.22.704-.99.456-1.158.348-1.524-.787a12.462 12.462 0 0 0-1.311-3.016 1.859 1.859 0 0 0-.518-.614 1.687 1.687 0 0 0-.71-.315.832.832 0 0 0-.663.136.914.914 0 0 0-.243.264.996.996 0 0 0-.13.346 3.104 3.104 0 0 0 .183 1.798c.439 1.208 1.246 2.215 2.287 2.851.21.102.397.256.543.45.145.195.247.424.295.669a958.685 958.685 0 0 0 1.57 8.883c.062.332.062.672.1 1.003a.536.536 0 0 1-.052.321.472.472 0 0 1-.223.218c-.876.464-1.753.928-2.637 1.367a.744.744 0 0 1-.442.066c-1.73-.339-3.491-.24-5.214-.53a12.82 12.82 0 0 1-5.026-1.803 13.952 13.952 0 0 1-4.007-3.757 11.546 11.546 0 0 1-1.992-4.687 12.014 12.014 0 0 1 .178-5.158 25.63 25.63 0 0 1 3.948-9.114c1.88-2.709 4.255-4.967 6.975-6.631 4.236-2.632 9.161-3.641 13.987-2.868 2.355.265 4.644.999 6.754 2.163 3.107 1.834 5.436 4.909 6.497 8.575 1.061 3.665.771 7.636-.811 11.073-1.035 2.032-2.51 3.759-4.299 5.031v-.025Zm-15.932-6.116a3.923 3.923 0 0 1-1.31-1.244 4.35 4.35 0 0 1-.664-1.747.561.561 0 0 1 .03-.236.514.514 0 0 1 .123-.195.479.479 0 0 1 .419.099c.12.102.216.232.282.381a8.702 8.702 0 0 1 1.12 2.942ZM195.883 44.993a1.876 1.876 0 0 0-1.027-.798 1.727 1.727 0 0 0-1.259.094 3.25 3.25 0 0 0-1.292 1.299 3.639 3.639 0 0 0-.446 1.85 3.11 3.11 0 0 0 .495 1.815c.295.456.738.775 1.24.892a1.896 1.896 0 0 0 1.466-.263c.682-.549 1.147-1.36 1.3-2.267a3.9 3.9 0 0 0-.477-2.622Zm-2.736 3.025a2.39 2.39 0 0 1-.331-1.41 2.33 2.33 0 0 1 .537-1.333.749.749 0 0 1 .394-.243.706.706 0 0 1 .452.044c.29.108.442.49.427 1.136a3.487 3.487 0 0 1-.671 1.83.546.546 0 0 1-.409.17.553.553 0 0 1-.399-.194Zm1.951.77a.29.29 0 0 1-.282 0 .83.83 0 0 1-.175-1.044c.061-.124.236-.173.396-.273.106.112.196.24.267.381.072.158.09.338.053.509a.762.762 0 0 1-.259.428Zm-25.245-9.413c-.398-.793-1.04-1.407-1.815-1.732a3.756 3.756 0 0 0-2.265-.233 3.954 3.954 0 0 0-2.026 1.128 6.268 6.268 0 0 0-1.452 2.18 6.747 6.747 0 0 0-.477 2.643 5.76 5.76 0 0 0 .458 2.353c.21.523.515.995.897 1.386.382.392.834.695 1.326.892a3.606 3.606 0 0 0 3.052-.173 5.783 5.783 0 0 0 1.738-1.54 6.35 6.35 0 0 0 1.051-2.154 6.667 6.667 0 0 0 .198-2.429 6.553 6.553 0 0 0-.685-2.321Zm-4.391 4.483a3.07 3.07 0 0 1-.686.638.718.718 0 0 1-.659.048.773.773 0 0 1-.279-.209.85.85 0 0 1-.167-.32 2.528 2.528 0 0 1-.138-.828c.067-1.266.555-2.462 1.373-3.365.602-.654 1.227-.43 1.44.497.044.197.077.396.099.597a6.23 6.23 0 0 1-.983 2.942Zm1.921 1.765a.669.669 0 0 1-.217.324.585.585 0 0 1-.347.132.28.28 0 0 1-.214-.043.325.325 0 0 1-.129-.19 1.11 1.11 0 0 1 .031-.635c.073-.203.204-.375.373-.491a.747.747 0 0 1 .282-.058c.038 0 .099 0 .129.058a.861.861 0 0 1 .17.437.897.897 0 0 1-.078.466ZM56.292 93.604c-2.468-3.32-5.648-5.929-9.261-7.599a20.077 20.077 0 0 0-9.307-2.014 22.19 22.19 0 0 0-10.108 2.677c-2.964 1.488-5.573 3.7-7.622 6.464A12.117 12.117 0 0 0 18 97.35a12.704 12.704 0 0 0-.293 4.731 16.56 16.56 0 0 0 1.999 6.207 15.174 15.174 0 0 0 4.168 4.765c.83.647 1.715 1.235 2.599 1.798.231.113.423.303.547.544.123.24.172.518.139.791 0 .563.412.779.762.397.107-.112.233-.2.372-.257.14-.057.288-.082.436-.074.928 0 1.853.108 2.76.323 1.785.247 3.544.682 5.251 1.301.564.224.663.398.519.97-.115.431-.252.828-.39 1.268a.83.83 0 0 1-.264.392.729.729 0 0 1-.421.163 40.02 40.02 0 0 1-5.55-.133.297.297 0 0 1-.267-.148.357.357 0 0 1-.03-.324c.221-.68.465-1.351.694-2.039a.5.5 0 0 0 .01-.327.458.458 0 0 0-.193-.253.31.31 0 0 0-.141-.057.306.306 0 0 0-.275.112.362.362 0 0 0-.072.144c-.297.713-.549 1.442-.808 2.171a.906.906 0 0 1-.284.461.788.788 0 0 1-.478.194 4.101 4.101 0 0 0-1.951.406c-.381.224-.686.489-.656 1.028.03.538.305.671.61.895.473.339 1.105.281 1.524.72a4.71 4.71 0 0 1-.35 1.616 3.532 3.532 0 0 1-.762 1.973c-.214.207.076 1.292.358 1.5a.29.29 0 0 0 .282.041c.572-.348 1.09-.041 1.677.124v.829c.01.673.124 1.339.335 1.972.082.355.253.678.494.932.24.255.542.432.87.51a1.56 1.56 0 0 0 .979-.166c.303-.161.555-.418.721-.737.289-.467.544-.957.763-1.467.434-.986.427-.986 1.38-.746.198.05.396.116.594.158a5.9 5.9 0 0 0 .915.141.37.37 0 0 0 .281-.106.454.454 0 0 0 .13-.292.488.488 0 0 0-.073-.22.442.442 0 0 0-.163-.153c-.473-.199-.96-.348-1.448-.514.328-1.027.32-1.044 1.052-1.226a2.52 2.52 0 0 0 .983-.448c.13-.094.24-.216.324-.358a1.338 1.338 0 0 0 .145-.972 1.28 1.28 0 0 0-.202-.451 1.12 1.12 0 0 0-.29-.39 1.32 1.32 0 0 1-.407-.372 1.442 1.442 0 0 1-.23-.521 1.5 1.5 0 0 1-.016-.578c.032-.192.102-.374.203-.534.153-.348.214-.746.336-1.111a.832.832 0 0 1 .212-.341.74.74 0 0 1 .337-.189 6.45 6.45 0 0 0 .899-.249 1.972 1.972 0 0 0 1.105-.77c.277-.385.425-.862.42-1.351a51.387 51.387 0 0 0 6.799-.431c2.95-.268 5.73-1.611 7.89-3.812 2.62-2.708 4.22-6.381 4.484-10.302.265-3.921-.823-7.808-3.052-10.904Zm-29.164 28.175a1.89 1.89 0 0 1 1.426-.464c.213 0 .396.108.396.39 0 .281-.137.596-.404.629a1.411 1.411 0 0 1-.772-.058 1.522 1.522 0 0 1-.646-.464v-.033Zm5.29 9.563c-.08.204-.212.379-.381.502a.99.99 0 0 1-.571.194c-.58 0-.694-.563-.892-.994a.592.592 0 0 1 0-.166c-.343-2.121-.45-2.146 1.479-1.773.343.066.678.19 1.135.323a5.57 5.57 0 0 1-.77 1.947v-.033Zm1.8-2.676a40.355 40.355 0 0 1-2.234-.448c-.397-.083-.762-.19-1.182-.29-.297-.224-.67-.05-.975-.232l-.534-.083c-.107-.066-.137-.124-.107-.182.03-.058.069-.091.107-.091a5.583 5.583 0 0 1 1.86 0c.534.281 1.151 0 1.692.265.503 0 1.006 0 1.525.058a.351.351 0 0 1 .254.16.422.422 0 0 1 .059.312c-.047.357-.146.613-.466.564v-.033Zm1.135-3.315c-.404 1.21 0 1.434-1.631 1.301a26.759 26.759 0 0 0-5-.323 2.362 2.362 0 0 1 0-.514c.693-2.834.29-2.354 2.652-2.055a16.46 16.46 0 0 1 3.613.828.51.51 0 0 1 .225.106c.066.054.12.125.155.206a.604.604 0 0 1-.014.517v-.066Zm-2.47-2.171c-.9-.183-1.821-.299-2.729-.456-.236 0-.54-.058-.495-.456a.875.875 0 0 1 .176-.541.748.748 0 0 1 .457-.287h.152c1.96.181 3.926.252 5.892.215a7.935 7.935 0 0 1-.648 2.188c-.937-.224-1.867-.473-2.805-.663Zm4.101 2.958a1.645 1.645 0 0 1-.175.373.609.609 0 0 1-.327.203.576.576 0 0 1-.374-.037c-.221-.075-.206-.547 0-1.036a.305.305 0 0 1 .152-.175.268.268 0 0 1 .221-.007.861.861 0 0 1 .33.271.97.97 0 0 1 .173.408Zm-.968-9.546-3.392-.829c1.25-3.315 2.287-6.629 3.316-9.986a8.313 8.313 0 0 0 2.965.498c-.541 1.781-1.242 3.389-1.631 5.113-.389 1.723-.83 3.43-1.258 5.204Zm-.175-14.792c-.16.538.198 1.251-.458 1.657a3.127 3.127 0 0 1-.472-1.715 2.664 2.664 0 0 1 .343-1.757.33.33 0 0 1 .113-.093.304.304 0 0 1 .139-.031c.046.006.09.023.13.05.04.028.073.064.098.107.154.476.198.985.13 1.483.002.1-.006.2-.023.299Zm3.316 17.932a1.463 1.463 0 0 1-.66.501 1.346 1.346 0 0 1-.804.046c.107-.431.183-.745.267-1.06.084-.315.183-.605.442-.572a.889.889 0 0 1 .484.194c.142.113.251.267.316.444a.563.563 0 0 1-.045.447Zm12.196-3.381a12.271 12.271 0 0 1-4.284 1.293c-2.15.224-4.3.456-6.464.506-1.037 0-1.03.058-1.662-.29-.632-.348-1.296-.655-2.08-1.053.586-2.32 1.105-4.541 1.714-6.729.313-1.118.763-2.171 1.182-3.265.07-.24.2-.455.377-.619.177-.164.392-.271.621-.309a5.113 5.113 0 0 0 1.975-.911 3.162 3.162 0 0 0 1.227-1.658c.1-.229.131-.488.089-.737a1.246 1.246 0 0 0-.325-.655 1.116 1.116 0 0 0-.615-.321 1.069 1.069 0 0 0-.674.114 4.258 4.258 0 0 0-1.57 1.317 8.253 8.253 0 0 0-.968 1.509c-.108.254-.29.464-.516.598a1.12 1.12 0 0 1-.742.147 9.87 9.87 0 0 1-1.227-.058c-1.075-.14-1.166-.29-.96-1.508a14.02 14.02 0 0 0 .297-2.991 3.33 3.33 0 0 0-.358-1.442 1.029 1.029 0 0 0-.33-.404.902.902 0 0 0-.956-.072.994.994 0 0 0-.376.352 3.802 3.802 0 0 0-.587 2.535 5.497 5.497 0 0 0 .762 2.859 1.362 1.362 0 0 1 .137 1.252c-.937 3.016-1.79 6.065-2.911 9.007-.305.829-.313.829-1.128.754-.816-.074-1.525-.149-2.287-.223a1.285 1.285 0 0 1-.686-.315c-1.205-.945-2.455-1.832-3.667-2.776-2.858-2.159-4.855-5.417-5.587-9.116a11.997 11.997 0 0 1 .078-5.401 11.36 11.36 0 0 1 2.422-4.717c2.44-2.984 5.542-5.24 9.01-6.555 9.147-3.58 18.172-.72 24.514 6.63 2.25 2.51 3.587 5.822 3.766 9.322.29 6.182-2.988 11.743-7.242 13.93h.03Zm-10.565-11.659a4.516 4.516 0 0 1 1.837-2.13.491.491 0 0 1 .412 0c.167.083.152.29.106.439a2.614 2.614 0 0 1-.93 1.253c-.422.303-.92.456-1.425.438Zm141.139-54.528c.19-.373.366-.737.526-1.118-.168.39-.343.72-.526 1.118Zm.952-2.237c-.122.323-.236.646-.358.953.13-.315.244-.63.358-.953Zm80.205-41.385c-.069.2-.092.464-.32.522-2.546.614-4.665 2.246-6.952 3.456-4.063 2.138-8.072 4.392-12.067 6.63-2.286 1.292-4.482 2.718-6.708 4.143a2.155 2.155 0 0 0-1.006 1.003.34.34 0 0 1-.1.121.305.305 0 0 1-.418-.039.505.505 0 0 1-.164-.272.537.537 0 0 1 .027-.324 1.45 1.45 0 0 1 .617-.721c1.311-.879 2.592-1.815 3.941-2.627 5.039-3.008 10.176-5.8 15.314-8.602 2.012-1.102 4.024-2.212 6.052-3.315a2.794 2.794 0 0 1 1.288-.522.533.533 0 0 1 .34.176c.09.1.145.231.156.371ZM108.552 39.184c-.091 0-.152 0-.19-.05-.038-.05-.282-.182-.321-.314-.083-.257.1-.415.305-.464l2.859-.655c1.608-.356 3.209-.738 4.817-1.077 3.225-.688 6.449-1.335 9.673-2.03 3.049-.672 6.136-1.351 9.193-2.072a4.835 4.835 0 0 0 2.02-.771c.038 0 .191.05.259.116a.416.416 0 0 1 .076.456 1.017 1.017 0 0 1-.579.53c-.633.224-1.273.431-1.913.605-3.194.829-6.426 1.475-9.65 2.146-2.866.597-5.748 1.127-8.599 1.857-1.997.513-4.009.96-6.014 1.408-.617.125-1.318.216-1.936.315Zm26.565-11.336c-1.525-.232-3.049-.448-4.642-.738a641.542 641.542 0 0 1-10.672-1.972c-1.768-.348-3.506-.895-5.282-1.21-2.028-.373-4.025-.911-6.03-1.384a1.918 1.918 0 0 1-.571-.215.348.348 0 0 1-.15-.185.383.383 0 0 1-.003-.246.358.358 0 0 1 .098-.212.308.308 0 0 1 .199-.095.957.957 0 0 1 .305 0c2.92.663 5.831 1.351 8.751 1.99a326.04 326.04 0 0 0 14.574 2.85c1.273.215 2.554.331 3.811.48.275 0 .557.116.526.431-.03.315-.274.448-.564.464l-.35.042ZM265.79 21.84h1.844c.069 0 .168.116.191.207a.348.348 0 0 1-.019.22.302.302 0 0 1-.149.153 2.438 2.438 0 0 1-.602.124c-3.537.332-7.074.63-10.611.995-3.681.373-7.355.828-11.006 1.541-1.464.282-2.928.613-4.399.829a1.86 1.86 0 0 1-.602 0 .52.52 0 0 1-.183-.123.565.565 0 0 1-.122-.192c-.084-.249.061-.415.282-.464 1.769-.373 3.529-.77 5.298-1.086 2.035-.356 4.07-.696 6.098-.936 4.086-.473 8.187-.87 12.28-1.301.564-.058 1.136-.067 1.7-.1v.133Zm-130.559.936c-.053.19-.16.348-.32.307a1.403 1.403 0 0 1-.534-.282c-1.562-1.268-3.133-2.486-4.672-3.82a61.393 61.393 0 0 1-9.033-9.779c-.762-.994-1.525-1.972-2.287-2.966a.555.555 0 0 1 0-.456.371.371 0 0 1 .107-.119.331.331 0 0 1 .294-.046.346.346 0 0 1 .133.082c.232.214.446.45.64.704l4.124 5.196a56.818 56.818 0 0 0 7.935 7.906c1.098.922 2.19 1.848 3.278 2.776.167.14.373.24.335.497Zm104.68 7.102c.137.023.27.065.397.125 2.119 1.276 4.367 2.245 6.578 3.314 2.538 1.202 5.115 2.32 7.676 3.464.716.323 1.456.572 2.164.879.575.248 1.139.524 1.693.828.259.141.632.332.465.73-.168.397-.45.14-.702.05-.251-.092-.587-.2-.869-.324-3.765-1.657-7.561-3.199-11.258-5.03-1.959-.978-3.971-1.84-5.847-3.008a3.02 3.02 0 0 1-.594-.514.333.333 0 0 1 0-.298c.053-.091.175-.125.297-.216Zm54.463-6.514c-.099.116-.152.25-.229.266a.703.703 0 0 1-.434-.042c-2.386-1.409-4.985-2.303-7.417-3.613-1.28-.696-2.569-1.367-3.857-2.055-.228-.124-.449-.265-.671-.398a.417.417 0 0 1-.207-.237.438.438 0 0 1 .009-.326.445.445 0 0 1 .248-.187.41.41 0 0 1 .301.03c.574.248 1.138.524 1.692.828l5.954 2.992c1.021.505 2.058.977 3.049 1.5.453.244.891.52 1.311.828.16.1.213.299.251.415ZM30.696 75.199c-.1.124-.153.232-.237.273a.471.471 0 0 1-.282 0 .222.222 0 0 1-.122-.09c-1.684-2.951-3.81-5.545-5.556-8.445-.61-1.028-1.25-2.047-1.868-3.075-.168-.273-.366-.555-.16-.911.206-.357.503-.066.846.414.129.172.248.352.358.539 1.936 3.24 4.078 6.314 6.152 9.439.277.462.531.941.762 1.433.053.135.088.277.107.423Zm20.481 202.066a.873.873 0 0 1 .298 0c.335.144.663.301.983.473a190.73 190.73 0 0 0 8.644 4.309c.762.348 1.471.779 2.195 1.201.16.131.288.301.374.498a.396.396 0 0 1-.084.298.528.528 0 0 1-.244.141.248.248 0 0 1-.153 0c-2.286-1.426-4.878-2.296-7.264-3.564l-4.276-2.262c-.274-.149-.587-.257-.716-.597a.447.447 0 0 1 0-.298c.03-.083.13-.132.243-.199Zm251.605 36.852c.289.05.762.099 1.204.199 2.813.654 5.656 1.127 8.499 1.583.869.132 1.715.348 2.569.546.2.052.392.133.572.241a.353.353 0 0 1 .154.173.39.39 0 0 1 .021.241.423.423 0 0 1-.047.16.375.375 0 0 1-.105.122.323.323 0 0 1-.144.061.322.322 0 0 1-.154-.011c-3.346-.879-6.807-1.053-10.16-1.865-.953-.232-1.906-.447-2.859-.688-.198-.049-.381-.182-.343-.464.038-.282.29-.265.473-.315.045-.049.099-.033.32.017ZM49.508 300.029a53.129 53.129 0 0 0-6.319.257.777.777 0 0 1-.434-.124.41.41 0 0 1-.16-.257.407.407 0 0 1 .083-.29c.162-.131.346-.224.541-.274.71-.091 1.426-.199 2.142-.215h6.785c.51.019 1.02.074 1.524.166a.38.38 0 0 1 .273.126.45.45 0 0 1 .116.296c0 .274-.19.365-.404.365H52.13l-2.622-.05Zm287.019-.34c0 .324-.115.465-.282.481a.34.34 0 0 1-.282-.083 2.941 2.941 0 0 1-.557-1.176c-.991-2.487-1.959-5.047-2.965-7.558-.328-.829-.762-1.591-1.098-2.403a.46.46 0 0 1-.002-.321.411.411 0 0 1 .083-.136.38.38 0 0 1 .125-.09.277.277 0 0 1 .226-.029c.076.023.14.078.178.153.239.361.458.738.656 1.127a67.41 67.41 0 0 1 2.889 7.06c.31.829.615 1.658.914 2.487.048.16.086.323.115.488ZM87.766 272.451l-.115.828a.188.188 0 0 1-.077.142.166.166 0 0 1-.074.028.17.17 0 0 1-.077-.012c-.092 0-.23-.042-.267-.116a3.999 3.999 0 0 1-.336-1.434c-.335-2.602-.655-5.204-1.013-7.798-.13-.986-.351-1.964-.511-2.95 0-.166.107-.298.267-.356a.302.302 0 0 1 .223-.004.34.34 0 0 1 .173.153c.088.134.15.286.183.447.218.801.396 1.615.534 2.437.396 2.859.731 5.743 1.09 8.635ZM318.477 12.476a.527.527 0 0 1-.134.302.451.451 0 0 1-.278.145.429.429 0 0 1-.201-.094.475.475 0 0 1-.134-.188 34.878 34.878 0 0 1-.366-2.486c-.313-2.925-.671-5.85-1.25-8.734a3.835 3.835 0 0 1-.069-.829.332.332 0 0 1 .079-.225.3.3 0 0 1 .093-.07.266.266 0 0 1 .11-.028.342.342 0 0 1 .217.04.386.386 0 0 1 .157.167c.125.305.224.621.297.945.221 1.144.472 2.287.617 3.44.32 2.427.58 4.855.854 7.283.011.11.013.221.008.332Zm14.383-6.298c-.213 1.516-.449 3.223-.686 4.922a915.985 915.985 0 0 1-.671 4.616 8.261 8.261 0 0 1-.228.961.416.416 0 0 1-.052.155.37.37 0 0 1-.106.118.336.336 0 0 1-.292.05.315.315 0 0 1-.179-.14.364.364 0 0 1-.05-.233c0-.497.038-.994.107-1.491.183-1.376.404-2.743.587-4.144.229-1.756.435-3.522.671-5.287-.017-.39.079-.775.274-1.102a.358.358 0 0 1 .12-.082.33.33 0 0 1 .139-.026.326.326 0 0 1 .134.052.352.352 0 0 1 .103.106c.221.44.053.895.129 1.525ZM65.294 89.75c-.144-.082-.251-.182-.213-.38a2.87 2.87 0 0 1 .655-1.111c1.266-1.749 2.562-3.48 3.812-5.23.701-.96 1.364-1.947 2.058-2.908a1.77 1.77 0 0 1 .45-.43.289.289 0 0 1 .274.057.42.42 0 0 1 .153.265c0 .365-.199.622-.367.887-1.303 2.138-2.873 4.052-4.344 6.05-.64.828-1.311 1.707-1.96 2.569a.593.593 0 0 1-.231.187.543.543 0 0 1-.287.044Zm-9.238-10.516c-.061-.066-.16-.132-.183-.215a1.51 1.51 0 0 1 .175-.961c.686-1.799 1.38-3.597 2.028-5.42.541-1.5 1.029-3.033 1.524-4.55.069-.206.137-.414.214-.62a.371.371 0 0 1 .152-.181.326.326 0 0 1 .221-.044c.29 0 .305.274.305.481-.001.22-.037.44-.107.646-.29 1.011-.54 2.039-.907 3.017-.876 2.378-1.806 4.732-2.72 7.093-.11.248-.251.476-.42.68-.03.066-.168.05-.282.075ZM310.42 335.016c-.107.357-.351.423-.603.497l-3.712 1.061a51.487 51.487 0 0 0-6.174 2.014.712.712 0 0 1-.297.058.337.337 0 0 1-.213-.076.38.38 0 0 1-.13-.198c-.092-.19 0-.323.122-.439.113-.11.241-.199.381-.265a15.803 15.803 0 0 1 1.578-.655c2.462-.745 4.939-1.466 7.409-2.196a2.57 2.57 0 0 1 1.364-.124c.114.025.198.224.275.323ZM5.252 77.569c.185.008.37.039.549.091.38.16.75.343 1.112.547 2.47 1.367 4.833 2.925 7.204 4.458.132.082.26.173.38.274.534.422.763.828.504 1.019-.404.257-.656-.108-.953-.298-2.736-1.74-5.473-3.48-8.308-5.03a3.473 3.473 0 0 1-.664-.406.68.68 0 0 1-.114-.448c0-.05.152-.108.29-.207Zm344.66 222.104c0 .431 0 .754-.29.829-.289.074-.427-.232-.457-.522-.076-.663-.153-1.326-.221-1.998-.336-2.933-.663-5.867-.983-8.8a7.054 7.054 0 0 1 0-.986.172.172 0 0 1 .014-.087.161.161 0 0 1 .127-.1.15.15 0 0 1 .08.013c.091 0 .221 0 .274.091.227.303.358.678.373 1.069.191 1.549.404 3.099.557 4.649.221 1.989.373 3.994.526 5.842ZM337.434 25.66c-.145-.066-.29-.15-.282-.348.001-.16.035-.32.099-.464.189-.393.405-.77.648-1.127a69.126 69.126 0 0 1 5.816-6.886 5.73 5.73 0 0 1 .762-.58.307.307 0 0 1 .419.066c.039.036.07.08.091.13a.413.413 0 0 1 0 .32.371.371 0 0 1-.091.13c-.099.13-.206.251-.32.364-1.7 1.766-3.308 3.639-4.871 5.553a13.766 13.766 0 0 0-1.791 2.486c-.13.19-.229.43-.48.356ZM106.738 286.149c-.053-.042-.183-.091-.191-.158a1.376 1.376 0 0 1 0-.638c.274-.533.585-1.043.93-1.525a77.932 77.932 0 0 1 5.199-6.165c.294-.39.674-.693 1.105-.878a.329.329 0 0 1 .221-.004.354.354 0 0 1 .18.136.419.419 0 0 1 .011.456c-.168.207-.351.398-.534.597-1.776 1.856-3.445 3.82-5.069 5.8-.533.663-.983 1.417-1.471 2.13a.405.405 0 0 1-.154.189.364.364 0 0 1-.227.06ZM77.094 96.413c.29.041.434.091.488.265a.419.419 0 0 1-.1.455.349.349 0 0 1-.136.076c-.984.314-1.982.588-2.958.911-1.57.514-3.133 1.07-4.703 1.591a9.099 9.099 0 0 0-2.287 1.044.448.448 0 0 1-.286.105.448.448 0 0 1-.286-.105c-.152-.132-.068-.522.191-.696a6.842 6.842 0 0 1 1.204-.737 72.627 72.627 0 0 1 8.217-2.785c.215-.063.434-.105.656-.124Zm286.02 199.837c.046.324-.16.531-.29.763a100.063 100.063 0 0 0-3.308 6.629 15.77 15.77 0 0 0-1.181 3.083c-.046.199-.183.423-.442.323a.474.474 0 0 1-.233-.21.544.544 0 0 1-.065-.32 1.56 1.56 0 0 1 .099-.489c.168-.531.305-1.069.519-1.575 1.021-2.444 2.195-4.806 3.43-7.126.206-.516.525-.968.93-1.318a.553.553 0 0 1 .419 0c.061-.008.084.158.122.24ZM100.335 274.1c.137-1.218.244-2.437.412-3.655.257-1.533.443-3.079.556-4.632v-.166c0-.298.153-.597.427-.605.274-.008.435.265.427.58.003.446-.018.891-.061 1.334-.412 3.315-.869 6.63-1.479 9.945-.122.182-.099.447-.274.605h-.29a1.151 1.151 0 0 1-.069-1.045l.1-.895c.274-.488.015-1.027.251-1.466ZM1.631 98.104c-.762 0-1.258-.2-1.174-.464.145-.456.526-.473.884-.514 2.203-.224 4.406-.456 6.61-.671.51-.042 1.028 0 1.524 0 .29 0 .556.165.533.464-.023.298-.29.43-.58.439h-.464a47.47 47.47 0 0 0-6.754.68c-.259.04-.518.057-.579.066Zm54.12 215.739c0 .1 0 .224-.076.29a3.217 3.217 0 0 1-.48.406 68.149 68.149 0 0 0-5.641 4.334c-.41.415-.896.732-1.426.929-.099 0-.259-.125-.35-.241a.307.307 0 0 1 0-.298 1.1 1.1 0 0 1 .29-.373c2.042-1.657 4.093-3.315 6.28-4.798a2.281 2.281 0 0 1 1.09-.555c.153-.009.244.141.313.306ZM286.424 53.396c-.038.091-.069.29-.175.365-.504.381-1.045.704-1.525 1.094a304.337 304.337 0 0 0-4.36 3.43 5.63 5.63 0 0 1-1.441.953.318.318 0 0 1-.226.017.343.343 0 0 1-.185-.14.422.422 0 0 1 0-.457.99.99 0 0 1 .205-.24 74.08 74.08 0 0 1 6.556-4.972 1.25 1.25 0 0 1 .838-.356.315.315 0 0 1 .208.091.37.37 0 0 1 .105.215Zm28.943 294.896c-.061.124-.084.306-.183.414a78.35 78.35 0 0 0-5.039 6.563 4.597 4.597 0 0 1-.678.688.297.297 0 0 1-.093.069.258.258 0 0 1-.219 0 .282.282 0 0 1-.092-.069.591.591 0 0 1-.107-.205.635.635 0 0 1-.023-.234.944.944 0 0 1 .214-.431 78.718 78.718 0 0 1 4.84-6.315c.294-.299.607-.576.937-.828.046-.042.199 0 .267.066.069.086.128.18.176.282ZM45.08 73.185c-.16.464.396 1.227-.382 1.657-.58-.414-.396-1.093-.45-1.657-.205-2.113-.35-4.234-.525-6.348a5.092 5.092 0 0 1 .13-1.98c0-.091.16-.216.213-.199a.75.75 0 0 1 .365.24c.054.095.08.204.077.315.152 2.61.335 5.27.571 7.972Zm25.436 194.028c.29 0 .411.265.556.489 1.296 2.072 2.607 4.144 3.895 6.199.288.458.543.94.763 1.442a.503.503 0 0 1-.026.233.459.459 0 0 1-.127.189c-.091.058-.274 0-.42-.066-.144-.066-.068-.075-.098-.116-1.464-2.279-2.935-4.558-4.39-6.845a2.112 2.112 0 0 1-.45-1.201.356.356 0 0 1 .09-.225.304.304 0 0 1 .207-.099Zm255.019 38.451a.908.908 0 0 1-.259.149c-.29.075-.473-.149-.663-.323-1.586-1.417-3.171-2.817-4.734-4.251a17.633 17.633 0 0 1-1.524-1.657.38.38 0 0 1-.085-.14.424.424 0 0 1 .025-.326.38.38 0 0 1 .105-.123.325.325 0 0 1 .21-.08c.076 0 .15.029.21.08a.765.765 0 0 1 .129.083c1.982 1.851 3.959 3.702 5.931 5.552.224.225.426.475.602.746.106.05.045.182.053.29Zm-19.11-290.553c-.091.066-.221.215-.343.207a.608.608 0 0 1-.358-.273 799.113 799.113 0 0 1-4.23-6.564 7.173 7.173 0 0 1-.557-1.185.402.402 0 0 1-.022-.318.371.371 0 0 1 .084-.136.327.327 0 0 1 .129-.084c.114-.05.282.05.419.1.137.049.061.082.091.132 1.525 2.436 3.049 4.875 4.574 7.317.145.224.32.44.213.804ZM326.03 362.91a39.867 39.867 0 0 1 1.083-5.701c.236-.829.488-1.699.762-2.545a.368.368 0 0 1 .19-.177.33.33 0 0 1 .251.002c.08.033.147.097.188.179a.418.418 0 0 1 .034.27c-.183.829-.442 1.599-.61 2.411a50.148 50.148 0 0 0-1.013 5.735c.003.166-.031.331-.099.481-.077.132-.221.29-.343.29-.122 0-.275-.15-.328-.274a3.1 3.1 0 0 1-.115-.671ZM66.994 323.821a2.52 2.52 0 0 1-.145.447 50.146 50.146 0 0 0-3.537 7.458c-.066.146-.16.276-.274.382a.285.285 0 0 1-.267.049.359.359 0 0 1-.127-.083.398.398 0 0 1-.086-.132 1.068 1.068 0 0 1 0-.489c.122-.423.259-.829.42-1.26a44.188 44.188 0 0 1 2.941-5.875 1.62 1.62 0 0 1 .603-.738.392.392 0 0 1 .29 0c.053.025.106.133.182.241ZM14.84 111.238c.07 0 .214.083.23.15a.759.759 0 0 1-.039.455.901.901 0 0 1-.35.315 43.443 43.443 0 0 0-6.335 4.409 1.399 1.399 0 0 1-.411.207.172.172 0 0 1-.077.022.188.188 0 0 1-.077-.017.193.193 0 0 1-.098-.129c-.045-.1-.122-.216-.099-.299a.898.898 0 0 1 .214-.431c.417-.414.855-.804 1.31-1.168a41.384 41.384 0 0 1 5.009-3.257c.207-.173.462-.264.724-.257Zm269.785-72.244c.236.124.282.323.069.48a1.026 1.026 0 0 1-.565.15c-3.361-.075-6.723 0-10.084.115a1.215 1.215 0 0 1-.457 0c-.13-.05-.305-.182-.321-.298a.562.562 0 0 1 .06-.225.507.507 0 0 1 .146-.173.936.936 0 0 1 .435-.074c3.568-.27 7.15-.261 10.717.025Zm8.873 32.584a.241.241 0 0 1-.114-.02.257.257 0 0 1-.095-.07.287.287 0 0 1-.057-.109.293.293 0 0 1-.009-.125 2.93 2.93 0 0 1 .137-.828 38.325 38.325 0 0 1 3.56-7.193.541.541 0 0 1 .229-.216c.084-.05.236-.1.282-.058.045.042.221.274.206.406a1.817 1.817 0 0 1-.237.597 50.851 50.851 0 0 0-3.3 6.977 2.18 2.18 0 0 1-.328.547c-.053.083-.198.075-.274.091ZM116.396 293.226c.088.01.174.029.259.058.13.066.312.099.274.323-.038.224-.045.265-.106.29a8.657 8.657 0 0 1-1.144.481c-1.433.447-2.868.886-4.306 1.317a3.58 3.58 0 0 0-1.525.688.335.335 0 0 1-.128.091.293.293 0 0 1-.152.017.301.301 0 0 1-.143-.059.346.346 0 0 1-.103-.124.522.522 0 0 1 .046-.621c.14-.16.305-.292.488-.39.428-.19.866-.356 1.311-.497 1.379-.447 2.767-.87 4.154-1.293.366-.107.77-.198 1.075-.281Zm223.82-257.274c-.152 0-.381-.314-.32-.48a.987.987 0 0 1 .229-.423c.251-.184.526-.33.815-.43a688.18 688.18 0 0 1 5.427-1.733c.29-.094.59-.145.892-.149.107 0 .252.166.32.29.02.035.032.075.036.116a.294.294 0 0 1-.011.121.279.279 0 0 1-.147.177c-.423.19-.856.357-1.295.498-1.372.43-2.745.828-4.124 1.26a3.732 3.732 0 0 0-1.525.679c-.084.058-.206.05-.297.074Zm-268.709 76.96-3.05-.828c-.693-.191-1.394-.373-2.08-.589a3.137 3.137 0 0 0-1.525-.215c-.251.049-.373-.125-.38-.381a.57.57 0 0 1 .089-.313.51.51 0 0 1 .238-.201.97.97 0 0 1 .762 0l6.098 1.599c.099.032.193.077.282.133a.518.518 0 0 1 .239.189c.06.087.097.191.104.3.015.215-.22.372-.777.306Zm298.101 198.561c0 .324-.243.481-.457.622-1.273.829-2.569 1.657-3.811 2.486a5.863 5.863 0 0 0-1.99 1.541c-.045.075-.312.083-.411 0a.564.564 0 0 1-.16-.431c0-.505.388-.754.762-.986l3.689-2.436c.526-.348 1.045-.705 1.586-1.028.186-.093.39-.133.594-.116a.262.262 0 0 1 .168.128.307.307 0 0 1 .03.22ZM49.074 123.735h.29c.153.138.284.304.388.489a67.203 67.203 0 0 0 2.813 5.801c.106.182 0 .323-.069.455a.331.331 0 0 1-.267.139.331.331 0 0 1-.267-.139 3.815 3.815 0 0 1-.899-1.342c-.51-1.094-.99-2.213-1.524-3.315-.23-.497-.511-.969-.763-1.458a.546.546 0 0 1 .03-.381.479.479 0 0 1 .268-.249Zm61.643 183.703h-2.15c-.114 0-.259-.174-.32-.307-.114-.265.107-.431.275-.481a5.665 5.665 0 0 1 1.059-.157 38.537 38.537 0 0 0 4.894-.332.72.72 0 0 1 .579.141c.137.108.191.506.046.58a2.86 2.86 0 0 1-.717.257c-1.215.179-2.44.278-3.666.299Zm255.782 32.136c-.351-.074-.763-.124-1.159-.248-1.631-.489-3.156-1.318-4.81-1.741-.107 0-.229-.257-.229-.389a.503.503 0 0 1 .1-.308.426.426 0 0 1 .259-.165c.262-.025.526.029.762.158a42.93 42.93 0 0 0 5.29 1.782c.267.049.518.165.45.522-.069.356-.328.406-.663.389ZM338.653 59.23c-.061.075-.106.199-.183.224a.978.978 0 0 1-.884-.108c-.541-.323-1.052-.688-1.578-1.027-1.151-.73-2.134-1.732-3.331-2.37a.413.413 0 0 1-.2-.246c-.015-.054-.021-.11-.015-.167a.42.42 0 0 1 .048-.16.503.503 0 0 1 .116-.164.47.47 0 0 1 .167-.1.436.436 0 0 1 .372.04 3.4 3.4 0 0 1 .518.357 50.809 50.809 0 0 0 4.665 3.199.453.453 0 0 1 .238.202c.056.095.08.208.067.32ZM102.18 315.534c.232.116.459.246.678.389 1.113.788 2.211 1.6 3.331 2.379.511.364 1.067.646 1.586 1.002a.487.487 0 0 1 .137.179.536.536 0 0 1 .046.227.417.417 0 0 1-.055.155.365.365 0 0 1-.251.173.327.327 0 0 1-.152-.013 4.687 4.687 0 0 1-1.799-.903c-1.257-.829-2.393-1.906-3.704-2.668a.377.377 0 0 1-.124-.098.41.41 0 0 1-.091-.308.414.414 0 0 1 .047-.158 2.19 2.19 0 0 1 .351-.356ZM58.899 119.417c.206.083.442.166.67.282l4.925 2.66a.5.5 0 0 1 .236.199c.07.139.096.299.076.456a.31.31 0 0 1-.124.202.28.28 0 0 1-.219.047 3.61 3.61 0 0 1-.86-.299 336.085 336.085 0 0 1-4.742-2.676.816.816 0 0 1-.282-.365.349.349 0 0 1 .038-.298c.046-.083.183-.125.282-.208Zm280.113 238.521.16 2.486a1.001 1.001 0 0 1-.153.779.402.402 0 0 1-.251.157.347.347 0 0 1-.252-.165.922.922 0 0 1-.175-.431c-.099-1.716-.198-3.431-.275-5.138a2.288 2.288 0 0 1 .145-.829.545.545 0 0 1 .138-.186.467.467 0 0 1 .198-.104.315.315 0 0 1 .148.024c.048.02.091.05.126.089a.404.404 0 0 1 .099.301v2.992l.092.025Zm25.733-30.894c-.099-.066-.297-.124-.335-.24a.412.412 0 0 1 .013-.321.382.382 0 0 1 .096-.128.348.348 0 0 1 .135-.073c.282-.116.564-.24.854-.348l4.634-1.699c.19-.067.387-.106.587-.116.05.001.099.015.141.043a.294.294 0 0 1 .103.115c0 .149.061.389 0 .455a2.523 2.523 0 0 1-.762.514c-1.693.597-3.4 1.169-5.1 1.749a1.62 1.62 0 0 1-.366.049ZM18.157 124.481c-.16-.067-.282-.158-.298-.348a.794.794 0 0 1 .062-.321.74.74 0 0 1 .182-.26c1.03-1.251 2.058-2.486 3.095-3.737.183-.273.456-.46.762-.522a.375.375 0 0 1 .252.083c.063.08.096.184.091.29a.647.647 0 0 1-.13.298 645.803 645.803 0 0 1-3.52 4.227.539.539 0 0 1-.21.224.492.492 0 0 1-.286.066ZM342.007 46.8l-2.447.174a.521.521 0 0 1-.301-.038.58.58 0 0 1-.24-.203.57.57 0 0 1 0-.447.537.537 0 0 1 .171-.147.488.488 0 0 1 .21-.06c1.99-.141 3.979-.265 5.969-.39.101.003.2.032.289.083.076.062.129.15.153.249a.4.4 0 0 1-.009.154.373.373 0 0 1-.067.136 1.101 1.101 0 0 1-.379.267c-.141.06-.293.087-.444.08-.976.075-1.944.117-2.912.175l.007-.033Zm-36.382 25.001c.335-1.541.717-3.314 1.113-5.105a1.52 1.52 0 0 1 .32-.546.288.288 0 0 1 .274 0 .384.384 0 0 1 .229.19.655.655 0 0 1 0 .323l-1.052 5.387a1.308 1.308 0 0 1-.084.315c-.099.199-.221.398-.449.356a.412.412 0 0 1-.261-.158.481.481 0 0 1-.098-.306l.008-.456ZM74.922 332.447c.358-1.732.716-3.472 1.097-5.204a.867.867 0 0 1 .148-.376.781.781 0 0 1 .294-.254c.138-.041.328-.049.374.158.034.158.034.322 0 .48a304.54 304.54 0 0 1-.953 4.898 3.433 3.433 0 0 1-.13.481c-.076.248-.106.547-.434.605-.328.058-.366-.274-.396-.788Z"/>
  <path fill="#550707" d="M284.625 38.994h-10.717a2.671 2.671 0 0 1 1.486-.307h7.95c.435-.058.93-.15 1.281.307Z"/>
  <path fill="#FDEAFF" d="M233.546 351.88c0-1.144 0-2.287.039-3.431 0-.381 0-.77.32-1.027a1.213 1.213 0 0 1 0 .895c0 .928 0 1.856-.054 2.784 0 .381 0 .771-.32 1.028l-.084-.116.099-.133Zm-66.712-46.837c.13-.083.252-.241.374-.241h2.538c-.518.456-.991.208-1.387.365a3.645 3.645 0 0 1-1.525-.124Z"/>
  <path fill="#303232" d="M100.335 274.1c.077.237.097.493.057.741s-.139.481-.286.676a2.277 2.277 0 0 1 .229-1.417Zm-.328 2.312.069 1.044c-.488-.315-.244-.68-.069-1.044Zm.359 1.052a.672.672 0 0 1 .056-.346.614.614 0 0 1 .218-.259c.084.282.084.531-.274.605Z"/>
  <path fill="#FDEAFF" d="M211.967 97.084c1.044-1.143 2.089-2.279 3.125-3.422.374-.415.374-.506.054-.986a418.133 418.133 0 0 0-4.841-7.334 36.226 36.226 0 0 0-4.2-5.105 4.246 4.246 0 0 1-1.006-1.235l.374-.397a22.737 22.737 0 0 1 3.651 3.812 53.208 53.208 0 0 1 3.986 5.759c.892 1.433 1.86 2.817 2.79 4.218.157.223.295.462.412.713.06.125.08.27.057.41a.654.654 0 0 1-.187.36c-1.181.986-2.012 2.387-3.277 3.315-.122-.24-.298-.215-.504-.14a2.493 2.493 0 0 1-.434.032Z"/>
  <path fill="#CD7603" d="m220.969 179.87-.457-.489c.274-.298.612-.518.983-.638a.27.27 0 0 1 .318-.072.285.285 0 0 1 .094.072 2.427 2.427 0 0 1-.938 1.127Z"/>
  <path fill="#675502" d="M221.922 178.735h-.412c.122-.091.237-.257.359-.257s.244.116.053.257Z"/>
  <path fill="#FDEAFF" d="M233.577 338.687h-.32a1.59 1.59 0 0 1 0-1.011c.381.241.32.638.32 1.011ZM221.922 130c1.014-.398 1.319-.241 1.418.828.072.667.072 1.34 0 2.006a31.495 31.495 0 0 1-.762 4.268c-.458 1.657-.808 3.314-1.251 5.013-.221.829-.48 1.061-.708.829-.397-.323-.13-.713-.054-1.061.145-.655.282-1.309.473-1.947.594-2.031.937-4.144 1.357-6.191.161-.583.19-1.2.083-1.798-.465.075-.503.572-.8.771-.297.199-.434.306-.701.124a.679.679 0 0 1-.261-.303.756.756 0 0 1-.059-.41c.031-.331.082-.661.152-.986.418-2.078.589-4.205.511-6.331a23.11 23.11 0 0 0-.862-5.602c-.04-.218-.06-.44-.06-.663a.154.154 0 0 1 .076-.141c.091 0 .228-.066.274 0 .158.142.286.321.374.522.296.773.523 1.575.678 2.395.451 2.533.502 5.131.153 7.682-.035.219-.05.441-.046.663a1.23 1.23 0 0 0 .015.332Zm38.974-.29c.03.39-.052.781-.236 1.118a.308.308 0 0 1-.252.125c-.084 0-.221-.092-.236-.158a3.775 3.775 0 0 1-.092-.829 6.228 6.228 0 0 0-.381-2.129.928.928 0 0 0-.184-.416.83.83 0 0 0-.351-.26.763.763 0 0 0-.423-.036.794.794 0 0 0-.383.198 13.522 13.522 0 0 0-2.363 1.873l-4.49 4.359c-.45.431-.808.513-.892.248-.129-.406.122-.646.343-.828 1.746-1.724 3.491-3.464 5.283-5.147a9.507 9.507 0 0 1 1.936-1.359 1.334 1.334 0 0 1 1.198-.174c.199.067.382.18.538.332.155.152.278.338.36.547.437.758.655 1.641.625 2.536Zm-30.589 99.831a5.37 5.37 0 0 1-2.95-.712 22.138 22.138 0 0 1-5.892-4.5l-.214-.24c-.175-.208-.366-.398-.251-.721.114-.324.457-.183.762.149a22.493 22.493 0 0 0 6.06 4.524c.47.225.954.413 1.448.564.384.173.813.189 1.207.044a1.75 1.75 0 0 0 .935-.831c.124-.248.264-.487.419-.713a.413.413 0 0 1 .187-.106.385.385 0 0 1 .21.007.521.521 0 0 1 .175.422 2.62 2.62 0 0 1-.606 1.326c-.319.366-.732.62-1.185.729-.1.03-.202.05-.305.058Zm-73.481.539h-.526c-.503-.066-.839-.356-.763-.646.077-.29.488-.324.763-.315 3.811.041 6.502-2.022 8.522-5.354.125-.24.273-.465.442-.671a.411.411 0 0 1 .411-.05.498.498 0 0 1 .131.19.542.542 0 0 1 .037.233 5.521 5.521 0 0 1-1.258 2.271c-1.778 2.363-4.319 3.898-7.104 4.292-.206 0-.465.025-.655.05Zm37.411-191.567a7.187 7.187 0 0 1 3.907 1.267 8.076 8.076 0 0 1 2.747 3.274c.061.088.1.19.115.298a.955.955 0 0 1-.168.431.27.27 0 0 1-.091.075.25.25 0 0 1-.313-.075c-.282-.397-.533-.828-.808-1.218-1.014-1.497-2.483-2.557-4.147-2.991a5.15 5.15 0 0 0-3.62.306c-.328.141-.648.34-.976.48a.41.41 0 0 1-.302.041.438.438 0 0 1-.254-.181.49.49 0 0 1-.018-.325.449.449 0 0 1 .185-.255 4.2 4.2 0 0 1 1.228-.671 7.33 7.33 0 0 1 2.515-.456Zm-6.106 25.341a4.468 4.468 0 0 1-2.335-.514 4.922 4.922 0 0 1-1.819-1.674.34.34 0 0 1-.083-.223.34.34 0 0 1 .083-.224.41.41 0 0 1 .557-.083c.174.117.329.265.457.44.306.37.683.665 1.105.861a4.485 4.485 0 0 0 3.59.216 7.251 7.251 0 0 0 1.936-.995.285.285 0 0 1 .22-.036.304.304 0 0 1 .184.136c.04.034.072.079.094.129a.401.401 0 0 1 0 .321.367.367 0 0 1-.094.13c-1.07 1.031-2.465 1.575-3.895 1.516Zm-.937-6.364a2.312 2.312 0 0 1-1.11-.111 2.475 2.475 0 0 1-.955-.624 2.754 2.754 0 0 1-.611-1.014 2.96 2.96 0 0 1-.145-1.201 2.244 2.244 0 0 1 .069-.978c.061-.124.137-.174.252-.133.096.02.187.062.266.125.214.281.115.638.145.96.137 1.584.915 2.313 2.363 2.106.656-.091 1.296-.315 1.952-.473.293-.111.613-.111.907 0a.33.33 0 0 1 .175.224.41.41 0 0 1-.061.298.434.434 0 0 1-.236.2c-.972.36-1.986.568-3.011.62Zm20.062-2.221c-.065.49-.25.954-.533 1.343a.766.766 0 0 1-.247.187.71.71 0 0 1-.294.07c-.199 0-.427-.266-.344-.432.084-.165.168-.273.244-.414.389-.688.389-.688-.251-1.326a.44.44 0 0 1-.114-.298c0-.112.041-.22.114-.299a.694.694 0 0 1 .186-.209.605.605 0 0 1 .759.018c.183.162.323.372.407.61.085.24.11.498.073.75Z"/>
  <path fill="#6067FF" d="M173.275 66.191a5.591 5.591 0 0 0-.511-1.392 3.607 3.607 0 0 0-1.151-1.525 4.604 4.604 0 0 1-.724-.224 3.702 3.702 0 0 0-1.523-.516 3.63 3.63 0 0 0-1.587.185 1.203 1.203 0 0 1-.45 0 1.59 1.59 0 0 1-.64.688c-2.668 1.757-2.5 6.008-.762 7.889a4.34 4.34 0 0 0 1.533 1.14 4.03 4.03 0 0 0 3.626-.187 4.445 4.445 0 0 0 1.427-1.293c.472-.668.788-1.45.921-2.28a5.638 5.638 0 0 0-.159-2.485Zm-4.977 5.121a2.233 2.233 0 0 1-1.387-.431 2.547 2.547 0 0 1-.9-1.226 8.545 8.545 0 0 1-.237-1.077 5.692 5.692 0 0 1 .571-2.665 5.154 5.154 0 0 1 1.716-2 .395.395 0 0 1 .404.082.27.27 0 0 1 .068.095.291.291 0 0 1-.068.328 7.022 7.022 0 0 0-1.608 1.988 4.117 4.117 0 0 0-.457 1.749 2.35 2.35 0 0 0 .358 1.602c.305.464.764.78 1.28.884.099 0 .206 0 .298.075.091.074.266.182.236.373a.313.313 0 0 1-.102.162.267.267 0 0 1-.172.061Zm2.332-.331a.362.362 0 0 1-.366-.414.48.48 0 0 1 .164-.345.403.403 0 0 1 .347-.094.409.409 0 0 1 .253.14.485.485 0 0 1 .113.282.515.515 0 0 1-.057.181.458.458 0 0 1-.118.142.419.419 0 0 1-.336.083v.025Zm37.899-9.613c-.312-.282-.762-.39-.937-.829-.564-.066-1.121-.174-1.677-.19a3.78 3.78 0 0 0-1.663.25 4.035 4.035 0 0 0-1.43.957 4.455 4.455 0 0 0-.955 1.5 4.765 4.765 0 0 0-.32 1.793V66c.191.324.404.638.579.97a4.804 4.804 0 0 0 1.506 1.863 4.28 4.28 0 0 0 2.153.822c.585.09 1.18.04 1.745-.143a4.014 4.014 0 0 0 1.532-.921 4.453 4.453 0 0 0 1.039-1.531 4.804 4.804 0 0 0 .357-1.863 5.418 5.418 0 0 0-.568-2.15 4.968 4.968 0 0 0-1.361-1.679Zm-3.011 6.853a.16.16 0 0 1-.099.116c-.146.03-.296.03-.442 0a2.99 2.99 0 0 1-1.734-1.26 3.461 3.461 0 0 1-.553-2.187 3.929 3.929 0 0 1 .816-2.677.315.315 0 0 1 .134-.068.302.302 0 0 1 .148.002c.145 0 .267.15.183.356-.137.357-.29.705-.404 1.07-.579 1.79-.107 3.09 1.448 4.027.18.1.351.22.511.356.053.041.015.207-.008.298v-.033Zm1.464.19a.31.31 0 0 1-.277-.07.386.386 0 0 1-.127-.277.452.452 0 0 1 .064-.3.388.388 0 0 1 .233-.172c.236 0 .412.107.435.356a.446.446 0 0 1-.063.327.405.405 0 0 1-.116.115.366.366 0 0 1-.149.055v-.033Z"/>
  <path fill="#FDEAFF" d="M121.533 388.756a4.436 4.436 0 0 1-1.968-.351 4.789 4.789 0 0 1-1.668-1.19 3.475 3.475 0 0 1-.854-1.474 3.715 3.715 0 0 1-.076-1.741c.02-.165.078-.322.168-.456a.528.528 0 0 1 .184-.12.47.47 0 0 1 .213-.029.52.52 0 0 1 .194.115.565.565 0 0 1 .133.192c.046.132 0 .306-.045.472a2.824 2.824 0 0 0 .157 1.716c.23.536.621.971 1.108 1.234a4.682 4.682 0 0 0 3.743.489c.762-.182 1.478-.456 2.225-.68.247-.089.503-.144.763-.165a.393.393 0 0 1 .286.103c.08.072.133.174.148.286a.375.375 0 0 1-.049.237.323.323 0 0 1-.18.144c-1.074.365-2.157.746-3.239 1.069-.41.089-.825.139-1.243.149Zm112.532 2.768a4.851 4.851 0 0 1-2.92-.878 6.923 6.923 0 0 1-1.814-1.533c-.068-.091-.038-.323 0-.464a.264.264 0 0 1 .167-.164.236.236 0 0 1 .115-.008.257.257 0 0 1 .107.047c.23.122.443.278.633.464a6.574 6.574 0 0 0 2.706 1.542c.438.17.91.211 1.367.119a2.555 2.555 0 0 0 1.239-.641 7.485 7.485 0 0 0 1.944-2.577c.183-.398.358-.829.541-1.202.115-.257.229-.547.557-.431.328.116.297.423.19.696a14.35 14.35 0 0 1-.853 1.964 9.356 9.356 0 0 1-1.837 2.254 2.904 2.904 0 0 1-2.142.812Zm-57.65-228.543a3.002 3.002 0 0 0-1.23.287 3.23 3.23 0 0 0-1.034.779 3.554 3.554 0 0 0-.679 1.151 3.775 3.775 0 0 0-.22 1.347c0 .446.083.889.243 1.3.161.411.397.782.693 1.092.296.309.647.551 1.031.709.384.159.794.231 1.204.214a3.022 3.022 0 0 0 2.206-1.018 3.575 3.575 0 0 0 .904-2.413 3.717 3.717 0 0 0-.937-2.389 3.16 3.16 0 0 0-2.181-1.059Zm-.083 5.984a2.382 2.382 0 0 1-1.637-.8 2.79 2.79 0 0 1-.703-1.794 2.71 2.71 0 0 1 .733-1.819 2.288 2.288 0 0 1 1.702-.721 2.298 2.298 0 0 1 1.672.798c.439.496.677 1.162.664 1.849a2.79 2.79 0 0 1-.773 1.756 2.38 2.38 0 0 1-1.658.731Zm.907 40.423c-.764 0-1.497.33-2.038.917a3.279 3.279 0 0 0-.844 2.215c0 .831.304 1.628.844 2.215a2.77 2.77 0 0 0 2.038.918c.764 0 1.497-.33 2.037-.918a3.272 3.272 0 0 0 .844-2.215c0-.831-.303-1.627-.844-2.215a2.77 2.77 0 0 0-2.037-.917Zm.084 5.328a1.949 1.949 0 0 1-.819-.159 2.091 2.091 0 0 1-.699-.49c-.2-.212-.36-.465-.47-.745-.11-.28-.168-.58-.17-.885a2.325 2.325 0 0 1 .625-1.553 1.965 1.965 0 0 1 1.449-.626c.267-.009.533.041.783.146.249.105.477.263.669.466.191.202.344.445.448.713.104.267.158.555.158.846a2.336 2.336 0 0 1-.552 1.587c-.37.429-.882.681-1.422.7Z"/>
</svg>
