<svg xmlns="http://www.w3.org/2000/svg" width="361" height="438" fill="none" viewBox="0 0 361 438">
  <path fill="#FDEAFF" d="M260.672 341.638a5.768 5.768 0 0 0-.736-2.766 7.256 7.256 0 0 0-.532-.811c-1.016-1.362-2.046-2.725-3.048-4.088a.796.796 0 0 1-.055-1.083 43.903 43.903 0 0 0 4.644-10.52c1.548-4.845 1.821-7.761 1.364-12.844 0-.272-.068-.538-.109-.81a98.064 98.064 0 0 0-2.175-10.071c-1.364-5.164-2.878-10.281-4.092-15.473-.484-2.044-.975-4.143-1.363-6.228a43.73 43.73 0 0 1-.58-7.44c-.056-4.17-.816-8.3-2.25-12.216a.726.726 0 0 1-.3-.505 1.776 1.776 0 0 1-.191-.293.236.236 0 0 1 .075-.19c.075-.048.143 0 .163.115a.879.879 0 0 1 .601.566l3.259 2.868c.262.237.545.449.845.634a.603.603 0 0 0 .758-.133.583.583 0 0 0 .122-.248c.056-.265.074-.535.055-.804a35.142 35.142 0 0 0-1.814-9.28 20.71 20.71 0 0 0-7.501-10.221 47.356 47.356 0 0 0-6.587-4.026c-1.527-.777-3.048-1.581-4.589-2.324a42.169 42.169 0 0 1-5.059-2.882c-.075-.034-.171-.041-.225-.095-.055-.055-.116-.137-.103-.191a.213.213 0 0 1 .164-.136.936.936 0 0 1 .818.231c.407.024.814.024 1.221 0a.56.56 0 0 0 .468-.376.568.568 0 0 0-.134-.584 5.012 5.012 0 0 0-.886-.682 58.882 58.882 0 0 1-6.512-4.885 113.527 113.527 0 0 1-9.785-9.811c-1.875-2.085-3.737-4.191-5.632-6.262-.921-.995-1.869-1.976-2.878-2.882a24.005 24.005 0 0 0-10.126-5.655 26.423 26.423 0 0 0-10.391-.273 66.644 66.644 0 0 0-8.067 1.84c-1.24.278-2.428.752-3.519 1.403a49.766 49.766 0 0 0-4.718 3.407 9.639 9.639 0 0 0-3.334 6.909c-.096 1.165-.219 2.33-.423 3.482-.464 2.664-.989 5.328-1.364 8.012a27.212 27.212 0 0 1-1.773 6.521 11.81 11.81 0 0 0-.682 3.407c-.137 2.243.16 4.491.873 6.622.232.716.457 1.431.682 2.153a7.89 7.89 0 0 1 .061 4.286 46.297 46.297 0 0 1-.681 2.487 26.948 26.948 0 0 0-.198 15.671c.068.238.279.477.122.722a.9.9 0 0 1-.627.307 5.735 5.735 0 0 1-4.214-1.152c-.682-.483-1.268-1.022-1.936-1.485-1.03-.681-1.555-.613-2.298.341-.05.074-.095.152-.137.231a.601.601 0 0 1-.681.286c-.798-.17-1.603-.293-2.394-.497a14.917 14.917 0 0 0-3.45-.681.994.994 0 0 1-.764-.491c-.818-1.022-1.643-2.044-2.461-3.073 0-.64.306-.449.634-.265.313.068.641.143.804-.246.123-.279 0-.572-.347-.797a3.9 3.9 0 0 0-1.364-.572 5.261 5.261 0 0 1-2.891-1.901c-.178-.205-.341-.429-.532-.613a.773.773 0 0 0-1.013-.166.77.77 0 0 0-.255.268c-.151.219-.29.447-.416.681-.505.872-.505.954.156 1.635.894.907 1.801 1.785 2.728 2.685 1.057 1.056 2.1 2.119 3.157 3.182.239.238.382.443.13.804a3.4 3.4 0 0 0-.287 3.475c.089.204.191.408.307.681-1.186 1.002-.941 2.521-1.296 3.877l-9.253.477a.203.203 0 0 1-.129 0s-.034-.075-.055-.15c.048-.395.362-.681.553-1.029a9.946 9.946 0 0 0 1.363-5.853 4.552 4.552 0 0 0-.797-2.275 2.622 2.622 0 0 0-2.885-.968 5.494 5.494 0 0 0-1.95 1.186c-.164.15-.3.354-.607.184v-3.775a1.508 1.508 0 0 0-1.111-1.649 12.436 12.436 0 0 0-1.555-.484 26.63 26.63 0 0 0-7.16-.47 12.848 12.848 0 0 0-3.218.498c-1.07.34-1.296.64-1.364 1.744v11.133a.351.351 0 0 1-.341.347 4.605 4.605 0 0 1-.538.041l-9.09.484c-2.441.13-4.889.239-7.33.354h-.818a.368.368 0 0 1-.341-.333v-.954c-.064-3.666-.123-7.332-.177-10.997l-.45-27.833v-.539c0-.551-.205-.749-.723-.776-.41 0-.818 0-1.22-.034a.296.296 0 0 1-.218-.13c-.09-.136 0-.259.095-.341a3.787 3.787 0 0 1 2.793-1.012 3.782 3.782 0 0 1 2.662 1.319c.15.17.293.341.45.497.156.157.388 0 .45-.17a.623.623 0 0 0 0-.525 2.403 2.403 0 0 0-.737-.953 4.604 4.604 0 0 0-3.48-1.027 4.607 4.607 0 0 0-3.148 1.803c-.081.109-.13.246-.218.341a.51.51 0 0 1-.498.129.315.315 0 0 1-.218-.306c0-.859 0-1.717-.034-2.576a.53.53 0 0 1 .123-.347 17.758 17.758 0 0 1 6.43-4.919c3.853-1.649 7.821-2.842 12.069-2.842.375 0 .852.137 1.043-.374.109-.314-.347-.559-1.05-.573h-.136c-1.173.102-2.353.157-3.519.321a34.227 34.227 0 0 0-8.796 2.677 4.016 4.016 0 0 0-1.404.777c-.103.204-.355.129-.491.272h-.328a1.365 1.365 0 0 1-.484.314 2.343 2.343 0 0 1-1.09.824l-1.842 1.792c-.143.137-.252.375-.566.184.123-.681.212-1.417.368-2.119.573-2.33 1.6-4.525 3.021-6.459a25.663 25.663 0 0 1 7.569-6.895 22.409 22.409 0 0 1 6.137-2.773c.954-.259 1.936-.436 2.898-.682.452-.029.888-.18 1.261-.436a.298.298 0 0 0 .082-.368c-.041-.075-.109-.17-.17-.177a2.882 2.882 0 0 0-.798 0c-.628.102-1.241.252-1.862.382-2.304.504-7.862 3.134-7.944 3.175a1.086 1.086 0 0 0-.272.184 38.726 38.726 0 0 0-6.021 4.933 8.495 8.495 0 0 1-1.562 1.955 37.604 37.604 0 0 0-2.543 4.545c.048.313-.17.552-.26.824a4.725 4.725 0 0 1-.504 1.649c-.095.804-.225 1.615-.293 2.419a30.352 30.352 0 0 0-.034 3.938c.017.179.017.359 0 .538 0 .041-.177.109-.225.082a1.093 1.093 0 0 1-.273-.286 4590.12 4590.12 0 0 0-3.3-5.137 2.77 2.77 0 0 1-.3-.893 33.539 33.539 0 0 1-.778-5.771 3.515 3.515 0 0 1 .873-2.603 40.625 40.625 0 0 1 5.183-5.362 35.305 35.305 0 0 1 10.282-6.221.793.793 0 0 0 .348-.19.678.678 0 0 0 .143-.355.233.233 0 0 0-.067-.187.244.244 0 0 0-.185-.072 2.235 2.235 0 0 0-.798.055c-.552.197-1.084.443-1.623.681-.818.375-1.629.763-2.44 1.145-.028 0-.055-.021-.083-.061 0-.041 0-.096.048-.157a25.819 25.819 0 0 1 8.305-6.343c.88-.45 1.759-.886 2.646-1.322.143-.191.382-.137.573-.225h.116l.095-.075c.171-.164.409-.13.607-.211h.123l.075-.102a.342.342 0 0 0 .081-.111.315.315 0 0 0 .029-.135.332.332 0 0 0-.11-.245.289.289 0 0 0-.334-.157c-.441.1-.876.225-1.303.375a33.739 33.739 0 0 0-7.35 4.006 25.795 25.795 0 0 0-5.612 5.683 6.28 6.28 0 0 1-1.425 1.396 35.746 35.746 0 0 0-7.617 7.189c-.116.15-.204.422-.566.259v-7.829a35.052 35.052 0 0 1 1.466-10.152c.054-.122.093-.25.116-.382a.401.401 0 0 0-.273-.422.36.36 0 0 0-.463.163c-.205.4-.374.818-.505 1.247-.088.355-.177.682-.259 1.063a9.697 9.697 0 0 0-.314 1.976 1.39 1.39 0 0 1-.068.375c-.25.8-.397 1.629-.436 2.466-.307 3.714-.096 7.447-.225 11.161a.182.182 0 0 1-.055.122.745.745 0 0 1-.218.048c-.11-.238-.266-.49-.402-.77a51.953 51.953 0 0 0-3-5.158 23.859 23.859 0 0 0-8.865-8.176 2.611 2.611 0 0 0-.982-.436.406.406 0 0 0-.45.211.404.404 0 0 0 .13.491c.335.226.684.433 1.043.62a22.563 22.563 0 0 1 7.985 7.222 70.629 70.629 0 0 1 4.555 7.945c.238.456.362.963.361 1.478a26.84 26.84 0 0 0 .389 4.047c.087.137.162.281.225.43.047.156.054.395-.11.443-.163.047-.374-.109-.429-.341-4.173-3.972-9.212-5.308-14.838-4.844-.222.03-.436.107-.627.224a.429.429 0 0 0-.157.334c0 .109.137.28.232.293.267.031.537.031.805 0a19.63 19.63 0 0 1 5.134.211 16.54 16.54 0 0 1 7.8 3.53c.382.139.694.423.867.79a11.717 11.717 0 0 1 2.29 2.664c.942 1.363 1.835 2.801 2.728 4.211 0 0 0 .082-.034.129-.116.184-.313.13-.477.13h-2.046a.602.602 0 0 1-.545-.341c-.11-.191-.225-.388-.348-.579a4.015 4.015 0 0 0-3.682-1.887 9.215 9.215 0 0 0-3.784.974 15.676 15.676 0 0 0-3.942 2.869 27.992 27.992 0 0 0-4.248 5.45 4.324 4.324 0 0 0-.43.995.418.418 0 0 0 .24.552c.204.082.34-.061.463-.191.054-.072.104-.147.15-.225.26-.408.525-.817.784-1.233a28.737 28.737 0 0 1 3.266-4.217 12.557 12.557 0 0 1 5.415-3.68 6.862 6.862 0 0 1 2.4-.402 2.794 2.794 0 0 1 2.727 1.813 1.53 1.53 0 0 1-.907.081c-1.33 0-1.425 0-1.404 1.459v1.901l-.246 36.274v1.084c0 .504-.068.565-.518.599-.495.005-.99.043-1.48.116a15.94 15.94 0 0 1-5.864.402 6.869 6.869 0 0 0-4.439.743 6473.68 6473.68 0 0 1-22.215 11.099l-.853.422a.535.535 0 0 0-.347.532c.231 1.983.306 3.972.388 5.962a.736.736 0 0 0 .491.742c.573.13.539.525.539.934v.954l-.061 139.533v1.083a1.418 1.418 0 0 0 1.104 1.363 7.509 7.509 0 0 0 4.419.17c1.943-.572 2.005-.518 2.045-2.568v-.409l.328-121.328v-8.694a7.407 7.407 0 0 1 0-.954.239.239 0 0 1 .272-.218h1.221l38.185-.429c6.819-.077 13.617-.15 20.395-.218 10.514-.129 21.029-.286 31.543-.409 11.469-.136 22.936-.256 34.401-.361l5.298-.054c.327 0 .504.129.504.47 0 1.138 0 2.269-.047 3.406 0 .498 0 .518-.546.6-2.911.429-5.796.988-8.673 1.615a49.301 49.301 0 0 0-13.297 4.974 71.21 71.21 0 0 0-8.25 5.45 80.496 80.496 0 0 0-10.685 9.642c-3.805 4.19-7.59 8.51-11.176 13.047-4.282 5.451-8.694 10.813-12.274 16.796a22.03 22.03 0 0 0-2.08 4.653 10.524 10.524 0 0 0-.613 3.346c.034 1.471.095 1.553 1.582 1.751 1.486.197 2.659.756 3.245 2.269a.903.903 0 0 1-.068.783c-.723 1.145-1.425 2.296-2.23 3.407-3.239 4.367-6.437 8.755-9.682 13.116a43.27 43.27 0 0 1-6.717 7.024c-2.045 1.724-4.193 3.312-6.321 4.927a11.822 11.822 0 0 1-3.068 1.723 25.257 25.257 0 0 1-5.244 1.363c-1.077.15-2.148.334-3.211.566a5.802 5.802 0 0 0-3.444 2.044 3.694 3.694 0 0 0-.9 2.902c.14.937.331 1.865.573 2.78.494 1.6.85 3.239 1.064 4.899.04.269.097.535.17.797a3.074 3.074 0 0 0 2.093 2.296c.388.129.784.227 1.187.293 2.207.35 4.452.387 6.669.109.552-.054 1.118-.075 1.677-.102a17.48 17.48 0 0 0 6.491-1.499c1.944-.872 3.853-1.799 5.783-2.725.184-.082.375-.273.579 0a5.889 5.889 0 0 0-.129 4.027 30.2 30.2 0 0 1 .736 3.549c.112.663.271 1.316.478 1.956a2.342 2.342 0 0 0 1.691 1.621c.926.293 1.904.39 2.87.287.818-.116 1.63-.259 2.448-.321 3.321-.252 6.635-.483 9.955-.681a16.92 16.92 0 0 0 6.492-1.519 8.655 8.655 0 0 1 1.077-.423 22.957 22.957 0 0 1 8.162-1.029 7.553 7.553 0 0 0 1.569-.047c1.568-.212 3.143-.205 4.718-.293a17.145 17.145 0 0 0 2.421-.3 3.071 3.071 0 0 0 2.55-2.501c.361-1.492.811-2.97 1.098-4.476.607-3.209.866-6.487 1.589-9.682a8.025 8.025 0 0 0-.259-4.027c-.103-.334 0-.79-.144-1.124a17.194 17.194 0 0 1-.627-2.916 8.35 8.35 0 0 1-.095-3.107 3.875 3.875 0 0 1 .634-1.922 9.264 9.264 0 0 0 2.959 1.418c.631.229 1.248.495 1.848.797a26.13 26.13 0 0 1 4.623 2.841c2.38 1.826 4.725 3.686 7.098 5.512a19.216 19.216 0 0 0 6.533 3.23 9.638 9.638 0 0 0 4.295.32c.307-.055.628-.055.941-.082.136.441.169.907.096 1.363-.077 4.392-.157 8.785-.239 13.177-.102 5.342-.198 10.691-.327 16.032a2.128 2.128 0 0 0 .614 1.717 3.237 3.237 0 0 0 2.85.961 3.65 3.65 0 0 0 2.045-1.22 2.12 2.12 0 0 0 .471-1.635c.036-3.12.082-6.246.136-9.375.143-8.054.314-16.114.437-24.174a8.013 8.013 0 0 1 .682-3.148 58.107 58.107 0 0 1 2.604-5.369c4.051-7.277 8.353-14.404 12.785-21.456.12-.193.25-.38.389-.559a.366.366 0 0 1 .232-.061c.116 0 .136.082.143.191.034.865.075 1.724.13 2.582l.961 14.908c.225 3.407.457 6.868.682 10.302.255 3.934.502 7.865.743 11.794.212 3.346.409 6.691.621 10.03.034.497.088.994.136 1.492a.817.817 0 0 0 .3.586.445.445 0 0 0 .491.102.484.484 0 0 0 .259-.286c.055-.355.068-.723.089-1.084l.614-14.11c.313-6.875.647-13.75.954-20.625.239-5.205.443-10.411.682-15.609.082-1.854.171-3.714.259-5.567 0-.225 0-.45.041-.681a.434.434 0 0 1 .14-.298.431.431 0 0 1 .31-.111h.682c2.584 0 5.162-.198 7.739-.327 1.63-.082 3.253-.259 4.876-.416 1.622-.157 3.409-.341 5.202-.518.082 1.172.178 2.296.246 3.407.225 3.754.423 7.495.682 11.256.313 5.199.647 10.397.961 15.596.239 3.931.45 7.863.682 11.794.011.271.05.541.116.804a.436.436 0 0 0 .273.245.387.387 0 0 0 .457-.197c.113-.247.158-.52.129-.791.116-2.534.225-5.069.348-7.603.095-2.079.211-4.157.32-6.235.232-4.478.459-8.955.682-13.429.225-4.415.43-8.858.648-13.239 0-.449.054-.899.095-1.362.103-1.145 0-1.131.819-1.309.682-.156 1.418-.279 2.127-.436a40.837 40.837 0 0 0 6.519-1.839 8.136 8.136 0 0 0 3.505-2.235c.327.213.593.51.767.86.175.349.254.739.228 1.129.184 3.659.396 7.325.607 10.984.355 6.145.716 12.294 1.084 18.444.096 1.717.198 3.434.307 5.151.236 3.979.464 7.956.682 11.93.209 3.661.416 7.322.62 10.984.02.317.056.633.11.947.03.176.09.347.177.504a.47.47 0 0 0 .457.238.359.359 0 0 0 .341-.354c.034-.402.047-.811.047-1.213l-.286-44.56c-.061-10.22-.136-20.44-.164-30.661Zm-8.182-76.311c.195 1.298.302 2.607.32 3.918a52.866 52.866 0 0 0 1.719 13.15c1.363 5.533 2.918 11.011 4.364 16.523a90.578 90.578 0 0 1 2.168 10.016 4.038 4.038 0 0 1 0 2.132c-.164.436.061.893.082 1.363-.246.307-.518.089-.743 0a53.345 53.345 0 0 0-8.66-1.656 44.083 44.083 0 0 1-8.183-2.044 99.385 99.385 0 0 1-16.365-6.861 38.417 38.417 0 0 0-5.959-2.623 15.118 15.118 0 0 0-5.742-.811 13.268 13.268 0 0 1-3.116-.116c-.525-.102-.682-.354-.532-.872a7.67 7.67 0 0 1 .6-1.512c1.071-1.84 1.214-3.857 1.132-5.908-.041-.858-.204-1.71-.3-2.562a21.983 21.983 0 0 0-2.127-6.69c-.484-1.07-.682-.941.464-1.717a97.642 97.642 0 0 0 8.114-6.133 63.476 63.476 0 0 0 7.303-6.895 44.825 44.825 0 0 0 5.762-8.176 22.323 22.323 0 0 0 2.686-12.83 1.366 1.366 0 0 1 .041-.92.812.812 0 0 1 .825.573 14.293 14.293 0 0 1 .852 7.352 27.947 27.947 0 0 1-1.677 6.554.786.786 0 0 0-.055.395.434.434 0 0 0 .328.389.51.51 0 0 0 .375-.068 2.09 2.09 0 0 0 .498-.627c.245-.535.452-1.086.62-1.649a38.47 38.47 0 0 0 1.071-5.035c.265-1.8.156-3.635-.321-5.39-.102-.375-.191-.763-.293-1.138.416-.129.6.116.805.252 1.656 1.111 3.259 2.303 4.964 3.332 3.743 2.269 6.075 5.594 7.5 9.655a31.844 31.844 0 0 1 1.487 6.629h-.007Zm-41.813 33.386a.821.821 0 0 1-.429.907 8.58 8.58 0 0 1-1.139.736c-.859.402-1.732.797-2.625 1.11a72.17 72.17 0 0 1-9.396 2.637 7.515 7.515 0 0 1-.778.082 98.805 98.805 0 0 1 .246-11.645h1.732c.586 0 .893-.245.886-.919 0-1.363-.048-2.726-.116-4.088a.836.836 0 0 1 .58-.934 51.012 51.012 0 0 0 9.219-5.164c.259-.184.532-.341.913-.593a22.808 22.808 0 0 1 2.21 6.629c.31 1.694.42 3.418.327 5.138a8.089 8.089 0 0 1-.723 2.882 24.57 24.57 0 0 0-.593 1.362 3.23 3.23 0 0 0-.307 1.82l-.007.04Zm20.723-64.728c.034-.061.15-.081.286-.149.123.061.286.115.436.204 1.753 1.036 3.601 1.894 5.455 2.725a55.777 55.777 0 0 1 4.671 2.48 29.55 29.55 0 0 1 5.666 4.402 21.395 21.395 0 0 1 4.705 7.386c.14.236.188.514.137.783a.288.288 0 0 1-.184.164.256.256 0 0 1-.123.003.25.25 0 0 1-.109-.058 2.713 2.713 0 0 1-.321-.586 24.303 24.303 0 0 0-2.645-4.878 15.497 15.497 0 0 0-2.107-2.473 33.025 33.025 0 0 0-8.319-5.785c-2.182-1.097-4.426-2.044-6.533-3.305a2.647 2.647 0 0 1-.981-.681.266.266 0 0 1-.034-.232Zm-2.183 4.027a5.865 5.865 0 0 1 3.055 1.928 7.948 7.948 0 0 1 2.046 4.77 21.49 21.49 0 0 1-2.578 12.734 48.5 48.5 0 0 1-5.366 7.652 61.687 61.687 0 0 1-7.698 7.27 132.461 132.461 0 0 1-12.738 9.252 40.046 40.046 0 0 1-7.221 3.748 11.05 11.05 0 0 1-2.216.62 6.673 6.673 0 0 1-4.221-.681 2.334 2.334 0 0 1-1.295-1.486 12.186 12.186 0 0 1-.457-2.528c-.184-2.391-.314-4.769-.6-7.167-.375-3.107-.464-6.228-.682-9.342v-1.083c-.076-3.892.049-7.785.375-11.665.048-.81.055-1.628.123-2.439.056-.722.149-1.441.279-2.153a1.366 1.366 0 0 1 1.03-1.124 6.324 6.324 0 0 1 3.225-.15c3.369.763 6.778 1.145 10.188 1.635.988.136 1.963.327 2.952.457a.844.844 0 0 1 .784.776 8.854 8.854 0 0 1-.068 4.559 30.427 30.427 0 0 0-1.159 5.709 29.266 29.266 0 0 0 .129 8.66c.167.889.434 1.755.798 2.583.124.349.365.645.682.838a.492.492 0 0 0 .511 0 .411.411 0 0 0 .191-.47 4.265 4.265 0 0 0-.245-.627 12.202 12.202 0 0 1-1.071-4.32 34.82 34.82 0 0 1 .634-9.587 3.217 3.217 0 0 1 .798-1.669c.455-.562.871-1.154 1.248-1.771a29.55 29.55 0 0 1 2.85-3.271c2.36-2.446 4.705-4.906 7.065-7.345a60.332 60.332 0 0 1 2.332-2.276 9.542 9.542 0 0 1 2.359-1.58 6.096 6.096 0 0 1 3.961-.45v-.007Zm-13.453-.681c.116-.198.212-.402.334-.593.253-.416.396-.477.9-.361.219.051.434.119.641.204 1.653.82 3.421 1.38 5.244 1.663.075.361-.171.45-.321.579a40.535 40.535 0 0 0-3.579 3.516c-2.162 2.31-4.351 4.599-6.608 6.813-.763.763-1.398 1.656-2.093 2.487l-.682.818a13.64 13.64 0 0 0-.286-3.577 2.892 2.892 0 0 0-.266-.9c-.471-.681-.232-1.124.204-1.662 1.269-1.595 2.496-3.209 3.737-4.824a38.486 38.486 0 0 0 2.775-4.184v.021Zm-.423-6.371c.307-.17.498.082.682.218a23.867 23.867 0 0 0 5.762 2.603c.252.082.525.129.771.232a.42.42 0 0 1 .17.32c0 .143-.15.191-.286.211h-.191a6.974 6.974 0 0 1-.873-.17 25.12 25.12 0 0 1-5.319-2.433l-.341-.224c-.409-.307-.572-.661-.341-.777l-.034.02Zm-.545 5.737a32.4 32.4 0 0 1-2.564 3.816c-1.22 1.567-2.373 3.182-3.559 4.769-.184.252-.375.504-.58.743-.034.041-.157 0-.239 0a.144.144 0 0 1-.055-.028.14.14 0 0 1-.04-.047.206.206 0 0 1 0-.13 67.842 67.842 0 0 1-.293-8.659 8.303 8.303 0 0 1 1.766-4.654 37.982 37.982 0 0 0 5.918 3.277 1.413 1.413 0 0 1-.354.927v-.014Zm-7.167-3.761a9.815 9.815 0 0 0-1.316 4.92c-.044 2.62.093 5.24.41 7.842.044.314.071.63.081.947 0 .225-.156.313-.354.293-.628-.082-1.248-.177-1.875-.266-2.414-.354-4.835-.681-7.242-1.063-.934-.15-1.855-.368-2.768-.545a2.128 2.128 0 0 1 .429-1.444c.441-.843.764-1.741.962-2.671.818-3.371 1.634-6.748 2.448-10.132a40.686 40.686 0 0 1 1.288-4.326c.055-.164.144-.314.26-.573a48.054 48.054 0 0 0 2.045 1.656c.682.518 1.309.961 1.978 1.424.668.463 1.432.954 2.141 1.431l2.045 1.363c-.06.419-.245.811-.532 1.124v.02Zm-30.684-25.891c.321-.25.658-.478 1.009-.681a11.043 11.043 0 0 1 2.489-1.275h.034a.493.493 0 0 1 .518-.252h.035a.471.471 0 0 1 .215-.206.473.473 0 0 1 .296-.039h.054a.472.472 0 0 1 .505-.225l.252-.068a.886.886 0 0 1 .819-.252h.041a1.367 1.367 0 0 1 1.07-.266l.075-.068.102.041a1.543 1.543 0 0 1 1.18-.232 14.597 14.597 0 0 1 4.439-.456c2.22.109 4.407.586 6.471 1.41a53.515 53.515 0 0 1 6.137 2.91 26.181 26.181 0 0 1 8.182 7.229 292.074 292.074 0 0 0 3.744 4.83 31.838 31.838 0 0 0 5.83 5.86 17.951 17.951 0 0 0 4.091 2.405c.126.046.245.108.355.184.102.082.238.191.122.334-.116.143-.218.204-.313.184a6.09 6.09 0 0 1-1.882-.749 25.627 25.627 0 0 1-5.019-3.7 34.775 34.775 0 0 1-3.218-3.495 208.687 208.687 0 0 1-3.607-4.593c-.798-1.042-1.596-2.085-2.482-3.052a23.042 23.042 0 0 0-5.455-4.436 40.943 40.943 0 0 0-8.503-3.87 17.054 17.054 0 0 0-7.787-.538c-.444.075-.9.082-1.364.116a.953.953 0 0 1-.798.191l-.539.088a.509.509 0 0 1-.25.169.51.51 0 0 1-.302.001l-.504.109a.598.598 0 0 1-.594.212l-.088.075h-.116a.269.269 0 0 1-.328.17l-.279.095a.2.2 0 0 1-.095.135.192.192 0 0 1-.081.025.181.181 0 0 1-.083-.01l-.314.102c-.893.505-1.786 1.002-2.673 1.513-.351.208-.69.435-1.016.681-.191.137-.368.3-.545.034-.178-.265-.014-.524.163-.66l.007.02Zm-2.482 3.666c.096-.109.232-.075.334 0 .035.03.067.065.096.102 1.602 2.725 4.091 4.381 6.778 5.866a10.005 10.005 0 0 0 7.343.954c.132-.031.267-.044.403-.041.129 0 .252.048.279.218a.29.29 0 0 1-.17.327 3.845 3.845 0 0 1-.757.266 9.712 9.712 0 0 1-2.203.232 8.87 8.87 0 0 1-3.409-.566 18.882 18.882 0 0 1-7.705-5.342 5.334 5.334 0 0 1-1.098-1.696.445.445 0 0 1 .109-.32Zm-2.4 4.156c0-.136.075-.286.225-.286a.585.585 0 0 1 .341.156c.714.759 1.42 1.524 2.121 2.297a18.294 18.294 0 0 0 12.669 6.05c.907.075 1.807.082 2.727.075a17.607 17.607 0 0 1 7.794 1.492c.205.102.416.191.614.3.409.225.45.313.286.749a51.906 51.906 0 0 0-1.691 5.717c-.566 2.323-1.105 4.66-1.671 6.99-.197.832-.456 1.649-.681 2.426a.693.693 0 0 1-.566 0 2.111 2.111 0 0 0-2.196.722c-.211.239-.423.47-.621.722a7.343 7.343 0 0 1-1.97 1.643 3.58 3.58 0 0 1-3.941-.355 6.41 6.41 0 0 1-1.248-1.594 9.5 9.5 0 0 0-.921-1.363 5.046 5.046 0 0 0-3.102-1.805 7.513 7.513 0 0 1-2.046-.682 1.481 1.481 0 0 1-.893-1.403 9.341 9.341 0 0 1 .048-1.084c.03-.457.089-.912.177-1.362a6.553 6.553 0 0 0-.88-4.559c-.382-.722-.832-1.403-1.261-2.091a46.372 46.372 0 0 1-2.428-4.552 12.292 12.292 0 0 1-.879-8.203h-.007Zm-18.554 63.365c.198-.272.484-.129.723-.129 9.869-.087 19.733-.166 29.593-.239.757 0 1.091.232 1.228.934a1.757 1.757 0 0 1-.32 1.463 1.75 1.75 0 0 1-1.337.676c-.682.048-1.364.061-2.046.082-4.166.123-8.326.232-12.485.361-4.432.136-8.864.293-13.29.443h-1.868c.723-1.99.723-1.99-.191-3.604l-.007.013Zm9.546-1.819c0-.082 0-.198.062-.238.525-.416 1.07-.818 1.595-1.234a.615.615 0 0 1 .744-.047c.354.184.729.34 1.097.504l1.937.892v.116c-.743.108-1.494.144-2.243.109h-2.973c-.123.007-.205-.02-.205-.116l-.014.014Zm17.252-1.247a37.215 37.215 0 0 1-.682-1.288c-.061-.068-.082-.136-.048-.19.034-.055.062-.089.089-.089.62.157 1.057 0 1.145-.852a20.378 20.378 0 0 0 2.844 3.366c-.723.293-1.746.341-3.546.177a.204.204 0 0 1 .095-.265.681.681 0 0 0 .116-.873l-.013.014Zm4.091-10.67a20.97 20.97 0 0 1-4.903-7.392 12.918 12.918 0 0 1-.682-3.162 1.346 1.346 0 0 1 .041-.409.546.546 0 0 1 .232-.286c.246-.095.314.102.341.28.089.626.13 1.26.259 1.873.23 1.063.608 2.089 1.125 3.046a20.476 20.476 0 0 0 4.685 6.084c.106.084.201.183.279.293.069.109.109.252 0 .348a.377.377 0 0 1-.245.075.889.889 0 0 1-.368-.15 5.221 5.221 0 0 1-.73-.613l-.034.013Zm-13.617-10.07a.331.331 0 0 1 .211-.13c.069 0 .198.041.219.096.091.251.152.511.184.777a13.91 13.91 0 0 0 1.827 5.491 23.44 23.44 0 0 0 4.691 6.269c.159.157.294.336.403.531.034.055-.041.164-.069.245-.027.082-.122.15-.218.096a2.286 2.286 0 0 1-.572-.341 22.66 22.66 0 0 1-1.589-1.662 25.338 25.338 0 0 1-4.276-7.039 13.157 13.157 0 0 1-.893-4.088.823.823 0 0 1 .082-.245Zm-.996 7.645c.045.122.068.251.069.381.075.28.156.559.231.831.103.334.219.682.314.988a.278.278 0 0 1-.116.218c-.048 0-.163 0-.225-.068-.273-.218-.225-.545-.252-.845a1.357 1.357 0 0 1-.266-.851.736.736 0 0 1-.218-.607c0-.122.041-.293.177-.286a.43.43 0 0 1 .286.239Zm-2.141-32.521c.419-1.338.743-2.704.969-4.088.136-.94.136-1.894.211-2.835.034-.408.089-.81.157-1.206a.26.26 0 0 1 .087-.168.271.271 0 0 1 .445.196c.021.226.021.454 0 .681 0 .409-.062.811-.096 1.233a20.137 20.137 0 0 1-1.043 6.132 11.108 11.108 0 0 0-.136 6.814c.374 1.208.671 2.439.886 3.686a16.144 16.144 0 0 1-.191 6.595c-.259 1.056-.47 2.119-.682 3.175-.061.266-.136.525-.211.784a.278.278 0 0 1-.293.218c-.253 0-.287-.204-.273-.375a5.32 5.32 0 0 1 .109-.804c.232-1.056.43-2.125.716-3.175a15.732 15.732 0 0 0-.143-7.917c-.171-.681-.348-1.404-.559-2.092a11.687 11.687 0 0 1 .047-6.854Zm-12.921 38.503c.532-.995 1.075-1.985 1.63-2.971.211-.375.388-.422.756-.163.553.395 1.112.783 1.623 1.226a6.773 6.773 0 0 0 5.421 1.601l.539-.075a.495.495 0 0 1 .539.3c.265.627.545 1.247.838 1.853a12.273 12.273 0 0 0 3.689 4.456c.177.14.361.269.553.389.096.061.21.087.323.074a.498.498 0 0 0 .297-.149.554.554 0 0 0 .218-.6 8.322 8.322 0 0 0-.436-.838 12.12 12.12 0 0 1-1.098-2.466c.307-.355.566.034.846.041.647 0 1.07-.314 1.036-.948a3.615 3.615 0 0 0-.191-.919c-.239-.777-.518-1.54-.764-2.317a2.204 2.204 0 0 1-.068-.518c0-.041.041-.109.075-.109.034 0 .218-.034.246 0 .174.259.329.53.463.811a26.623 26.623 0 0 0 3.035 4.967c1.1 1.441 2.4 2.719 3.859 3.795.409.286.791.607 1.187.906a.298.298 0 0 1 .143.287c-1.941.14-3.888.152-5.83.034a19.51 19.51 0 0 1-6.137-1.554 17.182 17.182 0 0 1-1.603-.722 1.366 1.366 0 0 0-1.834.245 13.142 13.142 0 0 1-2.639 1.894 2.262 2.262 0 0 1-1.152.348c-1.718 0-3.409.095-5.155.129-.682 0-1.364-.041-2.046-.061a6.334 6.334 0 0 0-.313-.797 1.638 1.638 0 0 1-.198-1.819c.314-.593-.048-1.234-.43-1.758a11.075 11.075 0 0 0-.838-.947c.437-.3.792-.705 1.029-1.179.498.17.457.599.566.92.141.434.441.799.839 1.022a1.584 1.584 0 0 0 2.243-.532c.819-1.301 1.569-2.643 2.339-3.972a.674.674 0 0 0 .102-.388.567.567 0 0 0-.156-.341.404.404 0 0 0-.491-.068c-.194.12-.35.293-.45.497a1965.69 1965.69 0 0 1-2.046 3.346c-.314.504-.525.626-.832.524-.307-.102-.539-.477-.457-1.015.098-.85.345-1.675.73-2.439Zm-4.555 10.901a7.609 7.609 0 0 0 1.473-.64.734.734 0 0 1 .577-.103.733.733 0 0 1 .466.355c.248.286.388.65.396 1.029a1.261 1.261 0 0 1-.212.681 3.494 3.494 0 0 1-1.507 1.302 1.093 1.093 0 0 1-1.432-.355 3.4 3.4 0 0 1-.477-.804c-.423-.933-.32-1.097.716-1.465Zm-1.664-.831a1.052 1.052 0 0 1-.982-.593 4.275 4.275 0 0 1-.532-2.194v-.272c0-.647.225-.804.832-.627a10.1 10.1 0 0 0 3.253.756.492.492 0 0 1 .436.266c.19.356.28.756.259 1.158a.678.678 0 0 1-.272.443 5.417 5.417 0 0 1-2.994 1.084v-.021Zm3.58-13.102c.798.15 1.596.32 2.475.497-.429 1.077-1.166 2.003-1.452 3.053-.13.061-.171.095-.212.095a.16.16 0 0 1-.109-.068c-1.009-1.227-2.045-2.446-3.007-3.679-.041-.055 0-.171-.041-.307.86-.116 1.541.286 2.346.429v-.02Zm-4.719-.034a18.789 18.789 0 0 1 3.342 3.332c.245.325.404.707.463 1.11a.67.67 0 0 1-.183.555.678.678 0 0 1-.546.208.869.869 0 0 1-.273-.041c-1.739-.599-2.884-1.567-3.293-3.406a1.826 1.826 0 0 1 .49-1.738v-.02Zm-.92 5.587c.143-1.077.491-1.097 1.159-.538a5.568 5.568 0 0 0 1.868 1.069c1.064.341 1.535 1.193 1.937 2.106.245.565-.116.947-.996.851-1.016-.306-2.27-.681-3.511-1.069a.87.87 0 0 1-.614-.947c.027-.471.096-.961.157-1.452v-.02Zm-15.179-.259a3.658 3.658 0 0 1 1.882-3.448c.839-.538 1.364-.252 1.432.75a4.767 4.767 0 0 1-1.677 3.952 1.456 1.456 0 0 1-.846.388c-.497.054-.77-.15-.797-.647v-.13l.006-.865Zm.485 2.5a2.31 2.31 0 0 0 1.13-.157c.357-.147.672-.381.915-.681a6.25 6.25 0 0 0 1.739-3.883 2.764 2.764 0 0 0-.164-1.199 1.53 1.53 0 0 0-.923-1.109 1.551 1.551 0 0 0-1.436.141 7.218 7.218 0 0 0-.88.634c-.252.184-.347.531-.791.681a2.28 2.28 0 0 1 .682-2.255 6.086 6.086 0 0 1 1.323-1.152c1.364-.783 2.516-.368 3.028 1.077.177.466.272.959.279 1.458a9.235 9.235 0 0 1-2.332 6.343 3.706 3.706 0 0 1-1.902 1.247 2.757 2.757 0 0 1-.682.089c-.368 0-.532-.266-.525-.777.048-.354.184-.491.539-.45v-.007Zm-1.753-13.272c-2.127 1.288-8.83 1.213-11.837-.266 2.12-1.172 9.423-.981 11.837.286v-.02Zm-44.322 9.689c.041-4.756.084-9.508.13-14.254h.014l.143-21.449v-1.22c0-.681.075-.763.798-.756 3.123.041 6.248.091 9.375.15.62 0 .682.054.682.681.062 2.944.11 5.887.164 8.824l.47 27.008c.048 2.808.062 5.615.123 8.415a2.038 2.038 0 0 1-.545 1.472 6.48 6.48 0 0 1-4.235 2.2 9.716 9.716 0 0 1-6.594-1.573 1.157 1.157 0 0 1-.58-1.111c.049-2.753.055-5.567.083-8.367l-.028-.02Zm-33.889 15.739c4.494-2.249 8.987-4.477 13.481-6.718l8.373-4.17a3.695 3.695 0 0 1 1.562-.375c2.898-.123 5.789-.273 8.687-.409h.682c.272.259.19.593.19.9v4.892c0 .545 0 .586.567.729.426.151.831.354 1.207.606a10.358 10.358 0 0 0 6.689 1.186 7.393 7.393 0 0 0 4.637-2.596 2.552 2.552 0 0 0 .681-1.86c-.047-1.125 0-2.249 0-3.407a3.527 3.527 0 0 1 1.603-.252c4.296-.225 8.591-.429 12.894-.647 1.084-.055 2.168-.137 3.253-.191.586 0 .647.034.681.579v2.575a.912.912 0 0 0 .607.934 14.615 14.615 0 0 0 5.244 1.281c1.627.133 3.262.133 4.889 0a13.86 13.86 0 0 0 2.789-.538 1.03 1.03 0 0 0 .621-.38 1.03 1.03 0 0 0 .211-.697v-.954c.123-.075.26-.126.402-.15a3.641 3.641 0 0 0 2.4-.777c.236-.207.533-.331.846-.354 3.075-.116 6.137-.266 9.225-.409.321 0 .635-.061.948-.061a.864.864 0 0 1 .934 1.104 6.306 6.306 0 0 0 .171 2.691c.286.934.682 1.772 1.745 2.078a.438.438 0 0 1 .362.477c.007.774.266 1.525.736 2.14a2.048 2.048 0 0 0 2.489.906 6.885 6.885 0 0 1 1.998-.259c6.028-.155 12.051-.311 18.07-.47 3.982-.109 7.971-.246 11.953-.341a2.344 2.344 0 0 0 1.698-.681 2.939 2.939 0 0 0 .975-1.881v-1.362c.968.34 1.773.633 2.584.899.293.102.464.252.464.572.001.18.012.36.034.538.052 1.593.295 3.174.723 4.709-.438.15-.905.199-1.364.143l-26.777.102-80.332.334-29.211.231h-1.412c.089-.483.512-.551.791-.667Zm5.53 78.396-.184 64.516c0 1.997 0 3.986-.047 5.976 0 .845-.041.899-.846 1.138a6.598 6.598 0 0 1-4.269 0 .882.882 0 0 1-.681-1.009 6.512 6.512 0 0 0 0-.817c0-46.446.016-92.898.047-139.356v-1.22c0-.409.205-.477.518-.477h5.17a.438.438 0 0 1 .49.497v1.227c-.068 23.166-.14 46.345-.218 69.538l.02-.013Zm-5.993-71.719c-.273 0-.539 0-.941-.041-.184-1.649-.184-3.189-.239-4.715a.322.322 0 0 1 .086-.249.33.33 0 0 1 .241-.105h1.22l31.401-.109 60.21-.259 45.528-.211h.955c.485-.019.964.119 1.364.395a7.418 7.418 0 0 0 5.577 1.117c.355-.068.682-.122 1.071-.177.113.012.225.035.334.068.041 1.363.075 2.767.109 4.129l-.164.102c-.041 0-.081.069-.116.069l-146.636-.014Zm138.243 8.21c-3.219.055-6.437.123-9.656.164l-38.341.395-23.245.266-23.252.272c-7.928.086-15.858.177-23.79.273-4.249.054-8.504.136-12.718.204a.804.804 0 0 1-.177-.681v-7.338a4.75 4.75 0 0 1 0-.539.342.342 0 0 1 .34-.34h131.249a.408.408 0 0 1 .436.415v.409c-.041 1.944-.084 3.891-.129 5.839-.021.627-.041.648-.716.661Zm-65.562 65.628c.197-1.533.545-2.903 1.677-3.945a2.077 2.077 0 0 1 2.727-.327c.274.159.532.344.771.551 1.418 1.193 1.418 1.2.62 2.889-.409.859-.825 1.711-1.234 2.562-.095.205-.157.436-.477.538-.873-1.499-2.332-2.105-4.084-2.268Zm-11.736 25.809a54.856 54.856 0 0 0 5.749-6.861c2.543-3.461 5.161-6.875 7.678-10.363a37.292 37.292 0 0 0 4.2-7.114c.436-1.029.927-2.044 1.432-3.141 1.773 1.438 3.627 1.438 5.584.682.81-.279 1.637-.507 2.476-.682a7.774 7.774 0 0 1 4.398.43c.168.068.33.15.484.245 1.098.681 1.179.886.682 2.044a110.742 110.742 0 0 1-10.788 18.948 1.046 1.046 0 0 1-1.118.552 11.524 11.524 0 0 0-4.957.511 27.585 27.585 0 0 0-11.271 6.302c-.43.396-.839.825-1.235 1.261-.395.436-.743.879-1.186 1.41a25.339 25.339 0 0 0-2.496-3.774c.121-.162.251-.316.389-.464l-.021.014Zm28.025 12.755a.883.883 0 0 1 .144-.893c.463-.613.893-1.247 1.363-1.839a35.394 35.394 0 0 1 7.085-6.678 16.041 16.041 0 0 1 5.878-2.725 5.859 5.859 0 0 1 2.952.061.437.437 0 0 1 .348.498c-.205 1.601.273 3.141.382 4.715a4.855 4.855 0 0 1-.348 2.364 7.5 7.5 0 0 1-3.184 3.591c-.907.511-1.828.994-2.728 1.465-3.136 1.608-6.375 3.004-9.587 4.462-.238.109-.498.198-.866.341a36.3 36.3 0 0 0-1.418-5.376l-.021.014Zm.26 5.873-3.73 1.894c-.253.13-.416.034-.471-.259-.075-.402-.129-.804-.184-1.206a10.902 10.902 0 0 0-2.046-5.083c-.6-.79-1.227-1.56-1.841-2.337-.3-.381-.327-.504 0-.81a41.313 41.313 0 0 0 3.28-3.789.34.34 0 0 1 .109-.126.342.342 0 0 1 .157-.056.33.33 0 0 1 .293.135c.451.443.835.951 1.139 1.505.407.701.778 1.422 1.112 2.16a32.546 32.546 0 0 1 2.202 7.958l-.02.014Zm17.769-18.628c-2.557-.627-4.875 0-7.125 1.056a22.142 22.142 0 0 0-3.908 2.426 36.442 36.442 0 0 0-6.641 6.561l-.927 1.179c-.553-1.015-1.009-1.887-1.5-2.726a13.21 13.21 0 0 0-1.712-2.207 154.78 154.78 0 0 0 10.91-20.325c.232-.081.334.041.436.211a7.496 7.496 0 0 0 3.362 2.855c.777.361 1.568.682 2.359 1.022a6.353 6.353 0 0 1 3.287 3.087c.348.681.641 1.397.941 2.098.211.498.389 1.016.593 1.513.205.497.593 1.002.573 1.492a6.361 6.361 0 0 1-.627 1.744l-.021.014Zm-11.408-15.589c-1.329 2.97-2.645 5.948-4.241 8.796-1.193 2.126-2.332 4.286-3.491 6.439a48.89 48.89 0 0 1-5.741 8.551c-.764.892-1.589 1.737-2.387 2.596a.798.798 0 0 1-.607.347 12.325 12.325 0 0 1-.163-7.461 19.608 19.608 0 0 1 2.168-4.81c1.07-1.731 2.202-3.407 3.348-5.11a101.032 101.032 0 0 0 6.778-11.113c1.023-2.044 2.045-4.047 2.966-6.098.094-.362.288-.69.559-.947.378.674.591 1.428.621 2.201.15 1.942.245 3.89.368 5.832.01.27-.052.538-.178.777Zm-17.728 18.723a7.828 7.828 0 0 1-.239.777 2.97 2.97 0 0 1-1.364 1.642 22.34 22.34 0 0 1-4.725 2.01c-1.507.491-3.041.872-4.562 1.308-.648.184-1.282.389-1.977.6a3.444 3.444 0 0 1-.205-.518 14.354 14.354 0 0 0-.948-3.1 1.217 1.217 0 0 1 .205-1.363c.498-.586.934-1.226 1.473-1.771a25.825 25.825 0 0 1 12.642-7.005 14.542 14.542 0 0 1 2.557-.279c.682-.034.818.225.457.777a32.178 32.178 0 0 0-2.046 3.522 16.054 16.054 0 0 0-1.255 3.407l-.013-.007Zm-22.291 1.199c.085-.107.189-.197.307-.265a32.923 32.923 0 0 0 3.41-2.862c.375-.361.565-.327.879.082.164.211.314.443.464.681a24.434 24.434 0 0 1 2.761 6.016c.041.13.089.259.123.389.389 1.628.348 1.683-1.091 2.603-1.214.783-2.4 1.614-3.6 2.425l-1.125.763a2.049 2.049 0 0 1-.021-.456 12.462 12.462 0 0 0-1.97-8.66 1.404 1.404 0 0 1-.205-.348.587.587 0 0 1 .082-.361l-.014-.007Zm-19.235 9.88c.22-.696.66-1.301 1.254-1.724a5.466 5.466 0 0 1 2.346-.988c1.425-.266 2.85-.504 4.269-.756a18.123 18.123 0 0 0 8.864-4.129c.402-.348.839-.681 1.364-1.09a12.075 12.075 0 0 1 2.045 8.271 3.7 3.7 0 0 1-.102.532 2.79 2.79 0 0 1-1.671 2.105 28.65 28.65 0 0 1-4.03 1.567 16.184 16.184 0 0 1-4.575.416 33.288 33.288 0 0 1-6.191-.681 8.987 8.987 0 0 1-2.557-.852 2.114 2.114 0 0 1-1.003-2.664l-.013-.007Zm23.695 6.813c-1.916.913-3.839 1.826-5.789 2.678a15.844 15.844 0 0 1-5.803 1.274c-.723 0-1.446.089-2.168.15a21.28 21.28 0 0 1-5.953-.163 7.066 7.066 0 0 1-1.05-.287 1.852 1.852 0 0 1-1.234-1.362 3.965 3.965 0 0 1-.17-.797 24.622 24.622 0 0 0-.962-4.368.382.382 0 0 1 .047-.525.351.351 0 0 1 .219.035c.123.054.241.118.354.19 1.848.613 3.765.996 5.707 1.138 1.173.096 2.34.225 3.526.232 2.498.02 4.97-.518 7.234-1.574a27.405 27.405 0 0 0 4.692-2.725 104.28 104.28 0 0 1 4.132-2.855 16.993 16.993 0 0 1 5.312-2.358 42.53 42.53 0 0 0 6.089-1.894 16.703 16.703 0 0 0 2.891-1.451c.068.136.136.211.143.293.098 1.492.345 2.971.736 4.415a1.254 1.254 0 0 1-.443 1.431 39.268 39.268 0 0 1-10.951 6.97c-1.266.5-2.613.765-3.975.783a6.61 6.61 0 0 0-2.571.75l-.013.02Zm2.134 2.562a1.758 1.758 0 0 1 .955-1.798 5.43 5.43 0 0 1 1.363-.532 23.337 23.337 0 0 0 6.369-2.63 38.34 38.34 0 0 0 7.78-5.641l1.125-1.036c2.36 2.507 3.996 5.28 4.092 8.789a.903.903 0 0 1-.56.954 34.948 34.948 0 0 1-9.859 3.298c-2.107.347-4.221.504-6.342.681a14.783 14.783 0 0 1-3.109-.191 2.04 2.04 0 0 1-1.8-1.914l-.014.02Zm45.474-11.242c-.32 3.196-.682 6.391-1.364 9.539-.272 1.363-.681 2.623-.975 3.945a2.207 2.207 0 0 1-1.957 1.805c-.45.085-.906.142-1.363.171-2.401.122-4.774.306-7.194.306a25.826 25.826 0 0 0-10.187 2.004 13.502 13.502 0 0 1-4.623 1.028c-2.264.109-4.521.348-6.785.362a25.71 25.71 0 0 0-2.728.258c-1.213.13-2.427.259-3.641.423a6.452 6.452 0 0 1-2.284-.225 1.425 1.425 0 0 1-1.071-.954 2.61 2.61 0 0 1-.143-.375c-.279-1.41-.545-2.814-.825-4.251.457-.15.75.17 1.098.184.315.019.63.055.941.109 1.259.173 2.535.187 3.798.041 1.807-.164 3.6-.334 5.394-.627a32.92 32.92 0 0 0 8.496-2.603 62.665 62.665 0 0 0 3.511-1.771c1.998-1.077 4.044-2.044 6.137-2.964 3.553-1.595 7.133-3.135 10.576-4.967 2.966-1.581 3.184-1.765 5.244-4.497-.041 1.172.034 2.126-.055 3.059Zm29.409-1.165a.623.623 0 0 1-.477.681 7.087 7.087 0 0 1-4.003.259 19.028 19.028 0 0 1-7.384-3.611 664.608 664.608 0 0 0-6.219-4.838 26.083 26.083 0 0 0-8.073-4.367 4.094 4.094 0 0 1-2.366-2.105c-.369-.682-.607-1.411-.907-2.119-.3-.709-.641-1.595-1.023-2.365a7.649 7.649 0 0 0-3.941-3.754c-.505-.211-1.01-.402-1.507-.627a14.332 14.332 0 0 1-1.46-.681 5.025 5.025 0 0 1-2.795-4.088 86.076 86.076 0 0 1-.15-1.887c-.082-1.315-.15-2.624-.246-3.932a8.726 8.726 0 0 0-.818-2.998 5.494 5.494 0 0 0-3.962-3.195 9.412 9.412 0 0 0-5.086.163c-.819.259-1.651.484-2.469.736a3.402 3.402 0 0 1-3.198-.634c-.504-.381-.948-.844-1.411-1.274-.464-.429-.839-.831-1.296-1.192-1.364-1.07-3.061-1.444-4.684 0-.103.034-.212.061-.273-.061-.061-.123 0-.116.068-.184a24.195 24.195 0 0 1 1.984-3.85 50.36 50.36 0 0 1 3.369-5.09c3.675-5.001 7.46-9.913 11.455-14.655 3.362-3.979 6.758-7.924 10.467-11.583a80.714 80.714 0 0 1 13.631-10.8 48.194 48.194 0 0 1 15.683-6.452c2.727-.6 5.455-1.145 8.271-1.547.457-.068.586 0 .58.47 0 1.997-.089 3.986-.123 5.976-.15 8.149-.298 16.295-.443 24.44l-.478 26.75c-.145 7.508-.297 15.021-.457 22.539-.095 5.023-.188 10.045-.279 15.064.02.273 0 .545.02.818v-.007Zm5.864-42.796c-.154 8.917-.311 17.834-.47 26.75-.136 7.427-.3 14.847-.443 22.273-.159 8.376-.307 16.75-.443 25.122-.021.406-.021.813 0 1.219a1.702 1.702 0 0 1-1.085 1.717 2 2 0 0 1-2.045 0 2.904 2.904 0 0 1-.334-.224 1.55 1.55 0 0 1-.682-1.363c.075-1.54.075-3.08.102-4.62.095-4.996.189-9.975.28-14.935.154-8.78.311-17.563.47-26.348.141-7.553.293-15.112.457-22.675v-2.31l.477-23.758c.082-4.211.137-8.422.212-12.632.163-9.194.329-18.383.497-27.568.041-2.173.103-4.347.15-6.513 0-.321 0-.634.048-.954a.343.343 0 0 1 .034-.13.322.322 0 0 1 .201-.17.333.333 0 0 1 .133-.014h3.41a.346.346 0 0 1 .239.105c.031.032.055.07.071.112a.327.327 0 0 1 .024.131v.954c-.096 4.973-.196 9.95-.3 14.928l-.328 17.245c-.136 6.931-.275 13.858-.415 20.781-.157 4.279-.212 8.578-.26 12.877Zm42.481-1.253c-2.823.511-5.707.681-8.571 1.042-2.482.232-4.971.089-7.453.075-.157 0-.232-.129-.327-.218 4.514-3.89 13.289-9.607 15.812-10.302.205 1.656.594 8.285.512 9.403h.027Zm.409-10.711c-.731.234-1.44.53-2.12.886a86.707 86.707 0 0 0-13.495 8.66 41.71 41.71 0 0 0-5.284 5.069 68.76 68.76 0 0 0-8.135 10.649c-3.996 6.575-8.046 13.123-11.728 19.875-.518.954-1.023 1.915-1.528 2.876a.302.302 0 0 1-.12.159.302.302 0 0 1-.193.052c-.205-.164-.082-.395-.082-.593.182-10.284.37-20.563.566-30.838.17-8.646.375-17.292.539-25.939.17-8.919.313-17.837.477-26.756.034-1.901.095-3.802.157-5.703 0-.736.041-.756.729-.886a71.34 71.34 0 0 0 9.928-2.725c.901-.307 1.76-.682 2.626-1.104a3.682 3.682 0 0 0 1.159-.681 2.64 2.64 0 0 1 2.686-.743 7.08 7.08 0 0 0 1.896 0 14.882 14.882 0 0 1 6.512 1.042 40.877 40.877 0 0 1 4.814 2.188 103.035 103.035 0 0 0 19.092 7.753 38.298 38.298 0 0 0 6.362 1.363c2.837.332 5.644.886 8.394 1.656 1.152.34 1.146.327 1.016 1.567a31.931 31.931 0 0 1-.927 4.933 53.21 53.21 0 0 1-3.682 9.757 20.615 20.615 0 0 1-2.278 3.686 54.355 54.355 0 0 1-9.028 9.368 25.917 25.917 0 0 1-8.38 4.429h.027Zm14.667 7.631c-.947.286-1.888.607-2.857.838-1.534.375-3.082.682-4.63 1.029-.388.082-.791.102-1.166.15-.061-.13-.129-.211-.129-.286.048-1.363.095-2.726.163-4.088 0-.518.164-.593.682-.518a28.73 28.73 0 0 1 7.903 2.323c.123.055.253.102.259.252.007.15-.129.259-.252.3h.027Zm4.228-3.407a.587.587 0 0 1-.252-.041 29.42 29.42 0 0 0-9.935-3.767c-.621-.13-1.255-.143-1.882-.232-.437-.061-.464-.164-.484-.64-.055-1.111.211-2.004 1.363-2.508a5.555 5.555 0 0 0 1.412-1.036 3.474 3.474 0 0 1 2.086-.851c1.801-.157 3.587-.382 5.387-.552.573-.055 1.268-.423 1.698-.075.43.347.286 1.179.327 1.792.157 2.391.273 4.769.396 7.168-.021.231.095.518-.143.729l.027.013Z"/>
  <path fill="#FDEAFF" d="M183.171 228.439a1.461 1.461 0 0 0-1.329-.264 1.453 1.453 0 0 0-.969.946 2.725 2.725 0 0 0 1.404 3.168 1.414 1.414 0 0 0 1.177-.007 1.417 1.417 0 0 0 .767-.892c.056-.223.088-.452.095-.682a2.904 2.904 0 0 0-1.145-2.269Zm-.594 2.01c-.041.212-.231.246-.368.321a.809.809 0 0 1-.559-1.227.375.375 0 0 1 .149-.112.377.377 0 0 1 .185-.024.898.898 0 0 1 .593 1.042Zm.737.443c-.116 0-.164-.122-.143-.252.02-.129.041-.191.088-.204.157-.041.225.054.198.211-.027.157-.02.245-.13.245h-.013Zm-72.422-6.616a2.414 2.414 0 0 0-1.166-1.267 7.225 7.225 0 0 0-3.587-.94c-.361.047-.811.095-1.254.17a1.368 1.368 0 0 0-.887.572.389.389 0 0 0 .062.593c.257.18.534.331.825.45 1.711.776 3.573.933 5.4 1.219a.565.565 0 0 0 .539-.219.574.574 0 0 0 .068-.578Zm-2.093-.409h-.294a1.81 1.81 0 0 1-1.363-.259 1.144 1.144 0 0 1-1.091-.272.532.532 0 0 1-.491-.136.519.519 0 0 1 .463-.205 5.726 5.726 0 0 1 2.98.682c.048 0 .034.143.055.218a.316.316 0 0 1-.133.015.296.296 0 0 1-.126-.043Zm.886-21.462a3.198 3.198 0 0 0-.804.082 6.433 6.433 0 0 0-2.782 1.315 12.152 12.152 0 0 0-3.185 3.986.933.933 0 0 0-.13.761.942.942 0 0 0 .485.601l.525.034.116-.054h.122l1.637-.831c.355-.273.682-.539 1.057-.818a11.301 11.301 0 0 0 3.082-3.373c.177-.313.325-.641.443-.981a.596.596 0 0 0-.315-.657.592.592 0 0 0-.251-.065Zm-5.748 5.689c.095-.729.423-1.294 1.466-2.405a6.599 6.599 0 0 1 3.662-2.255 10.707 10.707 0 0 1-5.128 4.66Zm-4.977 10.99a.503.503 0 0 0-.399-.412.529.529 0 0 0-.202.003c-.22.041-.43.122-.62.239a4.24 4.24 0 0 0-2.046 4.388c.6.381 1.05.095 1.466-.334.034 0 .082-.116.061-.143a.156.156 0 0 1 .219-.096s.423-.579.627-.872a4.967 4.967 0 0 0 .886-2.105 2.41 2.41 0 0 0 .007-.668Zm-1.098 1.274a.892.892 0 0 1-.3.559c-.09.33-.284.621-.553.831-.04.075-.061.171-.123.212-.061.04-.28.149-.313.115-.143-.15-.096-.299.095-.395l.089-.259c.046-.325.208-.623.457-.838a.792.792 0 0 1 .573-.565c.088-.177.19-.198.245 0a.287.287 0 0 1-.17.34Zm65.691-59.147a33.304 33.304 0 0 0-4.821-10.118 24.189 24.189 0 0 0-3.593-4.088 15.865 15.865 0 0 0-7.269-3.734c-.798-.17-1.616-.225-2.421-.327a.792.792 0 0 1-.682-.361 3.674 3.674 0 0 0-1.711-1.472c0-.347-.048-.681-.055-.981-.095-6.132-.204-12.224-.293-18.335-.059-4.438-.113-8.874-.163-13.307-.055-4.66 1.129-103.823 1.084-108.488h-.921c.026.5-.708 96-.708 96s-.301 17.426-.178 26.21c.054 4.388.111 8.778.17 13.171 0 1.676.041 3.352.089 5.021a1.192 1.192 0 0 1-.552 1.268 2.215 2.215 0 0 0-1.023 1.362 1.246 1.246 0 0 1-.921.879 22.204 22.204 0 0 0-8.019 5.206 40.134 40.134 0 0 0-7.637 10.656 58.07 58.07 0 0 0-5.318 16.175 5.386 5.386 0 0 0-.062.941.609.609 0 0 0 .444.613c.17.059.343.109.518.15a65.063 65.063 0 0 0 9.764 1.628c1.76.17 3.526.286 5.285.395a1.175 1.175 0 0 1 1.077.682 17.003 17.003 0 0 0 1.889 2.814 11.696 11.696 0 0 0 3.832 3.188 6.965 6.965 0 0 0 7.453-.538 10.981 10.981 0 0 0 2.809-2.937 13.564 13.564 0 0 0 1.657-3.107 1.441 1.441 0 0 1 1.364-1.09 36.481 36.481 0 0 0 5.946-1.362 14.094 14.094 0 0 0 3.109-1.363 5.616 5.616 0 0 0 1.541-1.301 1.615 1.615 0 0 0 .423-1.213 53.168 53.168 0 0 0-2.107-12.237Zm.457 13.47a12.69 12.69 0 0 1-3.409 1.669 44.712 44.712 0 0 1-8.34 1.813c-4.072.506-8.17.763-12.273.77a105.609 105.609 0 0 1-14.79-1.056 42.796 42.796 0 0 1-5.053-1.016c-.682-.19-.736-.218-.586-.933.334-1.642.681-3.277 1.097-4.892a51.409 51.409 0 0 1 3.867-10.404 41.573 41.573 0 0 1 6.982-10.139 23.966 23.966 0 0 1 6.219-4.769 15.508 15.508 0 0 1 6.88-1.833 13.685 13.685 0 0 1 7.139 1.819 18.479 18.479 0 0 1 5.544 4.933 30.534 30.534 0 0 1 4.002 6.909 48.565 48.565 0 0 1 3.45 15.671 1.492 1.492 0 0 1-.729 1.485v-.027Zm167.284 8.312h-.266c-.348 0-.471-.224-.471-.538v-.272l-.204-16.026a2.654 2.654 0 0 1 .177-1.192c.21-.554.276-1.152.191-1.737a7.046 7.046 0 0 0-.84-2.78 7.046 7.046 0 0 0-1.888-2.208 19.086 19.086 0 0 0-6.246-3.741 10.48 10.48 0 0 1-2.55-1.26 3.754 3.754 0 0 1-1.466-1.554c.355-.19.682-.34.982-.538a3.123 3.123 0 0 0 1.282-3.454 3.164 3.164 0 0 0-5.946-.409 3.1 3.1 0 0 0 .982 3.768c.307.245.784.266.927.756a5.682 5.682 0 0 1-1.745 2.044 28.174 28.174 0 0 1-4.903 2.603.243.243 0 0 1-.128.041.248.248 0 0 1-.254-.259v-1.22c-.05-5.664-.098-11.326-.143-16.986-.055-5.478-.114-10.956-.177-16.434a2.218 2.218 0 0 1 .184-1.328c.157-.253 0-.491-.321-.627a1.207 1.207 0 0 0-.682-.082 15.54 15.54 0 0 1-1.493.082h-10.467l-36.568.034h-.137c-.368 0-.552.211-.579.613v.402c-.082 2.807-.169 5.614-.259 8.421a1.1 1.1 0 0 1-.144.682l-1.732.252c-.347-.184-.463.204-.681.286-.826.123-1.432.927-2.367.736-.047 0-.17.184-.204.293a.74.74 0 0 1-.28.422 13.809 13.809 0 0 0-2.161 1.826.23.23 0 0 1-.341.041c-.109-.068-.259-.197-.341-.163-.212.081-.123.279-.062.429a.64.64 0 0 1 0 .634c-.477.81-.92 1.628-1.363 2.452a2.395 2.395 0 0 1-.341-1.308c-.177-1.281-.327-2.568-.621-3.829-.15-.64-.566-1.247-.232-1.942a.248.248 0 0 0-.068-.238c-.525-.293-.395-.872-.586-1.308a.535.535 0 0 1 .034-.518c.116-.177.423-.286.341-.532-.082-.245-.361 0-.552-.061-.191-.061-.171-.184-.212-.307-.286-.94-.573-1.894-.859-2.841-.15-.286-.13-.681-.539-.797a3.296 3.296 0 0 0-2.543-.893h-.927c-.328-.19-.437.171-.648.266a5.069 5.069 0 0 0-2.864 2.324c-.116.197-.211.367-.491.361-.28-.007-.327.15-.198.333a1.237 1.237 0 0 1 .062 1.261 18.224 18.224 0 0 0-.88 3.407c-.614.116-.641.143-.314.565a.87.87 0 0 1 .157.75c-.163.906.205 1.86-.313 2.725-.11.191.313.457.334.804.041.804.163 1.608.259 2.412.129.613.129.613-.314.586-.579.129-.907-.388-1.364-.538-.627-.096-.068-1.029-.77-1.077-.082.266-.273.382-.505.232a2.24 2.24 0 0 0-1.575-.239c-.375.041-.723.362-1.139.082-.081-.061-.211.075-.163.252a.582.582 0 0 1-.041.511 3.811 3.811 0 0 0-.682 2.181c0 .245-.164.374-.361.517-.198.144-.055.266.129.293.184.028.396 0 .443.218.109.484.198.975.259 1.465 0 .218-.443.232-.3.498.144.265.335.279.485.443a.89.89 0 0 1 .17.361c.341 1.212.798 2.39 1.364 3.515.061.116.15.3.102.368-.239.375 0 .416.273.539.273.122.286.34.464.463.381.266.122.899.64 1.07.519.17.682.606 1.003.885.163.137.388.259.341.559-.723.327-1.466.641-2.189.988a2.622 2.622 0 0 0-1.255 1.009 5.445 5.445 0 0 0-.941 3.495c.106.668.297 1.321.566 1.942.273.62.546 1.247.771 1.887a3.474 3.474 0 0 1-.403 3.236 3.683 3.683 0 0 1-1.561 1.268c-.989.449-1.991.872-2.98 1.315a17.362 17.362 0 0 0-5.891 4.04 11.235 11.235 0 0 0-2.837 5.771 13.688 13.688 0 0 0-.075 5.267.63.63 0 0 1-.061.525 2.35 2.35 0 0 1-1.064.068l-9.921-.137-14.544-.17a1.236 1.236 0 0 0-.785.13.575.575 0 0 0-.204.313c-.055.157.075.245.177.334.266.238.6.15.907.157l20.661.238c4.091.041 8.25.061 12.369.109l33.303.436c4.173.048 8.339.061 12.512.116l32.894.422c4.623.062 9.239.089 13.862.143l40.738.3c.359.061.727.021 1.064-.116v-.817l-28.887-.096Zm-16.631-34.455a2.255 2.255 0 0 1 2.683-2.242 2.254 2.254 0 0 1 .826 4.091c-.373.248-.811.38-1.259.379a2.205 2.205 0 0 1-1.6-.635 2.184 2.184 0 0 1-.65-1.593Zm-66.721.374v-.265a3.302 3.302 0 0 1 .531-1.636 2.775 2.775 0 0 1 0-1.696l.682-.048c-.682-.872-.682-.872-.607-1.948 0-.539.048-1.084.062-1.622 0-.314-.055-.641.388-.743.157-.041.089-.231 0-.293-.504-.265-.47-.729-.429-1.178.023-.232.071-.46.143-.682a17.612 17.612 0 0 1 1.712-3.372l.62.381c.041-.075.136-.184.123-.211a.96.96 0 0 1-.218-.755.953.953 0 0 1 .422-.662c.45-.382.894-.763 1.323-1.172.246-.232.539-.211.839-.28.3-.068.245-.524.552-.681a8.63 8.63 0 0 1 3.566-1.233c.457 0 .587.061.58.504 0 .906-.034 1.806-.061 2.725-.082 2.624-.232 5.247-.225 7.87a10.226 10.226 0 0 1-1.657 5.492c-.375.613-.73 1.24-1.091 1.86a4.979 4.979 0 0 1-3.887 2.636 3.36 3.36 0 0 1-1.855-.306c-1.309-.647-1.643-1.227-1.513-2.685Zm-10.488-17.538c-.361-.858 0-1.676.212-2.473.143-.579.143-1.267.716-1.69.334-.122 0-.306.041-.456a3.837 3.837 0 0 1 1.609-2.555c.354-.211.75-.818 1.22-.095.041.061.287 0 .3-.171a.499.499 0 0 1 .15-.366.518.518 0 0 1 .369-.145c1.438-.136 2.345.463 2.686 1.533.165.322.203.694.109 1.043-.157.354.123.422.341.538.164.627.573 1.22.3 1.921-.068.171.062.246.171.307a.675.675 0 0 1 .313.559c.15 1.144.539 2.234.75 3.365a.447.447 0 0 1-.238.552c-.198.109-.232.3 0 .361.395.103.457.402.498.682.109.756.197 1.512.293 2.262-.075.163-.218.327-.048.511.505.92.348 1.928.382 2.916 0 .109-.13.218-.191.334-.061.116-.252.198-.082.3.573.347.3.892.321 1.362.04.682 0 1.363-.035 1.963-.375.293-.75-.232-1.036.15.177.415.777.299.927.715.15.416-.075.797-.143 1.192-.068.396.062.941-.586 1.043-.082 0-.075.116 0 .211.641.865 0 1.717-.055 2.569 0 .143-.204.293-.341.402a2.723 2.723 0 0 1-2.414.565 1.481 1.481 0 0 1-1.213-1.117 28.619 28.619 0 0 0-2.523-5.969 26.285 26.285 0 0 0-1.657-2.63 7.423 7.423 0 0 1-1.105-3.406.47.47 0 0 1 .178-.477c.102-.075.15-.144.061-.218-.723-.627-.518-1.438-.443-2.222.504-.381-.157-.374-.191-.579.047-.947-.212-1.921.354-2.787Zm-2.557 17.395c0-.054-.102-.184-.143-.177a.786.786 0 0 1-.757-.477 15.447 15.447 0 0 1-1.398-2.466.406.406 0 0 1-.047-.13c0-.15.102-.218.211-.293.109-.075.416-.081.334-.327-.082-.245-.3-.109-.464-.116-.163-.006-.436-.061-.518-.327-.082-.265-.225-.681-.327-1.035-.205-.682-.198-.682.273-1.295-.409-.075-.75-.163-.771-.715-.02-.552-.184-1.247-.232-1.881a2.14 2.14 0 0 1 .103-.926c.477-1.275 1.568-1.234 2.413-.641.225.164.137.402.157.62.021.218.191.259.334.089a.33.33 0 0 1 .213-.152.332.332 0 0 1 .258.043c.191.109.375.34.566.347.682 0-.041 1.077.764.934.634-.116.784.497 1.118.797.326.316.622.66.886 1.029.304.393.586.803.846 1.226a28.63 28.63 0 0 1 2.448 4.974c.375.871.685 1.768.927 2.684a5.34 5.34 0 0 1 .143 1.608c-.054.634-.368.866-1.009.757a3.523 3.523 0 0 1-.525-.137 13.363 13.363 0 0 1-5.134-2.929c-.307-.3-.791-.511-.669-1.084Zm21.82 6.861a87.374 87.374 0 0 1-13.549.58 40.513 40.513 0 0 1-7.405-.825c-.879-.191-1.745-.443-2.618-.681a2.258 2.258 0 0 1-.614-.28.74.74 0 0 1-.328-.494.738.738 0 0 1 .144-.575c.167-.214.373-.394.607-.532.511-.279 1.057-.511 1.582-.77a2.33 2.33 0 0 1 2.85.198c.498.429 2.959 1.322 3.212 1.492.357.05.717.08 1.077.089a1.367 1.367 0 0 0 1.364-1.111c.095-.347.136-.681.198-1.029.252-.156.463 0 .681 0a3.66 3.66 0 0 0 2.612-.456c.621-.327.621-.32 1.146.129.136.123.252.259.395.368a4.481 4.481 0 0 0 4.835.682 6.837 6.837 0 0 0 2.291-1.649 4.14 4.14 0 0 0 .525-.62.92.92 0 0 1 1.05-.423c.129 0 .273 0 .402.041.3.041.498.184.484.525-.013.34 0 .545 0 .811-.054 1.219-.102 2.446-.157 3.665-.054.743-.095.784-.777.865h-.007Zm47.609 27.016h-.539l-20.934-.232a9746.7 9746.7 0 0 1-23.245-.286 3.708 3.708 0 0 1-1.977-.211 5.95 5.95 0 0 1 0-1.874c.114-4.206.236-8.414.368-12.625.15-4.838.327-9.682.477-14.52.219-7.058.432-14.117.641-21.176.096-3.209.212-6.418.321-9.627v-.682c.048-.742.075-.77.77-.783h23.382v-.048h22.699c1.419 0 1.323-.116 1.364 1.308.048 4.933.082 9.866.136 14.806.064 6.25.135 12.498.212 18.744v1.219a.952.952 0 0 1-.437.92 9.048 9.048 0 0 0-1.595 1.465 8.174 8.174 0 0 0-1.978 4.81c-.1.447-.024.916.212 1.309.211.352.297.764.245 1.171.087 5.156.178 10.316.273 15.481v.408a.385.385 0 0 1-.014.162.38.38 0 0 1-.375.261h-.006Zm24.765.313h-.682l-21.595-.259c-1.322 0-1.193-.054-1.213-1.178-.082-4.797-.166-9.591-.253-14.384a2.97 2.97 0 0 1 .089-1.233c.175.015.349.047.518.096a23.883 23.883 0 0 0 6.083 1.294c2.388.267 4.791.367 7.193.3 2.354-.026 4.7-.268 7.01-.722a10.69 10.69 0 0 0 2.693-.886c.119-.044.243-.072.369-.082.211.205.129.443.136.682.041 5.119.08 10.233.116 15.344v.545c.007.272-.109.483-.457.483h-.007ZM23.77 416.212a2.924 2.924 0 0 0-1.678-1.308c-.47-.15-.962-.239-1.446-.361-.327-.089-.416-.321-.211-.62.204-.3.532-.723.798-1.091a6.178 6.178 0 0 0 .981-1.771c.375-1.267-.115-2.105-1.363-2.48a10.565 10.565 0 0 0-2.366-.225c.15-.361.3-.681.416-.995.06-.184-.273-.45-.457-.368a.875.875 0 0 0-.334.198 8.976 8.976 0 0 1-1.364 1.69.508.508 0 0 0-.143.361 2.2 2.2 0 0 1-.382 1.001 4.485 4.485 0 0 0-.218.491.387.387 0 0 0 .204.456c.191.123.341 0 .47-.109a1.58 1.58 0 0 0 .157-.218c.716-.075.116.62.45.77.076 2.726.219 5.505.512 8.224-.3.164-.45-.088-.682-.095-.232-.007-.273 0-.361.109a.42.42 0 0 0 0 .497.552.552 0 0 0 .184.191c.534.252.965.68 1.22 1.213a.378.378 0 0 0 .47.17c.396-.184.683 0 1.003.191.32.191.77.163.839-.048.095-.327-.157-.477-.348-.681-.327-.327-.32-.395 0-.566.566-.272 1.146-.524 1.718-.797a4.775 4.775 0 0 0 1.623-1.199 2.158 2.158 0 0 0 .307-2.63Zm-1.174 2.296a4.424 4.424 0 0 1-1.002.681c-.764.396-1.548.75-2.325 1.111-.314.15-.512.034-.546-.32a162.202 162.202 0 0 1-.32-3.652c-.069-.9-.089-1.806-.137-2.726-.061-1.178-.13-2.35-.19-3.529-.041-.77 0-.831.825-.865.59-.025 1.18.052 1.745.224a.927.927 0 0 1 .703.501.917.917 0 0 1-.021.862c-.136.334-.312.65-.525.94-.32.498-.682.968-.996 1.458a4.858 4.858 0 0 0-.409.682.87.87 0 0 0 .498 1.322c.34.121.685.224 1.037.306.475.101.934.269 1.363.498a1.47 1.47 0 0 1 .28 2.507h.02Z"/>
  <path fill="#FDEAFF" d="M48.576 393.762a1.93 1.93 0 0 0-.75-1.363 5.63 5.63 0 0 0-1.664-.906 20.195 20.195 0 0 0-4.487-1.029 63.398 63.398 0 0 0-8.987-.552 113.78 113.78 0 0 0-20.456 1.949 46.336 46.336 0 0 0-8.476 2.384c-.757.302-1.485.672-2.175 1.104a4.269 4.269 0 0 0-1.118.974 1.562 1.562 0 0 0-.266 1.867 5 5 0 0 1 .484 1.261c1.064 3.781 2.046 7.59 3.191 11.358.825 2.725 1.52 5.485 2.278 8.231 1.254 4.578 2.543 9.13 3.777 13.736a1.83 1.83 0 0 0 1.282 1.424c.56.177 1.111.388 1.67.551a40.278 40.278 0 0 0 9.404 1.275c2.315.081 4.634.015 6.941-.198a46.462 46.462 0 0 0 9.6-1.751c.737-.218 1.46-.484 2.176-.763a2.733 2.733 0 0 0 1.862-2.14c0-.184.047-.361.075-.538l2.904-18.226a1710.15 1710.15 0 0 0 2.646-16.625 8.014 8.014 0 0 0 .089-2.023Zm-1.153 2.95-3.252 20.508c-.732 4.602-1.457 9.205-2.175 13.811a1.36 1.36 0 0 1-.819 1.131 22.101 22.101 0 0 1-5.134 1.724 54.615 54.615 0 0 1-14.442 1.192 39.428 39.428 0 0 1-7.269-.892c-.839-.198-1.65-.477-2.482-.681a1.436 1.436 0 0 1-1.118-1.186c-.77-2.93-1.603-5.846-2.407-8.762a11164.9 11164.9 0 0 1-4.432-16.087c-.682-2.528-1.432-5.042-2.155-7.563.034-.231.116-.402.395-.252a29.258 29.258 0 0 0 7.453 1.363 87.09 87.09 0 0 0 13.856 0 91.58 91.58 0 0 0 17.285-2.678 23.243 23.243 0 0 0 6.669-2.725c.12.354.13.737.027 1.097Zm.048-2.46a3.652 3.652 0 0 1-1.2 1.043 15.901 15.901 0 0 1-3.089 1.362 53.374 53.374 0 0 1-7.617 1.908 102.104 102.104 0 0 1-12.382 1.56 89.054 89.054 0 0 1-13.29 0 32.17 32.17 0 0 1-6.287-1.029 7.629 7.629 0 0 1-2.114-.892.912.912 0 0 1-.143-1.581 6.834 6.834 0 0 1 2.169-1.363 37.16 37.16 0 0 1 6.818-2.139 97.806 97.806 0 0 1 13.433-1.928c2.844-.239 5.687-.307 8.305-.416 3.067-.02 6.132.144 9.178.491 1.575.158 3.124.503 4.617 1.029.562.177 1.08.472 1.52.865a.764.764 0 0 1 .082 1.09Zm104.081-207.484a.81.81 0 0 1 .3.109c.314.259.621.532.907.818 1.891 1.88 3.775 3.765 5.653 5.655.285.289.55.599.791.927a.346.346 0 0 1-.075.483.434.434 0 0 1-.505.041 2.477 2.477 0 0 1-.416-.334 598.279 598.279 0 0 1-6.757-6.861 1.752 1.752 0 0 1-.273-.45c-.055-.115.17-.388.375-.388Zm-19.706 8.19a.373.373 0 0 1-.368-.368.864.864 0 0 1 .136-.504 87.215 87.215 0 0 1 5.203-7.113c.056-.071.117-.137.184-.198a.579.579 0 0 1 .627-.13c.198.089.205.416 0 .682-1.807 2.214-3.409 4.592-5.005 6.936a4.009 4.009 0 0 1-.422.525 1.199 1.199 0 0 1-.355.17Zm10.842 2.848.272-1.901c.259-1.69.525-3.407.778-5.069.026-.359.124-.708.286-1.029a.327.327 0 0 1 .329-.187.32.32 0 0 1 .128.037.547.547 0 0 1 .239.286 1.01 1.01 0 0 1 0 .395c-.389 2.576-.791 5.158-.982 7.761a2.037 2.037 0 0 1-.096.531c-.075.218-.218.416-.477.382a.462.462 0 0 1-.443-.422 6.418 6.418 0 0 1-.034-.784Zm-18.909 52.682c-.075-.716-.15-1.431-.218-2.147a4.129 4.129 0 0 1 .6-2.841c.098-.15.218-.286.355-.402a.346.346 0 0 1 .484 0 .627.627 0 0 1 .116.355.4.4 0 0 1-.102.245 3.896 3.896 0 0 0-.45 3.243c.123.674.16 1.361.109 2.044a1.74 1.74 0 0 1-.096.525.425.425 0 0 1-.731.206.425.425 0 0 1-.108-.288 6.317 6.317 0 0 1 0-.933l.041-.007Zm3.185 1.54c.029-.488.189-.959.463-1.363a.411.411 0 0 1 .478-.143.348.348 0 0 1 .259.415 2.425 2.425 0 0 0 0 2.044.357.357 0 0 1-.198.45.398.398 0 0 1-.155.06.409.409 0 0 1-.425-.203 2.889 2.889 0 0 1-.422-1.26Zm-2.578 3.679v-.804a.397.397 0 0 1 .757-.116c.109.392.191.79.246 1.193a.91.91 0 0 1-.259.749.474.474 0 0 1-.478.177.346.346 0 0 1-.272-.395c0-.266.061-.531.095-.797l-.089-.007Zm5.851.463a4.35 4.35 0 0 1-.15.75.353.353 0 0 1-.168.202.352.352 0 0 1-.262.023c-.109-.048-.273-.171-.28-.259v-1.745a.328.328 0 0 1 .389-.286c.129.03.241.108.314.218.145.346.199.724.157 1.097Zm-9.881-2.964c.054-.115.115-.227.184-.334.13-.183.498-.19.566 0 .178.505.341 1.016.498 1.527a.45.45 0 0 1-.361.483.394.394 0 0 1-.423-.258 4.887 4.887 0 0 1-.464-1.418Zm-.75 3.209c0 .116-.047.293-.102.464a.43.43 0 0 1-.148.219.431.431 0 0 1-.248.094.335.335 0 0 1-.329-.196.346.346 0 0 1-.032-.131v-1.478a.24.24 0 0 1 .029-.095.26.26 0 0 1 .152-.122.253.253 0 0 1 .099-.008.597.597 0 0 1 .341.163c.245.293.197.668.238 1.09Zm125.833-132.283-.538-.798c.552.048.647-.858 1.288-.62.075.573-.607.682-.682 1.165-.027.082-.047.171-.068.253Zm-10.596 13.579a.52.52 0 0 1-.573-.45c-.041-.218 0-.449-.198-.627a1.084 1.084 0 0 1-.047-.388c0-.109.122-.198.191-.3.095.096.231.177.259.286a1.54 1.54 0 0 1 0 .682c-.048.32.197.552.368.797Zm6.587-15.242-.648.266c0-.218 0-.443.048-.681.047-.239 0-.382.252-.361.252.02.266.184.293.361.027.177.034.286.055.415Zm14.994 7.584-.682.286c0-.13.055-.259.096-.382.041-.122.136-.443.423-.354.286.088.129.286.163.45Zm-19.324 4.088c.266 0 .532.034.798.068s.504-.102.463.259c-.041.361-.32.252-.538.266-.219.013-.355 0-.532 0-.062-.225-.096-.395-.191-.593Zm8.107-7.604h-.136c-.232 0-.525.375-.682 0-.157-.375.211-.436.471-.518.054.198.375.246.347.518Zm-6.784.218c.109.075.245.123.313.225.157.211.682.327.355.681-.205.191-.525-.177-.682-.422l.014-.484Zm8.83 10.329a.848.848 0 0 1-.375 0c-.096-.061-.143-.211-.211-.32a1.31 1.31 0 0 1 .238-.116c.131-.025.263-.043.396-.054-.014.15-.034.32-.048.49ZM88.288 408.928c0 .177 0 .355-.048.525a.444.444 0 0 1-.198-.518c.048-.157.157-.136.246-.007Zm.573.225a.316.316 0 0 1-.211-.033.315.315 0 0 1-.144-.158.322.322 0 0 1 .355.191Z"/>
  <path fill="#FDEAFF" d="m2.133 399.642-.395.252c-.178-.096-.232-.273-.103-.395.13-.123.368-.048.498.143Zm77.372-202.449a11.171 11.171 0 0 0-4.95-5.58c-.518-.287-1.057-1.043-1.664-.546-.607.498-.198 1.22 0 1.799a19.08 19.08 0 0 0 2.666 5.901 12.466 12.466 0 0 0 2.435 2.541c.423.34.9.607 1.411.79a.548.548 0 0 0 .736-.402c.076-.442.096-.899.137-1.362a8.975 8.975 0 0 0-.77-3.141Zm-.225 3.822c-2.775-1.669-5.346-5.866-5.346-8.598 3.192 1.43 5.578 5.225 5.346 8.564v.034Zm22.454-8.476a6.591 6.591 0 0 0-.122-1.213.632.632 0 0 0-.43-.565.626.626 0 0 0-.682.197 4.586 4.586 0 0 0-.45.505 14.212 14.212 0 0 0-3 9.096 7.95 7.95 0 0 0 .259 1.873.824.824 0 0 0 1.418.532 4.883 4.883 0 0 0 1.678-1.929c.511-1.008.847-2.095.995-3.216.103-1.131.198-2.255.293-3.406h.041c0-.627.014-1.247 0-1.874Zm-.934.477a38.835 38.835 0 0 1-.307 4.722 8.42 8.42 0 0 1-1.07 3.182 2.21 2.21 0 0 1-1.248 1.124c-.73-2.964.477-7.631 2.496-9.634.238.156.15.402.15.606h-.021Zm-28.113 6.221a9.595 9.595 0 0 0-4.016-3.918 14.498 14.498 0 0 0-5.967-1.363c-.245 0-.682.048-1.145.123a.542.542 0 0 0-.444.495.546.546 0 0 0 .035.234c.081.257.2.5.354.722a7.78 7.78 0 0 0 1.432 1.445 17.667 17.667 0 0 0 6.546 3.141c.88.228 1.8.256 2.693.081.587-.068.798-.449.512-.96Zm-2.728.068a16.3 16.3 0 0 1-6.757-3.284 6.652 6.652 0 0 1-.736-.784s0-.184.088-.225a.458.458 0 0 1 .26-.054 11.301 11.301 0 0 1 6.204 1.615 6.066 6.066 0 0 1 2.544 2.759 4.084 4.084 0 0 1-1.59 0l-.013-.027Zm25.25 1.506a23.29 23.29 0 0 0-.403-2.814 2.972 2.972 0 0 0-.306-.886.616.616 0 0 0-.5-.417.623.623 0 0 0-.598.26c-.23.278-.438.574-.62.886a12.579 12.579 0 0 0-1.637 6.582c.034.395.068 1.158.163 1.921.067.536.172 1.067.314 1.588a.968.968 0 0 0 1.739.449 4.666 4.666 0 0 0 1.166-1.955c.552-1.818.782-3.718.682-5.614Zm-1.275 4.347a5.131 5.131 0 0 1-.839 2.125c-.13.178-.252.382-.511.389-1.085-2.726-.519-7.311 1.281-9.6a15.56 15.56 0 0 1 .069 7.086Zm15.805-16.823c-.436-.225-.77.116-1.097.341a11.786 11.786 0 0 0-5.046 8.476 1.36 1.36 0 0 0 .061.681c.191.593.457.743 1.003.518a4.978 4.978 0 0 0 1.438-.995 16.457 16.457 0 0 0 2.407-2.725 9.458 9.458 0 0 0 1.725-4.933v-.13c-.027-.511-.02-1.001-.491-1.233Zm-1.418 4.77a14.265 14.265 0 0 1-3.061 3.767 1.76 1.76 0 0 1-.45.3.19.19 0 0 1-.097.014.203.203 0 0 1-.156-.109.187.187 0 0 1-.02-.096c.053-.72.212-1.43.47-2.105a10.904 10.904 0 0 1 3.785-5.165.628.628 0 0 1 .245-.088h.184a5.838 5.838 0 0 1-.9 3.482Zm-38.56 25.366a3.169 3.169 0 0 0-1.213-.572 7.44 7.44 0 0 0-5.653.681 11.67 11.67 0 0 0-2.516 1.826c-.402.375-.784.757-1.173 1.138a.68.68 0 0 0-.218.729.55.55 0 0 0 .552.314h1.766v.034h.955c2.373-.096 4.548-.682 6.307-2.419.26-.245.58-.436.86-.682a2.81 2.81 0 0 0 .395-.361.503.503 0 0 0-.062-.688Zm-9.096 3.087a7.497 7.497 0 0 1 7.842-2.726c-1.241 2.208-5.19 3.366-7.842 2.726ZM95.66 185.61a.534.534 0 0 0-.5-.543.523.523 0 0 0-.265.052 2.491 2.491 0 0 0-.354.184 15.77 15.77 0 0 0-4.194 3.407 8.404 8.404 0 0 0-1.997 4.245 1.538 1.538 0 0 0 .552 1.703 1.57 1.57 0 0 0 1.67-.143 6.911 6.911 0 0 0 2.353-2.214 20.447 20.447 0 0 0 2.325-4.586 5.339 5.339 0 0 0 .41-1.846c0-.103.006-.198 0-.259Zm-1.215 1.676a19.653 19.653 0 0 1-2.318 4.578 5.67 5.67 0 0 1-2.332 2.045.432.432 0 0 1-.6-.211.435.435 0 0 1-.034-.232c.08-.902.351-1.775.798-2.562a11.95 11.95 0 0 1 4.514-4.368.869.869 0 0 1-.028.723v.027Zm-8.68 31.028a11.593 11.593 0 0 0-2.652-3.72 14.376 14.376 0 0 0-4.521-2.902c-.593-.252-.982.068-.893.681.017.136.044.27.081.402a7.497 7.497 0 0 0 1.228 2.678 14.54 14.54 0 0 0 3.15 3.148c.723.531 1.493 1.001 2.243 1.505a1.359 1.359 0 0 0 1.29.103c.3-.096.408-.321.436-.839a3.098 3.098 0 0 0-.362-1.056Zm-.648 1.206c-2.727-1.696-5.148-3.406-6.334-6.425.15-.068.252-.15.3-.122a12.017 12.017 0 0 1 5.81 5.45c.104.201.19.411.258.627.028.116-.013.211-.013.498l-.02-.028Zm-8.264-3.651a8.71 8.71 0 0 0-3.71-3.468 10.317 10.317 0 0 0-4.855-1.029h-1.493a.48.48 0 0 0-.484.388.383.383 0 0 0 .218.45 8.577 8.577 0 0 1 1.48 1.185 15.2 15.2 0 0 0 2.086 1.506 19.977 19.977 0 0 0 5.755 2.337c.403.109.819.225 1.14-.136.32-.361.095-.831-.137-1.233Zm-6.471-1.861a5.453 5.453 0 0 1-2.046-1.717c3.41-.129 6.621 1.724 7.65 3.945a14.698 14.698 0 0 1-5.604-2.228Zm7.432 13.886a3.175 3.175 0 0 0-1.534-.477 11.468 11.468 0 0 0-8.973 3.012 2.849 2.849 0 0 0-.362.402.401.401 0 0 0-.082.317.402.402 0 0 0 .178.276c.212.172.466.285.736.327a5.719 5.719 0 0 0 2.046.054c.47 0 .968-.048 1.466-.088a9.462 9.462 0 0 0 5.72-2.16c.333-.305.645-.63.935-.975a.433.433 0 0 0 .104-.375.441.441 0 0 0-.234-.313Zm-1.275.865a7.248 7.248 0 0 1-3.055 1.663 19.172 19.172 0 0 1-4.99.477.347.347 0 0 1 .17-.429 11.16 11.16 0 0 1 7.214-2.242c.179.003.357.024.532.061a.38.38 0 0 1 .218.13c.095.116.014.252-.089.34Zm45.529-27.73a9.205 9.205 0 0 0-1.61-.225 11.055 11.055 0 0 0-6.505 2.044c-.559.381-1.098.791-1.616 1.226-.204.171-.402.396-.266.682a.745.745 0 0 0 .648.429c.362 0 .723.055.825.061a17.505 17.505 0 0 0 6.062-1.294 7.365 7.365 0 0 0 2.107-1.22c.25-.203.478-.432.682-.681a.624.624 0 0 0 .131-.605.62.62 0 0 0-.458-.417Zm-8.333 3.243c.873-1.479 4.889-2.8 7.467-2.385a12.613 12.613 0 0 1-7.467 2.385Zm-38.321 33.216a2.645 2.645 0 0 0-.743.313 6.317 6.317 0 0 0-2.728 3.604 23.84 23.84 0 0 0-.77 4.974c0 .245 0 .518.048.784a.513.513 0 0 0 .9.334 9.77 9.77 0 0 0 2.618-3.407 15.79 15.79 0 0 0 .996-3.645c.122-.811.218-1.615.3-2.426a.546.546 0 0 0-.62-.531Zm-1.732 6.718a7.703 7.703 0 0 1-1.46 1.867c-.04-1.548.19-3.091.683-4.559a5.45 5.45 0 0 1 1.814-2.63.28.28 0 0 1 .238-.041.241.241 0 0 1 .093.074.24.24 0 0 1 .044.11 15.92 15.92 0 0 1-1.412 5.179Zm-3.546-5.71a1.367 1.367 0 0 0-.75.286 8.254 8.254 0 0 0-3.804 8.149c.068.354.109.715.204 1.063a.546.546 0 0 0 .886.204 3.54 3.54 0 0 0 .253-.313 27.877 27.877 0 0 0 3.968-7.829c.046-.129.082-.261.11-.395a1.143 1.143 0 0 0-.867-1.165Zm-3.409 8.047a.244.244 0 0 1-.237-.144.245.245 0 0 1-.022-.095c-.17-2.95 1.057-5.192 3.6-7.018a22.475 22.475 0 0 1-3.341 7.257Zm7.2-43.436a3.753 3.753 0 0 0-1.759-.974 8.274 8.274 0 0 0-7.289 1.574c-.366.272-.649.64-.818 1.062a.744.744 0 0 0 .504 1.077 9.473 9.473 0 0 0 2.605.347 9.234 9.234 0 0 0 5.128-1.321l1.52-.866a.514.514 0 0 0 .328-.416.51.51 0 0 0-.219-.483Zm-1.363.579a7.616 7.616 0 0 1-2.155 1.111c-.967.334-1.978.527-3 .572l-2.046-.259a.261.261 0 0 1-.11-.064.255.255 0 0 1-.006-.352c.207-.228.435-.436.682-.62a8.266 8.266 0 0 1 4.896-1.253 3.97 3.97 0 0 1 1.684.463.255.255 0 0 1 .125.188.257.257 0 0 1-.07.214Zm7.562 4.408a5.863 5.863 0 0 0-1.562-.81 8.052 8.052 0 0 0-2.925-.477 5.54 5.54 0 0 0-.682 0 11.026 11.026 0 0 0-3.559.79c-.47.225-.77.627-.682.906a1.007 1.007 0 0 0 .832.627c.92.211 1.855.409 2.789.559 1.828.357 3.712.317 5.523-.116.368-.096.927-.048.962-.559.034-.429-.369-.722-.696-.92Zm-1.016.682c-.068.313-.634.17-.975.197a15.864 15.864 0 0 1-5.728-.681 9.403 9.403 0 0 1 4.685-.443c.404.055.8.161 1.18.313.32.103.954.082.838.614Zm8.107-9.396c-.109-.525-.204-1.063-.347-1.581a12.974 12.974 0 0 0-1.91-4.149 2.217 2.217 0 0 0-.743-.77.626.626 0 0 0-.515-.046.631.631 0 0 0-.378.352 2.7 2.7 0 0 0-.177 1.063 10.896 10.896 0 0 0 2.181 6.95c.186.245.394.473.621.681.32.314.566.3.941 0 .175-.145.297-.344.348-.565.34-.641.047-1.288-.02-1.935Zm-.94 1.417c-.198.041-.267-.089-.342-.198a10.439 10.439 0 0 1-1.875-5.852c0-.137 0-.28.15-.334.15-.055.225.088.287.184a13.018 13.018 0 0 1 1.868 5.321c.034.3.136.627-.089.879Zm13.725 8.026a.525.525 0 0 0-.454-.454.547.547 0 0 0-.227.018 1.095 1.095 0 0 0-.246.103 8.182 8.182 0 0 0-4.193 5.539c-.107.676-.15 1.36-.13 2.044 0 .368.246.511.641.49.395-.02.484-.224.723-.34.92-.286 1.323-1.056 1.718-1.826.136-.232.273-.464.423-.682a11.6 11.6 0 0 0 1.595-3.263 3.997 3.997 0 0 0 .15-1.629Zm-1.677 2.937a9.605 9.605 0 0 1-2.646 3.407 6.276 6.276 0 0 1 3.164-5.369 2.627 2.627 0 0 1-.518 1.962ZM72.27 233.665a2.46 2.46 0 0 0-.681-.102c-3.103 0-5.619 1.145-7.303 3.843a2.409 2.409 0 0 0-.232.484.442.442 0 0 0 .403.572c.443-.041.886-.116 1.363-.197a14.953 14.953 0 0 0 4.917-1.826 6.365 6.365 0 0 0 1.827-1.581.887.887 0 0 0 .225-.634.679.679 0 0 0-.518-.559Zm-2.379 2.201a12.29 12.29 0 0 1-4.33 1.479 6.514 6.514 0 0 1 6.014-2.807 4.55 4.55 0 0 1-1.684 1.328Zm16.447-29.693a8.673 8.673 0 0 0-3.41-5.192 1.041 1.041 0 0 0-.62-.232.508.508 0 0 0-.532.328 1.755 1.755 0 0 0-.082.531 10.761 10.761 0 0 0 1.582 5.526c.413.649.923 1.23 1.514 1.723a.932.932 0 0 0 1.111.225.874.874 0 0 0 .491-.879c0-.272 0-.545.041-.967a6.533 6.533 0 0 0-.095-1.063Zm-.832 1.567c0 .13 0 .3-.191.293a.53.53 0 0 1-.341-.143 7.989 7.989 0 0 1-2.182-4.674c0-.341-.362-.824.361-.845a7.829 7.829 0 0 1 1.957 2.869 5.24 5.24 0 0 1 .396 2.5ZM80.8 230.497a4.827 4.827 0 0 0-2.236 1.901 9.893 9.893 0 0 0-1.411 4.769v.682a.682.682 0 0 0 .402.681.683.683 0 0 0 .723-.252 12.986 12.986 0 0 0 1.746-2.044 10.937 10.937 0 0 0 1.63-5.097c.074-.654-.308-.879-.853-.64Zm-2.583 6.336a6.046 6.046 0 0 1 .79-3.338 3.514 3.514 0 0 1 1.548-1.799c.157 1.608-.818 3.72-2.338 5.137Zm7.773-13.245c-.034-.436-.402-.422-.682-.504-.28-.082-.518-.164-.784-.218a5.23 5.23 0 0 0-4.61.926c-.594.485-1.162.999-1.704 1.54-.19.197-.34.428-.444.682a.41.41 0 0 0 .083.473c.04.04.09.071.142.092.246.112.509.181.778.205a9.935 9.935 0 0 0 6.137-1.622 3.338 3.338 0 0 0 1.05-1.043.594.594 0 0 0 .034-.531Zm-1.534.859a8.545 8.545 0 0 1-5.4 1.362c1.745-1.799 3.456-2.725 5.74-1.846.021.245-.163.368-.34.484Zm33.609-26.784a3.414 3.414 0 0 0-.538-.395 4.364 4.364 0 0 0-2.237-.361 8.122 8.122 0 0 0-4.371 1.287c-.27.16-.524.348-.757.559-.3.293-.45.899-.3 1.104a1.009 1.009 0 0 0 .853.347h.538a14.413 14.413 0 0 0 6.389-1.519c.125-.057.243-.126.355-.204a.57.57 0 0 0 .207-.395.579.579 0 0 0-.139-.423Zm-1.636.572-.116.062a11.689 11.689 0 0 1-5.101.974 6.265 6.265 0 0 1 3.928-1.465c.402-.02.805-.02 1.207 0 .109 0 .177.061.164.17a.564.564 0 0 1-.082.259Zm1.35-8.346c-.177 0-.361 0-.593-.048a7.166 7.166 0 0 0-5.121 2.609 4.27 4.27 0 0 0-.634 1.036.865.865 0 0 0 .975 1.274 9.066 9.066 0 0 0 5.584-3.059c.174-.204.314-.434.416-.681a.8.8 0 0 0-.277-1.002.787.787 0 0 0-.35-.129Zm-2.203 2.725a5.872 5.872 0 0 1-3.32 1.076c1.179-1.941 2.945-2.725 5.216-2.936a4.716 4.716 0 0 1-1.896 1.853v.007Zm5.912 18.921a2.717 2.717 0 0 0-.238-.484 8.8 8.8 0 0 0-2.973-2.909 6.254 6.254 0 0 0-2.38-.852c-.914-.068-1.364.436-1.187 1.152a3.222 3.222 0 0 0 1.16 1.785 9.682 9.682 0 0 0 4.623 2.112c.133.021.267.033.402.034a.616.616 0 0 0 .632-.54.607.607 0 0 0-.039-.298Zm-1.984-.402a7.427 7.427 0 0 1-3.171-1.731 3.403 3.403 0 0 1-.572-.742.476.476 0 0 1-.048-.389c.102-.177.3-.122.477-.075a6.818 6.818 0 0 1 3.703 2.576c.02.279-.075.436-.389.361Zm-26.006 6.159a2.878 2.878 0 0 0-.376-.994.604.604 0 0 0-.433-.291.617.617 0 0 0-.5.147c-.131.123-.25.258-.355.402a6.886 6.886 0 0 0-1.241 3.802 5.749 5.749 0 0 0 .763 2.971c.362.64.853.681 1.405.089.086-.103.16-.215.218-.334.382-.314.437-.791.614-1.206.177-.416-.123-.913.11-1.363a13.874 13.874 0 0 0-.205-3.223Zm-1.541 5.294a5.1 5.1 0 0 1-.348-3.141 3.14 3.14 0 0 1 .948-1.976c.422 2.099.184 4.177-.6 5.117Zm13.132-7.746a.567.567 0 0 0-.247-.364.567.567 0 0 0-.435-.072c-.251.102-.49.23-.716.381a6.967 6.967 0 0 0-2.434 2.671.456.456 0 0 0-.279.6c-.082.259-.157.518-.232.776-.145.38-.204.788-.171 1.193a.68.68 0 0 0 .645.688.674.674 0 0 0 .337-.068 2.82 2.82 0 0 0 1.146-.681 7.384 7.384 0 0 0 2.42-4.715 1.339 1.339 0 0 0-.034-.409Zm-3.518 4.653c.068-1.444.77-2.575 2.407-3.754-.334 1.894-1.064 3.012-2.407 3.754Zm15.553 2.63a4.873 4.873 0 0 0-3.061-1.281 4.78 4.78 0 0 0-1.753.232 2.56 2.56 0 0 0-.586.313.683.683 0 0 0-.259.443.389.389 0 0 0 .334.375c.088.009.175.03.259.061 1.554.682 3.246 1.152 4.562 2.337.443.402.947.184 1.145-.415a1.834 1.834 0 0 0-.641-2.065Zm-.423 1.363c-.968-.681-2.195-.94-3.198-1.731a4.027 4.027 0 0 1 3.178 1.2c.08.102.13.224.143.354.014.034-.123.157-.123.157v.02Zm-.197-10.949a1.54 1.54 0 0 0-.682 0 5.339 5.339 0 0 0-3.989 3.475c-.157.381-.334.776 0 1.131.334.354.682.156 1.016.061 1.991-.538 3.116-2.044 4.023-3.727.047-.117.083-.238.109-.361a.678.678 0 0 0-.477-.579Zm-3.86 3.774a4.556 4.556 0 0 1 3.021-2.793c-.443 1.342-1.309 2.173-3.014 2.793h-.007Zm2.278-5.151a2.867 2.867 0 0 0-.484-.463 10.744 10.744 0 0 0-2.353-1.363 6.61 6.61 0 0 0-2.509-.511.83.83 0 0 0-.873.498.97.97 0 0 0 .177 1.015c.296.345.657.628 1.064.831a8.543 8.543 0 0 0 3.668.865c.362.031.726-.011 1.071-.122a.51.51 0 0 0 .299-.318.496.496 0 0 0-.06-.432Zm-5.026-1.083a.286.286 0 0 1-.109-.218c0-.164.171-.164.293-.157a4.998 4.998 0 0 1 2.366.832c.11.116.249.201.403.245a.09.09 0 0 1 .043-.007.104.104 0 0 1 .078.037c.01.011.017.024.022.038v.177a4.643 4.643 0 0 1-3.096-.947Zm-.416 2.317c-.395.211-.763.477-1.138.722a4.542 4.542 0 0 0-2.046 3.345c-.15.981.457 1.458 1.364 1.097.258-.094.491-.246.682-.443a7.42 7.42 0 0 0 1.282-1.73 6.29 6.29 0 0 0 .75-2.46.568.568 0 0 0-.587-.638.566.566 0 0 0-.307.107Zm-2.304 4.34a3.405 3.405 0 0 1 1.772-2.923c.048 0 .15 0 .219.034.068.034.068.075.061.109a4.522 4.522 0 0 1-2.052 2.78Zm14.367-.259c-.191-.532-.682-.504-1.139-.511h-.136a6.52 6.52 0 0 0-2.728.599 4.152 4.152 0 0 0-1.677 1.322c-.443.593-.314 1.002.375 1.227a3.127 3.127 0 0 0 1.602.122 5.923 5.923 0 0 0 3.314-1.689c.252-.293.552-.593.389-1.07Zm-1.33.681a4.777 4.777 0 0 1-3.027 1.227c-.123 0-.26 0-.314-.164a.31.31 0 0 1 .014-.197.305.305 0 0 1 .129-.15 5.24 5.24 0 0 1 3.287-1.022c-.048.102-.041.245-.089.293v.013Zm-18.772 15.174a2.93 2.93 0 0 0-1.261-.777.896.896 0 0 0-.996.245.76.76 0 0 0 0 .777c.135.382.295.756.477 1.118.464.83 1.007 1.612 1.623 2.337a.75.75 0 0 0 .812.361c.354-.102.436-.436.518-.736a3.334 3.334 0 0 0-1.139-3.325h-.034Zm-.961 1.076c-.069-.313.034-.436.354-.347a2.196 2.196 0 0 1 .812 1.908 4.342 4.342 0 0 1-1.166-1.561Zm7.944-2.344a4.179 4.179 0 0 0-3.348-1.519 4.663 4.663 0 0 0-1.473.164.524.524 0 0 0-.374.361.512.512 0 0 0 .128.504 5.449 5.449 0 0 0 2.186 1.318 5.45 5.45 0 0 0 2.546.181.563.563 0 0 0 .534-.383.565.565 0 0 0-.199-.626Zm-3.478-.551a2.11 2.11 0 0 1 2.141.613 2.6 2.6 0 0 1-2.141-.613Zm-.907-5.069a.675.675 0 0 0 .078-.52.695.695 0 0 0-.317-.421 8.065 8.065 0 0 0-2.979-1.144 3.095 3.095 0 0 0-.941 0 1.093 1.093 0 0 0-.716 1.662 2.274 2.274 0 0 0 1.834.981c.538.031 1.078.031 1.616 0 .464-.191 1.05-.082 1.425-.558Zm-1.759-.389a2.496 2.496 0 0 1-2.046-.191.458.458 0 0 1-.293-.531c.055-.211.266-.205.43-.198.75.037 1.477.272 2.107.682-.096.109-.13.211-.198.238Zm5.837-14.118a6.519 6.519 0 0 0-3.219.178 3.251 3.251 0 0 0-1.254.776.837.837 0 0 0-.164.886.68.68 0 0 0 .607.477c.266.034.539.048.839.068a6.66 6.66 0 0 0 3.477-1.301.606.606 0 0 0 .28-.586.593.593 0 0 0-.566-.498Zm-3.491 1.418c.525-.682 1.247-.573 1.963-.682-.484.607-.804.716-1.963.682Zm3.995 23.506a4.155 4.155 0 0 0-3.409-2.078.558.558 0 0 0-.512.763c.14.381.336.739.58 1.063a8.561 8.561 0 0 0 2.291 1.867c.109.058.226.097.348.116a.94.94 0 0 0 .682-.436c.11-.197.17-.419.174-.645a1.374 1.374 0 0 0-.154-.65Zm-1.043.518a3.287 3.287 0 0 1-1.664-1.363.31.31 0 0 1 .389-.034 2.38 2.38 0 0 1 1.364 1.111.226.226 0 0 1-.089.286Zm173.768-83.274-14.933.443c-.179.01-.359.01-.538 0-.253 0-.45-.184-.423-.436a.472.472 0 0 1 .464-.416h.947l11.926-.436 14.797-.463 2.578-.103h.681c.335 0 .56.225.539.471-.02.245-.225.381-.45.422a7.85 7.85 0 0 1-.811.054l-11.401.341-3.41.116.034.007Zm-14.871-8.558a4.586 4.586 0 0 0 2.42-.532l1.003-.402a.39.39 0 0 1 .559.198.352.352 0 0 1-.164.463 9.599 9.599 0 0 1-.954.511 12.92 12.92 0 0 1-2.878.811c.068 1.084.143 2.119.198 3.155.014.269-.007.54-.062.804a.45.45 0 0 1-.3.252.51.51 0 0 1-.368-.123 1.403 1.403 0 0 1-.348-.858 20.223 20.223 0 0 1-.375-5.001 31.227 31.227 0 0 0 0-3.407 9.782 9.782 0 0 1 0-1.083c0-.545.048-.566.798-.634a.452.452 0 0 0 .348-.157c.082-.109.15-.225.232-.34 1.057-1.506 2.932-1.758 4.705-.607a1.585 1.585 0 0 1 .811 1.363.41.41 0 0 1-.279.422.373.373 0 0 1-.471-.156 2.082 2.082 0 0 0-1.739-1.309 2.004 2.004 0 0 0-2.257.852 5.106 5.106 0 0 0-.682 1.363 7.333 7.333 0 0 0-.197 4.415Zm18.451-2.099 2.455-.681c.171-.048.341-.123.511-.17.491-.15.764-.082.798.177.055.422-.279.552-.559.681-.559.184-1.125.327-1.691.477-1.5.402-1.609.566-1.364 2.044.246 1.479.294 1.567 1.828 1.363a15.55 15.55 0 0 0 2.802-.464c.134-.02.269-.02.403 0 .204 0 .34.328.252.525a.93.93 0 0 1-.764.498c-1.2.177-2.414.354-3.627.456a1.36 1.36 0 0 1-1.548-1.036 4.429 4.429 0 0 1-.273-1.185 36.891 36.891 0 0 1-.102-5.955c.016-.315.064-.628.143-.934a1.718 1.718 0 0 1 1.364-1.362c.531-.096 1.063-.198 1.595-.273a.506.506 0 0 1 .491.17c.055.075.15.164.137.225-.014.062-.096.307-.185.327-.477.13-.968.198-1.445.314-.941.225-1.159.415-1.214 1.363-.054 1.076-.007 2.159-.007 3.44Zm9.847 4.477c-.321-.061-.901-.157-1.473-.286a.375.375 0 0 1-.253-.429.359.359 0 0 1 .106-.24.36.36 0 0 1 .242-.101 6.47 6.47 0 0 1 .812 0c.313 0 .627.102.941.116a1.526 1.526 0 0 0 1.65-.92 1.978 1.978 0 0 0-.764-2.269 3.445 3.445 0 0 0-1.677-.463c-.408 0-.815-.021-1.221-.062a1.622 1.622 0 0 1-1.446-1.546 2.766 2.766 0 0 1 .103-1.206 4.77 4.77 0 0 1 2.161-2.678 2.16 2.16 0 0 1 1.432-.273 1.273 1.273 0 0 1 1.084 1.057.475.475 0 0 1-.414.584.303.303 0 0 1-.13-.023.305.305 0 0 1-.178-.187c-.123-.231-.185-.524-.505-.579a1.214 1.214 0 0 0-.9.205 3.797 3.797 0 0 0-1.746 2.48.97.97 0 0 0 .139.903.971.971 0 0 0 .83.384c.402.048.811.062 1.22.082a3.65 3.65 0 0 1 1.555.429c.613.35 1.079.91 1.311 1.576a2.91 2.91 0 0 1-.05 2.049c-.402.954-1.343 1.458-2.829 1.397Zm-13.358.579a4.148 4.148 0 0 0 1.602-.211 1.28 1.28 0 0 1 .532-.055c.123 0 .273.082.273.246 0 .163 0 .306-.082.368-.197.18-.429.317-.682.402a6.734 6.734 0 0 1-2.83.068 1.277 1.277 0 0 1-.672-.309 1.275 1.275 0 0 1-.385-.632 8.86 8.86 0 0 1-.265-1.185c-.335-2.337-.348-4.695-.457-7.045a4.174 4.174 0 0 1 .15-1.479.425.425 0 0 1 .177-.276.423.423 0 0 1 .32-.071.425.425 0 0 1 .367.314.438.438 0 0 1 .009.169c-.301 2.085.04 4.15.143 6.221.039.814.13 1.624.272 2.426.164.954.28 1.008 1.262 1.049h.266Zm-7.399-8.776c0-.606-.081-.974.096-1.315a.408.408 0 0 1 .45-.218c.164 0 .218.143.279.252a.572.572 0 0 1 .082.259c.164 2.603.321 5.206.498 7.808.055.804.171 1.608.239 2.412a.34.34 0 0 1-.055.258.344.344 0 0 1-.225.138.424.424 0 0 1-.464-.191 3.257 3.257 0 0 1-.334-1.431c-.061-.947-.129-1.887-.197-2.834-.123-1.792-.109-3.598-.369-5.138Zm48.147 35.26v-2.31c.002-.18.013-.359.035-.538.272-1.901.681-1.894 2.086-2.16a24.644 24.644 0 0 1 1.732-.272.352.352 0 0 1 .402.293.409.409 0 0 1-.211.449 3.284 3.284 0 0 1-1.173.32c-1.943.321-1.882.089-1.984 2.154-.096 1.751-.246 1.492 1.493 1.362.178 0 .355-.061.539-.068a.476.476 0 0 1 .545.293c.075.198-.156.47-.47.545a5.798 5.798 0 0 1-.682.096c-1.827.149-1.452.258-1.459 1.71.003.18.017.359.041.538.054.491.245.613.736.422.491-.19.989-.449 1.487-.681a.425.425 0 0 1 .566.225c.044.08.057.175.036.264a.373.373 0 0 1-.152.22 5.873 5.873 0 0 1-2.619 1.063.693.693 0 0 1-.534-.093.688.688 0 0 1-.298-.453 3.636 3.636 0 0 1-.143-.933v-2.446h.027Zm-4.37-.068c.614-.102 1.057-.184 1.507-.246a1.4 1.4 0 0 1 .532 0 .464.464 0 0 1 .245.287.43.43 0 0 1-.129.347 2.901 2.901 0 0 1-1.426.361c-.559.041-.756 0-.681.852 0 .538.075 1.083.095 1.621.007.182-.014.363-.061.539a.365.365 0 0 1-.396.293.473.473 0 0 1-.429-.28 1.064 1.064 0 0 1-.069-.395c-.088-1.989-.184-3.972-.252-5.962-.034-.797.239-1.206 1.002-1.362.969-.212 1.957-.321 2.939-.47a.892.892 0 0 1 .273 0 .403.403 0 0 1 .368.34.353.353 0 0 1-.259.416c-.443.102-.886.17-1.364.238-.477.068-.9.068-1.363.157a.83.83 0 0 0-.326.095.808.808 0 0 0-.411.866c.068.736.137 1.444.205 2.303Zm-7.808-.573c.061.859.123 1.895.211 2.93.062.736.103.763.805.797.45 0 .9 0 1.364.075.233.023.462.076.682.157a.373.373 0 0 1 .238.436.447.447 0 0 1-.361.354.848.848 0 0 1-.266 0l-2.298-.163a.92.92 0 0 1-.927-.825 8.988 8.988 0 0 1-.191-1.471c-.048-1.581-.062-3.162-.082-4.77a.749.749 0 0 1 .171-.633.487.487 0 0 1 .334-.164.397.397 0 0 1 .286.218c.054.223.08.452.075.681a51.643 51.643 0 0 0-.041 2.378Zm5.142 1.118v2.984c.013.179.013.359 0 .538a.355.355 0 0 1-.375.314.436.436 0 0 1-.423-.28 1.09 1.09 0 0 1-.075-.395 782.208 782.208 0 0 1-.205-6.5.859.859 0 0 1 .15-.64.682.682 0 0 1 .341-.157.263.263 0 0 1 .19.051c.055.04.092.1.103.167.036.131.055.266.055.402.055 1.172.109 2.344.157 3.516h.082Zm-1.398-16.516c.073.096.137.198.191.307a.29.29 0 0 1-.103.361 4.611 4.611 0 0 1-.463.265 10.98 10.98 0 0 0-3.921 3.067c-.16.285-.396.521-.682.681a.409.409 0 0 1-.361-.041.536.536 0 0 1-.13-.354.685.685 0 0 1 .136-.375 10.808 10.808 0 0 1 4.705-3.754c.204-.074.414-.126.628-.157Zm-69.913-28.14c.023.268-.047.535-.197.757a.273.273 0 0 1-.103.068.253.253 0 0 1-.122.013.232.232 0 0 1-.164-.17c.008-.31.033-.619.075-.927a.221.221 0 0 1 .106-.155.22.22 0 0 1 .187-.015c.077.034.14.095.177.17a.655.655 0 0 1 .041.259Zm-.948 12.673.812.177a.142.142 0 0 1 .102.082.139.139 0 0 1 .01.067.16.16 0 0 1-.023.063c-.035.068-.103.184-.15.177-.26 0-.519-.082-.778-.13-.259-.047-.368-.081-.279-.306.027-.082.218-.096.306-.13Zm1.282-7.181c-.034.204 0 .422-.245.538a.258.258 0 0 1-.307 0c-.034-.306.171-.538.252-.804.259-.088.382-.02.3.266Zm-2.229 3.182a1.865 1.865 0 0 1-.355-.123.283.283 0 0 1-.073-.098.275.275 0 0 1-.022-.12c0-.054.095-.15.15-.15a.826.826 0 0 1 .811.286c-.15.116-.354.103-.511.205Z"/>
  <path fill="#FDEAFF" d="m244.15 135.299-.3-.293a.418.418 0 0 1 .198-.436.307.307 0 0 1 .225-.041.327.327 0 0 1 .116.211.557.557 0 0 1-.239.559Zm-3.845-4.109a.456.456 0 0 1-.328-.388.442.442 0 0 1 .103-.354c.102-.075.238 0 .313.136.075.136.13.232.191.347l-.034.096a.488.488 0 0 1-.15.136l-.095.027Z"/>
  <path fill="#FDEAFF" d="M240.605 130.932c.071.05.135.109.19.177a.338.338 0 0 1 .055.245c-.089.15-.232.095-.348 0a.945.945 0 0 1-.177-.191.141.141 0 0 0 .143-.061l.068-.055a.14.14 0 0 0 .048-.049.155.155 0 0 0 .021-.066Zm3.804 16.57c-.122.143-.225.068-.266-.061a.453.453 0 0 1 .185-.545c.231.177.19.381.081.606Z"/>
  <path fill="#FDEAFF" d="m244.409 147.502-.081-.606c.095-.157.245-.293.327 0 .082.293.075.49-.246.606Zm-3.573-12.23c.164.047.225.157.048.231a.349.349 0 0 1-.45-.103.342.342 0 0 1-.061-.155.3.3 0 0 1 .238-.093.3.3 0 0 1 .225.12Zm4.071 6.507c0 .218-.116.354-.32.313-.205-.041-.232-.238-.137-.416a.91.91 0 0 1 .164-.197c.177.027.198.204.293.3Zm-.211-.511c0-.266.198-.416.423-.246.225.171.068.382-.116.525-.212 0-.232-.184-.307-.279Zm-4.296-.627c.136 0 .205.075.205.218a.268.268 0 0 1-.048.347.628.628 0 0 1-.498-.511.302.302 0 0 1 .341-.054Zm1.521-2.16c.122-.184.334-.157.511-.204-.014.463-.307.218-.511.204Z"/>
  <path fill="#FDEAFF" d="m244.696 141.268.307.279a.403.403 0 0 1-.075.232l-.294-.3a.282.282 0 0 1 .062-.211Zm-4.139-.048.048-.348c.097.059.186.13.266.212a.248.248 0 0 1-.041.211c-.103.088-.225.027-.273-.075Zm.279-5.948h-.463c-.123-.239-.034-.327.197-.246.103.021.178.164.266.246Zm-.436 5.369-.341.054c-.041-.102-.143-.225 0-.286.143-.061.266.116.341.232Zm3.198-4.831h.307c-.068.095-.164.272-.212.259-.047-.014-.156-.13-.095-.259Zm9.198 11.815.648.224v.116a.122.122 0 0 1-.068.102 1.291 1.291 0 0 1-1.009-.122v-.109c0-.034.034-.089.068-.102l.361-.109Zm3.348-12.435c-.034.082-.054.17-.088.245-.034.075-.062.075-.089.075-.027 0-.109 0-.116-.054a1.805 1.805 0 0 1-.122-1.138s.075-.048.109-.055c.034-.007.109 0 .129 0 .225.246.137.593.177.927Zm-6.941 14.751c.198.067.392.147.58.239a.246.246 0 0 1 .076.096c.016.038.023.08.019.122a.302.302 0 0 1-.205.136.612.612 0 0 1-.613-.143.339.339 0 0 1-.062-.239c.014-.068.11-.116.205-.211Zm3.839-11.726c-.061.048-.13.13-.198.13a.468.468 0 0 1-.261-.04.468.468 0 0 1-.196-.178.43.43 0 0 1 0-.246.136.136 0 0 1 .103-.075.686.686 0 0 1 .572.28l-.02.129Zm2.516 1.397a.862.862 0 0 1 .143-.62c.088-.081.19-.145.3-.191 0 .075.096.15.096.225a1.042 1.042 0 0 1-.307.838.496.496 0 0 1-.232-.252Zm-3.034 2.664a.869.869 0 0 1-.641-.443.193.193 0 0 1-.05-.121.199.199 0 0 1 .144-.201.197.197 0 0 1 .131.009c.305.078.569.271.736.538-.048.157-.204.157-.32.218Zm.688 3.611a3.459 3.459 0 0 1-.381 0c-.035 0-.103-.061-.096-.075.007-.014.048-.191.102-.211a1 1 0 0 1 .791 0c0 .334-.15.402-.416.286Z"/>
  <path fill="#FDEAFF" d="m253.212 145.887.416-.259c.121.037.237.085.348.143a.286.286 0 0 1 .102.218c0 .164-.156.171-.279.164a.846.846 0 0 1-.587-.266Zm3.492-2.187c.15.116.245.279.122.436-.122.157-.3.109-.443 0l-.191-.17a.431.431 0 0 1 .157-.191.417.417 0 0 1 .232-.088l.123.013Z"/>
  <path fill="#FDEAFF" d="M256.192 143.952c-.191-.122-.164-.286-.041-.429.123-.143.239-.061.355 0 .071.051.137.108.198.17l-.103.089a.349.349 0 0 0-.238.109.23.23 0 0 1-.171.061Zm-.634-4.34.232.252c0 .13-.102.245-.212.184-.109-.061-.102-.286-.02-.436Zm-3.034 2.664.32-.218c.15.061.198.177.048.252-.15.075-.246-.02-.368-.034Zm-17.974-1.226a2.098 2.098 0 0 1-.437.92.302.302 0 0 1-.239.068.305.305 0 0 1-.129-.212 1.199 1.199 0 0 1 .409-.94.265.265 0 0 1 .113-.055.268.268 0 0 1 .126.001c.075.02.075.129.157.218Zm5.216 7.801c0 .048 0 .225-.041.402-.041.177-.082.164-.191.102a.532.532 0 0 1-.205-.15 1.08 1.08 0 0 1-.034-.783.416.416 0 0 1 .225-.293c.287-.082.212.177.246.327.007.132.007.264 0 .395Zm-2.482-3.849c-.355-.137-.798-.109-.955-.566a.13.13 0 0 1-.013-.055.13.13 0 0 1 .013-.054c.491-.225.805.123 1.159.354 0 0 0 .075.041.123a.904.904 0 0 1-.245.198Zm-.771 1.975c.648.382.859.627.634.682-.388.143-.613-.15-.859-.368 0 0 0-.082-.034-.123-.034-.041.143-.116.259-.191Zm-2.911-3.406a.368.368 0 0 1-.334-.348c0-.041.129-.116.204-.116.225 0 .314.123.287.321.027.054-.103.102-.157.143Z"/>
  <path fill="#FDEAFF" d="m237.284 145.002.259-.198c.055.252-.075.259-.259.198Zm-.771 1.975-.259.225c-.102-.265-.013-.334.259-.225Zm14.04 8.374c-.395 0-.505-.143-.539-.327a.39.39 0 0 1 .232-.443c.221-.078.45-.131.682-.156.846-.143 1.691-.307 2.544-.416a2.83 2.83 0 0 0 1.922-1.104c.281-.347.579-.679.894-.995.133-.119.291-.208.463-.258.191-.055.334.068.45.224a.288.288 0 0 1 0 .375 55.657 55.657 0 0 1-1.745 1.887 1.944 1.944 0 0 1-1.064.58c-1.33.231-2.673.442-3.839.633Zm-13.446-1.764c.265.252.593.17.893.149a7.02 7.02 0 0 1 2.264.205c.307.079.577.262.763.518.062.115.116.265 0 .374a1.122 1.122 0 0 1-.327.212.342.342 0 0 1-.259 0 5.21 5.21 0 0 0-2.728-.471 2.797 2.797 0 0 1-1.984-.681 1.107 1.107 0 0 1-.266-.3.429.429 0 0 1 0-.504.343.343 0 0 1 .484-.061c.362.15.675.511 1.16.559Zm10.262.04c-.062.089-.123.273-.205.287-.824.161-1.633.389-2.42.681a.356.356 0 0 1-.253 0 .755.755 0 0 1-.232-.293.237.237 0 0 1 .062-.232c.838-.497 1.677-1.008 2.727-.811.184-.006.28.15.321.368Zm-104.17 3.686c1.057-.143 1.984-.306 2.925-.395a21.523 21.523 0 0 1 6.335.518c.3.061.682.068.859.347a.746.746 0 0 1 .123.362c0 .163-.143.224-.266.252a3.008 3.008 0 0 1-1.207-.13 22.882 22.882 0 0 0-5.66-.463 15.85 15.85 0 0 0-2.413.375c-.628.129-.682.272-.607.967.293 2.556.874 5.07 1.732 7.495.075.22.121.449.136.681a.269.269 0 0 1-.043.191.27.27 0 0 1-.162.109.469.469 0 0 1-.381-.054 1.648 1.648 0 0 1-.362-.552c-.266-.722-.538-1.438-.736-2.181-.576-1.93-.97-3.91-1.18-5.914-.341-.218-.6-.041-.825.062a17.318 17.318 0 0 0-5.803 3.931 25.885 25.885 0 0 0-3.102 3.584.839.839 0 0 1-.293.259.342.342 0 0 1-.259 0 .285.285 0 0 1-.219-.3c.003-.133.031-.265.082-.388a3.39 3.39 0 0 1 .355-.579c2.448-3.21 5.264-5.962 9.123-7.441.212-.082.416-.184.621-.279.051-.037.099-.078.143-.123v-1.437a25.439 25.439 0 0 1 1.18-8.286.969.969 0 0 1 .115-.238.327.327 0 0 1 .08-.108.348.348 0 0 1 .377-.056.392.392 0 0 1 .205.3 8.98 8.98 0 0 1-.177 1.199c-.4 1.726-.667 3.48-.798 5.247a15.733 15.733 0 0 0 .102 3.045Zm88.078 118.303a.683.683 0 0 1-.137.49c-.327.434-.7.831-1.111 1.186a102.65 102.65 0 0 0-7.071 7.14 20.498 20.498 0 0 0-3.348 4.77 2.29 2.29 0 0 1-.375.559.593.593 0 0 1-.628.149.52.52 0 0 1-.375-.504.83.83 0 0 1 .314-.845c.227-.152.406-.364.518-.613a23.44 23.44 0 0 1 3.894-5.205c2.127-2.283 4.357-4.477 6.621-6.623.334-.304.69-.584 1.063-.838.205-.15.607.082.635.334Zm16.651-4.347c0-.294.016-.587.048-.879a.418.418 0 0 1 .354-.361.435.435 0 0 1 .532.306c.079.352.127.71.143 1.07a43.68 43.68 0 0 0 .682 5.233 58.796 58.796 0 0 0 3.239 9.9c.184.463.355.926.498 1.403a.438.438 0 0 1-.259.559.452.452 0 0 1-.594-.17 6.195 6.195 0 0 1-.518-.954 61.885 61.885 0 0 1-3.464-10.398 50.216 50.216 0 0 1-.661-5.709Zm-23.047 6.909a.428.428 0 0 1-.375-.504c.068-.213.169-.413.3-.593a27.616 27.616 0 0 0 4.343-8.537c.082-.256.189-.503.321-.736a.495.495 0 0 1 .6-.191.474.474 0 0 1 .375.504 4.964 4.964 0 0 1-.273 1.179 53.47 53.47 0 0 1-2.257 5.076 21.844 21.844 0 0 1-2.387 3.454c-.177.212-.375.443-.647.348Zm24.302 6.33a.448.448 0 0 1 .456.224c.287.566.526 1.145.826 1.704.9 1.662 1.82 3.318 2.727 4.98.158.275.297.559.416.852a.444.444 0 0 1-.191.579.518.518 0 0 1-.627-.095 2.846 2.846 0 0 1-.43-.518 72.744 72.744 0 0 1-3.409-6.602 1.748 1.748 0 0 1-.15-.648.493.493 0 0 1 .382-.476ZM95.134 258.814c.082 3.711.162 7.42.239 11.126a8.07 8.07 0 0 1-.041 1.22.331.331 0 0 1-.143.221.333.333 0 0 1-.26.045c-.115 0-.286-.116-.306-.212a4.205 4.205 0 0 1-.123-.926c-.096-4.161-.189-8.322-.28-12.482a7288.62 7288.62 0 0 1-.238-10.452v-.947a.463.463 0 0 1 .388-.484c.26 0 .41.163.444.415.027.227.041.454.04.682l.3 11.801-.02-.007Zm-5.182 19.602a2.223 2.223 0 0 1-1.187-.197.363.363 0 0 1-.163-.341.28.28 0 0 1 .259-.266 3.17 3.17 0 0 1 .681-.041 6.442 6.442 0 0 0 5.496-2.418c.136-.18.303-.334.491-.457a.44.44 0 0 1 .375.061c.089.069.191.252.164.334a2.738 2.738 0 0 1-.389.682 6.88 6.88 0 0 1-5.727 2.643Zm98.898-42.039c-.143 1.88-.681 3.407-2.106 4.524a2.544 2.544 0 0 1-1.187.607.584.584 0 0 1-.682-.368.513.513 0 0 1 .191-.6c.107-.08.224-.147.348-.198 1.582-.817 2.134-2.228 2.209-3.897 0-.313-.054-.627-.054-.94a.538.538 0 0 1 .518-.518.489.489 0 0 1 .518.354c.13.389.177.784.245 1.036Zm-7.057-10.69a6.54 6.54 0 0 0-.948.068c-1.22.231-2.209.749-2.57 2.044-.15.531-.396.681-.737.62-.341-.061-.532-.443-.416-.988a2.85 2.85 0 0 1 .778-1.404 5.063 5.063 0 0 1 4.861-1.362c.172.045.33.129.464.245a.403.403 0 0 1 .16.212.401.401 0 0 1-.003.265.48.48 0 0 1-.375.354c-.179.017-.36.017-.539 0-.177.014-.354-.02-.675-.054ZM28.699 409.174c.123-.293.368-.293.498-.075a2.727 2.727 0 0 0 1.684 1.417.353.353 0 0 1 .102.634 3.38 3.38 0 0 1-.539.293c1.064 1.178 2.264 2.18 3.41 3.263 1.145 1.084 2.27 2.16 3.518 3.298 0-1.226-1.766-10.731-2.966-15.984-.34-.341-.79 0-1.152-.157a.557.557 0 0 1-.266-.266.312.312 0 0 1 .225-.422 2.145 2.145 0 0 0 1.323-.573.264.264 0 0 1 .252 0c.395.314.866.171 1.302.246a.449.449 0 0 1 .416.449c0 .225-.177.293-.354.341a3.87 3.87 0 0 1-.403.034c-.382.082-.45.184-.375.559.641 3.284 1.287 6.566 1.937 9.845.43 2.167.886 4.334 1.364 6.5.048.175.087.353.116.532 0 .265.122.558-.164.742-.287.184-.593 0-.825-.238-.505-.45-1.01-.913-1.5-1.363l-5.735-5.403c-.157-.15-.327-.286-.45-.388-.286 0-.252.184-.239.3.205 1.567.423 3.134.635 4.701.081.572.115 1.185.947 1.179.075 0 .205.19.212.299a.39.39 0 0 1-.191.314c-.63.26-1.313.365-1.991.306a.488.488 0 0 1-.314-.218.289.289 0 0 1-.045-.259.294.294 0 0 1 .181-.19c.45-.15.457-.402.396-.832-.266-1.696-.464-3.406-.682-5.11-.075-.531-.163-1.063-.238-1.567-.437-.088-.791-.143-1.132-.238-.226-.062-.205-.286.047-.579-.102-.791.669-.92.996-1.39Z"/>
  <path fill="#FDEAFF" d="M26.299 410.087a56.726 56.726 0 0 0 .3 8.101c0 .225.089.443.123.681.054.354.218.566.62.545a.82.82 0 0 1 .368.157.3.3 0 0 1 0 .456.911.911 0 0 1-.225.144 5.594 5.594 0 0 1-2.011.17.4.4 0 0 1-.26-.252c0-.109 0-.334.096-.355.56-.19.518-.585.45-1.062a42.43 42.43 0 0 1-.34-6.896v-.954c0-.32 0-.824-.553-.913-.068 0-.123-.122-.177-.19-.055-.068 0-.525.211-.525h1.896a.4.4 0 0 1 .245.089c.136.109.293.211.252.436a.33.33 0 0 1-.266.259c-.21.047-.436.068-.73.109Zm2.4-.913c0 .129 0 .34-.095.368a1.108 1.108 0 0 0-.682.933c0 .034-.164.034-.253.048a1.793 1.793 0 0 0 0-.382c-.068-.402 0-.681.491-.681.246.027.382-.191.54-.286Zm211.818-278.099-.069.055-.014-.082.083.027Zm15.846 12.823c0-.178.123-.157.24-.109l-.24.109Z"/>
</svg>
